<svg width="2958" height="1995" viewBox="0 0 2958 1995" fill="none" xmlns="http://www.w3.org/2000/svg">
<path d="M1479 20.9658H2850.46C2861.96 20.9658 2873.34 23.132 2883.96 27.3405C2894.58 31.549 2904.23 37.7176 2912.36 45.494C2920.49 53.2703 2926.94 62.5022 2931.34 72.6626C2935.74 82.8229 2938 93.7127 2938 104.71V1891.26C2938 1902.25 2935.74 1913.14 2931.34 1923.3C2926.94 1933.46 2920.49 1942.7 2912.36 1950.47C2904.23 1958.25 2894.58 1964.42 2883.96 1968.63C2873.34 1972.83 2861.96 1975 2850.46 1975H1479M1479 20.9658H107.54C84.3229 20.9658 62.0568 29.7889 45.6399 45.494C29.2229 61.1991 20 82.4998 20 104.71V1891.26C20 1913.47 29.2229 1934.77 45.6399 1950.47C62.0568 1966.18 84.3229 1975 107.54 1975H1479M1479 20.9658V1975" stroke="black" stroke-width="40"/>
<path d="M20 1695.85C213.475 1695.85 399.027 1622.33 535.834 1491.45C672.642 1360.57 749.5 1183.07 749.5 997.983C749.5 812.896 672.642 635.39 535.834 504.514C399.027 373.639 213.475 300.113 20 300.113M2938 1695.85C2744.52 1695.85 2558.97 1622.33 2422.17 1491.45C2285.36 1360.57 2208.5 1183.07 2208.5 997.983C2208.5 812.896 2285.36 635.39 2422.17 504.514C2558.97 373.639 2744.52 300.113 2938 300.113M1479 1416.7C1362.91 1416.7 1251.58 1372.59 1169.5 1294.06C1087.41 1215.54 1041.3 1109.03 1041.3 997.983C1041.3 886.931 1087.41 780.427 1169.5 701.902C1251.58 623.376 1362.91 579.261 1479 579.261C1595.09 579.261 1706.42 623.376 1788.5 701.902C1870.59 780.427 1916.7 886.931 1916.7 997.983C1916.7 1109.03 1870.59 1215.54 1788.5 1294.06C1706.42 1372.59 1595.09 1416.7 1479 1416.7Z" stroke="black" stroke-width="40" stroke-linecap="round" stroke-linejoin="round"/>
</svg>
