<svg width="123" height="123" viewBox="0 0 123 123" fill="none" xmlns="http://www.w3.org/2000/svg">
<g clip-path="url(#clip0_38_1017)">
<path d="M61.5304 123C27.5763 123 0 95.4237 0 61.5304C0.00952138 45.2144 6.49522 29.5695 18.0323 18.0323C29.5695 6.49522 45.2144 0.00952138 61.5304 0C95.4237 0 123 27.5763 123 61.5304C122.981 77.8274 116.499 93.4515 104.975 104.975C93.4515 116.499 77.8274 122.981 61.5304 123Z" fill="#E03A3E"/>
<path d="M61.5311 120.206C49.9261 120.206 38.5818 116.765 28.9327 110.317C19.2835 103.87 11.7629 94.7063 7.32191 83.9847C2.88089 73.2632 1.71892 61.4655 3.98293 50.0835C6.24694 38.7016 11.8352 28.2466 20.0412 20.0407C28.2471 11.8348 38.7021 6.24645 50.084 3.98244C61.466 1.71843 73.2637 2.8804 83.9852 7.32142C94.7068 11.7624 103.871 19.283 110.318 28.9322C116.765 38.5813 120.207 49.9256 120.207 61.5306C120.207 93.8446 93.8451 120.206 61.5311 120.206Z" fill="white"/>
<path d="M61.5298 117.351C50.4895 117.351 39.6971 114.077 30.5174 107.943C21.3377 101.81 14.1831 93.0918 9.95811 82.8919C5.73317 72.692 4.62773 61.4683 6.78159 50.6402C8.93545 39.812 14.2519 29.8657 22.0585 22.059C29.8652 14.2523 39.8115 8.93593 50.6397 6.78208C61.4678 4.62822 72.6915 5.73366 82.8914 9.9586C93.0913 14.1835 101.809 21.3382 107.943 30.5179C114.077 39.6976 117.351 50.4899 117.351 61.5302C117.339 76.3313 111.454 90.5229 100.988 100.989C90.5224 111.455 76.3308 117.34 61.5298 117.351Z" fill="#E03A3E"/>
<path d="M41.6073 14.3348L42.6399 16.7645L39.6636 15.1852L37.9629 15.9748L41.4251 23.8104L43.1258 23.0815L40.9392 18.1008L43.9762 19.7408L45.0696 22.2311L46.7703 21.5023L43.2473 13.606L41.6073 14.3348Z" fill="white"/>
<path d="M78.1141 12.9988L76.8386 17.0684L74.7734 16.4003L76.1097 12.3914L74.3482 11.8447L73.0726 15.8536L72.4652 15.6714L72.7082 16.8862L71.7363 20.0447L73.4978 20.5914L74.2874 17.9795L76.3526 18.6477L75.5023 21.2595L77.2637 21.8062L79.8756 13.6062L78.1141 12.9988Z" fill="white"/>
<path d="M106.723 37.0518C106.419 36.5052 106.054 36.0192 105.751 35.4726C104.489 36.1853 103.142 36.7363 101.742 37.1126L101.013 35.9585L104.597 33.7111L103.625 32.1318L100.041 34.44L99.6767 33.8933L99.13 34.9867L96.3359 36.8089L97.3078 38.3274L99.6159 36.8696L100.527 38.2059C99.9058 38.9216 99.2139 39.5728 98.4619 40.1496C98.8263 40.6355 99.13 41.1822 99.4944 41.6681C100.041 41.2429 101.742 39.7244 102.106 38.8133C103.723 38.4554 105.278 37.8619 106.723 37.0518Z" fill="white"/>
<path d="M109.03 42.0933C107.744 42.1288 106.481 42.4395 105.325 43.0044L104.839 47.4992C104.475 47.6207 104.11 47.6814 103.746 47.8029L102.956 45.9199L103.624 45.6162L102.956 43.9155L100.77 44.7659C100.77 44.7659 102.652 49.5036 102.713 49.7466C104.066 49.6709 105.389 49.3195 106.601 48.714L107.026 44.2799C107.342 44.1705 107.667 44.0892 107.998 44.037L108.727 45.9199L108.119 46.2236L108.787 47.9244L110.913 47.074C110.913 47.074 109.152 42.4577 109.03 42.0933Z" fill="white"/>
<path d="M16.2793 37.1736L17.6763 38.024L18.7089 36.3232L24.7223 39.9677L25.6334 38.3884L19.6808 34.744L20.7134 33.0432L19.3163 32.1929L16.2793 37.1736Z" fill="white"/>
<path d="M47.9258 12.0267L48.2902 13.606L50.2339 13.1808L51.8132 19.9838L53.5747 19.5586L52.0561 12.7556L53.9999 12.3304L53.6354 10.6904L47.9258 12.0267Z" fill="white"/>
<path d="M23.5078 27.0903L22.293 28.4266L28.6707 34.2577L31.647 30.9777L30.4322 29.8844L28.6707 31.7674L23.5078 27.0903Z" fill="white"/>
<path d="M14.7601 44.8878L15.1853 43.673C16.0708 43.7409 16.9464 43.9038 17.7971 44.1589L17.0683 46.1633C16.244 45.8461 15.4673 45.4169 14.7601 44.8878ZM22.5349 43.9159L18.5868 42.5189C17.1222 42.0246 15.5712 41.8385 14.0312 41.9722C14.0312 42.033 12.8771 45.313 12.8164 45.4952C13.8713 46.5225 15.1069 47.3461 16.4609 47.9248L16.2179 48.4715L17.4327 48.2892L20.5305 49.3826L21.1379 47.6818L18.5868 46.7707L19.3157 44.7055L21.8668 45.6774L22.5349 43.9159Z" fill="white"/>
<path d="M85.828 18.2833L86.9213 18.8907C86.7288 19.7573 86.4224 20.5947 86.0102 21.381L84.1273 20.3484C84.6079 19.5933 85.1791 18.8998 85.828 18.2833ZM85.4028 26.0581L87.468 22.4744C88.2284 21.1321 88.6846 19.6391 88.8043 18.101C88.7436 18.101 85.7673 16.3395 85.585 16.2788C84.3804 17.1282 83.3496 18.2004 82.548 19.4373L82.0013 19.0729V20.3484L80.3613 23.1425L81.9406 24.1144L83.3376 21.7455L85.1599 22.8388L83.8236 25.147L85.4028 26.0581Z" fill="white"/>
<path d="M31.2212 22.1705L32.1931 21.4417C32.9116 21.9691 33.5642 22.5808 34.1368 23.2639L32.4361 24.5394C31.9358 23.8024 31.5279 23.0068 31.2212 22.1705ZM38.2672 25.572L35.7161 22.292C34.7578 21.0852 33.5578 20.0921 32.1931 19.3765C32.1323 19.4372 29.399 21.5024 29.2168 21.6239C29.5535 23.0568 30.1506 24.4156 30.9783 25.6328L30.4924 26.0579L31.6464 26.4831L33.6509 29.095L35.1086 28.0016L33.4686 25.815L35.1694 24.5394L36.8094 26.7261L38.2672 25.572Z" fill="white"/>
<path d="M61.7745 14.5172H59.6486C59.6503 13.634 59.7729 12.7552 60.013 11.9053H61.2886C61.5436 12.756 61.7065 13.6317 61.7745 14.5172ZM59.6486 18.8905V16.1572H61.7745V18.8298H63.6575L63.5967 15.5498L64.2041 14.4564H63.5967C63.521 12.9802 63.1492 11.5342 62.5034 10.2046C62.3212 10.2046 58.859 10.2653 58.7982 10.2653C58.1409 11.6525 57.7888 13.1645 57.7656 14.6994L57.8264 18.8905H59.6486Z" fill="white"/>
<path d="M99.1914 26.7259L96.3973 29.5807C95.7033 30.32 94.9053 30.9544 94.0284 31.4636L93.4817 30.917C93.8839 30.0002 94.4384 29.1582 95.1217 28.4266L97.9158 25.511L96.6402 24.2355L93.8462 27.0903C93.0926 27.7789 92.256 28.3706 91.3558 28.8518L90.8091 28.3051C91.2757 27.4143 91.869 26.5959 92.5706 25.8755L95.3647 23.0207L94.0284 21.7451L91.1736 24.7214C90.1082 25.8276 89.2994 27.1549 88.8047 28.6088C88.8047 28.6696 90.9306 30.674 91.0521 30.7955C91.2951 30.7347 91.538 30.6133 91.781 30.5525C91.6595 30.7955 91.5988 31.0385 91.4773 31.2814C91.5988 31.4029 93.7247 33.4073 93.7247 33.4681C95.1862 32.9306 96.5129 32.0807 97.6121 30.9777L100.528 28.0014L99.1914 26.7259Z" fill="white"/>
<path d="M25.5112 84.6118C24.2977 84.972 23.178 85.594 22.2312 86.434L22.96 90.9288C22.5956 91.1111 22.2919 91.2933 21.9275 91.4755L20.7126 89.8355L21.2593 89.4711L20.166 88.0133L18.3438 89.3496C18.3438 89.3496 21.3808 93.4192 21.5023 93.6014C23.0208 93.1763 23.8712 92.4474 25.0252 91.597L24.2356 87.2237C24.4974 87.0264 24.7831 86.8631 25.086 86.7377L26.3008 88.3777L25.7541 88.7422L26.8475 90.2607L28.7304 88.8637C28.7304 88.8637 25.6934 84.8548 25.5112 84.6118Z" fill="white"/>
<path d="M45.1318 101.012L44.6459 102.591L46.5288 103.199L44.2207 109.82L45.9822 110.427L48.2296 103.806L50.1126 104.474L50.6592 102.895L45.1318 101.012Z" fill="white"/>
<path d="M12.7564 70.7022L14.5786 70.3377L14.9431 71.9777C14.3357 72.2207 13.7282 72.4636 13.1816 72.6459L12.7564 70.7022ZM17.9801 69.6088L18.4053 71.6133C17.7811 71.6941 17.1505 71.7145 16.5223 71.674L16.1579 70.034L17.9801 69.6088ZM20.4097 73.1318C20.349 72.7066 19.1949 67.4829 19.1949 67.4829L15.7934 68.2118L15.672 67.5436L14.7001 68.4548L10.752 69.3051C10.752 69.3051 11.906 74.4681 11.9668 74.8325C13.3946 74.575 14.7698 74.0824 16.0364 73.3748C17.4956 73.5899 18.9833 73.5073 20.4097 73.1318Z" fill="white"/>
<path d="M42.0328 101.376L42.8832 99.9186L37.9024 97.1245L36.141 100.101L35.5335 99.7971L35.5943 101.133L33.5898 104.596L38.5706 107.45L39.3602 105.993L36.0195 104.049L36.9306 102.47L38.9958 103.685L39.8461 102.227L37.7202 101.012L38.6313 99.4327L42.0328 101.376Z" fill="white"/>
<path d="M95.7883 96.4563L96.2135 97.003L94.695 98.4L91.1113 94.3911L92.5083 93.1763C92.7052 93.3209 92.8883 93.4836 93.055 93.6622L94.3913 92.4474C93.8211 91.8796 93.2122 91.3519 92.5691 90.8682C92.3868 91.0504 88.6816 94.4519 88.6816 94.4519L94.452 100.83L98.7039 96.9422L97.1246 95.2415L95.7883 96.4563Z" fill="white"/>
<path d="M73.2537 102.47L71.4922 102.956L73.7396 111.277L78.0522 110.123L77.627 108.544L75.0759 109.212L73.2537 102.47Z" fill="white"/>
<path d="M20.8358 79.0237L21.3824 80.1778C20.7326 80.773 19.9951 81.2647 19.1958 81.6356L18.2847 79.6919C19.1058 79.3698 19.9621 79.1455 20.8358 79.0237ZM15.9765 85.1586L19.8032 83.3971C21.1881 82.7396 22.4115 81.7857 23.3869 80.603C23.3869 80.5423 21.9291 77.3837 21.8684 77.2015C20.3881 77.1898 18.9208 77.4791 17.5558 78.0519L17.2521 77.4445L16.5232 78.4771L13.5469 79.8741L14.3365 81.5141L16.8269 80.4208L17.6772 82.3037L15.2476 83.4578L15.9765 85.1586Z" fill="white"/>
<path d="M54.0593 110.548L54.3023 108.665L55.9423 108.908C56.003 109.516 56.003 110.184 56.003 110.791L54.0593 110.548ZM54.7275 105.203L56.7319 105.507C56.6142 106.112 56.4309 106.703 56.1853 107.268L54.4845 107.086L54.7275 105.203ZM58.7971 104.11C58.4327 104.049 53.1482 103.381 53.1482 103.381L52.6623 106.843L52.0549 106.722L52.5408 107.936L51.9941 111.885C51.9941 111.885 57.2786 112.613 57.643 112.674C57.8557 111.224 57.8557 109.751 57.643 108.301C58.3719 107.025 58.6149 105.871 58.7971 104.11Z" fill="white"/>
<path d="M109.82 72.8284L107.998 72.4032L108.362 70.8239C109.03 70.8239 109.638 70.8239 110.245 70.8847L109.82 72.8284ZM104.596 71.6743L105.021 69.7306C105.634 69.8792 106.226 70.1036 106.783 70.3988L106.418 72.0995L104.596 71.6743ZM103.867 67.5439C103.746 67.9084 102.592 73.1321 102.592 73.1321L106.054 73.861L105.872 74.5291L107.147 74.1039L111.035 74.9543C111.035 74.9543 112.189 69.7914 112.25 69.4269C110.844 69.0573 109.385 68.934 107.937 69.0625C106.722 68.2121 105.629 67.9084 103.867 67.5439Z" fill="white"/>
<path d="M64.5083 105.689L65.7839 105.568C66.1193 106.384 66.344 107.242 66.452 108.119L64.3261 108.301C64.2677 107.426 64.329 106.547 64.5083 105.689ZM68.6994 112.31L68.335 108.119C68.1416 106.59 67.6238 105.119 66.8165 103.806C66.8165 103.806 63.2935 104.171 63.172 104.171C62.6594 105.548 62.4321 107.015 62.5039 108.483L61.8965 108.544L62.6254 109.577L62.9291 112.857L64.7513 112.674L64.5083 109.941L66.6343 109.759L66.8772 112.431L68.6994 112.31Z" fill="white"/>
<path d="M95.8492 86.8594L94.7559 88.3171L101.68 93.4801L104.353 89.8964L103.017 88.9246L101.498 90.9897L95.8492 86.8594Z" fill="white"/>
<path d="M80.3607 99.7363L78.7207 100.526L82.4866 108.301L86.4955 106.357L85.7666 104.839L83.3977 105.993L80.3607 99.7363Z" fill="white"/>
<path d="M100.708 78.4771L104.353 80.1171C105.275 80.5173 106.134 81.0493 106.904 81.6964L106.297 82.9719C105.309 82.8265 104.348 82.5401 103.442 82.1216L99.7972 80.4816L99.0684 82.1216L102.834 83.8223C104.25 84.444 105.783 84.7547 107.329 84.7334C107.329 84.6727 108.787 81.4534 108.848 81.2712C107.872 80.0884 106.649 79.1346 105.264 78.4771L101.437 76.7764L100.708 78.4771Z" fill="white"/>
<path d="M35.3525 95.3024C34.8666 94.8773 34.4414 94.4521 33.9555 94.0269C32.9496 95.0696 31.805 95.9689 30.554 96.6995L29.5821 95.7884L32.3762 92.6299L31.0399 91.415L28.1851 94.5736L27.6992 94.1484L27.4562 95.3632L25.2695 97.7928L26.6058 99.0076L28.4888 97.0032L29.6429 98.0358C29.2284 98.8741 28.7619 99.6855 28.2458 100.465C28.671 100.891 29.0962 101.255 29.5821 101.68C30.0073 101.073 31.2829 99.1898 31.3436 98.218C32.8087 97.4369 34.158 96.4556 35.3525 95.3024Z" fill="white"/>
<path d="M99.6163 61.5305C99.6103 69.0689 97.3691 76.4362 93.176 82.7008C88.9829 88.9654 83.0263 93.8459 76.0594 96.7252C69.0925 99.6045 61.4283 100.353 54.0359 98.8766C46.6436 97.4 39.855 93.7645 34.5288 88.4298C29.2026 83.0951 25.578 76.3008 24.1132 68.9061C22.6484 61.5114 23.4093 53.8484 26.2997 46.8861C29.1901 39.9238 34.0801 33.975 40.3513 29.7919C46.6226 25.6088 53.9935 23.3793 61.5319 23.3853C71.637 23.4048 81.3218 27.4319 88.4615 34.583C95.6012 41.7341 99.6129 51.4253 99.6163 61.5305Z" fill="white"/>
<path d="M61.5299 89.4104C57.8399 89.4222 54.1853 88.6915 50.7835 87.2619C47.3817 85.8323 44.3023 83.733 41.7284 81.089C56.0632 73.6786 65.0529 75.6223 65.0529 77.0801C65.0529 78.5378 62.8054 81.9393 62.8054 81.9393C74.5284 80.2993 83.0321 73.2534 83.0321 63.7171C83.0321 54.2415 74.164 49.6253 71.9166 48.2282C69.4869 46.7097 70.5803 44.6445 62.6232 41.6682C57.764 39.846 50.961 38.0238 48.2884 37.3556C51.9959 35.3408 56.1145 34.1992 60.3303 34.0181C64.546 33.837 68.7474 34.6212 72.614 36.3107C76.4806 38.0002 79.9102 40.5504 82.6414 43.7669C85.3725 46.9834 87.3329 50.7812 88.3732 54.8706C89.4134 58.96 89.506 63.2329 88.6437 67.3635C87.7815 71.494 85.9873 75.3731 83.398 78.7049C80.8087 82.0366 77.4926 84.7329 73.7028 86.5883C69.913 88.4436 65.7495 89.4088 61.5299 89.4104ZM61.5299 26.1793C55.9959 26.1644 50.5356 27.4481 45.588 29.9272C40.6403 32.4063 36.3433 36.0116 33.0425 40.4534C33.9536 40.7571 35.7758 41.243 37.9625 41.9112C41.4247 42.9438 52.9654 46.2845 55.1521 47.0134C61.4691 49.0178 63.1091 49.8075 64.9314 51.7512C67.093 53.9525 69.4743 55.9268 72.038 57.643C74.6499 59.526 75.9254 61.5304 75.9254 64.7497C75.9254 67.9082 73.4958 70.5808 71.9773 71.5527C71.9773 71.5527 72.524 69.9734 71.7951 69.3053C71.0662 68.6371 68.6973 67.3615 62.7447 67.7867C56.7921 68.2119 48.8351 71.1275 43.4291 73.9823C43.4291 73.9823 46.041 69.9127 49.8677 68.0904C49.8677 68.0904 46.7091 68.0904 28.9121 75.8653C31.4631 81.7469 35.5575 86.829 40.7615 90.5734C45.9655 94.3177 52.0854 96.5847 58.4728 97.1344C64.8603 97.684 71.2775 96.4958 77.0446 93.6955C82.8118 90.8953 87.7142 86.5873 91.2325 81.2279C94.7509 75.8685 96.7541 69.6573 97.0301 63.2522C97.306 56.8471 95.8444 50.4866 92.8001 44.8445C89.7558 39.2023 85.242 34.4887 79.7371 31.2028C74.2321 27.9169 67.9409 26.1811 61.5299 26.1793Z" fill="#E03A3E"/>
<path d="M61.2263 52.4802C59.8004 52.5423 58.3813 52.2502 57.0959 51.6298C55.0307 50.5365 51.8722 48.2283 49.0781 50.7794C49.0781 50.7794 51.3863 50.4757 51.2041 51.0831C51.0218 51.7513 50.7789 55.2742 53.9981 56.6105C57.1566 58.0076 60.8618 56.975 61.2263 52.4802Z" fill="#E03A3E"/>
</g>
<defs>
<clipPath id="clip0_38_1017">
<rect width="123" height="123" fill="white"/>
</clipPath>
</defs>
</svg>
