<svg width="123" height="162" viewBox="0 0 123 162" fill="none" xmlns="http://www.w3.org/2000/svg">
<g clip-path="url(#clip0_38_1028)">
<path d="M17.9875 141.221C17.9875 142.112 17.913 143.745 16.0489 144.338C15.439 144.488 14.8129 144.563 14.1848 144.561H12.6935V134.839H14.9304C16.1234 134.914 17.391 134.914 17.7638 136.027C17.8728 136.516 17.9475 137.012 17.9875 137.511V141.221ZM12.7681 147.158H14.3339C16.3471 147.232 18.0621 147.455 18.7332 149.162C18.881 149.769 18.9561 150.392 18.9569 151.017V155.025C18.9569 156.954 18.8077 157.845 18.0621 158.438C17.6147 158.809 17.0928 158.958 15.676 159.032H12.7681V147.158ZM20.299 146.49C19.8602 146.124 19.3536 145.847 18.8077 145.674C19.6644 145.218 20.3069 144.445 20.5973 143.522C20.7635 142.867 20.8387 142.193 20.821 141.518V137.214C20.7464 136.027 20.6718 134.691 19.7771 133.726C19.3055 133.244 18.7351 132.868 18.1046 132.625C17.4741 132.382 16.7984 132.277 16.1234 132.316H10.3074C10.1801 132.329 10.0626 132.39 9.97935 132.487C9.89606 132.584 9.85335 132.709 9.86006 132.836V161.258C9.86006 161.555 10.0092 161.778 10.3074 161.778H16.2726C17.7339 161.839 19.167 161.364 20.299 160.442C21.6412 159.18 21.8649 157.696 21.8649 156.063V151.166C21.8649 149.533 21.8649 147.752 20.299 146.49Z" fill="black"/>
<path d="M32.5274 138.178V142.631C32.5274 143.225 32.5274 144.486 31.1107 144.932C30.6177 145.146 30.0825 145.248 29.5448 145.228H26.3386V134.839H29.6194C30.2617 134.811 30.9013 134.938 31.4835 135.21C32.4528 135.73 32.4528 136.991 32.5274 138.178ZM31.7072 147.529C31.9309 147.455 32.08 147.38 32.3037 147.306C33.0321 147.048 33.6853 146.615 34.2055 146.045C34.7257 145.476 35.0969 144.787 35.2862 144.041C35.4482 143.411 35.5235 142.762 35.5099 142.112V137.436C35.4354 136.62 35.4354 134.691 33.795 133.355C32.4528 132.316 30.9615 132.316 29.4703 132.242H23.878C23.7698 132.253 23.6703 132.306 23.6007 132.389C23.5311 132.472 23.4968 132.579 23.5051 132.687V161.184C23.4968 161.291 23.5311 161.398 23.6007 161.482C23.6703 161.565 23.7698 161.617 23.878 161.629H25.8912C25.9506 161.631 26.0099 161.621 26.0653 161.6C26.1206 161.578 26.171 161.546 26.213 161.504C26.255 161.462 26.2879 161.412 26.3095 161.357C26.3311 161.302 26.341 161.243 26.3386 161.184V147.752H28.7246L33.795 161.332C33.8293 161.422 33.8908 161.498 33.971 161.552C34.0512 161.605 34.146 161.632 34.2423 161.629H36.3301C36.4462 161.621 36.5555 161.572 36.6378 161.49C36.72 161.408 36.7697 161.299 36.7775 161.184C36.7775 161.035 36.7775 160.961 36.703 160.887L31.7072 147.529Z" fill="black"/>
<path d="M40.0584 138.55C40.0584 136.917 40.5058 135.804 41.5497 135.136C42.1179 134.742 42.7957 134.534 43.4883 134.542C44.0908 134.526 44.6856 134.68 45.2033 134.987C45.6678 135.254 46.0535 135.638 46.3218 136.101C46.8437 137.14 46.9928 138.475 46.9928 140.702V154.579C46.9183 156.063 46.8437 157.696 45.5016 158.66C44.9577 159.109 44.269 159.346 43.5629 159.328C42.9048 159.367 42.2507 159.202 41.6902 158.857C41.1296 158.512 40.6899 158.002 40.4312 157.399C40.1675 156.382 40.0669 155.33 40.1329 154.282L40.0584 138.55ZM47.5148 133.058C46.3475 132.283 44.9649 131.894 43.5629 131.945H43.4138C40.6549 131.945 38.418 133.355 37.6723 135.655C37.3847 136.622 37.2095 137.618 37.1504 138.624V155.098C37.225 156.657 37.2995 158.438 38.5671 160.07C39.9838 161.777 42.3699 162 43.3392 162C46.8437 162 48.2604 160.145 48.7078 159.328C49.528 158.067 49.6026 156.805 49.6771 155.321V139.663C49.7517 137.362 49.7517 134.691 47.5148 133.058Z" fill="black"/>
<path d="M54.2986 138.55C54.2986 136.917 54.746 135.804 55.7153 135.136C56.2953 134.775 56.9703 134.594 57.654 134.616C58.2835 134.564 58.9127 134.721 59.4435 135.062C59.908 135.329 60.2937 135.713 60.562 136.175C61.0839 137.14 61.1585 138.55 61.1585 140.776V154.579C61.1585 156.137 61.0839 157.77 59.7418 158.735C59.1897 159.161 58.5004 159.372 57.8031 159.328C57.1442 159.37 56.4878 159.215 55.9171 158.885C55.3463 158.555 54.8869 158.063 54.5969 157.473C54.3332 156.456 54.2325 155.404 54.2986 154.356V138.55ZM61.6804 133.058C60.541 132.284 59.1819 131.893 57.8031 131.945H57.654C54.8206 131.945 52.6582 133.355 51.838 135.655C51.5697 136.623 51.4194 137.62 51.3906 138.624V155.098C51.4652 156.731 51.4652 158.512 52.7328 160.145C54.2241 161.851 56.5355 162 57.5794 162C61.0094 162 62.5006 160.145 62.948 159.328C63.7682 158.067 63.8428 156.805 63.9174 155.395V139.663C63.9174 137.362 63.9174 134.691 61.6804 133.058Z" fill="black"/>
<path d="M71.7481 143.893L77.7132 132.687C77.7497 132.632 77.7691 132.568 77.7691 132.502C77.7691 132.436 77.7497 132.371 77.7132 132.316C77.6783 132.248 77.6248 132.191 77.5589 132.152C77.493 132.112 77.4173 132.092 77.3404 132.094H75.1035C75.0266 132.092 74.9509 132.112 74.885 132.152C74.8191 132.191 74.7656 132.248 74.7307 132.316L68.3927 144.561V132.465C68.3952 132.406 68.3853 132.347 68.3637 132.291C68.3421 132.236 68.3092 132.186 68.2672 132.144C68.2251 132.103 68.1748 132.07 68.1194 132.048C68.064 132.027 68.0048 132.017 67.9454 132.019H65.9321C65.8161 132.027 65.7068 132.077 65.6245 132.159C65.5423 132.24 65.4926 132.349 65.4847 132.465V160.961C65.4823 161.02 65.4922 161.079 65.5138 161.134C65.5354 161.19 65.5683 161.24 65.6103 161.282C65.6524 161.323 65.7027 161.356 65.7581 161.378C65.8134 161.399 65.8727 161.409 65.9321 161.406H67.8708C67.9989 161.415 68.1252 161.373 68.2227 161.289C68.3202 161.206 68.3812 161.088 68.3927 160.961V150.275L69.9586 147.307L74.8052 161.11C74.8523 161.19 74.917 161.258 74.9945 161.309C75.072 161.361 75.1603 161.394 75.2526 161.406H77.415C77.5423 161.394 77.6598 161.333 77.7431 161.236C77.8264 161.139 77.8691 161.014 77.8624 160.887C77.8624 160.813 77.7878 160.739 77.7878 160.664L71.7481 143.893Z" fill="black"/>
<path d="M88.8975 158.957H81.8885V132.687C81.8806 132.571 81.831 132.463 81.7487 132.381C81.6664 132.299 81.5571 132.25 81.4411 132.242H79.4279C79.3118 132.25 79.2025 132.299 79.1202 132.381C79.038 132.463 78.9883 132.571 78.9805 132.687V161.184C78.9883 161.299 79.038 161.408 79.1202 161.49C79.2025 161.572 79.3118 161.621 79.4279 161.629H88.8975C89.0135 161.621 89.1228 161.572 89.2051 161.49C89.2873 161.408 89.337 161.299 89.3448 161.184V159.403C89.337 159.287 89.2873 159.178 89.2051 159.096C89.1228 159.014 89.0135 158.965 88.8975 158.957Z" fill="black"/>
<path d="M99.5587 132.242H97.3964C97.3012 132.244 97.2087 132.273 97.1295 132.326C97.0503 132.378 96.9877 132.452 96.949 132.539L92.848 144.709L88.747 132.539C88.721 132.444 88.6614 132.361 88.5792 132.307C88.4969 132.252 88.3976 132.229 88.2996 132.242H86.2118C86.1349 132.24 86.0592 132.26 85.9933 132.3C85.9274 132.339 85.8739 132.396 85.839 132.464C85.7788 132.578 85.7529 132.707 85.7644 132.835L91.3567 148.642V161.184C91.3696 161.31 91.431 161.427 91.5282 161.51C91.6253 161.593 91.7508 161.635 91.8786 161.629H93.8173C93.8767 161.631 93.936 161.621 93.9914 161.6C94.0468 161.578 94.0971 161.546 94.1391 161.504C94.1812 161.462 94.214 161.412 94.2356 161.357C94.2573 161.302 94.2671 161.243 94.2647 161.184V148.642L100.081 132.835C100.117 132.78 100.137 132.716 100.137 132.65C100.137 132.584 100.117 132.519 100.081 132.464C99.9322 132.341 99.7508 132.264 99.5587 132.242Z" fill="black"/>
<path d="M112.757 132.242H110.744C110.686 132.243 110.629 132.257 110.578 132.282C110.526 132.308 110.481 132.345 110.446 132.39C110.367 132.472 110.315 132.575 110.296 132.687L110.446 153.466C110.446 154.059 110.52 154.579 110.52 155.173V156.137L104.555 132.613C104.549 132.516 104.507 132.426 104.439 132.357C104.37 132.289 104.279 132.248 104.182 132.242H101.2C101.084 132.25 100.974 132.299 100.892 132.381C100.81 132.463 100.76 132.572 100.752 132.687V161.184C100.75 161.243 100.76 161.302 100.781 161.357C100.803 161.412 100.836 161.462 100.878 161.504C100.92 161.546 100.97 161.578 101.026 161.6C101.081 161.621 101.14 161.631 101.2 161.629H103.138C103.287 161.629 103.362 161.629 103.437 161.555C103.511 161.406 103.586 161.332 103.586 161.184L103.437 140.999V138.253L109.178 161.332C109.204 161.427 109.264 161.509 109.346 161.564C109.428 161.618 109.527 161.642 109.625 161.629H112.608C112.736 161.637 112.862 161.595 112.96 161.512C113.057 161.429 113.118 161.311 113.13 161.184V132.687C113.141 132.632 113.14 132.576 113.126 132.522C113.112 132.468 113.087 132.418 113.051 132.375C113.015 132.333 112.97 132.299 112.919 132.275C112.868 132.252 112.813 132.241 112.757 132.242Z" fill="black"/>
<path d="M122.973 16.9198V13.3578L121.556 12.6157C120.512 12.0962 96.1296 0 62.2776 0H60.7118C26.8598 0 2.47736 12.0962 1.50803 12.6157L0.0167499 13.3578V16.8456C-0.206942 31.1681 1.50803 67.6051 23.8772 95.8791C41.9962 118.884 59.0714 124.153 60.9355 124.672L61.6811 124.895L62.4267 124.747C63.1724 124.524 80.5458 119.478 99.1868 95.9533C121.481 67.6793 123.271 31.2423 122.973 16.9198Z" fill="black"/>
<path d="M61.6808 121.11C60.2641 120.739 44.1583 115.767 26.7103 93.7268C3.81917 64.7107 3.74461 26.7895 3.89374 17.8101V15.8807C3.90358 15.8808 3.91335 15.879 3.92247 15.8754C3.93159 15.8717 3.93988 15.8662 3.94684 15.8593C3.95379 15.8524 3.95928 15.8441 3.96297 15.8351C3.96666 15.826 3.96847 15.8163 3.9683 15.8065V15.7323L4.49025 15.5096C5.75784 14.9902 8.44214 13.8028 12.394 12.3928C27.9268 6.76022 44.3289 3.87208 60.8606 3.85868H62.4264C78.8836 3.89048 95.2091 6.77845 110.669 12.3928C114.621 13.8028 117.38 14.9902 118.573 15.5096L119.095 15.7323V15.8065L119.17 15.8807V17.8101C119.393 26.7895 119.319 64.7107 96.353 93.7268C78.905 115.767 63.0229 120.739 61.6808 121.11ZM97.4715 94.6915C119.393 67.0112 121.108 31.3163 120.81 17.2907V14.6933L120.363 14.4707C119.393 13.9512 95.4582 2.15186 62.2773 2.15186H60.6369C27.4559 2.15186 3.59548 13.9512 2.55159 14.4707L2.1042 14.6933V17.1422C1.80595 31.2421 3.52092 66.937 25.4427 94.6173C43.1144 117.029 59.5184 122.223 61.3825 122.669L61.6062 122.743L61.8299 122.669C62.6501 122.52 79.2779 117.622 97.4715 94.6915Z" fill="white"/>
<path d="M103.885 33.765C95.7573 25.3793 94.8626 24.0435 94.8626 20.5556C94.8626 17.142 96.3538 16.6967 97.8451 16.6967C98.7805 16.7223 99.7084 16.872 100.604 17.142C106.495 18.8488 106.495 22.0398 106.495 24.4146V27.8282C106.495 27.952 106.53 28.0732 106.595 28.1782C106.661 28.2831 106.756 28.3676 106.867 28.4219C108.359 28.8671 109.03 29.164 110.521 29.6835C110.612 29.7462 110.723 29.7733 110.833 29.7596C110.943 29.746 111.045 29.6924 111.117 29.6092C111.211 29.5596 111.289 29.4844 111.342 29.3924C111.395 29.3005 111.42 29.1956 111.416 29.0898V26.2698C111.416 22.7077 111.416 16.6967 100.902 13.6541C93.5204 11.5763 89.7176 13.8026 89.7176 20.1846C89.7176 25.4535 92.9985 28.5703 98.4416 33.8392L99.4855 34.8781C105.898 41.186 107.166 43.1896 107.166 47.1228C107.166 48.6069 106.942 49.5717 106.495 50.1654C106.047 50.8332 105.376 51.0559 104.258 51.0559C103.17 51.0309 102.091 50.8561 101.051 50.5364C98.2179 49.7201 96.2047 48.607 94.9371 47.2712C93.4458 45.6386 93.4458 44.2286 93.4458 41.4086V38.4402C93.4458 38.1434 93.2967 37.8465 92.9985 37.8465C91.3581 37.4755 90.6124 37.3271 89.1211 37.0302C89.0291 37.0015 88.9306 37.0003 88.8378 37.0267C88.7451 37.0531 88.6621 37.1059 88.5992 37.1786C88.4808 37.3296 88.4037 37.5086 88.3755 37.6981V43.0412C88.3755 48.0133 92.5511 51.8722 100.306 54.0985C102.162 54.6966 104.096 55.0216 106.047 55.0632C112.087 55.0632 112.087 50.0911 112.087 48.0133C112.161 42.5217 109.328 39.3307 103.885 33.765ZM87.4807 10.9826C79.7044 9.57642 71.8218 8.83163 63.9185 8.75629C63.826 8.73477 63.7295 8.73709 63.6382 8.76303C63.5468 8.78897 63.4636 8.83767 63.3964 8.90453C63.3292 8.9714 63.2803 9.0542 63.2542 9.14513C63.2282 9.23606 63.2258 9.3321 63.2475 9.42418V11.7989C63.2591 11.9722 63.3335 12.1354 63.457 12.2583C63.5804 12.3811 63.7444 12.4552 63.9185 12.4668C67.5722 12.4668 69.5108 12.6152 73.0153 12.8378V48.0133C73.0101 48.1794 73.069 48.3412 73.18 48.4654C73.2909 48.5896 73.4455 48.6668 73.6118 48.6812C75.1777 48.8296 75.9233 48.8296 77.4892 49.0522H77.5637C77.6406 49.0536 77.7163 49.0335 77.7822 48.9941C77.8481 48.9547 77.9016 48.8977 77.9365 48.8296C78.0138 48.7856 78.0763 48.7199 78.1161 48.6406C78.1559 48.5614 78.1712 48.4722 78.1602 48.3843V13.3573C81.6647 13.7283 83.678 14.0252 87.3316 14.6931C87.5185 14.7143 87.7062 14.661 87.8535 14.5447C87.9264 14.4794 87.9842 14.3991 88.0228 14.3094C88.0614 14.2197 88.08 14.1227 88.0772 14.0252V11.6505C88.0443 11.4973 87.972 11.3553 87.8675 11.2382C87.7629 11.1212 87.6297 11.0331 87.4807 10.9826ZM59.9667 8.8305C53.3186 8.90466 46.6867 9.50018 40.1326 10.6115C40.054 10.6104 39.9759 10.6249 39.903 10.6543C39.8301 10.6838 39.7639 10.7275 39.7082 10.7828C39.6526 10.8382 39.6087 10.9041 39.5792 10.9766C39.5496 11.0492 39.535 11.1269 39.5361 11.2052V49.349C39.5642 49.5164 39.6421 49.6715 39.7598 49.7943C39.8959 49.8766 40.0488 49.9273 40.2072 49.9427H40.2818C46.7672 48.8926 53.3219 48.3221 59.8921 48.2359C60.0581 48.2206 60.212 48.1431 60.3228 48.0191C60.4335 47.8951 60.4928 47.7339 60.4886 47.568V45.1933C60.483 45.108 60.4603 45.0247 60.4219 44.9482C60.3835 44.8717 60.3301 44.8037 60.2649 44.748C60.2207 44.6711 60.1547 44.609 60.0751 44.5694C59.9954 44.5298 59.9058 44.5145 59.8175 44.5254C54.7292 44.59 49.6495 44.9617 44.6065 45.6386V30.574C48.7346 29.9976 52.8918 29.6507 57.0587 29.535C57.1388 29.5424 57.2196 29.532 57.2954 29.5048C57.3711 29.4775 57.4398 29.434 57.4968 29.3774C57.5537 29.3207 57.5974 29.2523 57.6248 29.1769C57.6521 29.1016 57.6625 29.0211 57.6552 28.9414V26.5666C57.6397 26.409 57.5887 26.2568 57.506 26.1214C57.4473 26.0651 57.3766 26.0225 57.2992 25.9968C57.2218 25.9712 57.1396 25.963 57.0587 25.973C52.8932 26.0643 48.736 26.3864 44.6065 26.9377V13.5799C49.6709 12.869 54.7776 12.4971 59.8921 12.4668C59.9761 12.4754 60.0609 12.4665 60.1413 12.4407C60.2216 12.4149 60.2957 12.3727 60.3588 12.3169C60.422 12.261 60.4727 12.1928 60.5079 12.1164C60.5431 12.04 60.5619 11.9571 60.5632 11.8731V9.49838C60.5742 9.41048 60.5588 9.3213 60.519 9.24207C60.4792 9.16284 60.4167 9.0971 60.3395 9.05313C60.3045 8.98497 60.2511 8.92796 60.1851 8.88859C60.1192 8.84923 60.0435 8.8291 59.9667 8.8305ZM34.5404 11.5763C33.0491 11.8731 32.3034 12.0215 30.8122 12.3926C30.6653 12.4062 30.5294 12.4754 30.4323 12.5858C30.3352 12.6963 30.2843 12.8396 30.2902 12.9862L30.5885 40.6665C30.5885 42.5217 30.663 44.2286 30.7376 45.787C27.0094 36.1397 23.0575 26.1956 19.0311 16.1773C18.9696 16.0387 18.8615 15.9258 18.7254 15.8581C18.5893 15.7904 18.4337 15.772 18.2854 15.8062C16.0485 16.5483 14.93 16.9194 12.7677 17.8099C12.6409 17.8511 12.5299 17.9302 12.4498 18.0364C12.3698 18.1427 12.3246 18.2708 12.3203 18.4036V56.5474C12.3226 56.6421 12.3519 56.7342 12.4047 56.813C12.4575 56.8918 12.5316 56.9541 12.6186 56.9927C12.6931 57.1411 12.8423 57.1411 12.9914 57.1411C13.0319 57.1461 13.073 57.142 13.1117 57.1291C13.1504 57.1163 13.1857 57.095 13.2151 57.0669C14.5572 56.5474 15.3029 56.3248 16.645 55.8053C16.7791 55.7768 16.8982 55.701 16.9805 55.5919C17.0627 55.4827 17.1025 55.3477 17.0924 55.2116C17.0178 46.2322 17.0178 37.1786 16.9433 28.1993C16.9433 25.8245 16.9433 24.4888 16.8687 22.7819C20.746 32.8003 24.6234 42.5217 28.277 51.798C28.2973 51.8737 28.3336 51.9444 28.3834 52.0051C28.4332 52.0659 28.4954 52.1155 28.5659 52.1505C28.6364 52.1856 28.7135 52.2054 28.7923 52.2086C28.871 52.2118 28.9495 52.1983 29.0226 52.169C31.3341 51.6496 32.5271 51.3527 34.8386 50.9075C34.9806 50.8825 35.1097 50.81 35.2046 50.7021C35.2995 50.5941 35.3545 50.4571 35.3606 50.3138V12.1699C35.3518 11.9755 35.2723 11.7908 35.1369 11.6505C34.954 11.5535 34.7416 11.527 34.5404 11.5763Z" fill="white"/>
<path d="M83.0065 97.8825C82.6337 98.1794 82.2609 98.402 81.8135 98.6988C80.7696 99.4409 79.6511 100.035 78.6072 100.702C78.1023 101.051 77.5797 101.373 77.0414 101.667C73.2386 104.042 68.6157 106.639 63.769 108.123C62.4474 108.525 61.1029 108.847 59.7426 109.088C58.6112 109.294 57.4628 109.394 56.3126 109.385H56.0889C54.6892 109.375 53.2927 109.251 51.9133 109.014C57.2149 110.848 62.9336 111.132 68.392 109.83C71.5467 109.05 74.5464 107.745 77.2651 105.971C79.9236 103.821 81.9571 101.003 83.1556 97.8083C83.0811 97.8083 83.0065 97.8083 83.0065 97.8825ZM57.0583 107.975C60.1833 107.607 63.2152 106.677 66.0059 105.229C66.4768 105.027 66.9264 104.778 67.3481 104.487C67.7209 104.339 68.0937 104.116 68.4665 103.968C71.0763 102.632 73.8351 101.148 77.1905 99.2925C78.4581 98.6988 79.5765 98.0309 80.7696 97.363L82.1117 96.6209C82.6337 96.3241 83.1556 96.1015 83.603 95.8046C83.6776 95.7304 83.6776 95.7304 83.7521 95.7304C84.2071 94.0544 84.5066 92.3404 84.6469 90.61C81.2915 92.2426 76.2957 93.7268 68.9885 95.211C59.668 97.0662 50.4966 96.2499 42.2946 92.762C36.7769 90.4615 34.1671 87.2705 33.1232 85.5637C33.268 86.8134 33.4921 88.0527 33.7943 89.2742C35.5808 96.1069 39.8263 102.049 45.7245 105.971V105.897L46.4702 106.342C47.2518 106.773 48.0765 107.121 48.9308 107.381C50.6821 107.851 52.4857 108.101 54.2994 108.123C55.1942 108.123 56.0889 108.049 57.0583 107.975ZM86.2873 95.9531C86.2127 95.8788 86.2127 95.8788 86.1382 95.8788C85.8993 95.8962 85.6686 95.9728 85.4671 96.1015C85.3925 96.1757 85.318 96.2499 85.2434 96.2499C85.1688 96.3241 85.0943 96.3241 85.0197 96.3983C84.3255 98.2627 83.3986 100.033 82.2608 101.667C83.8616 100.022 85.2402 98.1756 86.3619 96.1757H86.2873V95.9531ZM87.4058 88.9031C87.2566 89.0515 87.1821 89.0515 87.1075 89.2C86.9473 89.2813 86.7972 89.3809 86.6601 89.4968C86.4996 91.2848 86.1497 93.0509 85.6162 94.7657C86.511 94.4689 86.8838 94.8399 86.9584 95.0625C86.9584 95.1367 86.9584 95.1367 87.0329 95.1367C88.5334 92.2407 89.4935 89.0977 89.8664 85.8605C89.3381 87.0778 88.4877 88.1294 87.4058 88.9031ZM86.6601 87.4189C86.7347 87.3447 86.8092 87.3447 86.8838 87.2705C88.4221 86.0714 89.5223 84.4028 90.0155 82.5211C90.0166 80.2163 89.7158 77.9212 89.1207 75.6938C89.1197 75.6364 89.1057 75.5799 89.0799 75.5286C89.0541 75.4772 89.0171 75.4322 88.9716 75.3969C88.6927 77.6319 87.606 79.6894 85.9145 81.1853C86.4194 83.2248 86.6699 85.3185 86.6601 87.4189ZM43.935 90.8326C50.7203 93.0589 54.4485 93.7268 59.3697 93.7268C61.1593 93.7268 63.2471 93.6526 65.7822 93.4299C73.0149 92.8362 80.6204 90.4615 84.7215 88.4579C84.7076 86.4648 84.5079 84.4774 84.1249 82.5211C82.8399 83.2714 81.3629 83.6324 79.8748 83.56C78.1598 83.56 76.1466 83.2632 72.7912 82.4469C68.8394 81.4821 63.2471 78.1427 58.2513 75.2485C55.567 73.6159 52.9572 72.1317 50.8694 71.0928C42.742 67.0854 38.119 67.6791 36.926 67.9018C33.9788 72.7931 32.6002 78.4625 32.9741 84.1537C33.5706 84.8958 36.3295 88.3094 43.935 90.8326ZM48.1106 67.7533C51.578 69.2835 54.9628 70.9927 58.2513 72.8738C64.291 76.0648 70.4798 79.4043 74.7299 80.4432C78.4581 81.4079 81.5152 81.2595 83.6776 80.2206V80.0722C83.603 79.9237 83.603 79.7753 83.5284 79.6269C81.7389 71.9833 72.1202 55.2119 55.4178 55.2119C54.7468 55.2119 54.0757 55.2861 53.3301 55.2861C47.0972 57.0466 41.6695 60.9013 37.9699 66.1949C38.7702 65.9645 39.5975 65.8398 40.4305 65.8239C42.5929 65.8981 45.128 66.566 48.1106 67.7533ZM85.3925 79.0332C85.7672 78.5738 86.0921 78.0763 86.3619 77.549C88.3751 73.6901 86.6601 69.3859 85.8399 67.9018C83.0424 63.3452 79.0144 59.6629 74.2155 57.2748C69.4165 54.8867 64.0398 53.889 58.6987 54.3956C70.1069 54.9892 81.1424 65.156 85.3925 79.0332Z" fill="white"/>
<path d="M72.7157 88.1613C72.7157 86.0834 72.7157 83.0408 70.2551 80.6661C70.5535 80.2082 70.7798 79.7077 70.9262 79.1819C71.2726 78.0528 71.4239 76.8735 71.3736 75.694V69.9056C71.299 67.7536 71.0008 65.5273 69.2112 63.5978C67.6454 61.8168 65.2594 60.8521 62.4259 60.8521H54.6713C53.8056 60.8698 52.9792 61.2147 52.3598 61.8168C51.7776 62.412 51.4559 63.2124 51.465 64.0431L51.5396 101.445C51.5275 102 51.6667 102.549 51.9424 103.032C52.218 103.516 52.6199 103.916 53.1054 104.191C53.6184 104.517 54.2117 104.697 54.8204 104.71H62.7242C65.3096 104.801 67.836 103.928 69.8078 102.261H69.8823C72.4921 99.9606 72.7157 97.2149 72.7903 94.6175V94.5433L72.7157 88.1613Z" fill="white"/>
<path d="M62.2774 78.9594C61.6809 79.1821 61.308 79.1821 59.8913 79.2563H58.4001C58.1764 79.2563 58.1018 79.1821 58.1018 78.9594V66.9375C58.098 66.8975 58.103 66.8572 58.1167 66.8195C58.1303 66.7817 58.1521 66.7474 58.1806 66.7191C58.2091 66.6907 58.2436 66.669 58.2815 66.6554C58.3195 66.6418 58.3599 66.6368 58.4001 66.6406H60.7861C61.8321 66.5697 62.8801 66.7478 63.8432 67.1601C64.167 67.3672 64.4052 67.6832 64.5143 68.0506C64.7036 68.7021 64.8039 69.3761 64.8125 70.0543V75.1005C64.738 76.2137 64.6634 78.2173 62.2774 78.9594ZM65.0362 98.3282C64.4397 98.7735 63.6941 98.9961 61.9046 99.0703H58.5492C58.441 99.059 58.3415 99.0062 58.2719 98.923C58.2023 98.8399 58.168 98.733 58.1764 98.625V83.7089C58.1764 83.6347 58.1764 83.4862 58.4001 83.4862H59.9659C61.6063 83.5604 63.3213 83.6347 64.4397 84.3768C65.0787 84.7666 65.5552 85.3726 65.7819 86.0836C65.9955 86.8568 66.096 87.6566 66.0801 88.4583V93.9498C66.1547 96.3987 66.0056 97.5861 65.0362 98.3282ZM70.7031 88.4583C70.7031 86.3062 70.7031 83.7831 68.5407 82.002C68.0495 81.595 67.4956 81.2692 66.9003 81.0373C67.9001 80.3629 68.637 79.3675 68.9881 78.2173C69.2644 77.3035 69.3903 76.3512 69.3609 75.3974V69.4606C69.2864 67.828 69.1373 65.8985 67.7205 64.4143C66.6021 63.1528 64.738 62.4849 62.5011 62.4849H54.3736C54.2472 62.4853 54.1222 62.5119 54.0067 62.563C53.8911 62.6141 53.7876 62.6886 53.7025 62.7817C53.5519 62.9715 53.4728 63.2078 53.4788 63.4496V102.41C53.491 102.57 53.5372 102.725 53.6144 102.866C53.6915 103.006 53.7978 103.129 53.9262 103.226C54.0846 103.319 54.2643 103.37 54.4482 103.374H62.6502C64.7602 103.457 66.8279 102.771 68.4662 101.445C70.4048 99.664 70.6285 97.5861 70.7031 95.2114V88.4583Z" fill="black"/>
</g>
<defs>
<clipPath id="clip0_38_1028">
<rect width="123" height="162" fill="white"/>
</clipPath>
</defs>
</svg>
