<svg width="123" height="124" viewBox="0 0 123 124" fill="none" xmlns="http://www.w3.org/2000/svg">
<g clip-path="url(#clip0_38_1029)">
<path d="M112.173 47.6856C111.74 40.2025 108.399 33.4617 106.419 29.4419L106.172 29.0089L105.306 27.2773L105.491 29.1945C105.677 31.8537 106.296 41.0065 103.573 46.2632C100.17 53.2514 90.2091 52.5712 86.9299 52.3856H86.7443C81.3615 52.0146 63.8519 51.3961 58.4691 51.3961C51.4158 51.458 43.62 52.0146 37.3092 52.5093C34.2156 52.7567 31.5552 52.9422 29.7609 53.0041C29.5753 53.0041 29.3897 53.0659 29.0803 53.0659C20.2946 53.8699 14.7262 51.2725 12.5607 45.3355C11.2614 41.6868 11.2614 34.4511 11.2614 30.9879V28.5142L10.5808 29.7511C7.42174 35.3694 5.46249 41.5813 4.82678 47.9948C4.20807 59.1265 10.024 63.1463 14.4168 65.1253C19.0572 67.2898 23.7594 67.599 25.3062 67.7227H25.368C25.7161 67.7741 26.0681 67.7948 26.4198 67.7846C26.9385 67.7666 27.4575 67.8081 27.9666 67.9082C27.1004 68.0938 25.9867 68.2793 25.0587 68.403C24.0069 68.6504 23.0169 68.774 22.522 68.8977C21.4701 69.1451 17.0154 70.1346 14.6643 71.0004C12.6844 71.6807 10.4571 72.732 10.3952 72.732L10.024 72.9175L10.3333 73.2886C10.3333 73.2886 11.0758 74.2781 11.8182 75.082C13.3187 76.4309 15.0841 77.4521 17.0017 78.0803C18.9193 78.7086 20.9469 78.9301 22.9551 78.7308C27.1004 78.236 29.3897 77.1847 30.2559 76.7518C30.7023 78.3275 31.2395 79.8762 31.8645 81.39C33.7206 86.0283 38.0516 94.9955 39.6603 98.0877C40.9596 100.623 42.2589 102.85 43.1251 104.334L43.4344 104.89C43.1717 105.696 42.6496 106.392 41.9495 106.869C41.8258 106.993 41.7639 107.117 41.6402 107.179L41.5783 107.302V107.488C41.5164 108.292 41.3308 116.146 46.5899 121.835L46.6517 121.897H46.7136C49.3741 122.949 52.777 124 58.3454 124C63.9757 124 68.7398 122.639 70.4103 121.835L70.4722 121.774L70.534 121.712C74.1844 117.383 75.9168 110.765 75.9168 108.415V108.292L75.7931 108.168L75.5456 107.921C74.6801 107.155 74.0746 106.139 73.8132 105.014C74.3082 104.272 75.1744 102.417 75.9168 100.932C76.1774 100.271 76.4876 99.63 76.8449 99.0153C78.3917 95.9231 82.9083 86.1519 84.7644 81.5756C85.8781 78.6071 86.4968 77.1847 86.8062 76.5663C87.6105 76.9992 89.776 77.9887 93.8595 78.4216C99.1185 78.9163 104.13 75.4531 105.553 73.4741C105.801 73.1649 106.172 72.732 106.234 72.6702L106.543 72.2991L106.11 72.1136C106.048 72.1136 105.924 72.0517 105.058 71.7425L102.15 70.8149L99.2423 69.8254C98.438 69.578 94.8494 68.774 92.3127 68.2175L90.3328 67.7846L90.9515 67.6609C97.0149 66.3622 113.101 63.5792 112.173 47.6856Z" fill="black"/>
<path d="M10.6415 31.6064C10.4559 35.7499 10.5178 40.2645 11.4459 44.2224C10.6053 43.33 9.71721 42.4836 8.7854 41.6869C7.9192 42.6145 7.17674 43.604 6.31055 44.4698C7.20109 40.0154 8.6565 35.6927 10.6415 31.6064Z" fill="#CE1141"/>
<path d="M10.6415 31.6064C10.4559 35.7499 10.5178 40.2645 11.4459 44.2224C10.6053 43.33 9.71721 42.4836 8.7854 41.6869C7.9192 42.6145 7.17674 43.604 6.31055 44.4698C7.20109 40.0154 8.6565 35.6927 10.6415 31.6064V31.6064Z" stroke="#CE1141" stroke-width="0.24"/>
<path d="M110.563 42.6143L110.81 43.7275L108.645 42.1814C107.655 42.6143 106.727 43.2328 105.799 43.6657C106.474 39.6004 106.681 35.4713 106.418 31.3589C108.336 34.8839 109.387 38.7182 110.563 42.6143Z" fill="#CE1141"/>
<path d="M110.563 42.6143L110.81 43.7275L108.645 42.1814C107.655 42.6143 106.727 43.2328 105.799 43.6657C106.474 39.6004 106.681 35.4713 106.418 31.3589C108.336 34.8839 109.387 38.7182 110.563 42.6143V42.6143Z" stroke="#CE1141" stroke-width="0.24"/>
<path d="M58.5916 81.8232C60.819 85.2865 64.9644 86.2759 68.8004 85.2865C70.2118 84.971 71.582 84.4937 72.8839 83.8641C71.5522 87.636 70.9027 91.6148 70.9659 95.6143C70.9773 99.0827 71.5412 102.527 72.6364 105.818C72.0796 105.695 71.5846 105.262 70.9659 105.014C63.3557 101.18 52.652 101.304 45.1656 105.262C45.5368 104.087 45.908 102.726 46.2174 101.489C47.3311 95.7379 46.5268 89.7392 44.5469 84.4825C48.5685 86.1523 54.4463 86.5233 57.7254 82.8127C57.9828 82.4567 58.2728 82.1255 58.5916 81.8232Z" fill="#CE1141"/>
<path d="M58.5916 81.8232C60.819 85.2865 64.9644 86.2759 68.8004 85.2865C70.2118 84.971 71.582 84.4937 72.8839 83.8641C71.5522 87.636 70.9027 91.6148 70.9659 95.6143C70.9773 99.0827 71.5412 102.527 72.6364 105.818C72.0796 105.695 71.5846 105.262 70.9659 105.014C63.3557 101.18 52.652 101.304 45.1656 105.262C45.5368 104.087 45.908 102.726 46.2174 101.489C47.3311 95.7379 46.5268 89.7392 44.5469 84.4825C48.5685 86.1523 54.4463 86.5233 57.7254 82.8127C57.9828 82.4567 58.2728 82.1255 58.5916 81.8232V81.8232Z" stroke="#CE1141" stroke-width="0.24"/>
<path d="M41.6386 84.6678C41.4529 86.2757 40.8961 88.131 39.1637 88.7494C37.7407 89.1205 36.5032 88.3165 35.5752 87.3271C35.1443 86.8565 34.8455 86.2804 34.709 85.6573C36.8745 87.0797 39.7206 85.9665 41.5767 84.606L41.6386 84.6678Z" fill="#CE1141"/>
<path d="M41.6386 84.6678C41.4529 86.2757 40.8961 88.131 39.1637 88.7494C37.7407 89.1205 36.5032 88.3165 35.5752 87.3271C35.1443 86.8565 34.8455 86.2804 34.709 85.6573C36.8745 87.0797 39.7206 85.9665 41.5767 84.606L41.6386 84.6678Z" stroke="#CE1141" stroke-width="0.24"/>
<path d="M82.4133 84.8535C81.9183 86.3378 80.619 87.822 79.1341 88.1312C78.5778 88.2173 78.0084 88.1335 77.5006 87.8908C76.9928 87.648 76.5701 87.2576 76.288 86.7707C75.8988 86.2244 75.6637 85.5836 75.6074 84.9154C77.5254 86.4614 80.5571 86.0904 82.4133 84.8535Z" fill="#CE1141"/>
<path d="M82.4133 84.8535C81.9183 86.3378 80.619 87.822 79.1341 88.1312C78.5778 88.2173 78.0084 88.1335 77.5006 87.8908C76.9928 87.648 76.5701 87.2576 76.288 86.7707C75.8988 86.2244 75.6637 85.5836 75.6074 84.9154C77.5254 86.4614 80.5571 86.0904 82.4133 84.8535V84.8535Z" stroke="#CE1141" stroke-width="0.24"/>
<path d="M78.2053 89.0588C79.0226 89.1397 79.8477 89.0339 80.6182 88.7496C78.4528 94.1299 75.8542 99.3248 73.1937 104.52C72.2656 101.922 72.5131 99.1392 72.6369 96.2326C73.0499 92.8486 73.796 89.5135 74.8642 86.2759C75.6067 87.5127 76.7822 88.8114 78.2053 89.0588Z" fill="#CE1141"/>
<path d="M78.2053 89.0588C79.0226 89.1397 79.8477 89.0339 80.6182 88.7496C78.4528 94.1299 75.8542 99.3248 73.1937 104.52C72.2656 101.922 72.5131 99.1392 72.6369 96.2326C73.0499 92.8486 73.796 89.5135 74.8642 86.2759C75.6067 87.5127 76.7822 88.8114 78.2053 89.0588V89.0588Z" stroke="#CE1141" stroke-width="0.24"/>
<path d="M44.361 104.457V104.519C41.0818 99.5718 38.607 94.3151 36.2559 89.0585C37.3077 89.6151 39.1019 89.9861 40.2156 89.244C41.2147 88.4628 41.9315 87.3772 42.2574 86.1519C44.9178 91.4704 45.5365 98.3968 44.361 104.457Z" fill="#CE1141"/>
<path d="M44.361 104.457V104.519C41.0818 99.5718 38.607 94.3151 36.2559 89.0585C37.3077 89.6151 39.1019 89.9861 40.2156 89.244C41.2147 88.4628 41.9315 87.3772 42.2574 86.1519C44.9178 91.4704 45.5365 98.3968 44.361 104.457V104.457Z" stroke="#CE1141" stroke-width="0.24"/>
<path d="M74.8633 108.663C74.4315 113.189 72.6415 117.479 69.728 120.97C62.984 123.629 53.8889 123.876 47.1449 121.032C43.8039 117.445 42.5665 112.806 42.3809 107.859C49.5579 102.664 60.7566 101.489 68.9855 105.2C71.0272 106.189 73.069 107.179 74.8633 108.663Z" fill="#CE1141"/>
<path d="M74.8633 108.663C74.4315 113.189 72.6415 117.479 69.728 120.97C62.984 123.629 53.8889 123.876 47.1449 121.032C43.8039 117.445 42.5665 112.806 42.3809 107.859C49.5579 102.664 60.7566 101.489 68.9855 105.2C71.0272 106.189 73.069 107.179 74.8633 108.663Z" stroke="#CE1141" stroke-width="0.24"/>
<path d="M102.644 71.4332C96.5391 69.2591 90.1275 68.0693 83.6491 67.9082C83.0923 61.0436 82.2879 56.7764 80.9268 52.8803C77.7713 52.6948 63.7884 52.1382 58.3438 52.1382C52.961 52.1382 39.1637 53.004 36.0701 53.1895C34.3078 58.0358 33.1645 63.085 32.6672 68.2174C25.7856 68.7485 19.004 70.1832 12.4972 72.4846C11.631 72.7938 11.2598 73.103 11.2598 73.0411C12.4282 74.5254 13.9105 75.733 15.6005 76.5776C17.2905 77.4222 19.1464 77.8829 21.0354 77.9268C22.8916 77.9886 26.4182 77.6175 28.6456 76.628C29.2643 76.3807 30.5017 75.8241 30.5017 75.8241C30.7433 76.2393 30.9503 76.6736 31.1204 77.1228C31.7391 78.8544 32.5435 81.39 33.1003 82.4413C33.9046 84.1111 35.2039 85.3479 37.3076 85.4098C37.9941 85.3713 38.6643 85.1858 39.2728 84.8656C39.8813 84.5455 40.4138 84.0984 40.8342 83.5545C35.3895 83.2453 33.1003 80.3386 32.7291 75.9478C31.4298 75.7622 31.0586 75.6386 30.9348 74.8964C30.8549 74.5073 30.8634 74.1053 30.9598 73.7199C31.0562 73.3346 31.2379 72.9758 31.4917 72.6701C32.1104 71.8043 33.1622 71.0003 35.7608 71.8043C37.2398 72.3793 38.6023 73.2174 39.7824 74.278C40.8961 75.3293 44.1753 78.7307 46.1551 79.8439C48.2588 81.0807 52.2804 82.2558 54.879 79.6584C56.5323 78.0962 57.6203 76.0299 57.9725 73.7833C53.872 73.672 49.7815 73.3209 45.722 72.7319C44.6084 72.5464 45.1033 71.4951 45.9695 71.7424C45.9695 71.7424 53.0847 72.6701 58.1582 72.7319C58.1582 72.1135 58.1582 71.124 58.22 69.949C53.9435 69.8589 49.6813 69.4246 45.4746 68.6503C44.5465 68.4029 44.7321 67.3516 45.5983 67.599C49.7746 68.282 53.9906 68.6952 58.22 68.8358C58.22 67.97 58.2819 66.6713 58.2819 65.4963C54.0941 65.4341 49.9167 65.0621 45.7839 64.3831C44.7321 64.1976 44.9796 63.2699 45.7839 63.3936C49.9279 63.9593 54.1005 64.2896 58.2819 64.3831V61.6002C58.2819 60.5488 59.21 60.487 59.21 61.5383V64.3213C63.1497 64.2254 67.0779 63.8535 70.9655 63.2081C72.2029 62.9607 72.0792 64.0121 71.5223 64.0739C67.4598 64.8568 63.344 65.3323 59.21 65.4963V68.8358C62.9841 68.7121 67.4388 68.5884 71.213 67.7226C72.636 67.4134 72.7598 68.5266 71.5842 68.7121C67.5133 69.4058 63.3995 69.819 59.2718 69.949C59.2718 70.8766 59.2718 72.0517 59.3337 72.7319C63.6203 72.6008 67.8962 72.2292 72.1411 71.6188C73.131 71.4332 73.3166 72.4846 72.2648 72.6701C71.213 72.7938 64.0978 73.7214 59.5193 73.8451C60.0143 75.3912 60.0762 77.6175 62.3035 79.5347C64.4072 81.39 68.0576 81.2044 70.5943 79.7202C72.5742 78.5452 75.7296 75.1438 76.8433 74.0925C77.7713 73.2885 79.9987 71.2477 82.9685 71.3095C85.8765 71.3714 85.9383 72.8556 86.124 73.2885C86.2477 73.7833 86.3714 74.5872 85.6909 75.0201C85.1959 75.3293 84.7009 75.2057 84.206 75.453C83.8347 77.8649 83.0923 80.586 81.1743 82.0084C79.1325 83.5545 75.9771 83.74 75.9771 83.74C75.9771 83.74 76.4102 84.2347 76.5339 84.3584C77.3593 84.9466 78.3723 85.2108 79.38 85.1005C80.6933 84.8772 81.9044 84.2503 82.8448 83.3071C83.8347 82.0084 84.7628 79.3491 85.4434 77.6175C85.6909 76.9991 86.3096 75.8241 86.4952 75.3293C87.1139 75.5767 87.3614 75.7622 88.4751 76.1951C90.7484 77.0492 93.162 77.4687 95.5902 77.432C98.6219 77.3702 102.087 75.5149 104.128 73.5977C104.438 73.2885 105.18 72.4227 105.18 72.4227C105.18 72.4227 103.2 71.6188 102.644 71.4332Z" fill="#CE1141"/>
<path d="M102.644 71.4332C96.5391 69.2591 90.1275 68.0693 83.6491 67.9082C83.0923 61.0436 82.2879 56.7764 80.9268 52.8803C77.7713 52.6948 63.7884 52.1382 58.3438 52.1382C52.961 52.1382 39.1637 53.004 36.0701 53.1895C34.3078 58.0358 33.1645 63.085 32.6672 68.2174C25.7856 68.7485 19.004 70.1832 12.4972 72.4846C11.631 72.7938 11.2598 73.103 11.2598 73.0411C12.4282 74.5254 13.9105 75.733 15.6005 76.5776C17.2905 77.4222 19.1464 77.8829 21.0354 77.9268C22.8916 77.9886 26.4182 77.6175 28.6456 76.628C29.2643 76.3807 30.5017 75.8241 30.5017 75.8241C30.7433 76.2393 30.9503 76.6736 31.1204 77.1228C31.7391 78.8544 32.5435 81.39 33.1003 82.4413C33.9046 84.1111 35.2039 85.3479 37.3076 85.4098C37.9941 85.3713 38.6643 85.1858 39.2728 84.8656C39.8813 84.5455 40.4138 84.0984 40.8342 83.5545C35.3895 83.2453 33.1003 80.3386 32.7291 75.9478C31.4298 75.7622 31.0586 75.6386 30.9348 74.8964C30.8549 74.5073 30.8634 74.1053 30.9598 73.7199C31.0562 73.3346 31.2379 72.9758 31.4917 72.6701C32.1104 71.8043 33.1622 71.0003 35.7608 71.8043C37.2398 72.3793 38.6023 73.2174 39.7824 74.278C40.8961 75.3293 44.1753 78.7307 46.1551 79.8439C48.2588 81.0807 52.2804 82.2558 54.879 79.6584C56.5323 78.0962 57.6203 76.0299 57.9725 73.7833C53.872 73.672 49.7815 73.3209 45.722 72.7319C44.6084 72.5464 45.1033 71.4951 45.9695 71.7424C45.9695 71.7424 53.0847 72.6701 58.1582 72.7319C58.1582 72.1135 58.1582 71.124 58.22 69.949C53.9435 69.8589 49.6813 69.4246 45.4746 68.6503C44.5465 68.4029 44.7321 67.3516 45.5983 67.599C49.7746 68.282 53.9906 68.6952 58.22 68.8358C58.22 67.97 58.2819 66.6713 58.2819 65.4963C54.0941 65.4341 49.9167 65.0621 45.7839 64.3831C44.7321 64.1976 44.9796 63.2699 45.7839 63.3936C49.9279 63.9593 54.1005 64.2896 58.2819 64.3831V61.6002C58.2819 60.5488 59.21 60.487 59.21 61.5383V64.3213C63.1497 64.2254 67.0779 63.8535 70.9655 63.2081C72.2029 62.9607 72.0792 64.0121 71.5223 64.0739C67.4598 64.8568 63.344 65.3323 59.21 65.4963V68.8358C62.9841 68.7121 67.4388 68.5884 71.213 67.7226C72.636 67.4134 72.7598 68.5266 71.5842 68.7121C67.5133 69.4058 63.3995 69.819 59.2718 69.949C59.2718 70.8766 59.2718 72.0517 59.3337 72.7319C63.6203 72.6008 67.8962 72.2292 72.1411 71.6188C73.131 71.4332 73.3166 72.4846 72.2648 72.6701C71.213 72.7938 64.0978 73.7214 59.5193 73.8451C60.0143 75.3912 60.0762 77.6175 62.3035 79.5347C64.4072 81.39 68.0576 81.2044 70.5943 79.7202C72.5742 78.5452 75.7296 75.1438 76.8433 74.0925C77.7713 73.2885 79.9987 71.2477 82.9685 71.3095C85.8765 71.3714 85.9383 72.8556 86.124 73.2885C86.2477 73.7833 86.3714 74.5872 85.6909 75.0201C85.1959 75.3293 84.7009 75.2057 84.206 75.453C83.8347 77.8649 83.0923 80.586 81.1743 82.0084C79.1325 83.5545 75.9771 83.74 75.9771 83.74C75.9771 83.74 76.4102 84.2347 76.5339 84.3584C77.3593 84.9466 78.3723 85.2108 79.38 85.1005C80.6933 84.8772 81.9044 84.2503 82.8448 83.3071C83.8347 82.0084 84.7628 79.3491 85.4434 77.6175C85.6909 76.9991 86.3096 75.8241 86.4952 75.3293C87.1139 75.5767 87.3614 75.7622 88.4751 76.1951C90.7484 77.0492 93.162 77.4687 95.5903 77.432C98.6219 77.3702 102.087 75.5149 104.128 73.5977C104.438 73.2885 105.18 72.4227 105.18 72.4227C105.18 72.4227 103.2 71.6188 102.644 71.4332V71.4332Z" stroke="#CE1141" stroke-width="0.24"/>
<path d="M70.0381 109.405C70.5949 110.456 70.1618 111.631 69.5431 112.559C68.9929 113.244 68.2559 113.754 67.4213 114.029C66.5866 114.303 65.6903 114.33 64.8409 114.105C63.772 113.765 62.8538 113.066 62.2423 112.126C61.9948 112.992 62.6135 113.61 62.5516 114.414C62.5256 114.454 62.4913 114.488 62.451 114.513C62.4108 114.538 62.3655 114.554 62.3185 114.56C62.2714 114.566 62.2236 114.561 62.1784 114.547C62.1332 114.532 62.0917 114.508 62.0567 114.476C61.0667 113.178 60.6955 111.199 61.5617 109.776C62.6135 107.797 64.6553 106.993 66.8208 107.179C67.4947 107.27 68.1375 107.519 68.6967 107.906C69.2559 108.293 69.7155 108.807 70.0381 109.405Z" fill="black"/>
<path d="M70.0381 109.405C70.5949 110.456 70.1618 111.631 69.5431 112.559C68.9929 113.244 68.2559 113.754 67.4213 114.029C66.5866 114.303 65.6903 114.33 64.8409 114.105C63.772 113.765 62.8538 113.066 62.2423 112.126C61.9948 112.992 62.6135 113.61 62.5516 114.414C62.5256 114.454 62.4913 114.488 62.451 114.513C62.4108 114.538 62.3655 114.554 62.3185 114.56C62.2714 114.566 62.2236 114.561 62.1784 114.547C62.1332 114.532 62.0917 114.508 62.0567 114.476C61.0667 113.178 60.6955 111.199 61.5617 109.776C62.6135 107.797 64.6553 106.993 66.8208 107.179C67.4947 107.27 68.1375 107.519 68.6967 107.906C69.2559 108.293 69.7155 108.807 70.0381 109.405V109.405Z" stroke="#CE1141" stroke-width="0.24"/>
<path d="M55.1274 110.086C55.9936 111.508 55.5605 113.363 54.7562 114.724C54.6324 114.909 54.4468 115.095 54.1993 114.909C53.8281 114.476 54.3231 114.105 54.385 113.672C54.4978 113.312 54.5191 112.93 54.4468 112.559C53.9235 113.327 53.19 113.927 52.3342 114.289C51.4784 114.651 50.5364 114.759 49.6209 114.6C48.9309 114.434 48.2904 114.107 47.7525 113.644C47.2145 113.182 46.7945 112.598 46.5273 111.941C46.3992 111.517 46.3661 111.07 46.4303 110.632C46.4944 110.194 46.6543 109.775 46.8985 109.405C48.1978 107.674 50.5489 107.303 52.4669 107.921C53.5891 108.292 54.5358 109.063 55.1274 110.086Z" fill="black"/>
<path d="M55.1274 110.086C55.9936 111.508 55.5605 113.363 54.7562 114.724C54.6324 114.909 54.4468 115.095 54.1993 114.909C53.8281 114.476 54.3231 114.105 54.385 113.672C54.4978 113.312 54.5191 112.93 54.4468 112.559C53.9235 113.327 53.19 113.927 52.3342 114.289C51.4784 114.651 50.5364 114.759 49.6209 114.6C48.9309 114.434 48.2904 114.107 47.7525 113.644C47.2145 113.182 46.7945 112.598 46.5273 111.941C46.3992 111.517 46.3661 111.07 46.4303 110.632C46.4944 110.194 46.6543 109.775 46.8985 109.405C48.1978 107.674 50.5489 107.303 52.4669 107.921C53.5891 108.292 54.5358 109.063 55.1274 110.086V110.086Z" stroke="#CE1141" stroke-width="0.24"/>
<path d="M69.9145 119.424C69.7907 119.733 69.7289 119.733 69.4814 120.042C68.8008 119.856 68.0583 119.609 67.3159 119.362C61.1288 116.95 53.2711 117.63 47.4552 120.042C47.2646 119.911 47.1317 119.712 47.084 119.485C53.8279 116.455 63.1086 116.084 69.9145 119.424Z" fill="black"/>
<path d="M69.9145 119.424C69.7907 119.733 69.7289 119.733 69.4814 120.042C68.8008 119.856 68.0583 119.609 67.3159 119.362C61.1288 116.95 53.2711 117.63 47.4552 120.042C47.2646 119.911 47.1317 119.712 47.084 119.485C53.8279 116.455 63.1086 116.084 69.9145 119.424V119.424Z" stroke="#CE1141" stroke-width="0.24"/>
<path d="M71.0275 86.5849C70.0376 91.4705 66.944 97.0982 61.7468 98.5206C57.6633 99.5719 53.0849 98.7061 50.3007 95.3048C48.3799 92.8509 47.2378 89.8786 47.0215 86.7704C47.2115 86.6705 47.4264 86.6276 47.6402 86.6467C48.0733 91.285 50.4863 96.3561 55.1266 97.7785C57.1841 98.4317 59.3896 98.4569 61.4615 97.8511C63.5334 97.2452 65.3776 96.0357 66.7584 94.3771C68.5525 91.9986 69.799 89.2533 70.4088 86.3375C70.5237 86.3315 70.6385 86.3505 70.7454 86.3932C70.8522 86.4359 70.9485 86.5013 71.0275 86.5849Z" fill="black"/>
<path d="M71.0275 86.5849C70.0376 91.4705 66.944 97.0982 61.7468 98.5206C57.6633 99.5719 53.0849 98.7061 50.3007 95.3048C48.3799 92.8509 47.2378 89.8786 47.0215 86.7704C47.2115 86.6705 47.4264 86.6276 47.6402 86.6467C48.0733 91.285 50.4863 96.3561 55.1266 97.7785C57.1841 98.4317 59.3896 98.4569 61.4615 97.8511C63.5334 97.2452 65.3776 96.0357 66.7584 94.3771C68.5525 91.9986 69.799 89.2533 70.4088 86.3375C70.5237 86.3315 70.6385 86.3505 70.7454 86.3932C70.8522 86.4359 70.9485 86.5013 71.0275 86.5849V86.5849Z" stroke="#CE1141" stroke-width="0.24"/>
<path d="M10.2088 1.24147C9.22131 0.416827 7.96854 -0.0225428 6.68209 0.00460481C5.25905 0.0664479 0 1.8599 0 9.65213C0 17.5062 4.76408 20.0418 7.61016 20.0418C10.4562 20.0418 13.3642 17.8773 14.2923 14.043C14.416 13.4864 14.3541 13.4246 13.7973 13.1772L11.9411 12.4351C11.508 12.3114 11.4462 12.3114 11.1987 13.0535C11.0131 13.6101 10.2088 15.8364 8.29074 15.8364C6.37274 15.8364 5.56841 13.0535 5.56841 10.085C5.56841 7.1784 6.06338 4.39546 8.41449 4.39546C10.7656 4.39546 11.2606 6.86919 11.4462 7.79683C11.508 8.22973 11.5699 8.22973 12.003 8.22973H13.7354C14.1066 8.22973 14.1066 8.22973 14.1066 7.42577V0.994094C14.1066 0.623036 14.0448 0.623036 13.3023 0.623036H11.7555C11.4462 0.623036 11.4462 0.684879 11.2606 1.11778C11.075 1.36515 10.7037 1.73621 10.2088 1.24147Z" fill="black"/>
<path d="M80.8047 4.39547L84.3932 15.7128C84.5788 16.2075 84.5788 16.2693 84.8882 16.2693H85.3832C86.0019 16.2693 86.0019 16.2693 86.0019 16.7641V18.9286C86.0019 19.6707 85.94 19.6707 85.5688 19.6707H78.4536C77.8349 19.6707 77.8349 19.6089 77.8349 19.176V16.9496C77.8349 16.2693 77.8967 16.2693 78.3917 16.2693H79.0723C79.4435 16.2693 79.4435 16.1457 79.3198 15.7128L78.7629 13.9812C78.5773 13.6719 78.5155 13.6719 78.0824 13.6719H73.7514L74.6794 11.0745H77.3399C77.773 11.0745 77.8349 11.0127 77.7111 10.7035L76.1025 5.69418C76.0406 5.38496 75.9169 5.38496 75.855 5.63234L74.2463 10.7035C74.1226 11.0745 74.1226 11.0745 74.7413 11.0745L73.8132 13.6719C73.3183 13.6719 73.3183 13.6719 73.1945 13.9812L72.6377 15.7128C72.514 16.2075 72.514 16.2693 72.8233 16.2693H73.5039C74.0607 16.2693 74.0607 16.3312 74.0607 16.9496V19.176C74.0607 19.6089 73.9989 19.6707 73.442 19.6707H68.5542C68.1211 19.6707 68.1211 19.6089 68.1211 18.9286V16.7641C68.1211 16.3312 68.183 16.2693 68.6779 16.2693H69.1729C69.2299 16.2782 69.2881 16.2756 69.344 16.2616C69.3999 16.2477 69.4525 16.2227 69.4987 16.1881C69.5448 16.1535 69.5835 16.1101 69.6126 16.0603C69.6416 16.0105 69.6604 15.9554 69.6679 15.8983L73.3183 4.45732C73.442 4.1481 73.442 4.08626 72.8852 4.08626H72.2046C71.6478 4.08626 71.6478 4.02442 71.6478 3.59151V1.30332C71.6478 0.623047 71.6478 0.623047 72.4521 0.623047H81.9184C82.4752 0.623047 82.4752 0.68489 82.4752 1.30332V3.46783C82.4752 3.96257 82.4752 3.96257 81.7946 3.96257H81.0522C80.681 3.90073 80.681 4.02442 80.8047 4.39547Z" fill="black"/>
<path d="M97.9422 12.9919H99.1796C99.7364 12.9919 99.7364 13.0537 99.7364 13.363C99.7364 14.4761 98.9321 15.8367 96.8904 15.8367C94.9723 15.8367 94.168 13.0537 94.168 10.0853C94.168 7.17865 94.663 4.39571 97.0141 4.39571C97.7045 4.37533 98.3812 4.59097 98.9324 5.00701C99.4837 5.42305 99.8764 6.01459 100.046 6.6839C100.108 7.11681 100.108 7.11681 100.603 7.11681H102.335C102.706 7.11681 102.706 7.11681 102.706 6.251V0.994341C102.706 0.623282 102.644 0.623282 101.902 0.623282H100.355C100.046 0.623282 100.046 0.623282 99.7983 1.11803C99.7364 1.3654 99.3033 1.73646 98.8084 1.24171C97.8157 0.426338 96.5665 -0.0117889 95.2817 0.00485168C93.8587 0.0666948 88.5996 1.86014 88.5996 9.65237C88.5996 17.5064 93.3018 20.042 96.2098 20.042C100.541 20.042 103.882 16.7643 103.882 10.58C103.882 9.96159 103.82 9.89974 102.954 9.89974H97.8184C97.3235 9.89974 97.2616 9.96159 97.2616 10.5182V12.559C97.2616 12.9919 97.3235 12.9919 97.9422 12.9919Z" fill="black"/>
<path d="M114.586 0.499512C109.884 0.499512 106.109 4.95221 106.109 10.3326C106.109 15.7748 109.884 20.1038 114.586 20.1038C119.226 20.1038 123 15.7748 123 10.3326C123 4.95221 119.226 0.499512 114.586 0.499512L114.524 4.02457C116.256 4.02457 117.679 6.86935 117.679 10.3326C117.679 13.7958 116.318 16.6406 114.524 16.6406C112.791 16.6406 111.368 13.7958 111.368 10.3326C111.368 6.86935 112.791 4.02457 114.524 4.02457L114.586 0.499512Z" fill="black"/>
<path d="M19.6126 15.8364V4.51916C19.6126 4.08626 19.5507 4.02442 19.1176 4.02442H18.5607C18.0039 4.02442 18.0039 3.96257 18.0039 3.59151V1.11779C18.0039 0.68489 18.0658 0.623047 18.6845 0.623047H25.3666C25.8616 0.623047 25.9234 0.623047 25.9234 1.11779V3.40599C25.9234 3.90073 25.8616 3.90073 25.3666 3.90073H24.9954C24.686 3.90073 24.6241 3.90073 24.686 4.33363V7.61131C24.686 8.41527 24.686 8.47712 25.3666 8.47712H28.9551C29.6357 8.47712 29.6357 8.41527 29.6357 7.61131V4.33363C29.6357 3.90073 29.5738 3.90073 29.3263 3.90073H28.9551C28.3983 3.90073 28.3364 3.90073 28.3364 3.40599V1.11779C28.3364 0.623047 28.4601 0.623047 28.9551 0.623047H35.5753C36.3178 0.623047 36.3178 0.623047 36.3178 1.11779V3.59151C36.3178 4.02442 36.2559 4.02442 35.6991 4.02442H35.1422C34.7091 4.02442 34.7091 4.08626 34.7091 4.51916V15.8364C34.7091 16.2693 34.771 16.2693 35.266 16.2693H35.8228C36.3178 16.2693 36.3178 16.2693 36.3178 16.9496V19.176C36.3178 19.547 36.3178 19.6707 35.6991 19.6707H28.6458C28.2127 19.6707 28.2127 19.6707 28.2127 18.9286V16.7641C28.1508 16.2693 28.2127 16.2693 28.7695 16.2693H29.1407C29.5738 16.2693 29.5738 16.2075 29.5738 15.7746V12.2495C29.5738 11.4456 29.512 11.3837 28.9551 11.3837H25.3666C24.8097 11.3837 24.7479 11.4456 24.7479 12.2495V15.7746C24.7479 16.2693 24.7479 16.2693 25.181 16.2693H25.5522C26.109 16.2693 26.109 16.2693 26.109 16.7641V18.9286C26.109 19.6707 26.109 19.6707 25.6759 19.6707H18.5607C18.0039 19.6707 18.0039 19.6707 18.0039 19.176V16.9496C18.0039 16.2693 18.0658 16.2693 18.437 16.2693H19.0557C19.6126 16.2693 19.6126 16.2693 19.6126 15.8364Z" fill="black"/>
<path d="M41.2673 4.39547C41.2673 3.96257 41.2673 3.96257 40.9579 3.96257H40.3392C39.7205 3.96257 39.7205 3.90073 39.7205 3.46783V1.11779C39.7205 0.623047 39.7824 0.623047 40.2773 0.623047H46.8976C47.64 0.623047 47.64 0.623047 47.64 1.11779V3.59151C47.64 4.02442 47.5781 4.02442 47.0213 4.02442H46.7119C46.2788 4.02442 46.2788 4.08626 46.2788 4.51916V15.8364C46.2788 16.2693 46.3407 16.2693 46.8357 16.2693H47.3307C47.7638 16.2693 47.7638 16.2693 47.7638 16.9496V19.176C47.7638 19.547 47.7638 19.6707 47.2069 19.6707H40.1536C39.7205 19.6707 39.7205 19.6707 39.7205 18.9286V16.7641C39.6586 16.2693 39.7205 16.2693 40.2773 16.2693H40.8342C41.2673 16.2693 41.2673 16.2693 41.2673 15.7746V4.39547Z" fill="black"/>
<path d="M60.6345 1.24171C59.6418 0.426338 58.3926 -0.0117889 57.1079 0.00485168C55.6848 0.0666948 50.4258 1.86014 50.4258 9.65237C50.4258 17.5064 55.128 20.042 58.0359 20.042C60.882 20.042 63.79 17.8775 64.718 14.0432C64.8418 13.4866 64.7799 13.4248 64.2231 13.1774L62.3669 12.4353C61.9338 12.3116 61.872 12.3116 61.6245 13.0537C61.4389 13.6103 60.6345 15.8367 58.7165 15.8367C56.7985 15.8367 55.9942 13.0537 55.9942 10.0853C55.9942 7.17865 56.4892 4.39571 58.8403 4.39571C61.1914 4.39571 61.6863 6.86943 61.872 7.79708C61.9338 8.22998 61.9957 8.22998 62.4288 8.22998H64.1612C64.5324 8.22998 64.5324 8.22998 64.5324 7.42602V0.994341C64.5324 0.623282 64.4705 0.623282 63.7281 0.623282H62.1813C61.872 0.623282 61.872 0.685126 61.6863 1.11803C61.5007 1.3654 61.1295 1.73646 60.6345 1.24171Z" fill="black"/>
<path d="M18.4993 28.6378V39.8933C18.4993 40.2643 18.4374 40.2643 18.0662 40.2643H17.4475C16.9525 40.2643 16.8906 40.388 16.8906 40.8827V43.2328C16.8906 43.6657 17.0144 43.6657 17.5093 43.6657H27.8418L24.3152 40.0788C23.6346 40.0788 23.5727 40.0788 23.5727 39.3367V36.1208C23.5727 35.5024 23.6346 35.4405 24.3152 35.4405V32.5339C23.5727 32.5339 23.5727 32.4721 23.5727 31.8537V28.576C23.5727 27.8957 23.6346 27.8957 24.2533 27.8957C24.9339 27.8957 27.6562 27.9575 27.6562 30.3076C27.6562 32.6576 25.1814 32.5339 24.3152 32.5339V35.5024C25.0576 35.5024 27.6562 35.5642 27.6562 37.9143C27.6562 40.2643 25.1814 40.2025 24.3152 40.2025L27.8418 43.7894C30.4404 43.7894 32.3584 41.4393 32.3584 38.7801C32.3584 36.1208 30.6879 35.0695 29.3267 34.08C30.3167 33.3379 31.9872 32.2247 31.9872 29.5655C31.9872 26.597 29.0793 24.7417 27.285 24.7417H17.7568C16.9525 24.7417 16.8906 24.7417 16.8906 25.3601V27.772C16.8906 28.1431 16.9525 28.2049 17.5093 28.2049H18.1281C18.4993 28.0812 18.4993 28.1431 18.4993 28.6378Z" fill="black"/>
<path d="M50.1148 28.4524V38.1618C50.1148 40.6355 48.8155 44.2843 43.9277 44.2843C38.978 44.2843 36.6269 40.6355 36.6269 38.1618V28.4524C36.6269 28.0195 36.565 28.0195 36.1938 28.0195H35.6369C35.0801 28.0195 35.0801 28.0195 35.0801 27.5248V25.3603C35.0801 24.6182 35.1419 24.6182 35.7607 24.6182H42.3809C42.8759 24.6182 42.9996 24.6182 42.9996 25.2366V27.4011C42.9996 27.8958 42.9377 27.8958 42.2571 27.8958H41.7003C41.3909 27.8958 41.3291 27.9577 41.3291 28.3287V37.7907C41.3491 38.544 41.6658 39.259 42.2103 39.7801C42.7549 40.3012 43.4832 40.5864 44.237 40.5737C44.6122 40.5998 44.9887 40.5462 45.3417 40.4164C45.6947 40.2866 46.0162 40.0836 46.285 39.8207C46.5539 39.5579 46.764 39.241 46.9015 38.8912C47.0391 38.5413 47.101 38.1662 47.0831 37.7907V28.4524C47.0831 27.8958 47.0212 27.8958 46.5881 27.8958H46.0932C45.5363 27.8958 45.4744 27.8958 45.4744 27.4011V25.2366C45.4744 24.68 45.4744 24.6182 46.0313 24.6182H50.9191C51.7853 24.6182 51.7853 24.6182 51.7853 25.2366V27.5248C51.7853 28.0195 51.7853 28.0195 51.1666 28.0195H50.5479C50.1148 28.0814 50.1148 28.0814 50.1148 28.4524Z" fill="black"/>
<path d="M73.1945 40.2646H72.5139C72.0808 40.2646 72.0189 40.3883 72.0189 41.0067V43.2331C72.0189 43.666 72.0808 43.666 72.5757 43.666H84.7644C85.3212 43.666 85.3831 43.666 85.3831 42.9857V37.4817C85.3831 36.9869 85.3212 36.9869 84.7644 36.9869H83.032C82.4751 36.9869 82.4133 36.9869 82.4133 37.6672V39.5844C82.4133 40.3265 82.3514 40.3883 81.8564 40.3883H79.1341C78.3298 40.3883 78.2679 40.2646 78.2679 39.7699V28.7618C78.2679 28.0197 78.2679 28.0197 78.701 28.0197H79.3816C79.9384 28.0197 79.9384 27.9579 79.9384 27.525V25.3604C79.9384 24.742 79.9384 24.6802 79.3197 24.6802H72.8232C71.957 24.6802 71.957 24.742 71.957 25.3604V27.5868C71.957 28.0815 72.0189 28.1434 72.5757 28.1434H73.1326C73.5657 28.1434 73.5657 28.1434 73.5657 28.8237V39.7699C73.6276 40.2646 73.5657 40.2646 73.1945 40.2646Z" fill="black"/>
<path d="M101.468 38.4093C101.468 42.4291 97.6321 44.1607 96.0234 44.1607C94.7473 44.1276 93.5138 43.695 92.4968 42.9238C92.0018 42.4291 91.445 42.9857 91.2593 43.233C91.0119 43.6659 90.95 43.7278 90.7644 43.7278H89.96C89.1557 43.7278 89.2176 43.7278 89.2176 43.2949V38.0382C89.2176 37.1724 89.2176 37.1724 89.527 37.1724H90.7644C91.1975 37.1724 91.1975 37.2343 91.3212 37.6053C91.5519 38.3476 92.011 38.9981 92.6331 39.4645C93.2552 39.9308 94.0085 40.1892 94.786 40.2027C95.7141 40.2027 96.4565 39.9554 96.4565 39.1514C96.4565 37.358 95.4047 36.9251 93.5486 35.9356C91.6924 35.0079 88.9082 33.8947 88.9082 29.8131C88.9031 28.3657 89.4508 26.9708 90.4397 25.9134C91.4286 24.8561 92.784 24.2158 94.2292 24.1235C95.4505 24.1473 96.628 24.5832 97.5702 25.3604C97.6668 25.4371 97.7797 25.4905 97.9002 25.5166C98.0207 25.5427 98.1456 25.5407 98.2652 25.5108C98.3848 25.4809 98.496 25.4239 98.59 25.3442C98.6841 25.2645 98.7585 25.1642 98.8076 25.0512C99.117 24.5564 99.117 24.5564 99.3645 24.5564H100.169C100.911 24.5564 100.973 24.5564 100.973 24.9893V30.246C100.973 31.05 100.973 31.1118 100.602 31.1118H99.4263C98.9314 31.1118 98.9314 31.05 98.8076 30.6789C98.5327 29.9281 98.0369 29.2782 97.3853 28.8145C96.7337 28.3509 95.9569 28.0953 95.1572 28.0815C94.9909 28.0663 94.8233 28.0878 94.6663 28.1446C94.5092 28.2014 94.3666 28.292 94.2485 28.41C94.1304 28.5281 94.0398 28.6706 93.983 28.8276C93.9261 28.9846 93.9046 29.1521 93.9198 29.3184C93.9198 30.4315 95.1572 31.421 97.2609 32.4724C99.3645 33.4618 101.468 35.0079 101.468 38.4093Z" fill="black"/>
<path d="M56.24 40.2646H55.5594C55.1263 40.2646 55.0645 40.3883 55.0645 41.0067V43.2331C55.0645 43.666 55.1263 43.666 55.6832 43.666H67.8718C68.3668 43.666 68.4286 43.666 68.4286 42.9857V37.4817C68.4286 36.9869 68.3668 36.9869 67.8718 36.9869H66.0775C65.5207 36.9869 65.4588 36.9869 65.4588 37.6672V39.5844C65.4588 40.3265 65.3969 40.3883 64.902 40.3883H62.1796C61.3753 40.3883 61.3753 40.2646 61.3753 39.7699V28.7618C61.3753 28.0197 61.3753 28.0197 61.7465 28.0197H62.4271C62.984 28.0197 62.984 27.9579 62.984 27.525V25.3604C62.984 24.742 62.984 24.6802 62.3653 24.6802H55.8688C55.0645 24.6802 55.0645 24.742 55.0645 25.3604V27.5868C55.0645 28.0815 55.0645 28.1434 55.6213 28.1434H56.1781C56.6112 28.1434 56.6112 28.1434 56.6112 28.8237V39.7699C56.6731 40.2646 56.6112 40.2646 56.24 40.2646Z" fill="black"/>
<path d="M12.4978 47.3767C15.1583 52.5097 20.5411 54.1794 26.0476 53.8702C29.0793 53.8702 32.0491 53.561 35.0808 53.3755V53.561C33.5447 57.868 32.4663 62.3246 31.8635 66.8573C23.944 67.1665 15.8388 66.4862 10.0229 61.2295C6.00131 57.2097 5.01137 51.6439 5.87757 46.1398C6.80564 45.0267 7.85745 44.099 8.78552 42.9858C10.0848 44.4082 12.1884 45.5214 12.4978 47.3767Z" fill="white"/>
<path d="M111.059 45.0887C111.245 45.8927 111.245 46.6348 111.369 47.5006C111.74 53.5612 109.079 59.1889 103.882 62.2811C98.1901 65.7443 91.6317 66.8575 84.6403 67.1048C84.5166 66.4864 84.4547 65.6206 84.3309 64.9403C83.8431 60.9246 83.0362 56.9542 81.918 53.0665C89.4044 52.9428 98.4995 54.9218 103.449 48.0572C104.068 47.0677 104.748 46.2637 105.305 45.2124C106.419 44.7176 107.471 43.9755 108.584 43.4189C109.513 43.8518 110.131 44.594 111.059 45.0887Z" fill="white"/>
<path d="M82.6589 75.9482C82.7207 78.2983 81.9164 80.7102 79.8128 81.8233C78.8197 82.3313 77.7093 82.5661 76.5955 82.5036C76.5645 82.2779 76.5645 82.049 76.5955 81.8233C78.266 81.8233 79.9365 81.2049 80.8646 79.8444C81.4403 78.7589 81.7379 77.5478 81.7308 76.3193C82.0057 76.1226 82.3241 75.9953 82.6589 75.9482Z" fill="white"/>
<path d="M40.4642 82.2561C40.1204 82.3536 39.7562 82.3536 39.4124 82.2561C38.6598 82.2572 37.9152 82.1026 37.2253 81.802C36.5354 81.5014 35.9153 81.0613 35.4039 80.5095C34.8925 79.9576 34.5008 79.3059 34.2537 78.5954C34.0065 77.8849 33.9091 77.131 33.9677 76.381C34.3073 76.2571 34.6799 76.2571 35.0195 76.381C35.0195 78.5456 35.8857 81.3903 40.3404 81.3903C40.6498 81.8851 40.3404 81.9469 40.4642 82.2561Z" fill="white"/>
</g>
<defs>
<clipPath id="clip0_38_1029">
<rect width="123" height="124" fill="white"/>
</clipPath>
</defs>
</svg>
