<svg width="122" height="119" viewBox="0 0 122 119" fill="none" xmlns="http://www.w3.org/2000/svg">
<g clip-path="url(#clip0_38_1027)">
<path d="M119.208 19.2001C116.466 26.4596 112.876 34.0477 111.081 37.1684C108.045 42.3915 102.006 45.5122 98.4817 46.7275C98.4817 46.7275 96.7519 50.9321 94.9565 53.2317H102.17V63.0863L109.09 66.4039L102.17 69.886V78.2298L95.4788 82.369C95.4788 82.369 90.1583 81.712 87.5471 81.4165L66.3961 93.7348C62.2181 113.017 61.1411 118.568 61.1411 118.568C61.1411 118.568 60.1291 113.28 55.8861 93.7348L34.7329 81.4183C32.1542 81.7138 26.8012 82.3708 26.8012 82.3708L20.11 78.2316V69.8879L13.1902 66.4389L20.11 63.1213V53.2008H27.3234C25.5606 50.9998 23.7657 46.6311 23.7657 46.6311C21.6767 45.9082 19.5877 44.9557 17.7924 43.8059C14.9201 41.9991 12.6025 39.6013 11.1013 37.1375C8.42451 31.9804 4.99739 24.3263 3.16953 19.1692C1.92897 16.0485 0.427734 11.2856 0.427734 11.2856C0.427734 11.2856 4.37711 13.1578 5.55216 13.7493C3.69177 8.03346 2.027 0.478516 2.027 0.478516C2.027 0.478516 29.0858 18.4468 48.0804 33.7213L48.3741 33.4912V32.4728C48.3741 32.2427 48.3741 31.8813 48.5046 31.3889C48.7332 30.7319 49.223 30.009 50.3 29.2866C48.9289 28.2027 46.3506 26.5273 46.122 26.2318C44.3267 24.6223 43.9675 22.8155 44.0981 21.9612L44.3917 19.9244L54.6736 27.6107C60.2877 26.0013 64.2371 26.7565 67.2075 27.6107L77.4893 19.9244L77.783 21.9612C77.9135 22.9137 77.6524 24.6551 75.759 26.2318C75.5304 26.4618 73.0172 28.2027 71.5811 29.2866C72.7236 30.0095 73.1803 30.7319 73.3764 31.3889C73.507 31.8817 73.507 32.2432 73.507 32.4728V33.4912L73.8006 33.7213C93.2868 18.0853 119.922 0.511251 119.922 0.511251C119.922 0.511251 118.551 6.7527 116.397 13.7821C117.474 13.2892 121.521 11.3183 121.521 11.3183C120.803 15.1287 119.203 19.202 119.203 19.202L119.208 19.2001Z" fill="#A1A1A4"/>
<path d="M30.0357 54.3805H21.3861V63.8081L16.1962 66.3373L21.3861 69.0966V77.4403L27.1308 80.988C29.2198 80.6924 31.8961 80.331 35.0625 80.0355L57.1599 92.8466L61.2072 111.472C61.2072 111.406 65.3201 92.8466 65.3201 92.8466L87.4175 80.0355C90.5184 80.3969 93.2602 80.6924 95.3492 80.988L101.029 77.4403V69.0966L106.219 66.4028L101.029 63.8077V54.38H92.3793C92.3793 54.38 93.7504 53.0661 95.4147 50.1754C96.133 48.9602 96.7858 47.4162 97.5692 45.6753C103.836 43.8031 108.438 39.7299 110.462 35.8208C115.848 25.9663 119.895 13.8121 119.895 13.8121C119.895 13.8121 117.578 14.9619 114.771 16.3413C116.99 9.37746 118.426 3.432 118.426 3.432C118.426 3.432 93.6523 19.9549 74.2968 35.4593L72.632 34.4409C72.632 34.3095 72.6975 32.9297 72.6975 32.7655C72.6975 32.7655 72.9261 31.1561 70.0208 30.1704C69.7922 30.1045 69.6616 30.039 69.5311 30.039C70.9022 28.9551 73.1217 27.3452 74.6555 26.2613C77.1687 24.5205 76.875 22.5823 76.875 22.5823L67.6707 29.4802C60.6204 27.1479 54.7126 29.4802 54.7126 29.4802L45.5083 22.5823C45.5083 22.5823 45.2147 24.4545 47.7278 26.2613C49.3271 27.3452 51.5466 28.9551 52.9178 30.039C52.7872 30.1049 52.5586 30.1704 52.428 30.1704C49.5557 31.1888 49.7513 32.7655 49.7513 32.7655C49.7513 32.8969 49.8168 34.2768 49.8168 34.4409L48.1521 35.2952C28.7879 19.8276 4.04682 3.33789 4.04682 3.33789C4.04682 3.33789 5.41794 9.28334 7.70253 16.2472C4.6671 14.8019 2.57812 13.718 2.57812 13.718C2.57812 13.718 6.59299 25.9049 11.946 35.7267C13.9044 39.7012 18.5721 43.709 24.839 45.5812C24.839 45.5812 25.916 48.045 26.7974 49.7858C27.9399 52.0195 30.0289 54.3846 30.0289 54.3846L30.0357 54.3805Z" fill="#1D1160"/>
<path d="M113.561 10.2324C95.7383 21.2036 79.8451 33.5223 71.5507 40.2561C71.4874 40.5516 71.3248 40.8476 71.257 41.0445C79.9761 35.3291 95.0878 25.4082 112.061 14.3056C112.061 14.3056 112.061 14.6671 113.561 10.2324ZM8.71875 10.2652C10.1549 14.6012 10.2204 14.3384 10.2204 14.3384C27.1934 25.3427 42.4035 35.3618 51.1204 41.0777C50.9577 40.8476 50.89 40.5516 50.8267 40.2561C42.6321 33.5223 26.7032 21.2036 8.71875 10.2652ZM61.413 30.443C60.008 30.4348 58.5307 30.5985 57.0579 30.9599C58.594 33.1277 58.3681 36.1829 58.3681 36.1829C57.7763 33.4236 55.9827 32.1424 54.9075 31.5509C54.4829 31.6823 53.9904 31.8142 53.4031 32.0438C54.5461 32.5039 55.9195 33.6537 56.8637 35.8215C57.32 36.9054 57.582 41.0449 59.8996 42.0634C57.975 43.8697 55.5897 43.3768 53.7962 41.7674C56.0144 46.6289 59.7686 48.5021 61.2052 49.0931C62.4792 48.1066 63.1297 45.1181 62.5108 42.0634C64.8284 41.0449 65.122 36.9054 65.5467 35.8215C66.4954 33.555 67.8642 32.5366 69.0072 32.0438C68.5193 31.9124 67.9953 31.6823 67.5073 31.5509C66.4276 32.1097 64.6341 33.4891 64.0468 36.1829C64.0468 36.1829 63.848 33.1277 65.3524 30.9599C64.1597 30.6312 62.8225 30.4511 61.413 30.443ZM93.9448 46.1698L92.2778 46.6608C86.6668 48.1702 76.0909 49.616 76.0909 49.616C81.1824 49.6842 85.5871 50.1116 88.0357 50.4071C88.5597 49.7478 89.1787 49.025 89.4091 48.3703C89.4091 48.3703 89.1787 50.3071 88.754 51.5574C88.2706 53.1577 87.5884 54.508 87.3354 54.8081C87.7691 54.4853 91.6905 51.4437 93.9448 46.1698ZM87.3354 54.8081C87.3129 54.8263 87.2541 54.8717 87.2541 54.8717C87.2677 54.8763 87.2993 54.8536 87.3354 54.8081ZM28.3707 46.2016C30.8188 51.8529 35.0623 54.9081 35.0623 54.9081C35.0623 54.9081 34.2134 53.3941 33.5606 51.5892C33.1364 50.3753 32.9078 48.4021 32.9078 48.4021C33.1364 48.9931 33.7892 49.7842 34.2789 50.4389C36.727 50.1434 41.1006 49.7842 46.2259 49.6524C46.2259 49.6524 35.5845 48.1384 30.0354 46.6926L28.3707 46.2016ZM37.1508 75.1082C36.3674 75.1764 35.65 75.2401 34.9317 75.3401L49.9801 84.1103C49.1624 83.2237 48.5118 82.369 47.9562 81.4142L37.1508 75.1082ZM85.2325 75.1082L74.4262 81.4142C73.9383 82.369 73.2832 83.2237 72.4023 84.1103L87.4506 75.3401C86.7323 75.2401 86.014 75.1764 85.2325 75.1082ZM60.2632 75.6356C57.2274 75.6992 54.9414 76.063 53.3422 76.4858C53.699 76.9132 54.1237 77.2769 54.4851 77.6361C56.2786 79.3774 57.8779 80.1685 57.8779 82.5645C57.8779 83.2874 57.521 83.9466 57.0286 84.4376C56.7349 84.865 56.1476 85.1605 55.6597 85.456C55.5287 85.5561 55.2983 85.6197 55.1718 85.6834C57.1912 86.9336 58.6278 87.4247 59.2151 87.6565C59.2151 87.6565 58.0767 87.852 56.7033 87.7202C57.1596 88.4431 57.5843 89.1023 58.0089 89.8889C58.3703 89.757 59.5088 89.1023 61.108 89.1023C62.7751 89.1023 63.8503 89.757 64.0807 89.8889C64.4376 89.1023 64.9616 88.4431 65.3863 87.7202C64.0807 87.9521 62.8745 87.6565 62.8745 87.6565C63.4618 87.4247 64.9616 86.9973 66.9178 85.6834C66.7913 85.5879 66.5609 85.5197 66.4299 85.456C66.0052 85.2242 65.4857 84.865 65.061 84.4376C64.5686 83.9466 64.2117 83.3556 64.2117 82.5645C64.2117 80.2321 65.811 79.3774 67.6045 77.6361C67.9659 77.2769 68.3228 76.8495 68.7474 76.4858C67.0849 76.063 64.8622 75.6992 61.8264 75.6356L61.0448 85.7197H60.977L60.2632 75.6356ZM52.4296 76.654C50.9252 77.2451 50.0442 77.8043 49.5563 78.1635C50.6315 79.1819 52.6555 80.4958 56.247 81.2823C55.854 80.2003 54.711 79.0182 53.5048 77.7361L52.4296 76.654ZM69.922 76.7177L68.8468 77.7997C67.6722 79.0182 66.5293 80.2003 66.1046 81.3505C69.7594 80.5595 71.7201 79.2455 72.7953 78.2271C72.3706 77.8043 71.4219 77.2087 69.922 76.7177ZM49.6196 79.5092C50.6315 81.4824 52.0682 83.2874 53.8617 84.4376C53.9295 84.4694 55.9534 83.8147 56.378 82.9282C51.6119 81.8416 49.6196 79.5092 49.6196 79.5092ZM72.7953 79.541C72.7953 79.541 70.8346 81.9416 66.0368 82.96C66.4615 83.8148 68.5532 84.4694 68.5532 84.4694C70.3467 83.1555 71.8511 81.5142 72.7953 79.541Z" fill="#00788C"/>
<path d="M112.225 14.2729C95.252 25.3428 80.1042 35.2964 71.4258 41.0118C71.0644 41.9643 70.7075 42.7527 70.2828 43.541L104.554 24.7849L77.8544 44.198L79.16 43.9679L93.2597 42.5881C93.2597 42.5881 102.824 41.6356 108.177 34.4744C110.689 30.5653 114.931 19.3318 114.931 19.3318L108.633 22.5176C110.657 17.7219 112.225 14.2729 112.225 14.2729ZM10.2247 14.3384C10.2247 14.3384 11.726 17.7219 13.8149 22.5176L7.64648 19.3973C7.64648 19.3973 11.8895 30.6312 14.3702 34.5403C19.7232 41.7011 29.2862 42.6535 29.2862 42.6535L43.3872 44.0339L44.6924 44.2635L17.9929 24.8504L52.1682 43.6065C51.7436 42.8181 51.3822 42.0302 51.0253 41.0777C42.3427 35.3619 27.1977 25.4082 10.2247 14.3384ZM55.9211 38.6135C55.9527 38.6135 53.6351 42.5231 57.945 42.293C57.945 42.293 56.2147 41.1427 55.9211 38.6135ZM66.5918 38.6135C66.2982 41.1427 64.5679 42.293 64.5679 42.293C68.8145 42.5231 66.5918 38.6135 66.5918 38.6135ZM37.9999 52.444V56.2221L38.5226 56.7131H41.1008V55.3355H40.0893V55.7584H39.1099V53.4624H40.0893V53.7579H41.1008V52.444H37.9999ZM43.4839 52.444V56.7131H44.4959V55.3355H45.7021V56.7131H46.714V52.444H45.7021V54.3808H44.4959V52.444H43.4839ZM49.0316 52.444V56.6495H50.1113V55.2673H51.3492V56.6495H52.3295V52.935L51.8416 52.444H49.0316ZM52.3295 56.6495V56.7131L52.3611 56.6495H52.3295ZM60.6872 52.444V56.7131H63.2985V55.7584H61.7624V52.444H60.6872ZM65.3856 52.444V56.2221L65.8735 56.7131H68.6835V52.935L68.1911 52.444H65.3856ZM71.0011 52.444V53.4624H71.9453V56.7131H73.0883V53.4624L73.9376 53.3942V52.444H71.0011ZM76.0925 52.444V53.4624H77.0367V56.7131H78.1797V53.4624L78.9658 53.3942V52.444H76.0925ZM81.4098 52.444V56.7131H84.5135V55.7584H82.4218V55.1037H84.5135V54.1171H82.4218V53.4624H84.5135V52.444H81.4098ZM54.7781 52.5394V56.745H55.8533V55.2673H56.6394L57.2899 56.7131H58.3697L57.683 55.2673H58.1076V53.035L57.6152 52.5394H54.7781ZM50.1113 53.3624H51.3492V54.3808H50.1113V53.3624ZM55.8533 53.3942H57.0957V54.2489H55.8533V53.3942ZM66.3976 53.4306H67.6038V55.7584H66.3976V53.4306ZM88.2677 56.6495L89.4107 57.9634V64.8605L95.383 67.4565V71.2983C95.383 71.2983 94.0097 71.1664 92.2794 70.8709V69.657L89.4107 69.2933V73.2033C92.573 73.5624 95.514 73.9898 98.2518 74.5172C98.1885 72.3485 98.1885 69.1614 98.1885 67.5838C99.1372 67.161 99.982 66.7336 100.868 66.2744C97.9943 64.8923 95.121 63.742 92.1484 62.5918V59.2774H95.252V60.4913H98.1885V56.6495H88.2677ZM23.9991 56.7131V65.256C23.9991 65.256 21.6161 66.4017 21.6161 66.4699L23.9991 67.7157V74.6809C24.9456 74.549 25.8595 74.3217 26.8715 74.1899V67.5202L30.1676 66.1426V73.5988C31.1145 73.467 32.028 73.3033 33.0399 73.2351V56.7131H30.1676V62.66L26.8715 64.0375V56.7131H23.9991ZM45.4098 59.1773L46.5528 60.5549V71.9894C47.5647 71.9212 48.414 71.9212 49.426 71.8575V67.4201H49.3944C50.1127 67.4201 50.7632 67.3565 51.5493 67.3565C52.1366 68.7341 52.6245 70.3117 53.1441 71.6938C54.156 71.6938 55.0053 71.6256 56.0173 71.6256C55.43 70.2481 54.9421 68.6704 54.418 67.2883H55.561V60.4913L54.2554 59.1773H45.4098ZM34.1499 59.241L35.2274 60.5549V71.4301L36.3699 72.8077C38.8831 72.5122 41.6249 72.3167 44.3667 72.153V60.6231L42.9955 59.241H34.1499ZM79.5526 59.241V61.9371H82.0645V72.4486C83.1397 72.5122 84.1516 72.5804 85.2313 72.7441V61.9371H87.7432V59.241H79.5526ZM56.6389 59.2774L57.7774 60.6549V71.7257H60.7184C60.6868 71.6256 60.6868 61.9371 60.6868 61.9371H63.9802V71.6575C64.9921 71.6575 66.0041 71.6575 67.0161 71.7257V60.6549L65.6472 59.2774H56.6389ZM68.159 59.341L69.2342 60.7186V71.8893C72.1752 71.953 75.1434 72.1212 77.9488 72.3167V69.3615H77.8856V69.3251C76.0243 69.2615 74.1314 69.0978 72.2701 69.0296V66.9928C74.1314 67.061 76.0243 67.1246 77.8856 67.2246V64.3331C76.0243 64.2694 74.1314 64.2694 72.2701 64.2012V62.0371H77.8856V59.341H68.159ZM38.0975 61.9371H41.394V69.457C40.2515 69.5252 39.24 69.5888 38.0975 69.6888V61.9371ZM49.3926 61.9371H52.686V64.5331C51.5475 64.5331 50.531 64.5331 49.3926 64.5968V61.9371ZM61.1431 92.0576C59.7697 92.0576 59.4128 92.4213 58.9881 92.7168L61.2063 101.683L63.298 92.7805C63.0043 92.4213 62.5119 92.0576 61.1431 92.0576Z" fill="white"/>
</g>
<defs>
<clipPath id="clip0_38_1027">
<rect width="122" height="119" fill="white"/>
</clipPath>
</defs>
</svg>
