<svg width="97" height="169" viewBox="0 0 97 169" fill="none" xmlns="http://www.w3.org/2000/svg">
<g clip-path="url(#clip0_34_729)">
<path fill-rule="evenodd" clip-rule="evenodd" d="M51.0257 0.735107L48.7197 5.07708C46.7776 8.72141 45.8603 12.5441 45.4036 16.456C44.9617 20.2883 44.9617 24.3181 44.9394 28.5645L44.5755 62.3191C30.3791 67.3651 17.1259 74.6793 9.24598 80.2445C9.06773 80.4834 5.25405 85.5358 3.08912 88.4188C6.08214 87.7848 13.7355 86.1666 13.7355 86.1666L11.2624 88.8425C-3.7213 104.987 1.44407 115.283 2.07907 116.404L2.1162 116.468L2.14591 116.532C3.70184 120.262 7.27786 123.12 12.7923 125.012C16.4166 126.251 20.8987 126.745 26.4948 126.519C32.1207 126.296 38.0287 125.232 43.9219 123.601L43.8922 126.91C38.8383 129.277 34.7646 133.412 32.5923 138.391C31.7642 140.344 31.2443 142.427 31.1218 144.571C31.1032 144.922 31.1106 146.107 30.9621 147.719C30.8173 149.241 30.5276 151.162 29.8815 153.09L29.525 154.179L28.1919 156.861C28.3218 157.317 31.935 156.275 33.5578 155.772C33.8029 155.695 34.1668 155.565 34.6532 155.336C35.5185 154.921 36.6399 154.24 38.0176 153.102C38.8531 152.408 39.6069 151.612 40.2382 150.888C40.8509 150.188 41.4154 149.49 41.913 148.91C42.6222 148.069 43.2832 147.225 43.9442 146.429L43.9962 153.609L44.0259 158.381V159.662C43.7734 159.967 43.4726 160.369 43.1644 160.863C42.418 162.041 40.5873 165.873 40.3868 168.024C40.3385 168.537 42.1098 168.463 44.6795 168.336C45.0322 168.323 45.5373 168.282 46.15 168.212C47.3309 168.075 48.9165 167.826 50.5244 167.396C53.4023 166.628 58.0144 164.857 58.6568 160.875L58.8907 159.464L58.991 158.741C64.6874 154.236 66.2396 149.394 66.0131 145.345C65.9351 143.915 65.6269 142.603 65.2518 141.488L67.465 141.813L70.0607 142.198L70.5175 139.965C72.0585 132.326 67.0083 125.99 56.982 124.741V120.367L56.9895 119.093C66.8449 115.022 75.9874 109.778 82.8535 104.665L85.0592 94.8473C83.4848 95.5959 81.5723 96.4401 81.5723 96.4401L81.5129 96.4656C72.0511 100.021 63.4397 102.843 56.9895 104.821L57.0043 73.5388C58.6382 72.7456 60.2387 72.0543 61.7612 71.5032C66.4921 69.7894 70.1758 68.8496 71.5944 69.1586C73.0166 69.4613 72.5896 70.8438 72.5896 70.8438C72.1514 72.0193 71.6166 73.2203 70.7031 74.7589C70.1907 75.6222 66.8672 81.8182 64.6985 85.4657C71.3827 82.1909 85.7314 74.2874 96.1847 69.0599V64.0203C95.7093 63.6093 94.807 62.8193 94.807 62.8193C85.5383 55.2567 71.4421 55.2153 57.0043 58.6302L57.0118 28.007C57.034 23.767 57.086 19.7213 56.6924 15.9687C56.2951 12.1236 55.415 8.40603 53.4803 5.02293L51.0294 0.741479L51.0257 0.735107ZM44.375 81.3882L44.0927 108.51C35.0171 110.865 29.8889 111.486 26.0752 110.724L26.0307 110.718L25.5219 110.587L25.4774 110.568C23.9623 110.062 23.5204 108.889 23.4981 108.271C23.2827 100.616 40.4722 84.6884 40.643 84.5292C41.7904 83.4747 43.0418 82.4171 44.3713 81.3882H44.375Z" fill="#FFB81C"/>
<path fill-rule="evenodd" clip-rule="evenodd" d="M72.5374 57.5598C67.5614 57.6873 62.3069 58.4964 57.0004 59.7738V66.8968C67.8622 62.4338 80.2242 61.1468 71.8393 75.2399L93.9378 63.6125C88.3269 59.0316 80.8257 57.3496 72.5337 57.5598H72.5374ZM44.5641 63.5392C30.5051 68.5979 17.4636 75.8356 10.0702 81.0855C14.8085 79.9514 19.6508 79.0563 24.4448 78.1165C-28.2784 121.364 25.3138 138.576 82.0809 97.4372C62.0135 104.997 45.8601 109.192 45.8601 109.192C4.29949 120.291 17.5935 97.1186 36.5691 79.7794C37.906 78.5561 40.9101 76.0968 44.4527 73.6694L44.5604 63.5392H44.5641Z" fill="#6F2633"/>
<path fill-rule="evenodd" clip-rule="evenodd" d="M81.6887 103.869C67.2017 114.66 44.9444 124.659 26.4376 125.4C22.1022 125.575 17.3397 125.356 13.2735 123.966C7.71729 122.059 4.6398 119.303 3.32617 116.078C5.03899 118.013 7.65231 119.677 11.3843 120.96C15.4505 122.353 20.2176 122.568 24.5484 122.393C44.522 121.593 68.8542 110.017 83.0859 98.2941L81.6887 103.869ZM14.6753 84.819C11.7928 85.4202 8.87311 86.0415 6.26443 86.591C6.63113 86.1768 9.31406 83.0231 9.92213 82.3302C13.1064 81.6971 16.3742 81.0639 19.3403 80.4746C17.9153 81.705 16.3185 83.1744 14.6753 84.819ZM95.122 64.5107L95.1824 68.4927L67.8933 82.6567C68.1904 82.4019 71.2726 77.293 71.4489 76.9346L95.122 64.5107ZM59.371 67.4455C58.5958 67.7242 57.7975 68.0428 56.9991 68.3852V72.2358C58.4427 71.5549 59.8677 70.9536 61.2602 70.4519C66.1666 68.6799 70.3674 67.553 72.679 68.1941C73.0225 63.4834 67.0671 64.662 59.371 67.4455ZM44.4384 75.4852C41.9829 77.2094 39.7131 79.0092 37.8239 80.7493C32.4812 85.6791 20.1526 98.517 20.3383 105.267C20.3894 107.031 21.1181 108.265 22.3064 109.101C22.26 108.838 22.2368 108.564 22.2229 108.269C22.0372 101.523 34.3704 88.6815 39.7131 83.7558C41.0963 82.4815 42.6792 81.1754 44.392 79.8892L44.4384 75.4852ZM54.344 126.749L54.3393 120.111C53.1093 120.589 51.8653 121.047 50.6213 121.481L50.6027 128.31C50.598 129.64 48.0869 129.863 48.189 128.876L48.2354 122.282C47.6738 122.465 47.1074 122.644 46.5458 122.815L46.5133 128.231L46.1977 128.418C41.2774 130.393 37.188 134.291 35.1409 138.978C35.1177 139.034 35.0899 139.094 35.0667 139.153C34.324 140.898 33.8644 142.753 33.753 144.656C33.7113 145.373 33.8134 149.507 32.4208 153.684C32.4255 153.668 33.7113 153.5 36.1946 151.446C37.5686 150.311 38.8033 148.702 39.7827 147.543C42.0526 144.872 43.8675 142.144 46.5504 140.973L46.569 143.366C46.6015 147.934 46.6757 160.33 46.6665 160.385C46.6479 160.453 44.3734 162.512 44.0532 166.044C44.0392 166.191 55.2445 165.51 56.0475 160.533C56.0475 160.533 53.8891 159.318 53.9587 159.274C69.7361 149.885 60.9632 138.616 60.9632 138.616C64.7833 139.086 66.9046 139.4 67.9165 139.552C69.2905 132.742 64.5744 127.14 54.344 126.749V126.749ZM48.2679 162.301C48.2864 162.408 46.8475 163.157 45.5524 164.865C46.1234 163.591 46.7965 162.309 47.7852 161.206C49.3959 161.508 51.1783 160.652 52.6683 160.095C50.7048 162.221 49.5165 162.046 48.2679 162.301V162.301ZM48.059 159.669L48.1472 140.213C48.3236 140.061 49.6929 139.52 50.2407 139.484L50.0503 159.481C50.0457 160.31 48.0544 160.302 48.059 159.669ZM52.7193 157.439C57.6303 147.301 54.0516 139.767 54.098 139.635C60.1648 140.4 62.1747 151.709 52.7193 157.439ZM59.0461 153.548C61.3623 149.335 62.0493 141.925 56.6881 138.616L58.5169 138.632C63.8968 142.327 61.5109 151.868 59.0461 153.548V153.548ZM66.0134 137.588C57.1894 135.518 46.8707 137.373 42.1732 142.251C40.2283 144.25 38.4876 147.201 35.062 150.239C35.7954 146.584 35.7583 145.397 35.8836 144.079C36.436 138.234 39.987 133.312 47.0889 130.393H47.1028C47.1028 130.457 47.0982 130.516 47.1074 130.576C47.2467 131.536 48.8156 132.161 50.6213 131.97C52.0742 131.815 53.216 131.177 53.5363 130.433C53.541 130.425 53.5502 130.413 53.5595 130.401C56.1032 130.875 58.3452 132.018 59.3246 133.336C54.7525 133.164 48.0683 134.451 42.5724 139.906C50.1246 134.761 58.8047 134.733 64.3749 135.936C64.5652 133.073 60.0162 130.039 57.4957 128.848C62.0354 130.118 66.8907 133.519 66.0134 137.588V137.588ZM48.3236 107.341L48.7646 39.3485L48.862 21.6524C49.2473 22.2776 50.6863 24.7385 50.8162 33.4432L50.677 106.668C51.7539 106.358 52.9793 105.999 54.3347 105.593L54.3718 27.9599C54.4229 19.6296 54.5993 12.0717 51.1133 5.99123C47.553 12.685 47.618 20.2229 47.567 28.5573L46.7918 107.763C47.2096 107.652 47.7202 107.508 48.3236 107.341" fill="#041E42"/>
</g>
<defs>
<clipPath id="clip0_34_729">
<rect width="97" height="169" fill="white"/>
</clipPath>
</defs>
</svg>
