<svg width="123" height="127" viewBox="0 0 123 127" fill="none" xmlns="http://www.w3.org/2000/svg">
<g clip-path="url(#clip0_38_1035)">
<path d="M118.539 65.1858C119.252 63.4704 121.929 56.9045 121.929 56.9045L110.628 63.1155C110.569 63.1747 107.238 64.9492 102.48 67.0196C105.106 60.5216 107.311 53.8632 109.082 47.0852C113.067 32.0014 115.208 15.3796 115.267 14.6698L116.16 7.98556C116.16 7.98556 94.8666 13.8416 92.8444 14.374C85.2908 5.32371 73.6332 0 61.4403 0C49.1284 0 37.4708 5.38286 29.9172 14.4923C27.8355 13.9008 6.54253 7.98556 6.54253 7.98556L7.43469 14.6698C7.43469 14.9064 9.69483 31.9422 13.8583 47.2627C15.7136 53.8097 17.9376 60.2477 20.5197 66.5463C15.4642 64.3577 11.1818 62.4057 11.0628 62.3465L0.594775 57.3777C0.594775 57.3777 3.09283 63.6479 3.80656 65.3633C3.62813 65.3633 0 63.9436 0 63.9436L3.50917 73.2897V73.2306C3.74708 73.9404 5.23402 77.9036 16.5347 108.13L18.1406 112.271C18.1406 112.271 20.6387 111.443 21.4119 111.206C22.0067 112.863 23.6721 117.24 23.6721 117.24L28.2518 114.933C31.7015 113.158 39.1957 110.142 45.2029 109.195C52.3997 118.955 57.9906 124.042 58.288 124.22L61.3808 127L64.4142 124.22C64.7115 123.983 70.3619 118.719 77.3802 109.254C82.7823 110.044 87.9991 111.786 92.7849 114.401L97.2457 116.826L99.2085 112.212C99.3367 111.806 99.4958 111.411 99.6843 111.029C100.041 111.088 102.182 111.857 102.182 111.857L103.848 107.716C104.145 106.888 111.401 90.1481 118.36 73.9404L123 63.1747C123.059 63.1747 118.539 65.1858 118.539 65.1858Z" fill="white"/>
<path d="M111.52 64.7715C107.473 66.8904 103.302 68.7669 99.0296 70.391C102.397 62.688 105.161 54.738 107.297 46.6118C111.282 31.5279 113.423 14.6104 113.483 14.4329L113.958 10.4697L110.092 11.5345C110.092 11.5345 62.451 24.6071 61.083 25.0212C59.715 24.6663 8.74276 10.5289 8.74276 10.5289L9.27806 14.4921C9.27806 14.6695 11.4787 31.5279 15.6422 46.7892C18.1997 56.017 21.1141 63.1744 23.969 69.9178C17.1291 67.2559 10.3487 64.0617 10.2892 64.0026L4.10352 61.1041L6.60157 67.3742C12.6683 82.4581 15.7611 90.7394 19.6866 101.269L24.6827 114.696L27.3592 113.336C31.4037 111.324 39.6711 108.071 46.0946 107.243C53.4104 117.417 59.2392 122.622 59.5366 122.859L61.3209 124.515L63.1052 122.859C63.4026 122.622 69.2909 117.062 76.4877 107.243C83.9818 108.012 90.4054 111.029 93.6767 112.803L96.3531 114.223L97.4832 111.502C100.457 104.344 115.148 68.3798 115.326 68.0249L118.181 61.0449L111.52 64.7715Z" fill="black"/>
<path d="M116.873 66.4874C116.754 66.5465 104.978 71.5153 95.3422 73.8814C99.0892 65.3043 102.36 57.5554 105.453 46.139C109.438 31.1734 111.52 14.3742 111.58 14.1967L111.698 13.0137L110.568 13.3094C110.568 13.3094 61.44 26.7962 61.0236 26.9145C60.6668 26.7962 10.9436 13.0137 10.9436 13.0137L11.0625 14.1967C11.122 14.3742 13.3227 31.1734 17.4266 46.2573C20.1626 56.1948 23.3149 63.7072 26.4077 70.9238C26.4077 70.9238 26.943 72.2251 27.4188 73.349C19.092 71.2787 7.79125 67.3155 7.6723 67.2563L6.06641 66.724L6.66118 68.2619C11.5978 81.3346 14.1553 88.3146 16.8318 95.7677L22.2443 110.674L22.958 110.438C30.7633 108.142 38.7381 106.461 46.8085 105.41C54.0053 115.702 60.6668 121.499 60.7262 121.558L61.2615 121.972L61.7968 121.558C66.8932 116.637 71.5131 111.25 75.5956 105.469C81.9597 105.883 93.9147 108.604 98.435 110.319L99.1487 110.615L99.4461 109.905C102.42 102.807 117.765 67.8479 117.884 67.5521L118.657 65.7184L116.873 66.4874Z" fill="white"/>
<path d="M92.6654 76.129L93.3197 74.7094C97.4831 65.1858 100.754 57.6735 103.907 45.7247C107.237 33.1253 109.319 19.2245 109.854 15.2021C107.654 15.7937 61.2613 28.5114 61.2613 28.5114L61.0234 28.5706C61.0234 28.5706 15.0473 15.8528 12.7871 15.2613C13.3819 19.3428 15.4636 33.2436 18.9728 45.9613C21.6493 55.7806 24.8016 63.1747 27.8349 70.3912L30.0356 75.6558L47.5815 103.812L47.8788 104.226C53.8861 112.981 59.5364 118.423 61.2613 119.961C62.9267 118.423 68.3986 112.981 74.5842 104.345L74.8222 103.99L92.6654 76.129Z" fill="#C4CED4"/>
<path d="M27.9537 59.0339C27.4779 58.3832 25.4556 55.189 25.4556 49.8653V49.3921C24.0433 45.5852 23.3185 41.5602 23.3145 37.5025C23.3145 27.624 27.5968 18.692 34.4962 12.1853C41.8182 5.41777 51.4438 1.65625 61.4395 1.65625C71.4353 1.65625 81.0609 5.41777 88.3829 12.1853C91.9109 15.406 94.7309 19.3178 96.6655 23.6748C98.6 28.0318 99.6073 32.7396 99.6241 37.5025C99.6319 41.0824 99.0492 44.6393 97.8993 48.0316C97.931 54.565 96.0279 60.9631 92.4273 66.4279C92.2115 66.6329 91.9719 66.8116 91.7136 66.9603H91.6541C91.5946 67.0195 91.5947 67.0195 91.5947 67.1378C91.5947 67.1378 91.4757 67.5518 91.3567 67.9067L91.4757 67.8476L91.2973 68.0842C87.9131 72.6267 83.4998 76.3117 78.4154 78.84C73.331 81.3683 67.7188 82.6687 62.0343 82.6357C46.1538 82.6948 32.7119 72.7572 27.9537 59.0339Z" fill="black"/>
<path d="M112.948 69.6225C112.71 69.6817 88.6812 79.9742 61.0836 79.8559C36.8168 79.7376 9.27871 69.4451 9.0408 69.3268L3.27148 67.1381L5.3532 72.6393C5.3532 72.8167 5.3532 72.8167 18.3788 107.539L19.3304 110.024L21.8879 109.255C34.5603 105.324 47.7501 103.291 61.0242 103.221C77.8563 103.221 92.5472 106.652 98.6139 108.722L101.171 109.55L102.183 107.066C102.599 106.119 111.104 86.3626 116.755 73.2308L119.55 66.7832L112.948 69.6225Z" fill="#007DC5"/>
<path d="M113.186 72.9346L110.748 73.8218C110.748 73.8218 105.335 75.833 105.276 75.833C103.911 76.2347 102.638 76.8978 101.529 77.7851C100.939 78.3087 100.42 78.905 99.9821 79.5596C100.049 79.4099 100.089 79.2498 100.101 79.0864L100.874 77.0752L98.7926 77.6668L93.8559 78.9681C93.3801 79.0864 89.9899 79.7371 88.9788 79.9737L87.8487 80.1512L82.0794 81.1567C81.782 81.1567 79.5814 81.5708 78.3918 82.6947C78.1546 82.976 77.9361 83.2724 77.7375 83.582L78.0944 81.63L76.6075 81.8074L71.9682 82.2215L71.7898 83.4045C71.6663 83.2521 71.5267 83.1133 71.3735 82.9905C70.4813 82.3398 68.9944 82.3398 68.578 82.3989L61.7381 82.5764L56.2067 82.5172C55.0369 82.5621 53.9119 82.9765 52.9949 83.7003C52.8165 83.8777 52.6975 84.1144 52.5191 84.2918V83.2271L52.4596 82.2806C52.4596 82.2806 46.8687 81.7483 46.6903 81.7483L39.9098 80.9201L40.2072 82.3989L40.2667 82.813C38.7203 81.0384 36.3412 80.4469 36.2222 80.3878C36.1628 80.3878 29.2634 78.8498 29.2634 78.8498L29.7392 80.6244L30.0366 81.9257C29.8647 81.5758 29.6659 81.2396 29.4418 80.9201C28.4868 79.5784 27.1357 78.5654 25.5758 78.0217C23.8509 77.4301 20.4012 76.602 20.2823 76.602L18.3195 76.1288C16.5352 75.3598 12.5502 74.1176 11.2417 73.6444L9.04102 72.9346L9.8737 75.1232L21.2934 105.764C21.2934 105.764 25.8137 104.522 26.0516 104.463C26.0516 104.463 30.7503 103.339 31.1072 103.28C31.2856 103.221 36.0438 102.392 36.0438 102.392V102.333C37.3523 102.156 39.9693 101.742 40.2072 101.742C40.4451 101.683 42.7053 101.328 44.0138 101.209L48.772 100.736C49.2478 100.677 50.7942 100.559 51.6269 99.8489C51.9232 99.6529 52.1679 99.3892 52.3406 99.0799L52.4001 100.381L58.0505 100.204C58.2884 100.145 59.7753 100.026 60.727 99.0799C60.8603 98.9548 60.98 98.816 61.0838 98.6658L61.0244 100.145C61.0244 100.145 65.3662 100.263 65.6041 100.263L70.7192 100.381L74.4068 100.677L79.1055 101.209C80.2547 101.299 81.4067 101.074 82.4363 100.559C82.5552 100.44 82.6742 100.381 82.7931 100.263L82.4363 101.623L87.1945 102.452V102.392C87.3729 102.452 90.7036 103.043 91.4769 103.161L91.9527 103.339C92.0716 103.339 94.4507 103.93 96.2351 103.694C98.4357 103.457 100.696 101.683 101.707 99.3757L106.465 88.5508C106.525 88.3142 113.186 72.9346 113.186 72.9346Z" fill="white"/>
<path d="M70.8965 99.3168L73.8704 99.5534L76.7253 82.9316L72.9187 83.2866L70.8965 99.3168Z" fill="black"/>
<path d="M83.2688 84.1738L81.8414 90.089L85.529 90.0299L88.027 81.3345L82.2577 82.2809C82.2577 82.2809 80.176 82.6358 79.2243 83.5823C77.9158 84.8836 77.6185 87.2497 77.6185 87.2497L75.2988 99.6717L78.9864 100.086C79.9245 100.173 80.8691 100.01 81.7224 99.6125C82.6146 99.1985 83.1499 98.1929 83.4472 97.3056C83.7446 96.4183 84.6368 92.8692 84.6368 92.8692H81.2466L80.4734 96.4183C80.3726 96.9081 80.1701 97.3715 79.8786 97.7788C79.6865 97.9924 79.4461 98.1574 79.1772 98.2602C78.9083 98.3631 78.6186 98.4008 78.3322 98.3703L80.7708 87.3089C80.9857 86.502 81.3056 85.7264 81.7224 85.0019C81.8902 84.7465 82.1195 84.5368 82.3897 84.3922C82.6598 84.2475 82.962 84.1724 83.2688 84.1738Z" fill="black"/>
<path d="M89.6921 90.3849L92.8444 80.329L89.5731 81.0388L83.8633 100.677L86.4208 101.032L89.0973 92.6918L89.8705 92.6327C89.8705 92.6327 90.4058 92.8101 90.4058 93.2833C90.383 93.6484 90.3027 94.0077 90.1679 94.3481L87.9078 101.269L90.8816 101.86L93.3797 94.6438C93.5902 94.0762 93.6911 93.4741 93.6771 92.8693C93.62 92.2949 93.4152 91.7449 93.0823 91.2722C93.0823 91.2722 93.6771 91.2722 94.5098 90.444C95.3424 89.675 95.3424 89.0244 95.5209 88.4328C95.7588 87.8413 99.0895 78.791 99.0895 78.791L94.7477 79.8558L92.2496 87.9596C92.1342 88.4631 91.933 88.9432 91.6548 89.3793C91.2385 89.9708 90.9411 90.2074 90.7032 90.2074C90.3765 90.3148 90.036 90.3746 89.6921 90.3849Z" fill="black"/>
<path d="M104.62 80.447L101.825 87.9002L105.632 87.7227L111.103 74.9458L105.632 76.8978C104.407 77.2897 103.26 77.8901 102.241 78.6724C101.107 79.8177 100.163 81.1356 99.4459 82.5765C99.1485 83.2863 97.8995 86.0664 97.721 86.9537C97.4831 87.841 95.6393 92.7506 95.6393 92.7506H99.9812L98.1374 97.6603C97.9631 98.3888 97.6391 99.0736 97.1857 99.6715C96.7522 100.203 96.1393 100.561 95.4609 100.677L97.8995 94.4069H95.223L92.3086 102.215C93.5489 102.544 94.8325 102.684 96.1152 102.629C97.84 102.452 99.8028 101.091 100.695 98.9616C101.647 96.8913 104.739 89.7339 104.739 89.7339L99.5648 90.0296L101.171 85.4749C101.171 85.4749 102.241 82.8131 103.015 81.9258C103.457 81.342 104.001 80.8412 104.62 80.447Z" fill="black"/>
<path d="M10.8848 74.7095L22.0071 104.404L25.2783 103.457L17.011 79.4417C17.011 79.4417 18.26 79.56 19.3306 81.4528C20.1278 82.8707 20.747 84.3805 21.1744 85.9484C21.4718 87.1315 26.7058 103.162 26.7058 103.162L30.0365 102.393L23.6724 81.2754C23.6724 81.2754 24.4456 81.2754 25.2783 82.695C25.767 83.5179 26.1658 84.3905 26.4679 85.2977L31.345 102.156L34.5568 101.505L30.4529 85.8893C30.4529 85.8893 29.5012 83.1091 28.4901 81.6894C27.6991 80.4932 26.5256 79.5971 25.1594 79.1459C23.5535 78.6135 19.9848 77.6671 19.9848 77.6671L20.5201 79.2642C19.8411 78.527 19.0601 77.8896 18.2005 77.3713C17.3083 76.839 10.8848 74.7095 10.8848 74.7095Z" fill="black"/>
<path d="M36.9348 90.9765L35.1505 83.2867C35.7595 83.439 36.3279 83.7216 36.8158 84.1148C37.4701 84.7064 37.6485 86.3626 37.6485 86.3626L38.5407 90.9765H36.9348ZM40.6224 100.441L43.4178 100.086L41.0387 87.7231C41.0387 87.7231 40.5034 85.0021 39.7897 83.8782C38.5407 82.0445 35.9237 81.3347 35.9237 81.3347L30.8086 80.3291L36.1021 101.151L39.2544 100.677L37.2916 92.8694H39.1354L40.6224 100.441Z" fill="black"/>
<path d="M41.3359 82.2217L44.9046 99.9674L48.6517 99.5533C48.6517 99.5533 50.436 99.4941 50.9118 99.0801C51.2108 98.8455 51.4558 98.5499 51.6302 98.2131C51.8047 97.8764 51.9045 97.5064 51.9229 97.1281L51.5066 83.2864L47.819 82.9315L49.1275 96.0042C49.1275 96.0042 49.2464 97.1872 48.6517 97.7787C48.5223 97.9313 48.3565 98.0492 48.1695 98.1215C47.9824 98.1939 47.7801 98.2184 47.5811 98.1928L45.6778 82.6949L41.3359 82.2217Z" fill="black"/>
<path d="M53.4703 99.1983L57.9311 99.0208C58.6726 98.9492 59.3761 98.6611 59.9533 98.1927C60.4256 97.636 60.7343 96.9606 60.8455 96.2407L60.905 93.7563H57.8716L57.9311 96.2407C57.97 96.666 57.8421 97.0899 57.5742 97.4237C57.2769 97.7195 56.2657 97.7195 56.2657 97.7195V92.6915H60.905L61.0239 91.2127H56.2063V86.8355C56.189 86.6611 56.2122 86.4851 56.2741 86.321C56.336 86.1569 56.4348 86.0092 56.5631 85.889C56.9703 85.6345 57.4544 85.5298 57.9311 85.5933V90.0888H61.1429L61.5592 83.6412L56.2063 83.5229C55.3403 83.5681 54.5094 83.8779 53.8272 84.4102C52.6971 85.4158 52.8755 87.7228 52.8755 87.7228L53.4703 99.1983Z" fill="black"/>
<path d="M67.6848 86.0075L67.4469 89.9115C67.4441 90.1853 67.3614 90.4524 67.209 90.6805C67.0903 90.8441 66.9244 90.9679 66.7332 91.0354L65.6626 90.9762L65.96 85.2385L66.7332 85.1793C66.964 85.1735 67.1915 85.2352 67.3874 85.3568C67.6848 85.4751 67.6848 86.0075 67.6848 86.0075ZM70.6587 84.1146C70.0639 83.5231 68.6365 83.5822 68.6365 83.5822L62.8077 83.7597L62.2129 99.021L65.1273 99.0801L65.4842 92.81C65.4842 92.81 66.4358 92.5142 66.9116 93.1649C67.0906 93.4249 67.1746 93.738 67.1495 94.0522L66.7927 99.0801L69.6476 99.2576L70.1829 94.1705C70.2811 93.6564 70.2401 93.1256 70.0639 92.6325C69.8751 92.2731 69.5563 91.9983 69.1718 91.8635C69.1718 91.8635 69.5881 91.8635 70.1829 91.2128C70.5877 90.7299 70.818 90.1259 70.8371 89.4974L71.194 85.9483C71.1345 85.9483 71.313 84.7653 70.6587 84.1146Z" fill="black"/>
<path d="M68.1609 105.942L71.789 105.055L68.1014 104.7C67.923 104.7 64.4733 104.404 62.7485 104.404C62.5105 103.694 61.0236 99.2578 61.0236 99.2578L60.4288 100.973C60.3694 101.092 59.5962 103.221 59.1798 104.404C57.1576 104.404 54.4811 104.641 54.4216 104.641L50.4961 105.055L54.3027 105.883C55.4922 106.119 57.8713 106.948 58.0497 107.953C57.7524 109.136 56.9791 111.207 56.9791 111.207L56.2059 113.099C56.2059 113.099 60.3694 110.201 60.9641 109.846C61.5589 110.201 65.6034 113.04 65.6034 113.04C65.6034 113.04 63.938 108.249 63.8191 107.835C64.2354 107.243 66.3171 106.356 68.1609 105.942Z" fill="black"/>
<path d="M62.8083 107.776C63.1057 106.77 64.8306 106.001 66.1986 105.528C64.8306 105.409 63.1057 105.291 62.2136 105.291H62.0351C62.0351 105.291 61.3214 103.339 60.9645 102.333C60.6671 103.221 60.1913 104.522 60.0129 105.114L59.9534 105.35H59.7155C58.7639 105.35 57.3959 105.409 56.3848 105.469C57.5743 106.001 59.0018 106.77 59.1802 107.894V108.071C59.0018 108.722 58.6449 109.846 58.3475 110.615C59.2992 109.905 61.024 108.722 61.024 108.722C61.024 108.722 62.8678 109.964 63.8195 110.615C63.4031 109.609 62.8083 107.953 62.8083 107.953V107.776Z" fill="white"/>
<path d="M25.2773 37.5617C25.2773 18.8696 41.5147 3.66748 61.4397 3.66748C81.3646 3.66748 97.602 18.8696 97.602 37.5617C97.602 56.1947 81.4241 71.3969 61.4397 71.3969C41.5147 71.3969 25.2773 56.1947 25.2773 37.5617Z" fill="white"/>
<path d="M39.6112 17.4498L41.0981 16.2076C42.1093 15.4387 42.4066 14.3739 41.8713 13.7232C41.1576 12.836 40.0275 13.1317 38.838 14.019L37.6484 15.0246L39.6112 17.4498ZM39.4922 14.788L39.5517 14.7288C40.0275 14.3739 40.3844 14.3148 40.6818 14.6697C40.9197 14.9654 40.7413 15.3795 40.3249 15.6753L40.2654 15.7936L39.4922 14.788Z" fill="black"/>
<path d="M48.5924 11.3572L49.663 10.884L49.9604 11.1797L51.5068 10.529L48.8898 8.28125L47.2839 8.87277L47.1055 12.3036L48.6519 11.7121L48.5924 11.3572ZM48.5329 10.529L48.4735 9.5826V9.52345C48.5544 9.65571 48.6546 9.77531 48.7708 9.87836L49.1277 10.2924L48.5329 10.529Z" fill="black"/>
<path d="M56.1465 6.38839L57.6929 6.21094L57.9308 8.28127L59.2393 8.16296L59.3583 9.16855L56.5034 9.46432L56.1465 6.38839Z" fill="black"/>
<path d="M65.0081 6.21094L66.614 6.44755L66.2572 8.51788L67.5657 8.69533L67.3872 9.70092L64.5918 9.28686L65.0081 6.21094Z" fill="black"/>
<path d="M73.9297 11.2389L75.0003 11.7121L74.9409 12.1261L76.4873 12.836L76.3088 9.34599L74.703 8.69531L72.0859 10.9431L73.6324 11.6529L73.9297 11.2389ZM74.465 10.7065L75.1193 9.93751V9.99666C75.1193 10.1741 75.0598 10.2333 75.0598 10.4107L75.0003 10.9431L74.465 10.7065Z" fill="black"/>
<path d="M81.6626 14.7879L81.7221 14.9062C81.8431 15.215 82.0251 15.4966 82.2574 15.7343C82.3763 15.8526 82.6142 15.9709 82.6737 15.8526C82.7332 15.7343 82.6142 15.5568 82.5547 15.4977L82.3168 15.2611C81.9005 14.7879 81.6626 14.3146 81.96 13.9006C82.4358 13.3682 83.4469 13.6048 84.1606 14.1963C84.5063 14.5083 84.8066 14.8667 85.0528 15.2611L84.2201 15.616C84.0933 15.3282 83.8871 15.0821 83.6253 14.9062C83.5659 14.7879 83.328 14.6696 83.2685 14.7879C83.209 14.9062 83.328 15.0245 83.4469 15.1428L83.6253 15.3794C84.1012 15.8526 84.2796 16.385 83.9227 16.799C83.4469 17.3314 82.4953 17.0357 81.7815 16.4441C81.3339 16.1169 80.9676 15.692 80.7109 15.2019L81.6626 14.7879Z" fill="black"/>
<path d="M91.7744 28.8662C91.5365 28.6887 91.0607 28.3929 91.0607 28.3929C90.9635 28.3341 90.8819 28.253 90.8228 28.1563C90.7762 27.872 90.6963 27.5941 90.5848 27.3282C87.4431 23.3162 83.4664 20.0272 78.9273 17.6864C78.4347 17.4745 77.9138 17.335 77.3808 17.2723C77.2706 17.27 77.1649 17.228 77.0835 17.154C76.696 16.7649 76.2297 16.4625 75.7155 16.2667C71.3531 14.5002 66.6863 13.5961 61.9762 13.6049C60.5241 13.613 59.0739 13.7118 57.6343 13.9006L59.5376 11.3571C52.0434 11.1205 46.631 16.9765 46.631 16.9765C44.8374 17.7934 43.1077 18.7425 41.4564 19.8159C40.3424 20.1853 39.3178 20.781 38.4475 21.5651C37.5772 22.3491 36.8803 23.3045 36.4008 24.3706C35.3897 25.1396 33.427 27.7423 33.427 27.7423C32.967 28.0457 32.5297 28.3818 32.1185 28.7479C30.3871 30.6052 29.1949 32.8949 28.6688 35.3729C28.6462 35.3962 28.6291 35.4243 28.6188 35.455C28.6086 35.4857 28.6053 35.5183 28.6093 35.5504C28.5498 35.7278 28.5498 35.9644 28.4903 36.2011C28.4308 36.6743 28.3119 37.0883 28.2524 37.5616L28.3119 37.5024C28.315 37.5669 28.2938 37.6301 28.2524 37.6799C27.9876 38.4149 27.7691 39.1656 27.5982 39.9276C27.5387 40.2234 26.4681 43.2993 26.4681 43.2993C23.7916 52.6454 27.3603 58.2649 27.955 59.1521C32.7132 72.8755 46.1551 82.6948 61.9167 82.6948C67.6022 82.7341 73.2166 81.4365 78.3021 78.9077C83.3875 76.3788 87.7999 72.6905 91.1796 68.1433C91.3083 67.8629 91.3887 67.5629 91.4175 67.256C91.4237 67.1967 91.4429 67.1395 91.4738 67.0884C91.5046 67.0373 91.5463 66.9936 91.596 66.9603C92.0718 66.7236 92.2502 66.5462 92.2502 66.487C95.8507 61.0222 97.7538 54.6241 97.7222 48.0907C97.8073 41.2219 95.7274 34.4992 91.7744 28.8662Z" fill="black"/>
<path d="M46.9869 22.1228C47.0464 22.0045 47.1654 21.9453 47.2248 21.8862L47.4033 21.7087H47.4627C47.4644 20.6307 47.6043 19.5573 47.8791 18.5145C51.1503 14.0189 56.5033 12.8359 56.5033 12.8359C57.1576 12.5993 56.7412 12.895 56.7412 12.895C53.351 16.6808 53.7079 19.7567 53.7079 19.7567L56.9791 31.4097C56.9791 31.4097 54.3621 30.4633 52.3399 26.4409C51.3883 34.6039 59.1798 41.229 59.1798 41.229C59.4772 41.5247 58.9419 41.1698 58.9419 41.1698C57.0386 40.2234 54.7785 38.1531 54.1837 37.6207C54.3027 38.2714 58.1092 57.0818 58.1687 57.2001C58.1899 57.3238 58.23 57.4435 58.2876 57.555L59.5367 54.3608L60.6667 63.8843C55.6706 68.439 50.4366 66.6645 50.1392 66.5462C50.2042 66.6414 50.2638 66.7401 50.3177 66.8419C50.3177 66.8419 54.6 75.1233 72.027 74.2951C72.027 74.2951 72.4433 74.2951 72.3838 74.3543C72.3381 74.3586 72.2957 74.3797 72.2649 74.4134C71.9942 74.5009 71.7151 74.5603 71.4322 74.5909C50.4366 80.1512 39.5522 62.4055 39.0764 61.6365C38.4065 60.6877 37.8289 59.6775 37.3516 58.6198C37.3516 58.5606 37.3516 58.4423 37.411 58.5606C37.411 58.5606 39.6117 60.8084 45.9758 61.3999H46.0353C41.1581 56.0762 39.0764 52.1722 38.779 51.5806C38.779 51.5806 38.1842 50.6934 37.4705 48.209C37.4705 48.209 37.53 48.0907 37.53 48.209C37.7679 48.6822 39.4333 51.0483 41.396 51.5806C39.7307 48.9188 38.6601 44.719 38.5411 44.1275C40.8013 47.2625 44.8457 47.4991 44.8457 47.4991C44.8459 47.4913 44.8444 47.4836 44.8415 47.4763C44.8385 47.4691 44.8342 47.4625 44.8286 47.457C44.8231 47.4515 44.8164 47.4471 44.8092 47.4442C44.8019 47.4413 44.7941 47.4398 44.7863 47.44V47.4991C38.1842 40.9332 39.6117 33.835 42.2882 28.6887C43.5313 26.2882 45.1136 24.0771 46.9869 22.1228Z" fill="white"/>
<path d="M66.7344 65.3636L62.3926 69.8592L67.7456 65.7777L64.9501 56.3133L66.1991 44.9561L64.058 55.7809L66.7344 65.3636Z" fill="#C4CED4"/>
<path d="M65.6641 42.2941C65.7535 42.2793 65.8364 42.2381 65.902 42.1758C66.3565 41.94 66.7605 41.6186 67.0915 41.2294C67.6754 40.6267 68.1295 39.912 68.4261 39.1288C68.7227 38.3457 68.8555 37.5106 68.8164 36.6746C68.7987 35.4686 68.5982 34.2721 68.2216 33.1255C68.1621 34.7226 67.6863 40.5787 65.6641 42.2941Z" fill="#C4CED4"/>
<path d="M67.6851 22.9513C69.1721 20.7035 71.6701 20.526 72.7407 20.526C71.935 20.2588 71.092 20.119 70.2427 20.1119C69.3719 20.0936 68.5051 20.234 67.6851 20.526C67.2093 20.7035 66.9119 20.8218 66.793 20.8809C67.1334 21.5519 67.4314 22.2433 67.6851 22.9513Z" fill="#C4CED4"/>
<path d="M63.88 28.9848L63.9394 28.9256L63.88 28.9848ZM65.7238 27.7426C65.7316 27.7425 65.7394 27.7439 65.7467 27.7468C65.754 27.7498 65.7606 27.7541 65.7661 27.7596C65.7717 27.7651 65.776 27.7717 65.779 27.779C65.7819 27.7862 65.7834 27.7939 65.7832 27.8017V28.4524C65.7832 33.3029 64.5342 38.6266 63.9989 40.5195C65.5844 36.9417 66.395 33.0721 66.378 29.1623C66.382 27.735 66.2626 26.3101 66.0212 24.9033C65.9642 24.4853 65.8848 24.0706 65.7832 23.6611C65.3074 27.3285 63.88 28.9848 63.88 28.9848L63.8205 29.0439C63.761 29.0439 63.761 29.0439 63.7015 28.9848C62.3615 26.608 60.6097 24.4853 58.527 22.7147C57.6918 21.9805 56.7736 21.3453 55.791 20.8218C60.1924 30.2861 61.5009 37.5619 61.8577 39.9871V39.159C61.7765 36.2172 61.4382 33.288 60.8466 30.4044C60.3708 27.8609 59.8355 26.0272 59.8355 26.0272V25.9089H59.9544C61.9172 27.4468 63.3447 31.765 63.5231 32.5931C64.0663 31.7829 64.5058 30.9086 64.8316 29.9904C65.1885 28.8665 65.5453 27.8017 65.5453 27.8017L65.7238 27.7426Z" fill="#C4CED4"/>
<path d="M28.6684 47.4402C28.6684 51.9358 29.4416 56.6089 33.3671 62.6424C37.1142 70.3913 43.8947 74.532 47.1064 76.1291C48.177 76.6023 48.8313 76.8981 48.8313 76.8981C53.2128 78.9887 58.0083 80.08 62.868 80.0923C69.4591 80.0367 75.8896 78.0626 81.3655 74.4137C82.3171 73.763 82.8524 73.349 82.8524 73.349L83.2688 72.9349C83.2688 72.994 83.1498 73.0532 83.0903 73.0532L82.7335 73.2898C75.7746 77.3122 69.4105 78.5544 64.1765 78.5544C55.9686 78.5544 50.7346 75.5376 50.7346 75.5376C33.3671 66.5464 33.1292 50.9302 33.1292 50.9302C33.1291 50.9224 33.1305 50.9147 33.1335 50.9074C33.1364 50.9002 33.1408 50.8936 33.1464 50.8881C33.1519 50.8826 33.1585 50.8782 33.1658 50.8753C33.1731 50.8724 33.1809 50.8709 33.1887 50.8711H33.3077C35.5083 55.1892 38.2443 56.6089 39.4338 57.0821C39.566 57.1556 39.7055 57.2151 39.8502 57.2595C34.7946 50.9894 33.3671 45.6657 33.3671 41.7025C33.3671 36.3788 35.9247 33.4211 35.9247 33.4211L35.9842 33.362C35.992 33.3619 35.9998 33.3633 36.0071 33.3662C36.0143 33.3692 36.021 33.3735 36.0265 33.379C36.0321 33.3845 36.0364 33.3911 36.0394 33.3984C36.0423 33.4056 36.0438 33.4133 36.0436 33.4211C35.733 35.0396 35.5737 36.6831 35.5678 38.3308C35.5439 40.111 35.7844 41.885 36.2815 43.5953C36.4346 44.0583 36.6133 44.5125 36.8168 44.9558C36.6525 43.7403 36.5731 42.5149 36.5789 41.2884C36.5704 33.6429 39.6071 26.3052 45.0247 20.8809C43.8947 21.3541 42.5862 22.5371 41.5156 23.661C40.326 24.8441 39.3744 26.0271 39.3744 26.0271H39.3149C39.2554 26.0271 39.2554 26.0271 39.2554 25.968C39.3516 25.0261 39.6563 24.117 40.1476 23.3061C39.2291 24.2324 38.4839 25.314 37.9469 26.5003C37.5851 27.2227 37.2866 27.9747 37.0547 28.7481V28.8073C35.5383 30.5551 34.2769 32.5065 33.3077 34.6042C32.8766 35.5009 32.5186 36.4306 32.2371 37.3843C32.1776 37.621 32.1181 37.7393 32.1181 37.7984C32.1181 37.7984 32.1181 37.8576 31.9992 37.8576C31.8802 37.8576 31.9397 37.7984 31.9397 37.7393V37.6801C31.9427 37.5596 31.9627 37.4402 31.9992 37.3252C31.9992 35.0774 32.9508 32.6522 33.3077 31.7057C30.6907 34.4859 30.0364 38.3308 30.0364 41.3476C30.0308 43.0607 30.2304 44.7685 30.6312 46.4347C30.7021 48.361 30.9209 50.2792 31.2854 52.1724C31.7018 53.947 31.9992 55.2483 31.9992 55.2483C32.0827 55.4375 32.1426 55.6362 32.1776 55.8399V55.899H32.1181C31.9992 55.899 31.9992 55.8399 31.9397 55.7807C31.8802 55.7807 31.8802 55.7216 31.8207 55.6033L31.7018 55.3667C29.7985 52.5273 28.9063 47.9135 28.7279 46.7896C28.6787 47.0028 28.6587 47.2217 28.6684 47.4402Z" fill="#C4CED4"/>
<path d="M87.134 27.5651C87.134 27.5651 78.6882 16.3262 62.8077 16.3262H62.4508C62.4048 16.327 62.3596 16.3381 62.3184 16.3586C62.2772 16.3791 62.2412 16.4084 62.2129 16.4445C62.2129 16.5628 62.3318 16.6219 62.4508 16.6811C63.7318 17.6836 64.9256 18.7917 66.0195 19.9936V20.0528L66.0789 19.9936C66.4047 19.8457 66.7431 19.7269 67.09 19.6387C67.9833 19.4058 68.9026 19.2865 69.826 19.2838C71.6137 19.2849 73.3725 19.7324 74.9411 20.5851C74.1084 20.9992 70.1829 22.9512 69.2907 25.2582L69.3502 25.3173C69.3502 25.3173 73.3352 28.8665 81.5431 28.8665C82.9761 28.8798 84.408 28.7809 85.8255 28.5707C86.0678 28.5652 86.3082 28.5254 86.5392 28.4524C86.8961 28.3341 87.3124 28.2158 87.3124 27.8017C87.2425 27.7312 87.1825 27.6516 87.134 27.5651Z" fill="#007DC5"/>
<path d="M70.0655 43.2992C70.006 43.2401 69.9465 43.2401 69.9465 43.2992C69.887 43.2992 69.887 43.3584 69.9465 43.3584C70.0345 43.4498 70.1141 43.5488 70.1844 43.6542C70.6602 44.3048 71.5524 45.8428 71.5524 48.5638C71.4953 51.1149 70.8653 53.621 69.7086 55.8987C69.6965 55.0235 69.5968 54.1516 69.4112 53.296C69.1138 51.758 68.5785 50.1609 67.3295 49.806H67.2105L66.4968 56.4902L69.1733 66.4278L63.8798 70.6868C63.8203 70.6868 63.8203 70.6868 63.8203 70.7459C63.8202 70.7537 63.8216 70.7615 63.8246 70.7687C63.8275 70.7759 63.8319 70.7825 63.8374 70.788C63.843 70.7936 63.8496 70.7979 63.8569 70.8008C63.8642 70.8038 63.872 70.8052 63.8798 70.8051C65.7043 71.2775 67.5858 71.4965 69.4707 71.4558C71.7293 71.4445 73.981 71.2067 76.1916 70.7459C76.3809 70.6907 76.5546 70.5924 76.6991 70.459C76.8436 70.3255 76.9549 70.1605 77.0243 69.9769C77.4352 67.8125 77.6344 65.6136 77.6191 63.411C77.6786 57.555 76.4296 49.2145 70.0655 43.2992Z" fill="#007DC5"/>
<path d="M78.8083 69.9771C78.6893 69.9179 78.6893 69.7996 78.6893 69.6222V69.3264C78.8772 68.6069 79.0163 67.8757 79.1056 67.1378C79.398 65.3187 79.5372 63.4786 79.522 61.6366C79.522 55.6622 78.0945 47.3217 71.3736 40.8741C71.3415 40.842 71.2997 40.8212 71.2546 40.815L71.0762 40.6375C71.0824 40.5927 71.1033 40.5511 71.1357 40.5192H71.2546C71.3566 40.5198 71.4576 40.5399 71.552 40.5784C72.7011 40.9583 73.7414 41.6076 74.5853 42.4712C74.5259 42.1755 74.4069 41.5248 74.2285 40.6967C73.7965 39.2731 73.0894 37.9469 72.1468 36.7926L71.9683 36.6152C71.9089 36.4969 71.8494 36.4969 71.8494 36.3786V36.2603H71.9683C72.0278 36.2603 72.0873 36.3194 72.2657 36.4377C72.6821 36.6152 89.5737 44.719 90.1685 61.0451V61.3408C90.184 61.6423 90.1395 61.9438 90.0374 62.228C89.9353 62.5123 89.7777 62.7737 89.5737 62.9971C89.3952 63.1746 85.4103 68.1433 79.4625 69.9771C79.3555 70.0459 79.2327 70.0866 79.1056 70.0954C79.0462 70.0954 78.8677 70.0954 78.8083 69.9771Z" fill="#007DC5"/>
<path d="M91.476 58.0285C91.1192 44.5418 78.272 35.3732 71.8485 31.5874C70.7042 30.8754 69.5118 30.2429 68.2798 29.6945L67.9824 29.5762H68.3988C69.1651 29.5795 69.9219 29.7447 70.6192 30.0608C71.3164 30.3769 71.9382 30.8368 72.4432 31.41C72.4241 30.8273 72.324 30.25 72.1458 29.6945L72.0269 29.5171L72.2053 29.5762C74.0491 30.2861 76.3687 30.5227 78.6884 30.5227C80.7191 30.504 82.7462 30.3459 84.7551 30.0495C86.361 29.872 87.4316 29.6354 87.4316 29.6354H87.6695C88.6211 29.6354 88.9185 30.1678 88.9185 30.2269C91.1192 32.6522 93.7957 38.2125 94.2715 44.8967C94.331 45.7248 94.331 46.553 94.331 47.3219C94.331 52.3499 93.2604 56.2539 92.4872 57.851C92.1898 58.4426 91.9519 58.7383 91.7139 58.7383C91.5355 58.6792 91.476 58.4426 91.476 58.0285Z" fill="#007DC5"/>
<path d="M54.4225 14.4332L54.4819 14.374C54.3035 14.4332 50.7943 15.4979 49.7832 20.7033C49.7832 20.7033 49.7832 20.8216 49.8427 20.7033C50.1401 20.2301 51.2107 18.5738 52.2218 19.0471V18.9288C52.2813 18.5147 52.6381 16.681 54.4225 14.4332Z" fill="black"/>
<path d="M51.8044 61.8144C51.0312 60.3355 46.2136 49.8656 46.2136 49.8656C44.7266 50.398 42.8828 49.1558 42.8828 49.1558C45.2619 55.3668 50.8528 60.8088 51.745 61.8144C51.8639 61.9918 51.8639 61.9327 51.8639 61.9327C51.8044 61.9327 51.8044 61.8144 51.8044 61.8144Z" fill="black"/>
<path d="M46.9876 27.8607C42.6457 37.68 52.4001 41.7615 52.5785 41.8207L52.0432 39.5138L51.7458 38.2716C51.5191 38.148 51.2799 38.0489 51.0321 37.9758C50.9726 37.9758 50.9131 37.9166 50.8536 37.8575C50.7434 37.8552 50.6377 37.8132 50.5563 37.7392C46.2739 35.4914 46.6902 30.1085 46.9876 28.334V28.1565C47.028 28.0425 47.0481 27.9224 47.0471 27.8016C47.0471 27.6833 47.0471 27.8016 46.9876 27.8607Z" fill="black"/>
<path d="M53.411 55.544L52.6973 43.1812L56.9202 56.9636C56.9202 56.9636 55.5522 53.7103 53.411 55.544Z" fill="#C4CED4"/>
<path d="M56.9205 31.4098L53.7087 19.7568V19.9934L54.6009 27.3875C54.6415 27.4808 54.6618 27.5816 54.6603 27.6832C54.6603 28.0973 54.4224 28.6297 52.4002 26.5593C52.3407 26.441 52.2812 26.441 52.2812 26.441C54.3035 30.5226 56.9205 31.4098 56.9205 31.4098Z" fill="#C4CED4"/>
<path d="M49.2469 33.5392C48.9759 33.0074 48.8333 32.42 48.8305 31.8238C48.8417 31.2894 48.9699 30.7638 49.2062 30.2836C49.4424 29.8035 49.7811 29.3803 50.1985 29.0436L50.258 28.9845C50.1808 28.0001 50.1808 27.0112 50.258 26.0269C49.1874 27.5648 46.9273 31.2914 49.6632 34.1899C49.6038 34.1307 49.5443 34.0716 49.5443 34.0124C49.4371 33.8598 49.3378 33.7019 49.2469 33.5392Z" fill="#C4CED4"/>
<path d="M52.1024 35.0179C51.093 33.1688 50.4661 31.1374 50.2586 29.0435V28.9844C49.8359 29.3295 49.4943 29.7626 49.258 30.2531C49.0216 30.7437 48.8963 31.2798 48.8906 31.8237C48.9123 32.3922 49.033 32.9526 49.2475 33.4799C49.3718 33.6423 49.4719 33.8216 49.5449 34.0123C49.6044 34.0123 49.6638 34.1306 49.6638 34.1898L49.8423 34.3672C50.5052 35.03 51.4005 35.4116 52.3403 35.432C52.2362 35.3096 52.1556 35.1692 52.1024 35.0179Z" fill="black"/>
<path d="M55.9688 57.1409C55.9688 57.1409 53.8871 56.6086 54.0655 60.8675C54.0779 60.7418 54.1185 60.6205 54.1845 60.5126C54.7793 59.093 55.374 58.5606 55.9093 58.5014C56.3257 58.5014 56.6825 58.9155 56.9205 59.4479C57.1829 60.083 57.4015 60.7352 57.5747 61.3999C57.7446 61.96 57.864 62.5341 57.9316 63.1153C57.9862 63.4873 58.0061 63.8636 57.9911 64.2392V64.2984C58.0505 63.8251 58.9427 57.9691 55.9688 57.1409Z" fill="#C4CED4"/>
<path d="M57.9909 64.2983C57.9314 63.7659 57.9314 63.411 57.8719 63.1153C57.8124 62.6421 57.6935 62.0505 57.5745 61.459C57.4089 60.7654 57.1696 60.0912 56.8608 59.4478C56.6229 58.9155 56.266 58.5605 55.8497 58.5605C55.3144 58.5605 54.7791 59.1521 54.1248 60.5126C54.1131 60.6571 54.0726 60.7978 54.0059 60.9266L55.0765 63.1153C55.0765 63.1153 55.6712 57.1409 57.9909 64.2983Z" fill="black"/>
</g>
<defs>
<clipPath id="clip0_38_1035">
<rect width="123" height="127" fill="white"/>
</clipPath>
</defs>
</svg>
