<svg width="122" height="122" viewBox="0 0 122 122" fill="none" xmlns="http://www.w3.org/2000/svg">
<g clip-path="url(#clip0_38_1036)">
<path d="M61.0311 -0.000213955C77.198 0.0276909 92.6942 6.46443 104.123 17.899C115.552 29.3336 121.981 44.8331 122 61C122 94.6416 94.6418 122 61.0307 122C48.9633 122.008 37.1648 118.436 27.1282 111.736C17.0916 105.036 9.26812 95.5095 4.64772 84.3617C0.0273218 73.2139 -1.18228 60.946 1.17198 49.1105C3.52625 37.275 9.33856 26.4038 17.8734 17.8728C23.527 12.1867 30.2528 7.679 37.661 4.611C45.0693 1.54301 53.0128 -0.0243392 61.0311 -0.000213955Z" fill="#FFC627"/>
<path d="M61.0298 117.151C91.9567 117.151 117.119 91.9883 117.119 61.0004C117.119 30.0735 91.9567 4.8804 61.0298 4.8804C30.0415 4.84986 4.87891 30.0426 4.87891 60.9698C4.87891 91.9578 30.0415 117.151 61.0294 117.151" fill="#8B2332"/>
<path d="M9.02734 60.9696C9.02734 32.33 32.36 9.02783 60.9992 9.02783C74.779 9.02783 87.9944 14.5018 97.7382 24.2456C107.482 33.9894 112.956 47.2048 112.956 60.9846C112.956 74.7645 107.482 87.9799 97.7382 97.7237C87.9944 107.467 74.779 112.941 60.9992 112.941C32.3596 112.972 9.02734 89.6393 9.02734 60.9696Z" fill="#0D2240"/>
<path d="M101.932 39.2232L103.091 38.5827L99.3698 32.7875L98.3327 33.5501C91.9886 25.5288 80.7036 16.5921 69.9675 15.25C78.0499 18.9404 87.1389 28.3649 92.6902 35.624L86.8648 39.8637L87.5664 40.9314L61.2144 58.0417L34.8624 40.9314L35.564 39.8637L29.7077 35.6244C35.2892 28.3653 44.3476 18.9408 52.461 15.2504C41.7554 16.5921 30.4704 25.5288 24.1569 33.5196L23.0586 32.7268L19.3377 38.491L20.4966 39.1621L20.466 39.2232C15.8301 48.3427 12.4142 62.4031 15.7385 72.7121C15.6469 63.8059 20.4355 51.5754 24.7359 43.4319L31.0189 46.9701L31.6594 45.9635L56.1204 61.3355L23.8519 82.3199L23.7908 82.2588L19.4599 83.4176L19.5209 83.5398C19.3076 84.3326 19.7038 85.8274 20.6191 87.2608C21.5341 88.7246 22.693 89.6701 23.5778 89.8534L23.6389 89.9755L26.506 86.4985L26.4754 86.4374L90.7385 46.0246L91.379 47.0311L97.6926 43.493C101.993 51.6365 106.782 63.8976 106.72 72.7732C110.014 62.4337 106.568 48.3427 101.932 39.2232Z" fill="#FFC627"/>
<path d="M98.6078 82.2586L98.5467 82.3196L68.8704 63.0435L63.6855 66.1239L95.924 86.4062L95.8934 86.4673L98.7605 89.9444L98.8521 89.8222C99.706 89.6695 100.865 88.6939 101.811 87.2296C102.695 85.7963 103.122 84.332 102.909 83.5086L102.97 83.3865L98.6078 82.2586Z" fill="#FFC627"/>
<path d="M66.2777 20.435L64.0511 23.3632L60.9707 15.9819V50.0507L71.3407 36.7525L81.7718 39.4669L66.2777 20.435Z" fill="#FFC627"/>
<path d="M66.2773 28.4258V20.4351L64.0508 23.3632L66.2773 28.4258Z" fill="white"/>
<path d="M60.9689 15.9819L42.1504 38.9485L50.4462 36.8136L60.9689 50.0507V15.9819Z" fill="white"/>
<path d="M49.9286 101.87C52.5735 99.3214 56.0022 97.7414 59.6581 97.3866V92.293H45.5977C45.8742 95.8943 47.4071 99.284 49.9286 101.87Z" fill="#FFC627"/>
<path d="M59.6268 106.597V100.559C56.8984 100.893 54.3409 102.065 52.3066 103.913C54.4858 105.402 57.0017 106.325 59.6268 106.597Z" fill="#FFC627"/>
<path d="M62.7695 75.335V81.3435C65.4943 81.0287 68.0478 79.8535 70.0591 77.9886C67.8847 76.5175 65.3808 75.606 62.7695 75.335Z" fill="white"/>
<path d="M72.4685 80.0625C69.8327 82.6018 66.4133 84.1717 62.7695 84.5156V89.1515H76.7994C76.3777 85.7329 74.858 82.5435 72.4685 80.0625Z" fill="white"/>
<path d="M59.6275 81.3435V75.335C57.0094 75.5973 54.501 76.5208 52.3379 78.0188C54.363 79.8578 56.9111 81.0199 59.6275 81.3431" fill="white"/>
<path d="M62.7695 92.293V97.3866C66.4217 97.722 69.8469 99.3053 72.4685 101.87C75.0103 99.295 76.5558 95.9013 76.83 92.2934H62.7695V92.293Z" fill="#FFC627"/>
<path d="M45.5977 89.1515H59.6276V84.5156C55.978 84.1596 52.5528 82.5919 49.898 80.0625C47.5175 82.5461 46.0083 85.7359 45.5977 89.1515Z" fill="white"/>
<path d="M62.7695 106.597C65.3876 106.335 67.896 105.411 70.0591 103.913C68.0442 102.054 65.4925 100.88 62.7695 100.559V106.598V106.597Z" fill="#FFC627"/>
</g>
<defs>
<clipPath id="clip0_38_1036">
<rect width="122" height="122" fill="white"/>
</clipPath>
</defs>
</svg>
