<svg width="123" height="123" viewBox="0 0 123 123" fill="none" xmlns="http://www.w3.org/2000/svg">
<g clip-path="url(#clip0_38_1046)">
<path d="M123 61.5C123 73.6636 119.393 85.554 112.635 95.6676C105.878 105.781 96.2727 113.664 85.0351 118.319C73.7974 122.973 61.4318 124.191 49.502 121.818C37.5721 119.445 26.6139 113.588 18.013 104.987C9.41203 96.3861 3.55472 85.4279 1.18173 73.4981C-1.19126 61.5682 0.0266466 49.2026 4.68144 37.965C9.33623 26.7273 17.2188 17.1223 27.3325 10.3646C37.4461 3.60691 49.3365 1.03304e-06 61.5 1.03304e-06C69.5767 -0.00147941 77.5746 1.58825 85.0368 4.67839C92.499 7.76853 99.2793 12.2985 104.99 18.0096C110.701 23.7207 115.231 30.501 118.322 37.9632C121.412 45.4254 123.002 53.4233 123 61.5Z" fill="#B5B3B3"/>
<path d="M121.227 61.5001C121.227 73.3131 117.724 84.8608 111.161 94.683C104.598 104.505 95.2697 112.161 84.3559 116.681C73.4421 121.202 61.4329 122.385 49.8469 120.08C38.2608 117.775 27.6184 112.087 19.2653 103.734C10.9123 95.3808 5.22376 84.7384 2.91916 73.1524C0.614557 61.5663 1.79736 49.5571 6.31801 38.6433C10.8386 27.7295 18.4941 18.4013 28.3162 11.8384C38.1384 5.27543 49.6861 1.77246 61.4991 1.77246C69.3429 1.77155 77.1101 3.31583 84.357 6.3171C91.6039 9.31837 98.1886 13.7178 103.735 19.2642C109.281 24.8106 113.681 31.3953 116.682 38.6422C119.683 45.8891 121.228 53.6563 121.227 61.5001Z" fill="#1D428A"/>
<path d="M112.429 61.5002C112.432 71.5752 109.446 81.4246 103.85 89.8028C98.2546 98.1811 90.3002 104.712 80.9929 108.569C71.6856 112.427 61.4434 113.438 51.5616 111.474C41.6797 109.511 32.602 104.661 25.4764 97.5384C18.3508 90.4157 13.4973 81.3401 11.5297 71.4591C9.56213 61.578 10.5688 51.3354 14.4223 42.0265C18.2759 32.7176 24.8034 24.7605 33.1793 19.1613C41.5552 13.5621 51.4033 10.5725 61.4783 10.5703C68.1681 10.5682 74.7928 11.884 80.9741 14.4424C87.1553 17.0009 92.772 20.7519 97.5034 25.4814C102.235 30.2108 105.988 35.8259 108.549 42.0061C111.11 48.1863 112.429 54.8104 112.429 61.5002Z" fill="#C8102E"/>
<path d="M61.5002 10.5703C51.4272 10.5703 41.5804 13.5573 33.2051 19.1536C24.8297 24.7498 18.3019 32.704 14.4471 42.0103C10.5924 51.3165 9.58379 61.5569 11.549 71.4363C13.5141 81.3158 18.3648 90.3906 25.4875 97.5132C32.6102 104.636 41.6851 109.486 51.5646 111.452C61.444 113.417 71.6844 112.408 80.9906 108.553C90.2968 104.698 98.2509 98.1705 103.847 89.795C109.443 81.4196 112.43 71.5728 112.43 61.4998C112.414 47.9973 107.043 35.0525 97.4953 25.5048C87.9476 15.9571 75.0027 10.5863 61.5002 10.5703ZM13.5174 62.9947H22.892V60.0052H13.5174C13.5603 58.8735 13.6027 57.7418 13.731 56.6313C17.0409 39.911 37.1993 26.9916 61.5002 26.9916C85.8011 26.9916 105.938 39.8893 109.269 56.6313C109.376 57.7418 109.44 58.8735 109.483 60.0052H100.109V62.9947H109.462C109.419 64.1265 109.376 65.2582 109.248 66.3687C105.917 83.089 85.7799 96.0084 61.479 96.0084C37.1781 96.0084 17.0409 83.1103 13.7098 66.3687C13.6032 65.2582 13.539 64.1477 13.5178 62.9947H13.5174ZM61.5007 13.4957C71.1725 13.5076 80.6159 16.4363 88.5972 21.8994C96.5784 27.3624 102.726 35.1057 106.238 44.1176C97.6959 32.437 80.8473 24.4719 61.5002 24.4719C42.1532 24.4719 25.2838 32.437 16.7635 44.1176C20.2724 35.104 26.4198 27.359 34.4016 21.8956C42.3834 16.4322 51.8281 13.5046 61.5007 13.4957ZM61.5007 109.526C51.8288 109.514 42.3854 106.585 34.4042 101.122C26.4229 95.6588 20.275 87.9156 16.7635 78.9037C25.305 90.5843 42.1536 98.5493 61.5007 98.5493C80.8477 98.5493 97.7176 90.5843 106.238 78.9037C102.724 87.9138 96.5753 95.6554 88.5946 101.118C80.6139 106.581 71.1718 109.511 61.5007 109.526Z" fill="white"/>
<path d="M39.9746 79.0103H43.5623V62.8452H39.9746V79.0103Z" fill="white"/>
<path d="M53.7696 62.8454H53.663C52.6596 62.8454 48.9653 62.8241 48.2605 62.8454H48.0685C46.9792 62.8454 46.2961 63.3577 46.1253 64.2974C46.1124 64.3894 46.1053 64.482 46.1041 64.5748C46.1041 64.6178 45.8479 67.6497 46.147 68.5041C46.6381 69.892 47.7486 70.4047 48.7949 70.7251C48.8378 70.7251 48.8591 70.7463 48.9016 70.7463L49.0936 70.8104C49.1926 70.8437 49.2762 70.912 49.3285 71.0025L49.3498 76.8324H46.3815L46.4027 78.9892H50.3103C51.6769 78.9251 52.595 78.3273 52.9582 77.3022C53.0649 76.512 53.0649 71.0883 53.0011 69.9566C52.988 69.7397 52.9254 69.5288 52.818 69.34C52.7106 69.1511 52.5614 68.9894 52.3817 68.8673C52.1981 68.7269 52.0055 68.5984 51.8052 68.4828C51.5916 68.3762 51.3566 68.2479 51.1434 68.1625C50.289 67.7568 49.3498 67.2869 49.3498 66.1981V65.2801H52.1685C52.4462 65.2845 52.7196 65.2107 52.9575 65.0673C53.1954 64.9238 53.3882 64.7164 53.5139 64.4686C53.6673 64.2056 53.7688 63.9156 53.813 63.6143C53.8345 63.387 53.8345 63.1581 53.813 62.9308L53.7696 62.8454Z" fill="white"/>
<path d="M70.2336 62.824C69.4517 62.7927 68.6691 62.8645 67.906 63.0377C66.1336 63.4647 65.2793 64.6393 65.2793 66.6466V76.2775C65.2793 78.7334 67.0517 79.2457 69.6996 79.2457C72.9028 79.2457 74.7393 78.114 74.7393 76.1279V66.091C74.7393 62.8236 72.6679 62.8236 70.2336 62.8236V62.824ZM69.059 66.475C69.0639 66.138 69.0996 65.8021 69.1656 65.4716L69.2298 65.4074C69.3994 65.3816 69.5705 65.3673 69.7421 65.3645H69.8062C71.0234 65.3857 71.0663 65.749 71.0663 67.9483V74.6962C71.0695 74.8957 71.0624 75.0952 71.045 75.294C71.046 75.481 71.0245 75.6674 70.9809 75.8492L70.9167 75.9134C70.7031 75.9346 70.4898 75.9563 70.2761 75.9563C69.9289 75.9868 69.5837 75.8793 69.3151 75.6572C69.0377 75.3581 69.0161 74.867 69.0377 74.2905V67.4572C69.0377 67.5001 69.0377 66.7312 69.059 66.475Z" fill="white"/>
<path d="M83.0892 69.7215C81.3593 63.4859 78.6047 62.8027 77.473 62.8027C77.3083 62.8025 77.144 62.8168 76.9819 62.8456L76.8965 62.8669V79.032H80.5479V72.5189L83.0892 79.032H86.8047V62.8452H83.1104V69.7215H83.0892Z" fill="white"/>
<path d="M35.5766 62.8242L26.4797 62.8455H26.3731V62.9521C26.3688 63.5288 26.5745 64.0873 26.9518 64.5235C27.329 64.9597 27.8521 65.2437 28.4233 65.3226V79.0322H32.1601V72.156H35.2991C36.9649 72.156 37.9042 71.0667 37.9042 69.1665V68.59C37.9042 63.9776 37.7122 63.0591 35.5766 62.8242ZM34.1245 70.0208H32.0955V65.3226C32.0955 65.3226 33.206 65.3014 33.3556 65.3226C33.7613 65.3655 34.1245 65.5363 34.1245 66.0062C34.1457 66.1557 34.1245 70.0208 34.1245 70.0208Z" fill="white"/>
<path d="M64.1693 62.8452H55.7344V65.3865H58.1474V79.032H61.8629V65.3653H61.9912C62.2788 65.384 62.567 65.3403 62.836 65.2371C63.1051 65.1339 63.3486 64.9737 63.5499 64.7676C63.9783 64.2624 64.1996 63.6139 64.1693 62.9523V62.8452Z" fill="white"/>
<path d="M96.6075 62.8454H96.5009C95.4975 62.8454 91.8032 62.8241 91.0984 62.8454H90.9064C89.8171 62.8454 89.134 63.3577 88.9632 64.2974C88.9503 64.3894 88.9432 64.482 88.942 64.5748C88.942 64.6178 88.6858 67.6497 88.9849 68.5041C89.476 69.892 90.5865 70.4047 91.6328 70.7251C91.6757 70.7251 91.697 70.7463 91.7395 70.7463L91.9315 70.8104C92.0305 70.8437 92.1141 70.912 92.1664 71.0025L92.1876 76.8324H89.2194L89.2406 78.9892H93.1482C94.5148 78.9251 95.4329 78.3273 95.7961 77.3022C95.9027 76.512 95.9027 71.0883 95.839 69.9566C95.8259 69.7397 95.7633 69.5288 95.6559 69.34C95.5485 69.1511 95.3993 68.9894 95.2196 68.8673C95.0359 68.7269 94.8434 68.5984 94.6431 68.4828C94.4294 68.3762 94.1945 68.2479 93.9813 68.1625C93.1269 67.7568 92.1876 67.2869 92.1876 66.1981V65.2801H95.0064C95.2841 65.2845 95.5575 65.2107 95.7954 65.0673C96.0333 64.9238 96.2261 64.7164 96.3518 64.4686C96.5052 64.2056 96.6067 63.9156 96.6509 63.6143C96.6724 63.387 96.6724 63.1581 96.6509 62.9308L96.6075 62.8454Z" fill="white"/>
<path d="M63.5284 52.8514H64.1478C64.7455 52.8726 65.7494 53.0434 65.7494 54.1327C65.7494 54.645 65.7923 56.2683 65.8135 56.866V57.1009C65.8234 57.4439 65.8519 57.7861 65.8989 58.126C66.1551 59.0658 66.8811 59.6422 68.0345 59.7489H69.0809V53.9831C69.0322 53.3676 68.8019 52.7805 68.419 52.2961L68.3336 52.1895C68.6173 51.8796 68.8354 51.5155 68.9748 51.1192C69.1143 50.7228 69.1722 50.3024 69.145 49.8831V49.3279C69.145 44.8646 68.9742 43.9678 66.8816 43.7329H59.9199V59.5352H63.5288L63.5284 52.8514ZM63.5496 46.253H64.2757C65.2154 46.2742 65.5782 46.2742 65.5357 47.94C65.5357 49.2637 65.5357 49.3495 65.5145 50.0114V50.1397C65.5097 50.3338 65.4423 50.5211 65.3224 50.6737C65.2836 50.7139 65.2371 50.7459 65.1858 50.7679C65.1344 50.7899 65.0792 50.8015 65.0234 50.802H63.5501L63.5496 46.253Z" fill="white"/>
<path d="M85.8868 43.7544H82.3633V59.5567H85.8868V43.7544Z" fill="white"/>
<path d="M52.1692 59.5777H55.7781V46.2314H55.9064C56.1886 46.2467 56.4709 46.2034 56.7355 46.1042C57.0001 46.005 57.2413 45.852 57.4438 45.6549C57.8594 45.1606 58.0729 44.5275 58.0416 43.8825V43.7759H49.8203V46.253H52.1692V59.5777Z" fill="white"/>
<path d="M90.0715 59.578H93.6804V46.2316H93.8087C94.0929 46.2484 94.3773 46.2036 94.6426 46.1005C94.908 45.9973 95.1479 45.8382 95.3462 45.6339C95.7618 45.1396 95.9753 44.5065 95.9439 43.8615V43.7549H87.7227V46.232H90.0715V59.578Z" fill="white"/>
<path d="M47.9184 57.0154H44.1387V53.172H46.7442V49.7551H44.1387V46.1891H47.9184V43.7544H40.6369L40.6152 59.5567H47.9184V57.0154Z" fill="white"/>
<path d="M36.0458 43.7544H27.0344L27.0131 43.861C26.9614 44.4483 27.1287 45.0339 27.483 45.5051C27.6965 45.739 27.9574 45.9247 28.2482 46.0499C28.5391 46.1751 28.8534 46.2369 29.17 46.2311V59.535H35.875C37.4125 59.535 38.4376 58.2325 38.4376 56.3106V48.9866C38.4376 44.9295 38.4376 43.8402 36.0458 43.7548V43.7544ZM34.7858 57.0158H32.7785V46.2316C33.2843 46.1795 33.795 46.2011 34.2947 46.2957C34.7645 46.4877 34.7433 47.3421 34.7433 47.3633C34.8928 48.6233 34.8074 56.0332 34.7862 57.0154" fill="white"/>
<path d="M75.9776 43.7543C75.1957 43.724 74.4132 43.7958 73.65 43.968C71.8988 44.3737 71.0449 45.5484 71.0449 47.4915V56.9086C71.0449 59.3217 72.7961 59.8128 75.4223 59.8128C78.6043 59.8128 80.4404 58.7023 80.4404 56.7803V46.9575C80.4404 43.7543 78.3689 43.7543 75.9771 43.7543H75.9776ZM74.7813 47.342C74.786 47.012 74.8217 46.6831 74.8879 46.3598L74.952 46.2956C75.1216 46.2689 75.2928 46.2546 75.4644 46.2527H75.5285C76.7457 46.274 76.7669 46.6372 76.7669 48.794V55.4137C76.7705 55.6061 76.7634 55.7985 76.7457 55.9902C76.7467 56.1702 76.7251 56.3496 76.6815 56.5242L76.6174 56.5883C76.4037 56.6096 76.1904 56.6312 75.9767 56.6312C75.8078 56.6518 75.6364 56.6357 75.4743 56.584C75.3121 56.5324 75.163 56.4465 75.037 56.3322C74.7596 56.0331 74.7379 55.5632 74.7596 55.0084V48.3242C74.7808 48.3242 74.7808 47.5981 74.7808 47.342" fill="white"/>
</g>
<defs>
<clipPath id="clip0_38_1046">
<rect width="123" height="123" fill="white"/>
</clipPath>
</defs>
</svg>
