<svg width="122" height="150" viewBox="0 0 122 150" fill="none" xmlns="http://www.w3.org/2000/svg">
<path d="M54.9485 1.01221V1.32285C55.1561 1.31518 55.2647 1.41872 55.2647 1.62198V9.24415C55.2628 9.44358 55.158 9.54329 54.9485 9.54329L54.9447 9.84242H57.4116L57.4154 9.54712C57.1583 9.54521 57.0325 9.44933 57.0325 9.24032V3.66798L62.1189 9.0083L62.3837 9.39372L62.1722 9.54712V9.84242H64.8697V9.54712C64.6544 9.54712 64.5516 9.44741 64.5497 9.24415L64.5535 1.62198C64.5535 1.42064 64.6564 1.32285 64.8697 1.32285V1.01604H62.3513V1.32285C62.6428 1.32285 62.7876 1.42064 62.7876 1.62198V6.95463L58.0022 1.95563C57.7774 1.73703 57.6688 1.57788 57.6707 1.48775L57.8003 1.31518V1.01604L54.9504 1.01221H54.9485ZM50.5613 1.09083L50.2717 1.15027L50.186 1.46858C50.1079 1.56062 49.9498 1.62006 49.7212 1.66417L42.2612 3.13683L42.3202 3.42829L42.5355 3.46664L42.6688 3.67182L44.1205 11.1463L44.0766 11.3899L43.8785 11.4992L43.9376 11.7983L51.5652 10.3045L51.9748 10.2585L52.1862 10.5059L52.4758 10.4503L52.0338 8.19143L51.7462 8.24321L51.6509 8.58836L51.2699 8.78395L45.8045 9.85585L45.3663 7.58549L48.5724 6.95271C48.7896 6.91436 48.9668 6.91819 49.0963 6.96421C49.2354 7.01023 49.3268 7.16172 49.3725 7.41675L49.6697 7.34964L49.1706 4.78398L48.8772 4.84343C48.9249 5.09271 48.8944 5.2672 48.7877 5.34966C48.681 5.43594 48.5153 5.49155 48.2962 5.53374L45.0901 6.17036L44.6958 4.12819L49.9974 3.08697C50.2241 3.04095 50.3936 3.03903 50.4965 3.0793L50.6908 3.32666L50.9842 3.26338L50.5594 1.09083H50.5613ZM77.2236 3.26722C76.6883 3.2864 76.2235 3.37652 75.8349 3.52992C75.4444 3.68908 75.1262 3.90576 74.8786 4.18955C74.6348 4.46951 74.469 4.77631 74.3757 5.10805C74.2366 5.60277 74.2175 6.03613 74.3204 6.40046C74.4233 6.75712 74.6043 7.06584 74.8557 7.32854C75.1129 7.59508 75.431 7.81751 75.7968 8.00351C76.1664 8.19143 76.5531 8.3525 76.9493 8.50207C77.3456 8.6478 77.7361 8.78395 78.1209 8.9105C78.5095 9.03514 78.8524 9.17129 79.1401 9.31127C79.4315 9.45317 79.6487 9.60465 79.8068 9.77147C79.9592 9.94405 80.0049 10.1569 79.9326 10.4004C79.8659 10.6516 79.7059 10.8223 79.4639 10.9143C79.2182 11.0102 78.9439 11.0581 78.641 11.0677C78.34 11.0754 78.0428 11.0543 77.7437 10.9968C77.4503 10.9469 77.2122 10.8913 77.0293 10.8434C76.7817 10.7686 76.5074 10.6631 76.214 10.5174C75.9168 10.3678 75.6482 10.2125 75.3872 10.0303C75.13 9.85968 74.9091 9.6756 74.7243 9.49152L74.3909 8.98912L74.3947 8.70533L74.2576 8.58453L72.8326 10.2969L73.0231 10.4886L73.2689 10.4177L73.6518 10.6535C73.7908 10.7801 73.9794 10.9297 74.2252 11.1061C74.4728 11.2902 74.7929 11.4742 75.1853 11.6602C75.5777 11.8443 76.0768 12.0188 76.6883 12.1914C77.1265 12.3141 77.6104 12.4157 78.1399 12.4867C78.6695 12.5615 79.1782 12.5557 79.6773 12.4714C80.1726 12.3889 80.6164 12.2182 81.0089 11.9402C81.4013 11.6698 81.6756 11.2518 81.8318 10.6938C81.9652 10.2068 81.9804 9.7849 81.8718 9.43207C81.7709 9.07733 81.5937 8.76861 81.3365 8.50399C81.0832 8.24321 80.7688 8.01502 80.3993 7.82327C80.0297 7.63343 79.6449 7.46661 79.2487 7.31704C78.8505 7.17514 78.46 7.03708 78.0771 6.90477C77.6904 6.77246 77.357 6.62865 77.0693 6.481C76.7836 6.32568 76.5626 6.17036 76.4102 5.9786C76.2578 5.79644 76.2197 5.58168 76.2902 5.32281L76.6179 4.91821C76.7855 4.83192 76.9817 4.77631 77.2065 4.75714C77.4313 4.73796 77.6732 4.74372 77.9361 4.78015C78.2028 4.81466 78.4486 4.86452 78.681 4.92588C78.9972 5.01409 79.2982 5.13106 79.5935 5.27871C79.8887 5.42636 80.1497 5.58359 80.3936 5.76192C80.6374 5.92683 80.8355 6.10708 80.9994 6.28541L81.3194 6.78397L81.3461 7.18473L81.4908 7.30553L83.1577 5.58935L83.0015 5.4091L82.6548 5.41677L82.1633 5.13873C81.9804 4.993 81.748 4.83001 81.4718 4.64784C81.1898 4.458 80.8603 4.27392 80.4641 4.06683C80.0678 3.86357 79.5897 3.67949 79.0201 3.5165C78.3552 3.33433 77.7589 3.25763 77.2217 3.26914L77.2236 3.26722ZM36.0318 5.41293C35.4737 5.44361 34.9117 5.57784 34.3421 5.80219L29.2005 7.85395L29.3167 8.13774C29.5472 8.04378 29.7072 8.08788 29.7815 8.27197L32.5781 15.3611C32.6504 15.549 32.5723 15.6851 32.3323 15.781L32.4447 16.061L37.5901 14.0015C38.154 13.7734 38.6531 13.4838 39.0779 13.1176C39.5046 12.7551 39.8285 12.3333 40.0571 11.852C40.2857 11.3669 40.3981 10.828 40.4038 10.2298C40.4095 9.63533 40.2704 8.98721 39.998 8.28923C39.7237 7.58933 39.3808 7.02749 38.9712 6.58838C38.5598 6.1646 38.1083 5.85205 37.613 5.66029C37.1177 5.46662 36.59 5.38609 36.0356 5.4091L36.0318 5.41293ZM86.7715 5.67564L85.7714 7.80217L86.0438 7.93257L86.301 7.70054L86.6058 7.75232L89.0918 8.9431L86.2495 14.9776L86.0705 15.1425L85.8476 15.1233L85.7218 15.3898L88.044 16.502L88.1698 16.2278C87.945 16.1262 87.884 15.9804 87.9697 15.7925L90.812 9.75613L93.298 10.9469L93.5247 11.1463L93.5209 11.4915L93.7857 11.6219L94.7858 9.49918L94.5153 9.37263L94.2505 9.60081L93.9534 9.55288L87.2592 6.35827L87.0325 6.15885L87.0401 5.80603L86.7715 5.67564ZM36.1404 6.98339C36.3195 6.99681 36.4871 7.03133 36.6509 7.09269C36.971 7.20966 37.2605 7.43017 37.5177 7.72931C37.7768 8.03803 38.0111 8.45797 38.2245 8.99871C38.4397 9.54521 38.5598 10.0092 38.5826 10.4138C38.6017 10.8127 38.535 11.1674 38.3788 11.4781C38.2264 11.7849 37.9864 12.0495 37.6606 12.2796C37.3291 12.5078 36.9253 12.7206 36.4357 12.9124L34.0335 13.8788L31.8523 8.35059L34.2564 7.39566C34.7421 7.20199 35.186 7.06968 35.5765 7.01023C35.7747 6.97955 35.9632 6.97188 36.1423 6.98339H36.1404ZM98.5844 12.3908L98.4149 12.642L98.5673 12.8664L98.533 13.1291L98.2834 13.3419L97.8815 13.5624L91.694 17.2287L91.2673 17.4416L90.8577 17.4339L90.6939 17.6774L92.6541 19.0178L92.8218 18.7628L92.6618 18.4253C92.717 18.3467 92.858 18.2431 93.0828 18.1108L94.2391 17.4627L97.611 19.7465L97.4471 21.1367C97.4224 21.3342 97.3747 21.4799 97.3138 21.5758L97.1461 21.6429L96.9823 21.5911L96.8147 21.8385L99.2435 23.4895L99.415 23.2459L99.2397 22.92L99.1997 22.5748L100.122 14.9565L100.169 14.5634L100.274 14.3083L100.505 14.1703L100.754 14.2297L100.916 13.9785L98.5825 12.387L98.5844 12.3908ZM21.369 12.4253L18.9325 13.9459L19.0926 14.2048C19.3745 14.0246 19.5726 14.0188 19.6736 14.1933L23.6703 20.6688C23.7731 20.8375 23.6836 21.0139 23.3979 21.1961L23.5541 21.4511L30.3035 17.2383L30.6673 17.0466L30.9493 17.2076L31.2065 17.0466L30.0044 15.0945L29.7472 15.2556L29.7777 15.6161L29.4958 15.9248L24.7847 18.8682L21.2909 13.1828C21.1862 13.014 21.2643 12.8529 21.5291 12.6842L21.369 12.4253ZM59.6881 12.5193C27.406 12.5193 1.24271 38.87 1.24271 71.3606C1.24271 103.843 27.4041 130.179 59.6881 130.179C91.9702 130.179 118.13 103.843 118.13 71.3606C118.13 38.87 91.9721 12.5193 59.6881 12.5193ZM98.3806 15.014L97.8034 18.385L95.344 16.7187L98.3806 15.014ZM105.341 16.6765L103.756 18.4061L103.983 18.6074L104.299 18.4694L104.572 18.6074L106.597 20.4847L102.099 25.3993L101.876 25.501L101.676 25.4147L101.476 25.639L103.362 27.3955L103.566 27.1673L103.499 26.6956L107.997 21.7848L110.018 23.662L110.178 23.9286L110.062 24.2546L110.289 24.4636L111.866 22.7301L111.647 22.525L111.327 22.6669L111.058 22.525L105.612 17.4742L105.456 17.2153L105.566 16.8855L105.343 16.6765H105.341ZM16.1036 18.107C15.7893 18.0801 15.4731 18.0878 15.1587 18.13C14.5225 18.2086 13.9091 18.3984 13.3204 18.6841C12.7241 18.9794 12.2022 19.3323 11.7545 19.7522C11.2992 20.1626 10.9011 20.6534 10.5563 21.2249C10.2134 21.7925 9.97142 22.3831 9.83045 23.012C9.6952 23.6371 9.68948 24.2776 9.82283 24.9219C9.95237 25.5604 10.2743 26.1683 10.7944 26.7416C11.3087 27.3092 11.884 27.6984 12.5051 27.8883C13.1299 28.08 13.7586 28.1299 14.3948 28.0455C15.0292 27.9669 15.6331 27.7751 16.2141 27.4683C16.7932 27.1615 17.3114 26.801 17.7648 26.383C18.2144 25.9746 18.6163 25.4914 18.9745 24.9334C19.3288 24.3811 19.5764 23.7867 19.7155 23.1616C19.8565 22.5326 19.8603 21.9018 19.7269 21.2594C19.5955 20.6132 19.2716 20.0053 18.7554 19.4339C18.241 18.8625 17.6676 18.4809 17.0447 18.291C16.7323 18.1971 16.4179 18.1338 16.1036 18.107ZM15.7131 19.8289C15.9188 19.85 16.1227 19.8922 16.3265 19.9555C16.7266 20.0878 17.0847 20.3275 17.399 20.6784C17.7152 21.0235 17.9191 21.409 18.0086 21.8212C18.1001 22.2392 18.1039 22.6553 18.0239 23.0638C17.94 23.4837 17.7857 23.8845 17.5667 24.2699C17.3419 24.6592 17.0752 24.9928 16.7627 25.2766C16.4503 25.5662 16.0979 25.8078 15.694 25.9918C15.2921 26.1798 14.8787 26.2891 14.4634 26.3408C14.0443 26.3792 13.6347 26.3408 13.229 26.2143C12.827 26.082 12.4651 25.8442 12.1507 25.499C11.8364 25.1443 11.6345 24.7608 11.545 24.3485C11.4535 23.9343 11.4497 23.5144 11.5297 23.0983C11.6116 22.6803 11.764 22.2814 11.9869 21.896C12.2079 21.5125 12.4746 21.175 12.787 20.8931C13.0994 20.5998 13.4557 20.3677 13.8614 20.1817C14.2615 19.99 14.6711 19.8768 15.0902 19.8327C15.3016 19.8116 15.5093 19.8078 15.715 19.8289H15.7131ZM114.024 25.7464L113.794 25.9305L113.857 26.1357L113.737 26.3485L107.736 31.0004L107.506 31.0599L107.319 30.9429L107.077 31.1308L111.82 37.3264L112.039 37.6715L111.917 37.9783L112.097 38.218L113.908 36.8144L113.729 36.5708L113.379 36.638L113.036 36.3868L109.635 31.9419L111.458 30.5383L113.453 33.1385L113.687 33.6102C113.702 33.7559 113.611 33.9074 113.409 34.0704L113.588 34.3024L115.653 32.707L115.467 32.4635C115.266 32.6246 115.103 32.6744 114.983 32.6092L114.592 32.2564L112.598 29.6505L114.234 28.3849L117.532 32.6917L117.762 33.1366L117.629 33.4203L117.812 33.66L119.557 32.3082L119.37 32.0685L119.054 32.1318L118.667 31.8096L114.023 25.7464H114.024ZM5.29846 27.2248L5.087 27.3149L5.08319 27.5239L4.99747 27.7483L4.65838 28.0283C4.46597 28.1721 4.23356 28.3542 3.96305 28.5863C3.69064 28.8125 3.39536 29.0925 3.08104 29.4185C2.76671 29.7406 2.46572 30.0915 2.17616 30.4904C1.71706 31.1289 1.37797 31.7636 1.16461 32.4041C0.953154 33.0464 0.873144 33.6715 0.915054 34.2698C0.962679 34.8662 1.13413 35.4338 1.4294 35.9668C1.72658 36.4961 2.15521 36.9735 2.7248 37.3858C3.29249 37.8038 3.86399 38.0723 4.45835 38.195C5.047 38.3254 5.62993 38.3081 6.21095 38.1681C6.78817 38.0224 7.34633 37.7578 7.88545 37.3551C8.41694 36.9505 8.91986 36.4328 9.37325 35.7962C9.61138 35.4721 9.83998 35.1289 10.0686 34.7818C10.2972 34.4309 10.4953 34.055 10.6667 33.662C10.8344 33.2669 10.9715 32.8566 11.0763 32.429C11.183 31.9995 11.244 31.5584 11.2554 31.1097L11.0401 30.9448L10.8058 31.0675L10.5753 31.0234L9.05321 29.9036L8.87033 29.6677C8.86843 29.593 8.91986 29.4587 9.02273 29.2593L8.7808 29.0752L6.31763 32.4654L6.05284 32.7051L5.67374 32.6111L5.49467 32.8547L7.21298 34.1241L7.39586 33.8844L7.13488 33.5028L7.26061 33.1615L8.51791 31.4242L9.67805 32.2737C9.56375 32.6399 9.40183 33.0522 9.18656 33.5239C8.97511 34.0033 8.68174 34.4961 8.30455 35.01C8.06071 35.3455 7.77115 35.6408 7.43777 35.9016C7.1063 36.1662 6.74816 36.3503 6.36335 36.4635C5.98235 36.5689 5.57087 36.59 5.13463 36.5076C4.7041 36.4347 4.26595 36.2314 3.82399 35.9074C3.37822 35.5833 3.05246 35.219 2.85625 34.8355C2.65622 34.4443 2.54954 34.0435 2.54002 33.6409C2.53049 33.2382 2.59717 32.8355 2.74385 32.4424C2.88863 32.0416 3.08294 31.6735 3.32869 31.3379C3.5249 31.0675 3.7516 30.7933 4.00496 30.5172C4.26214 30.243 4.52312 30.0052 4.7822 29.802C5.047 29.6025 5.29465 29.4587 5.52325 29.3744C5.75375 29.2862 5.93282 29.2842 6.06617 29.3897L6.21095 29.5354L6.48718 29.3188L5.29274 27.2171L5.29846 27.2248ZM112.42 106.288L112.323 106.336L111.996 106.467C111.929 106.831 111.893 106.984 111.82 107.067C111.805 107.103 111.567 107.261 111.196 107.471C110.024 108.102 109.129 108.662 108.456 109.18C107.797 109.688 107.17 110.315 106.585 111.057C105.284 112.664 104.629 114.2 104.629 115.671L104.652 116.06C104.739 117.26 105.288 118.279 106.275 119.071C106.865 119.552 107.506 119.849 108.188 119.962C108.389 119.991 108.588 120.01 108.801 120.01C109.334 120.01 109.841 119.905 110.334 119.669C110.809 119.458 111.234 119.199 111.611 118.898C111.975 118.599 112.552 118.064 113.329 117.268L114.508 116.089C115.286 115.306 115.857 114.819 116.175 114.635C116.39 114.505 116.592 114.455 116.777 114.455L117.339 114.676C117.556 114.86 117.726 115.109 117.812 115.446L117.867 115.96C117.867 116.148 117.848 116.334 117.804 116.541C117.634 117.243 117.255 117.97 116.676 118.699C116.131 119.372 115.436 119.983 114.607 120.537C113.771 121.109 113.064 121.435 112.483 121.531L112.205 121.561C111.952 121.561 111.757 121.492 111.592 121.349L111.483 121.258L111.047 121.4L110.942 121.444L112.82 125.157L113.249 124.973C113.318 124.628 113.346 124.457 113.375 124.438C113.381 124.436 113.622 124.282 114.007 124.085C115.92 123.195 117.501 121.987 118.718 120.47C119.412 119.619 119.945 118.733 120.334 117.834C120.719 116.927 120.919 116.108 120.919 115.339C120.919 115.071 120.896 114.81 120.837 114.557C120.635 113.515 120.128 112.647 119.303 111.983C118.787 111.562 118.21 111.274 117.577 111.138C117.274 111.061 116.987 111.036 116.691 111.036C116.36 111.036 116.044 111.08 115.724 111.159C115.16 111.331 114.605 111.598 114.053 111.968C113.514 112.34 112.881 112.881 112.171 113.594L110.98 114.8C110.199 115.611 109.651 116.11 109.361 116.309C109.079 116.501 108.818 116.589 108.588 116.589C108.389 116.589 108.197 116.526 108.007 116.369C107.786 116.175 107.631 115.924 107.578 115.567L107.547 115.257C107.547 114.992 107.605 114.706 107.7 114.415C107.927 113.863 108.269 113.285 108.738 112.706C109.801 111.387 111.064 110.518 112.525 110.085C112.737 110.02 112.929 109.983 113.087 109.983L113.419 110.074L113.535 110.196L113.977 110.074L114.074 110.033L112.419 106.292L112.42 106.288ZM8.95034 109.807L8.64554 110.152L8.5903 110.219L8.64173 110.298C8.83223 110.543 8.91796 110.783 8.91796 111.002C8.91796 111.23 8.82271 111.625 8.63221 112.16L4.57265 123.036C4.38025 123.554 4.21832 123.872 4.18594 123.908L3.78398 124.108L3.31535 123.947L3.22963 123.908L2.9515 124.231L2.8772 124.313L6.53099 127.609L6.84341 127.276L6.90628 127.212L6.85484 127.138C6.67577 126.867 6.60148 126.674 6.60148 126.509L6.71006 126.225C6.75578 126.181 7.00915 126.025 7.44349 125.839L15.2749 121.885L12.2765 129.964C12.1088 130.484 11.9698 130.804 11.9012 130.867L11.5297 131.059C11.3849 131.059 11.2116 131.005 11.0154 130.879L10.9296 130.823L10.6477 131.157L10.5772 131.251L14.2862 134.587L14.5834 134.242L14.6577 134.163L14.5949 134.1C14.4063 133.866 14.3377 133.68 14.3377 133.533L14.4577 133.241C14.5415 133.145 14.8406 132.946 15.3321 132.702L25.6096 127.429C26.1506 127.155 26.5202 127.017 26.6878 126.994L26.7735 126.982C26.9316 126.982 27.1583 127.046 27.4403 127.191L27.5146 127.218L27.8041 126.908L27.8746 126.817L23.9675 123.301L23.6588 123.642L23.6036 123.717L23.6588 123.799C23.8398 124.035 23.9198 124.229 23.9198 124.365L23.8303 124.628C23.7198 124.743 23.4912 124.902 23.1312 125.084L16.1874 128.714L19.0145 121.205C19.1288 120.89 19.2221 120.7 19.2831 120.635L19.6298 120.478C19.7726 120.478 19.9479 120.522 20.1498 120.631L20.2165 120.672L20.5023 120.346L20.588 120.259L16.4579 116.551L16.157 116.888L16.0903 116.971L16.1455 117.042C16.3094 117.258 16.3798 117.431 16.3798 117.565L16.2655 117.853C16.2293 117.909 16.0293 118.041 15.715 118.187L8.4779 121.786L11.3621 114.329C11.4821 114.035 11.5964 113.832 11.6897 113.728L11.9983 113.586L12.467 113.728L12.5527 113.772L12.8308 113.443L12.9051 113.364L8.95034 109.805V109.807ZM102.194 118.173L101.926 118.185C101.337 118.219 100.731 118.396 100.129 118.702C99.5179 119.005 98.7863 119.504 97.8929 120.196L90.5891 125.87L90.8672 126.231L90.9073 126.294L90.9892 126.256L91.4311 126.15L91.5207 126.158L91.8883 126.436L99.4112 136.271L99.5788 136.664V136.687C99.5674 136.79 99.4969 136.957 99.3407 137.166L99.2969 137.241L99.5617 137.582L99.6322 137.673L103.412 134.737L103.13 134.371L103.078 134.296L103 134.336L102.558 134.445L102.484 134.438L102.12 134.175L99.2397 130.415L102.227 128.089L107.086 129.722C107.639 129.884 107.976 130.06 108.001 130.108L108.039 130.209L107.801 130.595L107.738 130.654L108.01 131.017L108.073 131.111L112.434 127.717L112.152 127.36L112.093 127.285L111.992 127.333C111.763 127.502 111.519 127.569 111.255 127.573H111.18C110.906 127.552 110.338 127.418 109.525 127.172L104.993 125.742C105.949 124.691 106.433 123.625 106.433 122.566C106.433 121.684 106.103 120.816 105.458 119.985C105.027 119.404 104.501 118.95 103.909 118.614C103.364 118.311 102.794 118.165 102.194 118.173ZM101.472 121.308C101.951 121.308 102.37 121.544 102.76 122.043C103.044 122.422 103.181 122.781 103.181 123.128L103.069 123.678C102.954 123.93 102.8 124.16 102.593 124.363C102.393 124.582 102.004 124.921 101.436 125.356L97.63 128.3L95.4354 125.435L99.2416 122.495C99.8131 122.043 100.24 121.746 100.487 121.596C100.722 121.454 100.987 121.372 101.25 121.333L101.472 121.306V121.308ZM29.8044 126.495L29.6101 126.908L29.5758 126.978L29.631 127.046C29.8272 127.237 29.913 127.418 29.913 127.592L29.8539 127.828C29.7606 127.987 29.5815 128.204 29.2805 128.434L19.5383 136.192C19.1802 136.486 18.923 136.658 18.7497 136.706L18.4849 136.742L18.1096 136.687L18.0124 136.664L17.8105 137.045L17.7591 137.151L22.2949 139.394L22.5063 138.975L22.5444 138.896L22.4739 138.836C22.2091 138.624 22.1025 138.424 22.1025 138.263L22.1425 138.071C22.2072 137.954 22.3482 137.786 22.592 137.592L24.3713 136.177L30.1339 139.084V141.32C30.1339 141.638 30.0958 141.862 30.0558 141.964C29.9511 142.154 29.8215 142.234 29.591 142.244L29.2481 142.192L29.17 142.161L28.9719 142.562L28.9338 142.656L33.9497 145.143L34.1478 144.727L34.1821 144.633L34.1192 144.578C33.883 144.407 33.7401 144.219 33.6696 144.012C33.5934 143.793 33.5439 143.417 33.5439 142.888L33.4963 130.267C33.4963 129.977 33.5363 129.744 33.6125 129.592C33.6963 129.429 33.8315 129.349 34.104 129.333L34.3383 129.356L34.6202 128.986L34.6678 128.888L29.8044 126.495ZM87.1335 127.926C85.8704 127.926 84.5369 128.231 83.1368 128.833C80.0068 130.221 78.2104 132.303 77.8047 135.049C77.7399 135.441 77.7113 135.826 77.7113 136.204C77.7113 137.254 77.9304 138.269 78.3476 139.272C78.74 140.209 79.3001 141.021 79.9954 141.732C80.7917 142.526 81.7042 143.113 82.7443 143.477C83.5273 143.761 84.3521 143.908 85.2189 143.908C86.4572 143.908 87.7754 143.611 89.1737 143.009C92.2884 141.678 94.0791 139.586 94.5134 136.777C94.5782 136.349 94.6182 135.943 94.6182 135.544C94.6182 134.537 94.4048 133.571 94.02 132.641C93.1133 130.511 91.6273 129.072 89.5852 128.349C88.8118 128.066 87.9812 127.926 87.1335 127.926ZM86.3924 130.867C86.8763 130.867 87.364 130.946 87.8478 131.099C89.1889 131.538 90.1662 132.499 90.8101 133.995C91.0863 134.61 91.214 135.245 91.2235 135.916V135.972C91.2235 136.712 91.0863 137.4 90.7777 138.035C90.2748 139.139 89.3928 139.958 88.1202 140.499C87.3716 140.815 86.6591 140.978 85.9657 140.978C85.4647 140.978 84.9808 140.904 84.4893 140.735C83.1387 140.273 82.1538 139.331 81.5461 137.906C81.2394 137.18 81.1003 136.482 81.1003 135.809C81.1003 135.122 81.2394 134.453 81.5499 133.801C82.07 132.691 82.9501 131.88 84.2074 131.341C84.9541 131.023 85.6856 130.865 86.3962 130.865L86.3924 130.867ZM38.5998 130.93L38.4874 131.379C38.7845 131.625 38.9236 131.74 38.9712 131.843L39.0227 132.083L39.0074 132.288L36.4852 144.461L36.2776 144.846C36.1804 144.909 36.0185 144.971 35.7632 144.973L35.5841 145.404L35.5613 145.506L40.2266 146.505L40.3276 146.048C40.0495 145.811 39.918 145.699 39.8513 145.603L39.7961 145.341L39.8152 145.164L40.7905 140.497L44.4862 141.276L46.4103 146.046C46.6122 146.535 46.7208 146.859 46.7113 146.974V147.013C46.6903 147.097 46.5912 147.164 46.2941 147.166H46.2083L46.0178 147.601L46.0026 147.715L51.3785 148.834L51.4718 148.395L51.4985 148.29L51.388 148.265C51.0908 148.179 50.8622 148.039 50.7003 147.801C50.5193 147.563 50.2526 147.042 49.9155 146.261L48.0409 141.868H48.3191C50.7403 141.883 52.2491 140.731 52.7063 138.474C52.7787 138.11 52.8187 137.74 52.8187 137.393C52.8187 137.061 52.7882 136.733 52.7253 136.411C52.571 135.713 52.2586 135.111 51.7652 134.616C51.3537 134.177 50.8318 133.839 50.2031 133.559C49.5726 133.299 48.7248 133.065 47.6352 132.825L38.5998 130.927V130.93ZM30.3549 131.312L30.2025 136.637L26.2401 134.668L30.3549 131.312ZM74.85 132.008L70.1847 133.042L70.2704 133.498C70.6419 133.6 70.8114 133.653 70.9067 133.722L71.1143 134.096L73.7775 146.242L73.7965 146.447L73.7489 146.687C73.6899 146.785 73.5565 146.915 73.3279 147.028L73.3393 147.492L73.3736 147.601L78.0466 146.564L77.9342 146.119C77.5913 146.027 77.4199 145.975 77.3246 145.891C77.2236 145.824 77.1513 145.694 77.1055 145.498L74.4423 133.356L74.4195 133.151L74.4709 132.923C74.5338 132.821 74.669 132.693 74.8805 132.585L74.8767 132.121L74.85 132.008ZM64.2163 133.843C63.9325 133.843 63.6181 133.847 63.3019 133.866L54.1941 134.236L54.0969 134.685C54.4208 134.846 54.5884 134.934 54.6742 135.03C54.7484 135.103 54.8018 135.243 54.8075 135.45L55.299 147.862V147.91L55.1828 148.292C55.1199 148.374 54.9561 148.464 54.7142 148.554L54.6399 149.015L59.3243 148.94L59.4062 148.468C59.0747 148.324 58.9318 148.238 58.848 148.154C58.7604 148.067 58.7013 147.929 58.6918 147.73L58.5127 142.988L62.2865 142.838L65.3117 146.98C65.6527 147.442 65.8279 147.757 65.8279 147.826V147.837C65.8279 147.945 65.7308 148.054 65.3822 148.133L65.3117 148.577L70.6876 148.487L70.7924 148.027C70.358 147.906 70.1066 147.81 69.8837 147.626C69.6722 147.448 69.2779 147.02 68.7521 146.326L65.8641 142.528C68.3216 142.008 69.596 140.587 69.5884 138.34L69.5808 138.1C69.5503 137.381 69.396 136.708 69.1122 136.085C68.7902 135.444 68.3387 134.929 67.7425 134.576C67.2224 134.259 66.6376 134.048 65.9632 133.943C65.485 133.874 64.9002 133.837 64.2144 133.837L64.2163 133.843ZM54.6132 134.334L54.297 134.346V134.342L54.6132 134.334ZM42.0592 134.369L46.7513 135.362C47.4866 135.498 47.9819 135.632 48.2429 135.722C48.4905 135.824 48.7248 135.962 48.9458 136.158C49.2754 136.422 49.4335 136.781 49.4335 137.254L49.3954 137.753C49.2259 138.478 48.8887 138.898 48.3381 139.061C48.1324 139.118 47.919 139.166 47.6942 139.166L47.5228 139.162C47.2294 139.134 46.7208 139.053 46.0159 138.9L41.3163 137.91L42.0573 134.371L42.0592 134.369ZM64.0106 136.499C64.2601 136.499 64.4506 136.512 64.5878 136.53C64.8526 136.551 65.125 136.635 65.3803 136.758C65.8737 137.003 66.1518 137.477 66.188 138.215V138.328C66.1861 139.015 65.9537 139.456 65.5003 139.736C65.266 139.876 64.9993 139.97 64.723 140.02C64.4373 140.075 63.9344 140.114 63.2086 140.146L58.4118 140.338L58.2594 136.601L58.4384 136.593L63.0676 136.53C63.4314 136.512 63.742 136.499 64.0125 136.499H64.0106ZM65.4279 148.457V148.468H65.4241L65.4279 148.457Z" fill="#006BB6"/>
<path d="M99.2276 106.145C108.048 96.5043 113.441 83.6352 113.441 69.4935C113.441 39.592 89.3669 15.3762 59.6679 15.3762C29.969 15.3762 5.89453 39.592 5.89453 69.4935C5.89453 99.3901 29.969 123.616 59.6679 123.616C74.7674 123.616 88.4048 117.345 98.1703 107.259C98.4941 107.08 98.8894 106.61 99.2276 106.145Z" fill="#FDB927"/>
<path d="M59.6668 18.7573C31.8424 18.7573 9.28906 41.4646 9.28906 69.4739C9.28906 71.9591 9.47385 74.402 9.81675 76.7912C13.3677 73.1479 20.5228 64.5938 27.0284 49.6237C27.1103 45.2421 27.1618 42.4886 27.1618 42.4886L28.461 42.1741L28.501 40.8702H30.6632C30.6632 40.8702 30.6784 42.245 30.7032 44.6151C30.9203 44.8893 31.1794 45.2153 31.5147 45.6295C31.4804 44.1415 31.4633 43.2805 31.4633 43.2805L32.9263 42.0073L34.4884 42.7148C34.4884 42.7148 34.557 45.2326 34.6865 49.3361C44.4706 60.3427 69.449 84.724 104.491 92.6223C108.037 85.679 110.05 77.8133 110.05 69.4701C110.05 41.4589 87.4969 18.7534 59.6687 18.7534L59.6668 18.7573ZM30.7108 45.4454C30.8232 55.336 31.1585 79.3991 31.9357 98.4401C32.3148 98.396 32.6882 98.3481 33.0787 98.3059C32.3624 80.2639 31.7376 55.0062 31.5337 46.3524C31.2575 46.0475 30.987 45.756 30.7108 45.4454ZM34.6999 49.8154C34.797 52.9276 34.9304 56.893 35.098 61.3647L46.1032 96.9962C47.2195 96.8984 48.3568 96.8045 49.5189 96.7086L34.9532 50.0858C34.8694 49.9938 34.7837 49.9075 34.6999 49.8154ZM26.9598 51.7406C25.6835 54.6169 24.3062 57.4338 22.8812 60.1222L16.5852 95.792C17.2329 96.8658 17.9301 97.9032 18.654 98.9195L26.9598 51.7406ZM36.7001 51.9401L50.6009 96.6242C51.6201 96.5418 52.6507 96.4631 53.7003 96.3884L41.034 56.4041C39.6071 54.9755 38.1593 53.4741 36.7001 51.9401ZM42.899 58.2391L54.7976 96.3097C55.853 96.235 56.9236 96.164 58.0094 96.0931L47.4614 62.613C45.9641 61.2152 44.4401 59.7482 42.899 58.2391ZM26.8741 58.4232L19.5361 100.043C20.3762 99.9204 21.3515 99.7785 22.464 99.6271L26.4455 77.0405L26.5979 77.0674C26.6798 70.5171 26.7808 64.0109 26.8741 58.4232ZM21.2772 63.0751C20.1285 65.1384 18.9798 67.1 17.8616 68.9447L13.9982 90.9061C14.5602 92.1199 15.1698 93.305 15.8213 94.4612L21.2753 63.0771L21.2772 63.0751ZM49.0864 64.1049L59.1067 96.0221C60.1049 95.9588 61.1184 95.9013 62.1395 95.8419L53.3117 67.8709C51.9249 66.6667 50.5152 65.4126 49.0845 64.103L49.0864 64.1049ZM35.2675 65.8268C35.4028 69.3282 35.5609 73.0348 35.7324 76.8219L42.1541 97.3605C43.0876 97.2743 44.0439 97.1803 45.0154 97.094L35.2656 65.8268H35.2675ZM54.7938 69.1556L63.2329 95.7767C64.3569 95.7172 65.4942 95.6578 66.641 95.6041L59.5144 73.0578C57.9713 71.8191 56.3997 70.5267 54.7919 69.1556H54.7938ZM16.4423 71.2419C15.5775 72.6206 14.7507 73.9015 13.9677 75.0885L11.7351 85.121C12.1923 86.5419 12.7028 87.9417 13.28 89.3088L16.4423 71.2419ZM61.0803 74.3023L67.7478 95.5562C68.7841 95.5121 69.8281 95.4641 70.8815 95.4258L65.1627 77.4183C63.833 76.4288 62.4729 75.3972 61.0822 74.3023H61.0803ZM12.2132 77.7059C11.5503 78.6762 10.9578 79.5218 10.434 80.26C10.6016 81.0328 10.7826 81.7998 10.9845 82.5592L12.2132 77.7059ZM66.7362 78.5784L71.9826 95.3836C73.0589 95.3433 74.141 95.3088 75.2306 95.2743L70.9291 81.5697L71.0815 81.6176L70.9025 81.4968L70.8987 81.4892C69.5461 80.5707 68.1631 79.6081 66.7343 78.5745L66.7362 78.5784ZM35.94 81.2495C36.2162 86.9139 36.5287 92.607 36.8811 97.8936C38.226 97.7517 39.6148 97.6079 41.0626 97.466L35.9381 81.2495H35.94ZM72.2912 82.4326L76.3279 95.2494C77.4576 95.2187 78.593 95.1918 79.736 95.1707L76.6765 85.2418C75.2687 84.377 73.8057 83.4412 72.2893 82.4326H72.2912ZM26.5331 82.68L23.5747 99.4775C24.4662 99.3605 25.4092 99.234 26.436 99.1036C26.4341 94.2752 26.4703 88.584 26.5331 82.68ZM78.0557 86.0759L80.8466 95.1496C81.9019 95.1305 82.9611 95.1151 84.0279 95.1094L81.9096 88.3079C80.6846 87.6272 79.3931 86.8793 78.0557 86.0759ZM83.2602 89.05L85.1423 95.094C86.2358 95.0883 87.3369 95.0902 88.4418 95.0902L87.1731 91.0596C85.9482 90.4594 84.6451 89.794 83.2583 89.0481L83.2602 89.05ZM88.4875 91.6943L89.562 95.0921C92.0537 95.1036 94.5607 95.1381 97.0848 95.2014C95.3017 94.6166 92.3699 93.5293 88.4856 91.6962L88.4875 91.6943ZM76.046 103.165C66.9286 103.18 56.234 103.345 45.4917 103.84C74.0476 103.301 89.4038 104.097 95.978 104.618C96.3666 104.208 96.7533 103.803 97.1286 103.385C92.7033 103.282 85.1633 103.148 76.0479 103.165H76.046ZM50.5037 105.435C45.7927 105.47 41.3597 105.545 37.4469 105.631C37.7574 109.414 38.0869 112.76 38.4394 115.481C44.8897 118.503 52.0754 120.2 59.663 120.2C72.796 120.2 84.7537 115.138 93.7187 106.848C81.2504 105.573 64.6331 105.334 50.5018 105.437L50.5037 105.435ZM33.3949 105.727C33.0139 105.736 32.631 105.744 32.2634 105.757C32.3853 108.083 32.5167 110.279 32.6539 112.285C33.0368 112.53 33.4159 112.776 33.8064 113.011C33.6673 111.054 33.5283 108.582 33.393 105.727H33.3949ZM26.4817 105.932C25.8245 105.953 25.2492 105.976 24.7177 105.995C25.3006 106.563 25.8969 107.113 26.5065 107.646C26.495 107.111 26.4874 106.538 26.4798 105.93L26.4817 105.932Z" fill="#006BB6"/>
</svg>
