<svg width="123" height="66" viewBox="0 0 123 66" fill="none" xmlns="http://www.w3.org/2000/svg">
<g clip-path="url(#clip0_38_1019)">
<path d="M77.9036 20.7143C78.1673 22.4581 76.3213 23.0393 75.2136 23.1978L75.1609 19.7103V19.446C76.5322 19.6046 77.7981 19.9216 77.9036 20.7143ZM73.895 19.3932C73.895 19.4989 73.8423 19.6046 73.8423 19.7103L73.7895 28.852L75.2136 28.0593L75.1609 23.2507C76.163 23.3035 77.6399 23.5149 77.6399 24.3075V28.0593L79.0112 28.852L78.9585 24.0433C78.9585 22.6166 76.8487 23.0922 76.8487 23.0922C76.8487 23.0922 79.4859 22.5109 79.3277 20.3444C79.2222 19.0233 77.8509 18.3892 75.3719 18.6534H75.0027C74.9011 17.9838 74.7242 17.3279 74.4752 16.6982C74.2085 17.3987 74.0141 18.1246 73.895 18.8648C73.0138 19.0114 72.1484 19.2414 71.3105 19.5517C72.1685 19.4518 73.0313 19.3989 73.895 19.3932Z" fill="black"/>
<path d="M85.2879 26.1569C85.2879 27.0023 84.8132 27.5308 84.022 27.5308C83.2308 27.5308 82.7561 27.108 82.7561 26.1569V20.9255C82.7561 19.9743 83.2836 19.5516 84.022 19.5516C84.197 19.5527 84.3699 19.5898 84.53 19.6606C84.6901 19.7314 84.8339 19.8344 84.9526 19.9633C85.0713 20.0921 85.1623 20.244 85.22 20.4095C85.2777 20.575 85.3008 20.7506 85.2879 20.9255V26.1569ZM84.9187 18.9175H83.1781C83.1781 18.9175 81.332 18.9175 81.332 20.6613V26.4211C81.332 28.1649 83.1781 28.1649 83.1781 28.1649H84.9187C84.9187 28.1649 86.7647 28.2177 86.7647 26.4211V20.6613C86.7647 18.9175 84.9187 18.9175 84.9187 18.9175Z" fill="black"/>
<path d="M92.3562 18.9175H90.6156C90.6156 18.9175 88.7168 18.9175 88.7168 20.6613V26.4211C88.7168 28.1649 90.6156 28.1649 90.6156 28.1649H92.3562C92.3562 28.1649 94.2022 28.2177 94.2022 26.4211V25.6813H92.7781V26.1569C92.7942 26.3368 92.7715 26.5181 92.7117 26.6885C92.6519 26.859 92.5562 27.0145 92.4312 27.1448C92.3062 27.275 92.1548 27.3768 91.9872 27.4434C91.8195 27.51 91.6396 27.5398 91.4595 27.5308C90.6683 27.5308 90.1936 27.108 90.1936 26.1569V20.9255C90.1936 19.9743 90.7211 19.5516 91.4595 19.5516C91.6384 19.547 91.8164 19.5798 91.9819 19.6479C92.1475 19.716 92.2971 19.818 92.4212 19.9473C92.5452 20.0765 92.6411 20.2303 92.7025 20.3987C92.764 20.5671 92.7897 20.7465 92.7781 20.9255V21.4011H94.2022V20.6613C94.255 18.9175 92.3562 18.9175 92.3562 18.9175Z" fill="black"/>
<path d="M120.204 22.6695C118.991 22.6695 118.621 22.6167 118.621 21.6127V20.6615C118.621 19.9217 118.78 19.499 119.94 19.499C121.153 19.499 121.259 20.0802 121.259 20.82V21.2956L122.577 20.6086V20.4501C122.591 20.2403 122.562 20.0298 122.491 19.8318C122.421 19.6337 122.31 19.4522 122.167 19.2987C122.024 19.1451 121.85 19.0227 121.658 18.9389C121.465 18.8552 121.258 18.812 121.048 18.812H118.991C118.991 18.812 117.25 18.812 117.25 20.3444V21.7183C117.25 22.9866 117.303 23.4093 119.096 23.4093C120.467 23.4093 121.311 23.4621 121.311 24.6247V25.9457C121.311 27.0026 121.153 27.4781 119.993 27.4781C118.78 27.4781 118.621 26.8969 118.621 25.7872V25.1531L117.303 25.6815V26.6855C117.303 28.1123 119.043 28.1123 119.043 28.1123H121.048C121.275 28.1103 121.5 28.0612 121.708 27.9681C121.916 27.875 122.103 27.7399 122.256 27.5713C122.41 27.4026 122.527 27.2041 122.6 26.988C122.674 26.7719 122.702 26.543 122.683 26.3156V24.3076C122.63 22.7752 121.892 22.6695 120.204 22.6695Z" fill="black"/>
<path d="M104.961 26.1043V23.8849H105.436C106.57 23.8485 107.691 23.6346 108.759 23.2508C107.688 22.8783 106.568 22.6647 105.436 22.6167H104.961V21.0842C104.908 20.82 105.172 20.3445 105.225 20.1859C105.514 19.9275 105.893 19.7944 106.28 19.816H108.759C108.601 18.812 106.913 18.9706 106.913 18.9706H105.436C105.436 18.9706 103.432 18.9706 103.432 20.82V26.4213C103.432 28.218 105.436 28.1651 105.436 28.1651H106.913C106.913 28.1651 108.601 28.3236 108.759 27.3725H106.28C106.227 27.3196 104.961 27.4253 104.961 26.1043Z" fill="black"/>
<path d="M109.814 18.9175V20.1329H112.03V27.795L113.401 28.6933V20.1329H113.929C114.852 20.1003 115.763 19.9035 116.618 19.5516C115.775 19.1562 114.859 18.9403 113.929 18.9175H109.814Z" fill="black"/>
<path d="M101.743 18.9175H100.425L97.5764 22.9863V18.9175L96.1523 17.9663V28.6933L97.5764 27.795V23.1977L100.583 28.0063H102.112L98.8951 22.8806L101.743 18.9175Z" fill="black"/>
<path d="M11.4461 26.1569C11.4461 27.0023 10.9714 27.5308 10.1802 27.5308C9.38905 27.5308 8.91435 27.108 8.91435 26.1569V20.9255C8.91435 19.9743 9.4418 19.5516 10.1802 19.5516C10.3552 19.5527 10.5281 19.5898 10.6882 19.6606C10.8483 19.7314 10.9921 19.8344 11.1108 19.9633C11.2295 20.0921 11.3205 20.244 11.3782 20.4095C11.4359 20.575 11.459 20.7506 11.4461 20.9255V26.1569ZM11.0241 18.9175H9.28357C9.28357 18.9175 7.38477 18.9175 7.38477 20.6613V26.4211C7.38477 28.1649 9.28357 28.1649 9.28357 28.1649H11.0241C11.0241 28.1649 12.9229 28.2177 12.9229 26.4211V20.6613C12.9229 18.9175 11.0241 18.9175 11.0241 18.9175Z" fill="black"/>
<path d="M18.8289 19.763V26.2097C18.8289 27.5308 17.774 27.5308 17.774 27.5308H17.352C17.1994 27.5105 17.0523 27.4601 16.9192 27.3826C16.7861 27.3051 16.6696 27.202 16.5765 27.0792C16.4833 26.9564 16.4154 26.8164 16.3765 26.6672C16.3376 26.5179 16.3285 26.3625 16.3499 26.2097V19.8158L14.9258 18.9175V26.4739C14.9258 28.112 16.6663 28.2177 16.6663 28.2177H18.4597C18.4597 28.2177 20.4112 28.1649 20.4112 26.4739V23.0392C20.4112 23.0392 20.3585 18.9703 20.3585 18.9175L18.8289 19.763Z" fill="black"/>
<path d="M43.5137 28.7988L44.7268 27.9005V22.722L48.8936 28.2175V21.2952C48.8235 20.1114 48.611 18.9404 48.2607 17.8076C47.9438 18.9461 47.7492 20.1153 47.6805 21.2952V24.3601L43.5137 18.9173V28.7988Z" fill="black"/>
<path d="M25.0533 22.6695C23.8402 22.6695 23.471 22.6167 23.471 21.6127V20.6615C23.471 19.9217 23.6292 19.499 24.7896 19.499C26.0027 19.499 26.1082 20.0802 26.1082 20.82V21.2956L27.4268 20.6086V20.4501C27.4408 20.2403 27.4116 20.0298 27.341 19.8318C27.2705 19.6337 27.1601 19.4522 27.0167 19.2987C26.8733 19.1451 26.6999 19.0227 26.5073 18.9389C26.3148 18.8552 26.1071 18.812 25.8972 18.812H23.8402C23.8402 18.812 22.0996 18.812 22.0996 20.3444V21.7183C22.0996 22.9866 22.1524 23.4093 23.9457 23.4093C25.317 23.4093 26.1609 23.4621 26.1609 24.6247V25.9457C26.1609 27.0026 26.0027 27.4781 24.8951 27.4781C23.6292 27.4781 23.471 26.8969 23.471 25.7872V25.1531L22.1524 25.6815V26.6855C22.1524 28.1123 23.8402 28.1123 23.8402 28.1123H25.8972C26.125 28.1103 26.3499 28.0612 26.5579 27.9681C26.7659 27.875 26.9525 27.7399 27.1059 27.5713C27.2594 27.4026 27.3765 27.2041 27.4499 26.988C27.5232 26.7719 27.5513 26.543 27.5323 26.3156V24.3076C27.5323 22.7752 26.7411 22.6695 25.0533 22.6695Z" fill="black"/>
<path d="M28.4824 19.1819V20.3444H30.6977V27.9009L32.069 28.7992V20.3444H32.5437C33.4545 20.3442 34.3543 20.1459 35.181 19.7632C34.3627 19.3558 33.4571 19.1562 32.5437 19.1819H28.4824Z" fill="black"/>
<path d="M37.4495 26.157V20.9256C37.4495 19.9744 37.9769 19.5517 38.7154 19.5517C38.8943 19.5471 39.0722 19.5799 39.2378 19.648C39.4034 19.7162 39.553 19.8181 39.677 19.9474C39.8011 20.0766 39.8969 20.2304 39.9584 20.3988C40.0198 20.5672 40.0456 20.7466 40.034 20.9256V26.157C40.0501 26.3369 40.0274 26.5182 39.9676 26.6886C39.9077 26.8591 39.8121 27.0146 39.6871 27.1449C39.5621 27.2751 39.4107 27.3769 39.243 27.4435C39.0754 27.5101 38.8955 27.5399 38.7154 27.5309C37.9242 27.5309 37.4495 27.161 37.4495 26.157ZM39.5593 28.165C39.5593 28.165 41.4581 28.165 41.4581 26.3683V20.6614C41.4581 18.8647 39.5593 18.8647 39.5593 18.8647H37.8187C37.8187 18.8647 35.9727 18.8647 35.9727 20.6614V26.3683C35.9727 28.165 37.8187 28.165 37.8187 28.165H39.5593Z" fill="black"/>
<path d="M4.85249 17.7021C4.50372 18.5781 4.30748 19.5075 4.2723 20.4499V22.9335H1.26587V20.4499C1.19284 19.5075 0.979497 18.5813 0.632933 17.7021C0.319414 18.5884 0.124325 19.5124 0.0527444 20.4499L0 28.9576L1.31861 28.2178V23.8847H4.32504V28.2178L5.64365 28.9576L5.59091 20.4499C5.4372 19.5116 5.18982 18.591 4.85249 17.7021Z" fill="black"/>
<path d="M69.6226 37.9409L69.6753 31.1771C75.8992 31.9697 81.0154 32.8152 81.0154 34.3476C81.0681 35.9857 76.3739 37.3068 69.6226 37.9409ZM57.6496 38.2051L57.7023 36.7783C57.5968 32.9208 57.8078 28.0594 57.8606 22.9337C60.9725 23.2507 64.9283 24.0962 64.8756 26.3156L64.7701 38.2579C63.6097 38.3108 62.4493 38.3108 61.289 38.3108C60.0231 38.3108 58.81 38.2579 57.6496 38.2051ZM41.668 34.3476C41.668 32.8152 47.3117 31.9697 52.9553 31.1242C52.9553 32.9208 52.9026 34.9289 52.8499 37.0954V37.9409C46.1513 37.3068 41.668 35.9857 41.668 34.3476ZM65.9832 15.2715C66.6689 20.2915 61.5527 21.9297 57.9133 22.4581C57.9738 18.7905 57.8506 15.1221 57.5441 11.4669C61.8691 11.8896 65.6667 12.9465 65.9832 15.2715ZM69.7281 31.0714L69.7808 25.153C69.7808 21.5069 64.7173 21.8768 63.0823 22.0882C65.0338 21.7183 71.6269 20.133 71.2049 14.0562C70.9412 10.093 65.9305 8.08498 57.7023 8.87761C57.5441 8.87761 57.4386 8.93046 57.2804 8.93046C56.9283 6.03893 56.2923 3.18925 55.3816 0.422852C54.3785 3.38153 53.6373 6.42288 53.1663 9.51172C50.2056 9.98079 47.2803 10.6517 44.4107 11.5197C47.2525 11.2842 50.1045 11.196 52.9553 11.2555C52.4279 16.5397 53.0081 21.5069 52.9553 31.0714C44.2525 30.8072 36.6573 32.4981 36.7628 35.0345C36.8683 37.3068 43.5668 39.3676 52.9553 40.1602L53.3773 53.0009L54.0102 44.2819C54.063 43.2251 54.8541 43.3308 54.8541 44.2291L55.1179 55.643L55.8563 46.3428C55.8563 45.0746 56.7002 45.1803 56.6475 46.2899L56.9639 58.1794L57.5441 40.4244C58.7572 40.4773 59.9704 40.4773 61.2362 40.4773C62.4493 40.4773 63.6097 40.4773 64.7173 40.4244L65.2975 58.5493L65.7722 49.0377C65.7722 47.8224 66.6161 47.8752 66.6161 48.9849L67.0908 62.2483L67.6183 50.7815C67.6183 49.6718 68.5149 49.7247 68.5677 50.7815L68.9369 66.0001L69.5698 40.1602C79.0638 39.3676 85.9734 37.2539 85.9734 35.0345C85.9206 32.5509 78.4836 30.6486 69.7281 31.0714Z" fill="black"/>
<path d="M78.2727 20.3969C78.4837 22.1407 76.6377 22.7219 75.53 22.8805V19.34C75.5378 19.2655 75.5192 19.1907 75.4773 19.1287C76.9014 19.2872 78.1673 19.6042 78.2727 20.3969ZM74.2114 19.0758V19.34L74.1059 28.5346L75.53 27.742V22.9333C76.4794 22.9861 78.009 23.1447 77.9563 23.9373L78.009 27.742L79.3276 28.5346V23.6731C79.3276 22.2464 77.2179 22.7748 77.2179 22.7748C77.2179 22.7748 79.8023 22.1935 79.6441 19.9741C79.5914 18.7059 78.1673 18.019 75.6883 18.2832C75.5828 18.2832 75.4245 18.336 75.3718 18.336C75.2764 17.659 75.0809 17.0001 74.7916 16.3809C74.5184 17.0792 74.3238 17.8058 74.2114 18.5474C73.3534 18.6975 72.5073 18.9094 71.6797 19.1815C71.6797 19.1815 72.8928 19.0758 74.2114 19.0758Z" fill="#CE1141"/>
<path d="M85.657 25.8401C85.6731 26.02 85.6504 26.2013 85.5906 26.3718C85.5308 26.5422 85.4351 26.6978 85.3101 26.828C85.1851 26.9582 85.0337 27.0601 84.8661 27.1266C84.6985 27.1932 84.5185 27.223 84.3384 27.214C83.5472 27.214 83.0725 26.7912 83.0725 25.8401V20.6087C83.0725 19.6047 83.6 19.2348 84.3384 19.2348C84.5174 19.2302 84.6953 19.263 84.8609 19.3311C85.0264 19.3993 85.176 19.5012 85.3001 19.6305C85.4241 19.7597 85.52 19.9135 85.5814 20.0819C85.6429 20.2503 85.6686 20.4297 85.657 20.6087V25.8401ZM85.2351 18.5479H83.4945C83.4945 18.5479 81.5957 18.5479 81.5957 20.3445V26.0515C81.5957 27.8481 83.4945 27.8481 83.4945 27.8481H85.2351C85.2351 27.8481 87.0811 27.9009 87.0811 26.0515V20.3445C87.0811 18.5479 85.2351 18.5479 85.2351 18.5479Z" fill="#CE1141"/>
<path d="M92.6726 18.5479H90.932C90.932 18.5479 89.0859 18.5479 89.0859 20.3445V26.0515C89.0859 27.8481 90.9847 27.8481 90.9847 27.8481H92.7253C92.7253 27.8481 94.5714 27.9009 94.5714 26.0515V25.3645H93.0945V25.8401C93.0945 26.6856 92.6198 27.214 91.8287 27.214C91.0375 27.214 90.5628 26.7912 90.5628 25.8401V20.6087C90.5628 19.6047 91.0902 19.2348 91.8287 19.2348C92.0036 19.2359 92.1765 19.273 92.3366 19.3438C92.4967 19.4146 92.6406 19.5176 92.7593 19.6465C92.8779 19.7753 92.969 19.9272 93.0266 20.0927C93.0843 20.2582 93.1074 20.4339 93.0945 20.6087V21.0843H94.5714V20.3445C94.5714 18.5479 92.6726 18.5479 92.6726 18.5479Z" fill="#CE1141"/>
<path d="M120.52 22.3521C119.307 22.3521 118.938 22.2993 118.938 21.2953V20.3441C118.938 19.6043 119.096 19.1816 120.256 19.1816C121.469 19.1816 121.575 19.7628 121.575 20.5026V20.9782L122.894 20.2913V20.1327C122.908 19.9229 122.878 19.7124 122.808 19.5144C122.737 19.3163 122.627 19.1349 122.483 18.9813C122.34 18.8277 122.167 18.7053 121.974 18.6216C121.782 18.5378 121.574 18.4946 121.364 18.4946H119.307C119.307 18.4946 117.566 18.4946 117.566 19.9742V21.401C117.566 22.6692 117.619 23.0919 119.412 23.0919C120.784 23.0919 121.628 23.1447 121.628 24.3073V25.6283C121.628 26.6852 121.469 27.1608 120.362 27.1608C119.096 27.1608 118.938 26.5795 118.938 25.4698V24.8357L117.619 25.3641V26.3681C117.619 27.7949 119.36 27.7949 119.36 27.7949H121.417C121.417 27.7949 122.999 27.7949 122.999 25.9454V23.9902C122.999 22.4578 122.208 22.3521 120.52 22.3521Z" fill="#CE1141"/>
<path d="M105.278 25.7872V23.5678H105.752C106.889 23.5177 108.011 23.2858 109.075 22.8808C108.004 22.5083 106.885 22.2947 105.752 22.2467H105.278V20.7672C105.294 20.4433 105.404 20.1312 105.594 19.8688C105.88 19.6005 106.257 19.4497 106.649 19.4461H109.128C108.917 18.4949 107.282 18.6535 107.282 18.6535H105.752C105.752 18.6535 103.748 18.6535 103.748 20.5029V26.0514C103.748 27.9009 105.752 27.848 105.752 27.848H107.282C107.282 27.848 108.917 28.0065 109.128 27.0025H106.596C106.427 27.026 106.254 27.0117 106.09 26.9604C105.927 26.9092 105.777 26.8224 105.651 26.7063C105.525 26.5901 105.426 26.4475 105.362 26.2886C105.297 26.1297 105.268 25.9585 105.278 25.7872Z" fill="#CE1141"/>
<path d="M110.131 18.6006V19.816H112.346V27.4781L113.77 28.3764V19.816H114.298C115.208 19.768 116.102 19.5531 116.935 19.1819C116.106 18.805 115.208 18.6069 114.298 18.6006H110.131Z" fill="#CE1141"/>
<path d="M102.06 18.6006H100.741L97.8929 22.6694V18.5477L96.4688 17.6494V28.3764L97.8929 27.4781V22.828L100.899 27.6366H102.429L99.2115 22.5109L102.06 18.6006Z" fill="#CE1141"/>
<path d="M11.8152 25.8401C11.8313 26.02 11.8086 26.2013 11.7488 26.3718C11.689 26.5422 11.5933 26.6978 11.4683 26.828C11.3433 26.9582 11.1919 27.0601 11.0243 27.1266C10.8567 27.1932 10.6767 27.223 10.4966 27.214C9.70545 27.214 9.23075 26.7912 9.23075 25.8401V20.6087C9.23075 19.6047 9.75819 19.2348 10.4966 19.2348C10.6756 19.2302 10.8535 19.263 11.0191 19.3311C11.1846 19.3993 11.3342 19.5012 11.4583 19.6305C11.5824 19.7597 11.6782 19.9135 11.7396 20.0819C11.8011 20.2503 11.8268 20.4297 11.8152 20.6087V25.8401ZM11.3933 18.5479H9.65271C9.65271 18.5479 7.75391 18.5479 7.75391 20.3445V26.0515C7.75391 27.8481 9.65271 27.8481 9.65271 27.8481H11.3933C11.3933 27.8481 13.2921 27.9009 13.2921 26.0515V20.3445C13.2393 18.5479 11.3933 18.5479 11.3933 18.5479Z" fill="#CE1141"/>
<path d="M19.198 19.4462V25.8401C19.198 27.214 18.0904 27.214 18.0904 27.214H17.6684C17.3554 27.1537 17.0752 26.9807 16.8808 26.7275C16.6865 26.4744 16.5914 26.1587 16.6135 25.8401V22.9338L16.6663 19.4462L15.2422 18.5479V26.1571C15.2422 27.7424 16.9828 27.8481 16.9828 27.8481H18.7761C18.7761 27.8481 20.6749 27.7953 20.6749 26.1571V18.5479L19.198 19.4462Z" fill="#CE1141"/>
<path d="M43.8828 28.4292L45.0959 27.5309V22.3523L49.2627 27.8479V20.9256C49.1927 19.7418 48.9802 18.5708 48.6298 17.438C48.2964 18.5748 48.0842 19.7439 47.9969 20.9256V23.9904L43.8828 18.5477V28.4292Z" fill="#CE1141"/>
<path d="M25.3697 22.3522C24.2093 22.3522 23.7874 22.2994 23.7874 21.2954V20.3442C23.7874 19.6044 23.9456 19.1817 25.106 19.1817C26.3191 19.1817 26.4773 19.7629 26.4773 20.5027V20.9783L27.7959 20.2914V20.1328C27.8053 19.9197 27.7711 19.7069 27.6956 19.5074C27.6201 19.3079 27.5047 19.126 27.3566 18.9726C27.2085 18.8193 27.0308 18.6979 26.8343 18.6157C26.6377 18.5335 26.4266 18.4924 26.2136 18.4947H24.2093C24.2093 18.4947 22.416 18.4947 22.416 19.9743V21.401C22.416 22.6693 22.5215 23.092 24.2621 23.092C25.6862 23.092 26.4773 23.1448 26.4773 24.3074V25.6284C26.4773 26.6853 26.3191 27.1609 25.2115 27.1609C23.9456 27.1609 23.8401 26.5796 23.8401 25.4699V24.8358L22.5215 25.3642V26.3682C22.5215 27.795 24.2093 27.795 24.2093 27.795H26.2664C26.4981 27.7906 26.7264 27.7382 26.9369 27.6409C27.1474 27.5436 27.3354 27.4036 27.4891 27.2298C27.6428 27.0559 27.7588 26.852 27.8297 26.631C27.9007 26.4099 27.9251 26.1765 27.9014 25.9455V23.9903C27.8487 22.4579 27.1103 22.3522 25.3697 22.3522Z" fill="#CE1141"/>
<path d="M28.8516 18.812V20.0274H31.0668V27.531L32.3854 28.4822V20.0274H32.9129C33.8222 20.0151 34.7196 19.8173 35.5501 19.4461C34.7256 19.0505 33.8268 18.8344 32.9129 18.812H28.8516Z" fill="#CE1141"/>
<path d="M37.7659 25.8401V20.6087C37.7659 19.6047 38.2934 19.2348 39.0318 19.2348C39.2107 19.2302 39.3886 19.263 39.5542 19.3311C39.7198 19.3993 39.8694 19.5012 39.9934 19.6305C40.1175 19.7597 40.2133 19.9135 40.2748 20.0819C40.3362 20.2503 40.362 20.4297 40.3504 20.6087V25.8401C40.3665 26.02 40.3438 26.2013 40.284 26.3718C40.2241 26.5422 40.1285 26.6978 40.0035 26.828C39.8785 26.9582 39.7271 27.0601 39.5594 27.1266C39.3918 27.1932 39.2119 27.223 39.0318 27.214C38.2406 27.214 37.7659 26.7912 37.7659 25.8401ZM39.9284 27.7952C39.9284 27.7952 41.7745 27.8481 41.7745 26.0515V20.3445C41.7745 18.5479 39.9284 18.5479 39.9284 18.5479H38.1879C38.1879 18.5479 36.2891 18.5479 36.2891 20.3445V26.0515C36.2891 27.7952 38.1879 27.7952 38.1879 27.7952H39.9284Z" fill="#CE1141"/>
<path d="M5.22163 17.332C4.88058 18.2312 4.66751 19.174 4.58869 20.1327V22.6163H1.58226V20.1327C1.5215 19.1764 1.32617 18.2335 1.00207 17.332C0.647388 18.227 0.433856 19.1719 0.369141 20.1327V28.6403L1.68775 27.9005L1.63501 23.5674H4.69418L4.64144 27.9005L5.96005 28.6403L5.9073 20.1327C5.74762 19.1835 5.51844 18.2475 5.22163 17.332Z" fill="#CE1141"/>
<path d="M70.0445 37.518L70.0972 30.7014C76.321 31.494 81.4372 32.3923 81.4372 33.8719C81.4372 35.5628 76.7957 36.9367 70.0445 37.518ZM65.192 37.8351C64.0843 37.8351 62.8712 37.8879 61.7108 37.8879C60.445 37.8879 59.2846 37.8351 58.0715 37.8351L58.1242 36.3555C58.0187 32.5508 58.2297 27.6893 58.2824 22.5108C61.3944 22.8807 65.3502 23.6733 65.2975 25.8927L65.192 37.8351ZM57.966 11.044C62.2383 11.4668 66.0886 12.4708 66.4051 14.8487C67.038 19.8687 61.9746 21.5068 58.2824 22.0352C58.3607 18.3685 58.2551 14.7001 57.966 11.044ZM53.2717 37.518C46.5732 36.9367 42.0372 35.5628 42.0372 33.8719C42.0372 32.3923 47.6808 31.5468 53.3245 30.7014C53.3245 32.498 53.2717 34.506 53.219 36.6725L53.2717 37.518ZM70.0972 30.6485L70.1499 24.7302C70.1499 21.0841 65.1392 21.454 63.5041 21.6653C65.4029 21.2954 71.996 19.7102 71.6268 13.6333C71.3631 9.67013 66.3523 7.66213 58.0715 8.45476C57.966 8.45476 57.8077 8.5076 57.7023 8.5076C57.3326 5.61433 56.679 2.76466 55.7507 0C54.7733 2.94812 54.0326 5.96973 53.5354 9.03603C50.5778 9.54408 47.6539 10.2323 44.7799 11.0969C47.6393 10.8622 50.5088 10.774 53.3772 10.8327C52.8498 16.1169 53.3772 21.0841 53.3772 30.6485C44.6744 30.3843 37.0792 32.0224 37.1847 34.6117C37.2374 36.8839 43.9887 38.9448 53.3772 39.7374L53.7464 52.5781L54.4321 43.8591C54.4321 42.8022 55.2233 42.8551 55.2233 43.8062L55.5397 55.2202L56.2254 45.9199C56.2254 44.6517 57.0693 44.7046 57.0693 45.8671L57.3858 57.7566L57.966 40.0016C59.1791 40.0544 60.3922 40.0544 61.6581 40.0544C62.8185 40.0544 64.0316 40.0544 65.1392 40.0016L65.6667 58.1265L66.1941 48.6149C66.1941 47.4524 66.9853 47.4524 66.9853 48.562L67.5127 61.8255L67.9874 50.3587C68.0402 49.249 68.9368 49.3018 68.9368 50.3587L69.3588 65.5773L69.939 39.7374V39.6845C79.4857 38.8919 86.3425 36.8311 86.3425 34.6117C86.3425 32.1809 78.8528 30.2786 70.0972 30.6485Z" fill="#CE1141"/>
</g>
<defs>
<clipPath id="clip0_38_1019">
<rect width="123" height="66" fill="white"/>
</clipPath>
</defs>
</svg>
