<svg width="122" height="122" viewBox="0 0 122 122" fill="none" xmlns="http://www.w3.org/2000/svg">
<g clip-path="url(#clip0_38_1020)">
<path d="M122 60.9833C122.003 73.0494 118.428 84.8454 111.727 94.8794C105.025 104.913 95.4984 112.734 84.3514 117.353C73.2045 121.972 60.938 123.182 49.1036 120.829C37.2692 118.476 26.3985 112.666 17.8665 104.134C9.33451 95.6015 3.52448 84.7308 1.17131 72.8964C-1.18186 61.062 0.0275572 48.7956 4.64658 37.6486C9.26559 26.5016 17.0867 16.9749 27.1207 10.2734C37.1546 3.57189 48.9507 -0.00330454 61.0168 2.29188e-06C77.1903 0.00061814 92.7013 6.42582 104.138 17.8623C115.574 29.2987 121.999 44.8097 122 60.9833Z" fill="#BEC0C2"/>
<path d="M118.509 60.9833C118.502 76.2221 112.443 90.8343 101.664 101.606C90.885 112.378 76.2688 118.428 61.0299 118.424C45.7911 118.421 31.1775 112.365 20.4032 101.588C9.62891 90.8115 3.57617 76.1966 3.57617 60.9577C3.57617 45.7189 9.62891 31.104 20.4032 20.3273C31.1775 9.55059 45.7911 3.4946 61.0299 3.49121C76.2688 3.48783 90.885 9.53732 101.664 20.3092C112.443 31.0811 118.502 45.6933 118.509 60.9322C118.509 60.9492 118.509 60.9662 118.509 60.9833Z" fill="#002D62"/>
<path d="M61.0158 6.18507C50.1762 6.17845 39.5782 9.38672 30.5621 15.4041C21.5461 21.4214 14.5172 29.9775 10.3645 39.9901C6.21181 50.0026 5.12184 61.0219 7.23249 71.654C9.34313 82.2861 14.5596 92.0535 22.222 99.7206C29.8844 107.388 39.6485 112.61 50.2794 114.727C60.9102 116.844 71.9301 115.761 81.9452 111.614C91.9603 107.468 100.521 100.444 106.544 91.4319C112.566 82.4195 115.781 71.8234 115.781 60.9838C115.785 46.4549 110.017 32.5195 99.747 22.2429C89.4766 11.9662 75.5447 6.19012 61.0158 6.18507Z" fill="#FDBB30"/>
<path d="M98.5238 60.9834C98.5238 82.1314 81.6984 99.2893 61.0158 99.2893C40.2668 99.2893 23.5078 82.1314 23.5078 60.9834C23.5078 39.8354 40.2673 22.7109 61.0163 22.7109C81.7318 22.7109 98.5238 39.8354 98.5238 60.9834Z" fill="#002D62"/>
<path d="M96.1299 60.9832C96.1299 80.7681 80.435 96.7951 61.0161 96.7951C41.6303 96.7951 25.9023 80.7676 25.9023 60.9832C25.9023 41.1989 41.5973 25.1714 61.0161 25.1714C80.435 25.1714 96.1299 41.1989 96.1299 60.9832Z" fill="white"/>
<path d="M22.5106 50.2766L22.1451 51.6731L10.9395 48.913L11.305 47.4834L22.5106 50.2766Z" fill="#002D62"/>
<path d="M24.0739 33.0522L28.8957 36.7431L28.0643 37.8401L18.9199 30.8242L19.3858 30.1926L26.0027 31.9217L21.015 28.0975L21.8464 27.0005L30.9903 33.9834L30.5579 34.648L24.0739 33.0522Z" fill="#002D62"/>
<path d="M35.877 15.3287L38.1379 14.1648C39.102 13.666 40.2994 13.6994 40.931 14.8963C42.361 17.7559 43.0257 18.9862 44.4891 21.7793C44.6056 22.0133 44.6721 22.2689 44.6845 22.5299C44.6969 22.7909 44.6548 23.0517 44.561 23.2956C44.4672 23.5395 44.3236 23.7612 44.1395 23.9466C43.9554 24.1321 43.7347 24.2772 43.4915 24.3728L41.1307 25.5697L35.877 15.3287ZM41.8957 23.7746L42.4943 23.442C42.7306 23.3485 42.92 23.165 43.0209 22.9318C43.1219 22.6987 43.1261 22.435 43.0326 22.1987C43.0209 22.169 43.0077 22.14 42.9932 22.1119C41.7963 19.7841 40.9315 18.1218 39.7346 15.7606C39.6834 15.6531 39.6115 15.5568 39.523 15.4772C39.4346 15.3975 39.3312 15.336 39.219 15.2963C39.1068 15.2566 38.9878 15.2394 38.8689 15.2456C38.7501 15.2519 38.6336 15.2815 38.5261 15.3329C38.5073 15.3418 38.4888 15.3514 38.4709 15.3616L37.7728 15.7276L41.8957 23.7746Z" fill="#002D62"/>
<path d="M59.5541 20.2501L58.1241 20.3499L57.459 8.81177L58.9889 8.71191L59.5541 20.2501Z" fill="#002D62"/>
<path d="M76.3785 23.3091L76.8773 21.0812L74.9489 20.3497L73.785 22.3115L72.4219 21.7793L78.5734 11.7705L80.0034 12.3028L77.8085 23.8409L76.3785 23.3091ZM77.9748 15.4285L77.9083 15.395L75.5476 19.2857L77.1104 19.8509L77.9748 15.4285Z" fill="#002D62"/>
<path d="M93.5353 27.7982L89.0799 31.9879L88.1152 30.9903L96.5282 23.0767L97.027 23.6084L94.2668 29.9263L98.8889 25.5703L99.8197 26.5679L91.4072 34.4815L90.8754 33.9163L93.5353 27.7982Z" fill="#002D62"/>
<path d="M99.2889 49.2787L101.317 48.2481L100.652 46.2863L98.3912 46.6523L97.9258 45.2557L109.597 43.6929L110.096 45.1229L99.7882 50.7422L99.2889 49.2787ZM106.438 45.5878L106.372 45.4879L101.883 46.1196L102.415 47.6824L106.438 45.5878Z" fill="#002D62"/>
<path d="M15.0965 85.0578L14.3984 83.7276L24.6064 78.4404L26.3021 81.666C26.6347 82.3311 26.4684 82.8299 25.9696 83.096C24.1406 84.0272 23.2099 84.526 21.3809 85.4902C21.265 85.5571 21.1361 85.5983 21.0029 85.6108C20.8697 85.6233 20.7353 85.6069 20.609 85.5627C20.4827 85.5186 20.3674 85.4476 20.2711 85.3548C20.1747 85.2619 20.0996 85.1494 20.0507 85.0248L19.0201 83.0291L15.0965 85.0578ZM20.1176 82.4309L20.9489 83.9938L25.0388 81.8322L24.2075 80.2694L20.1176 82.4309Z" fill="#002D62"/>
<path d="M30.3252 103.413L31.4556 101.417L29.7929 100.121L28.0973 101.617L26.9668 100.719L35.8117 93.0049L37.0085 93.9691L31.5225 104.343L30.3252 103.413ZM34.2822 96.3633L34.2158 96.2634L30.824 99.2558L32.1207 100.286L34.2822 96.3633Z" fill="#002D62"/>
<path d="M50.8068 108.566L52.2698 108.932L51.5383 111.892C51.5133 112.01 51.4654 112.122 51.3972 112.221C51.3289 112.32 51.2418 112.406 51.1407 112.471C51.0396 112.537 50.9265 112.582 50.808 112.604C50.6894 112.626 50.5676 112.625 50.4496 112.6C50.4357 112.597 50.4218 112.594 50.4078 112.59C49.3772 112.357 48.6787 112.158 47.6147 111.892C47.3722 111.838 47.1613 111.689 47.0284 111.479C46.8954 111.269 46.8512 111.015 46.9055 110.773C46.9089 110.758 46.9126 110.743 46.9166 110.729C47.8144 107.071 48.3132 105.042 49.211 101.385C49.2359 101.267 49.2839 101.155 49.3521 101.056C49.4203 100.956 49.5075 100.871 49.6086 100.805C49.7097 100.74 49.8227 100.694 49.9413 100.672C50.0599 100.65 50.1816 100.652 50.2996 100.677C50.3136 100.68 50.3275 100.683 50.3414 100.686C51.372 100.919 52.104 101.152 53.168 101.384C53.2876 101.416 53.3997 101.471 53.498 101.547C53.5962 101.622 53.6787 101.715 53.7408 101.823C53.8028 101.93 53.8431 102.048 53.8594 102.17C53.8757 102.293 53.8678 102.418 53.8359 102.537L53.8326 102.548L53.2674 104.876L51.8044 104.544L52.3032 102.481L50.5741 102.082L48.446 110.861L50.1752 111.259L50.8068 108.566Z" fill="#002D62"/>
<path d="M72.0551 112.523L68.3312 113.222L66.3359 101.85L69.9934 101.185L70.1931 102.415L67.9652 102.78L68.6303 106.505L70.7249 106.139L70.9246 107.369L68.863 107.735L69.5945 111.692L71.789 111.326L72.0551 112.523Z" fill="#002D62"/>
<path d="M89.0467 105.274L87.7829 106.072L81.2988 96.5293L84.4575 94.3678C84.5587 94.2803 84.6785 94.2169 84.8078 94.1825C84.9371 94.1481 85.0725 94.1435 85.2038 94.1692C85.3352 94.1948 85.4589 94.25 85.5658 94.3305C85.6726 94.411 85.7598 94.5148 85.8206 94.6339C86.7184 95.9307 87.3171 96.7955 88.2148 98.1252C88.2978 98.2282 88.3573 98.3481 88.3891 98.4766C88.4208 98.605 88.4242 98.7388 88.3988 98.8686C88.3735 98.9985 88.32 99.1212 88.2423 99.2282C88.1646 99.3353 88.0644 99.4241 87.9487 99.4883L87.7825 99.6211L92.0052 103.246L90.642 104.177L85.8871 99.9871L85.8536 99.4549L86.8512 98.7898L84.7566 95.7305L83.1938 96.7945L89.0467 105.274Z" fill="#002D62"/>
<path d="M100.786 87.8508L103.08 89.3138L103.745 88.2498L101.517 86.8198L97.2277 87.0525C96.9613 87.085 96.6917 87.0264 96.4628 86.8862C95.6314 86.3539 95.2659 86.0883 94.3347 85.556C94.2346 85.4925 94.148 85.4098 94.0799 85.3128C94.0118 85.2157 93.9634 85.1062 93.9376 84.9905C93.9118 84.8748 93.9091 84.7551 93.9296 84.6383C93.9501 84.5216 93.9933 84.41 94.057 84.3099L94.0686 84.2923C94.501 83.5273 94.8999 82.9621 95.3653 82.2306C95.4266 82.1209 95.5107 82.0257 95.6121 81.9515C95.7135 81.8773 95.8297 81.8258 95.9527 81.8006C96.0758 81.7753 96.2029 81.7769 96.3253 81.8052C96.4477 81.8334 96.5625 81.8878 96.662 81.9645L98.6903 83.2612L97.8923 84.4915L96.1298 83.3611L95.4647 84.4585L97.1938 85.5226L101.284 85.2565C101.644 85.2101 102.009 85.2925 102.314 85.4891C103.378 86.1872 103.744 86.3869 104.875 87.0854C105.084 87.2109 105.236 87.4134 105.299 87.6496C105.361 87.8857 105.328 88.1368 105.207 88.3492C104.742 89.1141 104.376 89.6793 103.877 90.4108C103.815 90.5195 103.73 90.6136 103.629 90.6871C103.527 90.7605 103.412 90.8114 103.289 90.8366C103.166 90.8618 103.04 90.8606 102.917 90.833C102.795 90.8055 102.68 90.7523 102.58 90.677L100.053 89.0477L100.786 87.8508Z" fill="#002D62"/>
<path d="M49.8107 39.2367L40.3008 82.3305H59.121C59.121 82.3305 61.2156 73.7518 61.3819 72.9869H69.5291C75.6473 73.0203 80.6354 70.9586 83.9938 67.0016C90.1453 60.3182 89.0813 50.5751 84.4591 44.9888C82.8323 43.0166 80.784 41.4343 78.4649 40.3583C76.1458 39.2823 73.6149 38.74 71.0585 38.7713H49.9106L49.8107 39.2367Z" fill="#BEC0C2"/>
<path d="M60.0196 71.2912L57.7586 80.6349H42.4297L51.2745 40.5335H71.0259C73.3363 40.4987 75.6247 40.986 77.7204 41.9591C79.8161 42.9321 81.6651 44.3658 83.1293 46.1532C87.5183 51.4405 87.9507 60.2519 82.6969 65.9381C79.4714 69.6954 74.7164 71.3911 69.5295 71.3247L60.0196 71.2912Z" fill="#002D62"/>
<path d="M49.2129 49.7113H57.8585C58.8561 49.7113 59.9202 50.5092 59.4878 51.8059C59.1878 52.6348 58.9761 53.4931 58.8561 54.3664C58.7897 54.998 59.5212 55.4304 59.9202 55.4304H77.5769C77.9095 55.4304 78.0757 55.3306 78.0757 55.1643C78.0828 54.785 78.0494 54.406 77.9759 54.0338C77.9095 53.6678 77.876 53.5685 77.5435 53.5685C75.349 53.5685 74.4512 52.5708 72.1234 51.1078C69.8291 49.6114 66.4372 48.7471 63.5112 48.7471H49.3457L49.2129 49.7113Z" fill="#FDBB30"/>
<path d="M59.9186 61.1168C59.6092 60.4167 59.3535 59.6941 59.1536 58.9553C58.9539 58.0575 58.156 57.326 56.7929 57.326H47.5156L47.7818 56.2954L77.8744 56.3288C78.1406 56.3288 78.1071 56.4617 78.0741 56.7942C78.0741 57.1268 77.9743 57.7254 77.9413 58.0909C77.9079 58.4899 77.6088 58.39 77.3426 58.39C76.3926 58.365 75.4562 58.6194 74.6493 59.1215C73.419 60.0857 70.7257 61.7484 69.2627 62.1808C67.633 62.6462 61.6811 64.5082 59.9186 61.1168Z" fill="#FDBB30"/>
<path d="M45.8867 64.9068H61.5817C62.2119 64.8838 62.832 65.071 63.3442 65.439C64.803 66.5536 66.4624 67.3776 68.232 67.8662C69.0299 68.1323 70.46 67.7998 71.7232 67.1013C74.8489 65.3057 76.8772 61.9473 77.5757 59.7528C77.742 59.1876 77.4094 59.2206 77.0105 59.254C75.6803 59.3539 74.2837 60.5508 72.4552 61.7481C70.5933 62.8785 66.9023 64.009 63.3442 64.009H46.1194L45.8867 64.9068Z" fill="#FDBB30"/>
<path d="M68.963 43.859C69.4383 43.7679 69.9283 43.7907 70.3931 43.9254C73.4189 45.1222 76.2121 48.215 77.4089 51.5069C77.6416 52.172 77.708 52.5375 77.4089 52.571C76.0458 52.7373 75.4471 52.0387 73.7844 50.9747C72.2124 49.8991 70.4855 49.0693 68.6635 48.5141C66.6352 47.8824 62.9773 47.7491 62.5454 47.7491C62.08 47.7491 62.113 47.5494 62.3127 47.3502C64.1118 45.5223 66.4368 44.3018 68.963 43.859Z" fill="#FDBB30"/>
<path d="M83.262 55.1642C83.2568 55.2418 83.2236 55.3148 83.1686 55.3698C83.1136 55.4248 83.0405 55.458 82.9629 55.4633H79.5047C79.0723 55.4633 79.0723 55.2635 79.0723 54.9979C79.0013 54.6478 78.9678 54.2911 78.9724 53.9338C78.9724 53.6677 78.8396 53.3352 79.2385 53.1689C80.1866 52.684 80.9725 51.9328 81.4994 51.0074C81.5993 50.7413 81.832 50.3093 82.0647 50.6748C82.9299 51.972 83.1956 53.5683 83.262 55.1642Z" fill="#FDBB30"/>
<path d="M82.0317 61.3495C81.9983 61.4823 81.7326 61.5822 81.6992 61.3495C81.2075 60.1775 80.3105 59.2215 79.1721 58.6562C78.9395 58.5233 78.9395 58.3571 78.9395 58.0909C78.9729 57.8583 79.0723 57.0603 79.1057 56.7608C79.1057 56.4947 79.2386 56.2954 79.4383 56.2954H83.0293C83.1292 56.2954 83.2955 56.4282 83.2955 56.4951C83.243 58.1875 82.8112 59.8464 82.0317 61.3495Z" fill="#FDBB30"/>
<path d="M72.7215 68.0661C72.4554 68.1325 71.8902 68.0327 72.755 67.5339C75.3484 66.0045 77.7097 62.4798 78.3079 60.4181C78.574 59.6202 78.574 59.5868 78.9065 59.6866C79.528 59.9666 80.0581 60.416 80.436 60.9834C80.9013 61.6484 81.134 62.9786 80.8349 63.3111C79.8615 64.5981 78.6439 65.6805 77.2517 66.4965C75.8595 67.3124 74.3201 67.8458 72.7215 68.0661Z" fill="#FDBB30"/>
<path d="M79.3382 52.0058C78.7395 52.3383 78.6067 52.2385 78.4738 51.8061C77.3434 47.849 73.985 44.8896 72.6214 43.9918C72.3887 43.859 72.4217 43.7257 72.6214 43.7591C75.8799 44.2245 79.1055 45.9871 80.7013 48.4142C81.6659 49.8108 79.9368 51.6732 79.3382 52.0058Z" fill="#FDBB30"/>
</g>
<defs>
<clipPath id="clip0_38_1020">
<rect width="122" height="122" fill="white"/>
</clipPath>
</defs>
</svg>
