<svg width="123" height="93" viewBox="0 0 123 93" fill="none" xmlns="http://www.w3.org/2000/svg">
<g clip-path="url(#clip0_38_1026)">
<path d="M1.77209 40.288C1.19292 40.8142 0.734747 41.4585 0.428867 42.1769C0.122987 42.8953 -0.0233985 43.6709 -0.000292748 44.4507V75.118C-0.0290481 75.9037 0.114094 76.6862 0.419237 77.4114C0.72438 78.1367 1.18425 78.7874 1.76704 79.3185C2.34984 79.8497 3.04167 80.2486 3.7947 80.4878C4.54773 80.7269 5.344 80.8006 6.12846 80.7037C8.88328 80.47 11.6593 80.2578 14.4137 80.0664V74.2686C11.6589 74.4173 8.88285 74.5661 6.12846 74.736V44.8328C8.88328 45.0027 11.6593 45.1514 14.4137 45.3002V39.5019C11.6589 39.3109 8.88285 39.0983 6.12846 38.8646C5.34147 38.7606 4.541 38.8344 3.78672 39.0808C3.03243 39.3272 2.34378 39.7397 1.77209 40.2876" fill="#061922"/>
<path d="M21.8238 39.9695C19.774 39.8419 17.7237 39.7147 15.6738 39.5659V79.9812C20.1582 79.6626 24.6427 79.4008 29.1271 79.1955V73.6525C26.6927 73.7375 24.2582 73.8224 21.8238 73.9285V39.9695Z" fill="#061922"/>
<path d="M30.3438 79.1313C32.4364 79.0252 34.5292 78.9403 36.6221 78.8765V40.6914L30.3438 40.4365V79.1313Z" fill="#061922"/>
<path d="M48.2394 41.0098C44.78 40.946 41.3207 40.84 37.8613 40.7339V78.8345C39.9112 78.7707 41.9827 78.7068 44.0326 78.6435V62.4815C45.4421 62.4815 46.8299 62.4815 48.2181 62.4604C49.8126 62.4941 51.3636 61.9421 52.5745 60.9098C53.1517 60.4573 53.6173 59.8796 53.9356 59.2207C54.2539 58.5619 54.4165 57.8394 54.4111 57.1084V46.4468C54.4074 45.7204 54.2405 45.004 53.9228 44.35C53.605 43.696 53.1444 43.1208 52.5745 42.6665C51.3854 41.6001 49.841 41.0099 48.2398 41.0098H48.2394ZM48.2398 57.108C46.8303 57.108 45.4425 57.108 44.0543 57.0869V46.3196C45.4637 46.3407 46.8516 46.3622 48.2398 46.3834V57.108Z" fill="#061922"/>
<path d="M102.756 60.9736C103.343 60.4729 103.811 59.85 104.129 59.149C104.446 58.448 104.604 57.6861 104.592 56.9174V45.4701C104.61 44.7219 104.454 43.9798 104.135 43.3018C103.817 42.6238 103.345 42.0284 102.756 41.5622C102.17 41.041 101.484 40.6441 100.738 40.3958C99.9929 40.1475 99.2045 40.053 98.4212 40.1181C94.9619 40.3091 91.5238 40.479 88.0645 40.6067V78.9194C90.1143 79.0043 92.1858 79.0893 94.2357 79.1954V62.7148C95.9439 68.2153 97.6523 73.8009 99.3608 79.4713C101.411 79.5774 103.461 79.705 105.532 79.8538C103.738 73.9072 101.944 68.0883 100.151 62.3538C101.125 62.1277 102.023 61.6518 102.756 60.9736ZM94.2357 45.8948C95.6235 45.8521 97.033 45.7887 98.4212 45.746V56.9808C97.0334 57.0019 95.6239 57.0019 94.2357 57.0019V45.8948Z" fill="#061922"/>
<path d="M66.048 41.1373C62.5885 41.1586 59.1291 41.1586 55.6699 41.1373V78.4518C57.7415 78.4307 59.7913 78.4307 61.8628 78.4307V62.4597H66.0696C67.6615 62.501 69.2128 61.9566 70.426 60.9307C71.0032 60.4782 71.4688 59.9005 71.7871 59.2416C72.1054 58.5828 72.268 57.8603 72.2626 57.1293V46.4254C72.2652 45.704 72.1009 44.9917 71.7824 44.3435C71.464 43.6953 70.9999 43.1287 70.426 42.6874C69.2204 41.6317 67.6531 41.0768 66.048 41.1373ZM66.048 57.1082H61.8412V46.4681C63.2507 46.4681 64.6385 46.4681 66.048 46.447V57.1082Z" fill="#061922"/>
<path d="M73.4785 78.5157C77.984 78.6006 82.4687 78.7283 86.9743 78.8982V73.4401C84.5398 73.3763 82.1054 73.3125 79.671 73.2702V62.4814C81.0588 62.4814 83.5574 62.5025 84.9669 62.5025V57.0656C83.5791 57.0656 81.0805 57.0867 79.671 57.0867V46.2983C82.1054 46.2556 84.5398 46.1922 86.9743 46.1284V40.6699C82.4898 40.8398 77.9913 40.9673 73.4785 41.0524V78.5157Z" fill="#061922"/>
<path d="M123 50.5881V44.4505C123.01 43.6702 122.854 42.8966 122.542 42.1804C122.23 41.4642 121.77 40.8215 121.192 40.2942C120.613 39.767 119.929 39.3672 119.185 39.1208C118.44 38.8745 117.652 38.7873 116.871 38.8649C115.141 39.0136 113.412 39.1408 111.682 39.2684C110.015 39.3683 108.449 40.0976 107.304 41.3071C106.74 41.8401 106.291 42.4827 105.986 43.1949C105.682 43.9072 105.527 44.6742 105.532 45.4483V56.9167C105.52 57.6825 105.671 58.4422 105.977 59.1453C106.283 59.8483 106.735 60.4787 107.304 60.9945C108.482 62.1145 110.053 62.7319 111.682 62.715L116.871 62.7788V74.7353C115.141 74.6292 113.412 74.5443 111.682 74.4378V68.5762L105.532 68.3851V74.1191C105.527 74.8995 105.682 75.6727 105.987 76.3918C106.291 77.111 106.74 77.7612 107.304 78.303C108.467 79.4789 110.027 80.1829 111.682 80.2783C113.412 80.4059 115.141 80.5543 116.871 80.6819C117.648 80.7732 118.435 80.6972 119.179 80.459C119.923 80.2208 120.607 79.8261 121.185 79.3016C121.782 78.7781 122.254 78.1293 122.568 77.402C122.882 76.6747 123.029 75.8872 123 75.0962V62.821C123.017 62.0162 122.865 61.2166 122.552 60.4741C122.239 59.7315 121.773 59.0624 121.185 58.51C120.633 57.9283 119.963 57.4702 119.219 57.1662C118.475 56.8623 117.675 56.7195 116.871 56.7473C115.142 56.7685 113.412 56.7898 111.682 56.8111V45.0874C113.412 45.0024 115.141 44.8964 116.871 44.7899V50.7787C118.921 50.736 120.971 50.6511 123 50.5877" fill="#061922"/>
<path d="M6.49105 39.5236C8.92547 39.7362 11.4665 39.9272 14.0289 40.1182V39.8634C11.4024 39.6724 8.73297 39.4598 6.12773 39.2477C5.93606 39.23 5.74356 39.223 5.5511 39.2265C4.91099 39.2111 4.27411 39.3213 3.67687 39.5509C3.07964 39.7805 2.53377 40.1249 2.07051 40.5645C1.53306 41.0533 1.10794 41.6516 0.824146 42.3186C0.54035 42.9857 0.404557 43.7057 0.42603 44.4297V75.097C0.392598 76.2835 0.769539 77.4454 1.49388 78.3887C0.952046 77.5079 0.677726 76.4901 0.70394 75.4579V44.8118C0.679119 44.076 0.815205 43.3436 1.1028 42.6652C1.39039 41.9869 1.82263 41.3787 2.36966 40.8827C2.84142 40.4352 3.39742 40.0848 4.00573 39.8515C4.61404 39.6183 5.26269 39.5069 5.91442 39.5236C6.10648 39.513 6.29899 39.513 6.49105 39.5236Z" fill="#BEC0C2"/>
<path d="M21.4185 40.6068V40.352C19.6461 40.2459 17.8525 40.1394 16.0801 40.0122V79.5568L16.3576 79.5357V40.2882H16.4005C18.0233 40.3942 19.7102 40.5007 21.4189 40.6068" fill="#BEC0C2"/>
<path d="M36.2167 41.3284V41.0735C34.4231 41.0097 32.5865 40.9248 30.75 40.8398V78.7067L31.0275 78.6856V41.1162H31.0704C32.7574 41.2012 34.4873 41.265 36.2167 41.3288" fill="#BEC0C2"/>
<path d="M48.6014 41.6901C49.7733 41.6908 50.921 42.0222 51.9112 42.6456C50.8497 41.8568 49.563 41.4253 48.2381 41.4137C44.9283 41.3498 41.5756 41.2649 38.2871 41.1377V78.41H38.5646V41.4352H38.6075C41.9173 41.5413 45.2912 41.6262 48.6014 41.6901Z" fill="#BEC0C2"/>
<path d="M99.2116 40.7979C100.253 40.7716 101.278 41.0525 102.159 41.6051C101.21 40.8847 100.042 40.5098 98.8487 40.5431C98.7131 40.54 98.5775 40.5471 98.4429 40.5642C95.1757 40.7552 91.823 40.904 88.4707 41.0316V78.5587L88.7482 78.5798V41.2864H88.7911C92.165 41.1588 95.539 40.9889 98.8063 40.7979H99.2121" fill="#BEC0C2"/>
<path d="M61.8843 41.838C63.4005 41.838 64.9379 41.838 66.4328 41.8169H66.4969C67.6701 41.7933 68.8257 42.1028 69.8284 42.709C68.7652 41.9154 67.4629 41.5036 66.1341 41.5409H66.0699C64.5537 41.5409 63.0163 41.562 61.5214 41.562C59.7491 41.562 57.9125 41.562 56.0977 41.5409V78.0271H56.3751V41.8169H56.4181C58.2334 41.8169 60.0695 41.838 61.8848 41.838" fill="#BEC0C2"/>
<path d="M86.5691 41.0947C82.3836 41.2435 78.113 41.3707 73.9062 41.4556V78.1333H74.1837V41.7109H74.2266C78.3051 41.626 82.4694 41.5199 86.5908 41.3711V41.0952L86.5691 41.0947Z" fill="#BEC0C2"/>
<path d="M117.255 39.5237C117.44 39.5061 117.625 39.499 117.81 39.5026C118.758 39.484 119.691 39.7345 120.501 40.2249C119.63 39.5513 118.551 39.1986 117.447 39.2267C117.269 39.2231 117.091 39.2302 116.914 39.2478C115.184 39.3965 113.454 39.5237 111.725 39.6514C110.164 39.7497 108.699 40.4328 107.624 41.5629C107.097 42.0603 106.677 42.6598 106.39 43.3244C106.104 43.9891 105.957 44.7049 105.959 45.4281V56.8961C105.929 58.0366 106.307 59.1506 107.027 60.0395C106.494 59.2096 106.219 58.2418 106.237 57.2574V45.7885C106.234 45.0539 106.382 44.3263 106.672 43.6506C106.962 42.975 107.388 42.3654 107.924 41.8595C109.018 40.7174 110.504 40.0274 112.087 39.9269C113.796 39.8208 115.526 39.6721 117.255 39.5233" fill="#BEC0C2"/>
<path d="M0 87.3508C40.8425 82.2962 82.1575 82.2962 123 87.3508V85.2272C82.1358 80.5336 40.8642 80.5336 0 85.2272L0 87.3508Z" fill="#1D428A"/>
<path d="M14.8418 92.9999C45.4351 85.057 77.5663 85.057 108.16 92.9999V91.0035C77.5393 83.2729 45.4622 83.2729 14.8418 91.0035V92.9999Z" fill="#C8102E"/>
<path d="M49.2854 35.1272C32.8059 34.7291 16.3568 33.51 0 31.4746L0 33.5982C17.3822 35.5947 34.8926 36.7416 52.4244 37.0387C51.3245 36.4929 50.2743 35.8534 49.2854 35.1272Z" fill="#1D428A"/>
<path d="M73.7151 35.1272C72.7263 35.8534 71.676 36.4929 70.5762 37.0387C88.1079 36.7412 105.618 35.5947 123.001 33.5982V31.4746C106.644 33.5102 90.1946 34.7294 73.7151 35.1277" fill="#1D428A"/>
<path d="M45.186 31.05C34.9433 30.1469 24.7936 28.3993 14.8418 25.8252V27.8216C25.3659 30.4595 36.0955 32.2072 46.9159 33.0459C46.3002 32.4149 45.7226 31.7483 45.186 31.0495" fill="#C8102E"/>
<path d="M77.8156 31.0498C77.279 31.7614 76.6939 32.4355 76.0645 33.0674C86.8852 32.2319 97.6152 30.484 108.139 27.8426V25.8462C98.1919 28.4065 88.0499 30.1468 77.8156 31.0494" fill="#C8102E"/>
<path d="M42.5371 18.8591C42.5371 15.1291 43.6492 11.4829 45.7329 8.38154C47.8165 5.28018 50.778 2.86297 54.2429 1.43557C57.7079 0.00817129 61.5206 -0.365301 65.199 0.36238C68.8773 1.09006 72.2561 2.88621 74.9081 5.5237C77.56 8.16119 79.366 11.5215 80.0977 15.1798C80.8293 18.8381 80.4538 22.6301 79.0186 26.0761C77.5834 29.5222 75.1529 32.4675 72.0345 34.5398C68.9162 36.6121 65.25 37.7181 61.4996 37.7181C59.0093 37.7184 56.5434 37.2307 54.2427 36.283C51.9419 35.3354 49.8514 33.9462 48.0906 32.1949C46.3297 30.4437 44.9329 28.3646 43.9801 26.0764C43.0272 23.7882 42.5369 21.3357 42.5371 18.8591Z" fill="white"/>
<path d="M61.4996 0C57.7492 0 54.083 1.10606 50.9646 3.17832C47.8462 5.25058 45.4158 8.19597 43.9806 11.642C42.5453 15.0881 42.1698 18.88 42.9015 22.5383C43.6331 26.1966 45.4391 29.5569 48.0911 32.1944C50.743 34.8319 54.1218 36.6281 57.8002 37.3557C61.4785 38.0834 65.2913 37.71 68.7562 36.2826C72.2211 34.8552 75.1827 32.4379 77.2663 29.3366C79.3499 26.2352 80.462 22.589 80.462 18.8591C80.4589 13.8583 78.4601 9.06319 74.9046 5.5271C71.3492 1.99101 66.5278 0.00308426 61.4996 0V0ZM75.2091 8.38885C77.3676 11.161 78.613 14.5283 78.7751 18.0307H71.6214C71.8013 14.5282 73.0531 11.164 75.2091 8.38885ZM47.8118 8.38885C49.9703 11.161 51.2156 14.5283 51.3778 18.0307H44.2241C44.3904 14.5255 45.6436 11.1573 47.8118 8.38885ZM47.8118 29.3293C45.6531 26.5572 44.4076 23.1899 44.2453 19.6874H51.399C51.213 23.1886 49.962 26.5509 47.8118 29.3293ZM62.3324 36.0403V31.1131H60.6667V36.0403C56.1821 35.8403 51.9562 33.8952 48.9004 30.6246C51.4278 27.5166 52.8807 23.6813 53.0435 19.6874V18.0307C52.8809 14.0367 51.4282 10.2012 48.9009 7.09311C51.9593 3.82639 56.1834 1.88219 60.6667 1.67777V6.56232H62.3324V1.67777C66.8171 1.8778 71.043 3.8229 74.0987 7.09355C71.5714 10.2017 70.1187 14.0372 69.9561 18.0312V19.6874C70.1187 23.6814 71.5714 27.5169 74.0987 30.625C71.043 33.8957 66.8171 35.8407 62.3324 36.0408V36.0403ZM75.2091 29.3293C73.0415 26.5621 71.7949 23.1919 71.6426 19.6874H78.7963C78.6239 23.1913 77.3715 26.5576 75.2091 29.3293Z" fill="#061922"/>
<path d="M57.293 10.959V26.6962H65.7278V24.5299H59.5353V10.959H57.293Z" fill="#C8102E"/>
<path d="M68.6102 16.2256V9.74779C68.6102 8.77071 68.2256 8.38867 67.2436 8.38867H55.734C54.7732 8.38867 54.3887 8.79227 54.3887 9.74779V27.97C54.3887 28.9471 54.7732 29.3291 55.734 29.3291H67.2441C68.2048 29.3291 68.6106 28.9255 68.6106 27.97V21.471H66.3258V27.3327H56.6735V10.364H66.3258V16.2256H68.6106H68.6102Z" fill="#1D428A"/>
<path d="M65.7279 23.9137V10.959H60.2399L60.1758 23.9142H62.3752L62.4181 19.8791H63.5285L63.5072 23.9142L65.7279 23.9137ZM63.5285 17.7334H62.4181V13.1249H63.5285V17.7334Z" fill="#C8102E"/>
</g>
<defs>
<clipPath id="clip0_38_1026">
<rect width="123" height="93" fill="white"/>
</clipPath>
</defs>
</svg>
