<svg width="122" height="76" viewBox="0 0 122 76" fill="none" xmlns="http://www.w3.org/2000/svg">
<g clip-path="url(#clip0_38_1025)">
<path d="M26.5457 17.0861C26.5457 17.0861 36.9223 0 58.179 0C79.4357 0 89.3589 16.6298 89.3589 16.6298H118.171L117.013 23.7278C117.013 23.7278 116.207 26.567 114.897 26.8712H116.862C116.862 26.8712 117.517 29.4063 113.588 38.0253H122C122 38.0253 122.302 53.1341 104.168 60.2322C104.168 60.2322 94.799 63.2235 90.0137 58.1027C90.0137 58.1027 80.4432 76 58.179 76C35.9148 76 25.8909 57.5957 25.8909 57.5957H0L4.13046 50.1428H1.30966L4.63417 44.008H10.2254L11.1825 41.6758H8.56314L15.0107 29.7105H18.6374L20.0982 26.06H16.9752L21.7605 17.0861H26.5457Z" fill="white"/>
<path d="M58.482 71.9949C76.666 71.9949 91.4249 56.9368 91.4249 38.3297C91.4249 19.7734 76.666 4.71533 58.482 4.71533C40.2979 4.71533 25.5391 19.7734 25.5391 38.3297C25.5391 56.9368 40.2979 71.9949 58.482 71.9949Z" fill="#FDB927"/>
<path d="M62.1068 38.1772H60.6964C60.6441 38.1807 60.5949 38.2033 60.5579 38.2405C60.5208 38.2778 60.4984 38.3274 60.4949 38.38C60.4949 38.4814 60.5956 38.5321 60.6964 38.5321H62.1572C62.6609 38.5321 63.1142 38.5828 62.9631 38.7856L59.1852 46.0865C59.1223 46.2537 59.0091 46.3969 58.8614 46.4962C58.7137 46.5955 58.5389 46.6459 58.3613 46.6403C58.1838 46.6347 58.0124 46.5734 57.8711 46.4651C57.7299 46.3567 57.6258 46.2066 57.5734 46.0358L55.7096 36.3013L62.2579 31.1805C62.9127 30.5721 64.172 29.6595 64.8268 29.6595H66.2876C67.1439 29.6595 67.4462 30.0651 67.2447 30.6228L66.9928 31.0791C66.8417 31.3833 66.2876 31.434 65.8846 31.434H65.0283C65.0078 31.4311 64.9869 31.4329 64.9672 31.4395C64.9475 31.4461 64.9296 31.4573 64.915 31.472C64.9003 31.4868 64.8892 31.5048 64.8827 31.5246C64.8761 31.5444 64.8743 31.5655 64.8772 31.5861C64.8772 31.6875 64.9276 31.7889 65.0283 31.7889H65.8846C66.2372 31.7889 66.6402 31.7889 66.4891 32.0424L63.4668 37.9237C63.3157 38.1265 62.6609 38.1772 62.1068 38.1772ZM73.4907 41.7769C70.4181 45.5795 68.7054 46.847 65.5824 46.847C64.5246 46.847 63.9705 46.5935 64.2224 46.0865L67.9499 38.5828H69.3603C70.9218 38.5828 70.7203 39.901 70.3173 41.7262C70.2166 41.9797 70.4181 41.9797 70.6196 41.7769L74.1456 35.5408C74.2967 35.1352 73.8433 35.0845 73.6418 35.3887C71.8788 37.7716 70.0151 37.6195 69.2092 37.6195H68.6047L72.5337 30.0144H74.1456C76.1604 30.1158 77.0671 31.8396 76.513 35.9971H77.319L80.2405 30.2172C80.4924 29.7102 79.9886 29.2539 79.4346 29.2539L59.689 29.3046C58.5304 29.3046 58.4801 30.1665 59.5882 30.1665C60.4949 30.1665 60.4445 31.434 59.6386 32.0424L51.2266 38.7856L52.9392 46.6949C52.9815 46.9627 53.1266 47.2032 53.3433 47.3644C53.56 47.5256 53.8309 47.5947 54.0977 47.5568H70.4181C70.6505 47.5788 70.8846 47.5388 71.0968 47.441C71.309 47.3431 71.4918 47.1907 71.627 46.9991L74.5485 41.8783C74.9515 41.1178 74.0448 41.1685 73.4907 41.7769Z" fill="#552583"/>
<path d="M37.375 39.6476H32.1868L38.735 30.9271L37.375 39.6476ZM36.1661 45.0726C36.015 45.9345 35.1083 46.5429 34.0001 46.8471L32.8416 47.1513L33.7986 45.4275C34.0505 44.9205 33.4964 44.667 32.892 45.3768C28.8622 50.0919 27.5526 52.3734 21.3065 52.3734H19.6443C19.1406 52.3734 18.5865 52.1706 18.9391 51.7143L21.1554 47.5569H29.5171C30.6252 47.5569 30.3734 46.695 29.6682 46.695C29.4143 46.6536 29.1716 46.5602 28.955 46.4207C28.7384 46.2812 28.5526 46.0984 28.4089 45.8838C28.3045 45.6962 28.2539 45.483 28.2628 45.2682C28.2717 45.0533 28.3397 44.8452 28.4593 44.667L31.6327 40.3574H36.972L36.1661 45.0726ZM48.5575 46.695C48.3805 46.678 48.2117 46.6122 48.0695 46.5049C47.9273 46.3975 47.8173 46.2528 47.7515 46.0866C47.5883 45.5896 47.6062 45.0505 47.8019 44.5656L55.408 30.9778C55.5087 30.7243 55.8613 30.1666 56.2139 30.1666C56.8688 30.1666 57.171 29.3047 56.0628 29.3047H49.9175C48.8093 29.3047 48.8093 30.1666 49.8671 30.1666C49.9538 30.1606 50.0406 30.1771 50.1192 30.2144C50.1978 30.2517 50.2655 30.3087 50.316 30.3798C50.3665 30.451 50.3981 30.534 50.4077 30.621C50.4173 30.7079 50.4046 30.7958 50.3708 30.8764L48.7086 33.9692C48.4567 34.2734 48.0034 34.3241 47.4997 34.3241H46.0893C45.9885 34.3241 45.8878 34.3748 45.8878 34.4762C45.8913 34.5288 45.9137 34.5783 45.9507 34.6156C45.9878 34.6529 46.037 34.6754 46.0893 34.679H47.4997C47.9026 34.679 48.2049 34.7804 48.0034 35.2367L42.3618 45.5796C41.9588 46.1373 41.1529 46.2387 41.2032 45.174L43.1677 30.0652C43.2685 29.6089 43.1677 29.254 42.664 29.254H39.6417C39.4868 29.2553 39.335 29.2983 39.2022 29.3786C39.0693 29.4588 38.9602 29.5733 38.8862 29.7103L37.778 31.0285C37.6772 31.1806 37.3246 31.1806 37.0224 31.1806H34.5038C34.4516 31.1842 34.4023 31.2067 34.3653 31.244C34.3282 31.2813 34.3059 31.3308 34.3024 31.3834C34.3024 31.4848 34.4031 31.5355 34.5038 31.5355H36.5691C36.9217 31.5355 37.3246 31.6369 37.1735 31.8397L34.3024 35.4902C34.136 35.5935 33.9437 35.6463 33.7483 35.6423H32.9423C32.8416 35.6423 32.7408 35.693 32.7408 35.7944C32.7444 35.847 32.7667 35.8965 32.8038 35.9338C32.8408 35.9711 32.8901 35.9936 32.9423 35.9972H33.5972C33.7986 35.9972 33.7986 36.0986 33.7483 36.2L31.0282 39.6476C30.8094 39.7568 30.567 39.809 30.323 39.7997H27.9052C27.8044 39.7997 27.7541 39.9011 27.7541 40.0025C27.7511 40.0232 27.753 40.0442 27.7595 40.0641C27.7661 40.0839 27.7771 40.1019 27.7918 40.1166C27.8065 40.1314 27.8244 40.1425 27.844 40.1491C27.8637 40.1557 27.8847 40.1576 27.9052 40.1546H29.9704C30.323 40.1546 30.5245 40.2053 30.3734 40.4588L26.4948 45.3261C25.7896 46.2894 22.2636 46.7457 21.5584 46.7457L34.7053 22.0545C34.8106 21.8477 34.9688 21.6729 35.1636 21.5481C35.3584 21.4233 35.5827 21.3531 35.8135 21.3447H38.5839C39.8936 21.3447 39.8936 20.4321 38.735 20.4321H24.7318C23.5732 20.4321 23.5229 21.3447 24.8829 21.3447H27.4518C28.2074 21.3447 28.4089 21.7503 28.2074 22.1559L27.8548 22.8151C27.7541 23.0179 27.5526 23.1193 26.8474 23.1193H22.2636C22.1628 23.1193 22.1125 23.2207 22.1125 23.3221C22.1095 23.3427 22.1114 23.3638 22.1179 23.3836C22.1245 23.4034 22.1355 23.4214 22.1502 23.4362C22.1649 23.4509 22.1828 23.4621 22.2024 23.4686C22.2221 23.4752 22.243 23.4771 22.2636 23.4742H26.8474C27.0992 23.4742 27.4518 23.5756 27.2504 24.0319L26.5955 25.198C26.4948 25.4008 26.1926 25.4515 25.8903 25.4515H23.7747C23.674 25.4515 23.6236 25.5529 23.6236 25.6543C23.6236 25.7557 23.674 25.8571 23.7747 25.8571H25.84C26.1422 25.8571 26.1926 26.0599 25.9911 26.3134L24.5303 29.0512C24.3792 29.3047 24.1777 29.3554 23.674 29.3554H22.868C22.7673 29.3554 22.6666 29.4061 22.6666 29.5075C22.6701 29.5601 22.6924 29.6097 22.7295 29.647C22.7665 29.6842 22.8158 29.7068 22.868 29.7103H23.674C23.9762 29.7103 24.077 29.8624 23.9258 30.1666L22.7169 32.4481C22.5154 32.7523 22.2636 32.9044 21.4576 32.9044H16.8738C16.8533 32.9015 16.8324 32.9034 16.8127 32.91C16.793 32.9165 16.7751 32.9277 16.7605 32.9424C16.7458 32.9572 16.7347 32.9752 16.7282 32.995C16.7216 33.0148 16.7198 33.0359 16.7227 33.0565C16.7227 33.1579 16.7731 33.2593 16.8738 33.2593H21.4576C21.9614 33.2593 22.1628 33.5129 21.9614 33.8678L19.5939 38.3294C19.4428 38.5322 19.0902 38.5829 18.4354 38.5829H13.8516C13.7508 38.5829 13.6501 38.6336 13.6501 38.735C13.6536 38.7876 13.676 38.8372 13.713 38.8744C13.7501 38.9117 13.7993 38.9342 13.8516 38.9378H18.385C18.9391 38.9378 19.2917 38.9378 19.1406 39.242L17.7805 41.8277C17.5287 42.2333 16.8235 42.2333 16.5212 42.2333H15.0605C15.0399 42.2304 15.019 42.2323 14.9993 42.2388C14.9796 42.2454 14.9618 42.2566 14.9471 42.2713C14.9324 42.2861 14.9214 42.3041 14.9148 42.3239C14.9083 42.3437 14.9064 42.3648 14.9094 42.3854C14.9094 42.4868 14.9597 42.5882 15.0605 42.5882H16.5212C17.025 42.5882 17.2768 42.6896 17.1761 42.9431L15.3627 46.3908C15.1612 46.695 14.456 46.695 13.9019 46.695H6.84992C6.79765 46.6985 6.74843 46.721 6.71138 46.7583C6.67434 46.7956 6.65197 46.8452 6.64844 46.8978C6.64844 46.9992 6.74918 47.0499 6.84992 47.0499H13.9019C14.4056 47.0499 14.9597 47.1513 14.7582 47.5062L13.5997 49.6863C13.499 49.8891 13.096 49.8891 12.4915 49.8891H11.0811C11.0289 49.8927 10.9796 49.9152 10.9426 49.9525C10.9055 49.9897 10.8832 50.0393 10.8796 50.0919C10.8796 50.1933 10.9804 50.244 11.0811 50.244H12.4915C12.8441 50.244 13.2975 50.2947 13.1464 50.5989L12.3908 51.9678C12.3072 52.1662 12.1666 52.3349 11.9871 52.4523C11.8076 52.5698 11.5974 52.6306 11.3834 52.6269H7.80698C6.49732 52.6269 6.54769 53.5395 7.70624 53.5395H28.56C29.1645 53.5395 29.2148 53.4381 29.4667 52.9818L32.5897 47.5569H48.4063C49.5145 47.5569 49.2627 46.695 48.5575 46.695Z" fill="#552583"/>
<path d="M88.9558 36.7069C88.4017 37.214 87.4951 37.721 87.2936 37.5689C86.8605 37.196 86.3874 36.8729 85.8832 36.6055L89.3084 30.3187C89.3793 30.2123 89.4779 30.1277 89.5934 30.074C89.7089 30.0204 89.8369 29.9998 89.9633 30.0145C91.3233 30.0145 91.7262 31.4341 91.1218 33.2593C90.6685 34.5268 89.9632 35.8957 88.9558 36.7069ZM116.459 42.3347C116.358 41.9291 116.207 42.1826 115.955 42.6896C115.854 42.8924 115.602 42.8924 115.3 42.8924H114.494C114.449 42.8946 114.406 42.9103 114.37 42.9374C114.334 42.9645 114.307 43.0018 114.293 43.0445C114.29 43.0718 114.293 43.0993 114.303 43.1251C114.312 43.1509 114.327 43.1743 114.346 43.1937C114.365 43.2131 114.388 43.2279 114.414 43.2372C114.44 43.2465 114.467 43.2499 114.494 43.2473H115.3C115.602 43.2473 115.602 43.4501 115.451 43.7543C114.946 44.8743 114.285 45.9157 113.487 46.847C113.401 46.9327 113.299 46.9995 113.186 47.0432C113.073 47.0868 112.953 47.1063 112.832 47.1005L111.976 47.1512C111.875 47.1512 111.774 47.2019 111.774 47.3033C111.778 47.356 111.8 47.4055 111.837 47.4428C111.874 47.4801 111.923 47.5026 111.976 47.5061H112.782C113.235 47.5061 112.782 47.7596 112.731 47.861C111.724 49.2467 110.538 50.4913 109.205 51.5622C108.824 51.6366 108.433 51.6536 108.047 51.6129H107.19C107.09 51.6129 107.039 51.7143 107.039 51.8157C107.036 51.8364 107.038 51.8574 107.045 51.8772C107.051 51.897 107.062 51.915 107.077 51.9298C107.092 51.9446 107.109 51.9557 107.129 51.9623C107.149 51.9689 107.17 51.9708 107.19 51.9678L108.047 52.0185C108.651 52.0185 108.198 52.3734 108.097 52.4241C105.83 54.3507 102.405 54.9591 100.894 54.7563C95.8567 54.1479 94.7989 50.2947 94.4463 48.723C94.2753 48.2784 94.1405 47.8206 94.0433 47.354C93.8922 46.5428 96.1589 46.34 96.7634 46.7456C97.7204 47.4047 99.9368 48.0639 101.7 48.0639C103.312 48.0639 106.586 46.8977 107.543 44.1092C108.55 41.2193 106.082 38.0759 104.974 36.9605C103.614 35.5915 102.304 33.3607 102.858 31.7383C103.261 30.5215 103.967 29.9638 105.427 29.9638C107.392 29.9638 108.752 31.1806 108.752 32.9551C108.752 33.1072 108.701 33.31 108.55 33.31H107.895C107.843 33.3136 107.794 33.3361 107.757 33.3734C107.72 33.4107 107.698 33.4602 107.694 33.5128C107.694 33.6142 107.795 33.6649 107.895 33.6649H108.5C108.543 33.662 108.587 33.6703 108.626 33.689C108.665 33.7077 108.699 33.7362 108.724 33.7718C108.749 33.8073 108.765 33.8488 108.77 33.8922C108.775 33.9356 108.769 33.9795 108.752 34.0198C108.651 34.6282 108.601 35.0338 108.45 35.6422C108.399 35.9971 108.903 36.1999 109.054 35.9464L112.076 30.5215C112.328 30.1159 111.824 30.0145 111.472 30.1159C110.616 30.4201 109.306 30.6229 108.802 30.268C107.748 29.409 106.431 28.9433 105.075 28.9498C102.405 28.9498 100.491 29.6089 99.282 31.8397C99.1812 31.9918 98.9294 31.9918 98.7279 31.9918H98.1738C98.073 31.9918 98.0227 32.0932 98.0227 32.1946C98.0227 32.296 98.073 32.3974 98.1738 32.3974L98.6271 32.3467C98.8286 32.3467 98.9294 32.4481 98.8286 32.6509C98.7782 32.8537 98.6775 33.0565 98.6271 33.2593C98.3406 34.4398 98.4287 35.6809 98.879 36.8083C98.9294 36.8591 98.8286 36.9097 98.6271 36.9097H97.8212C97.7689 36.9133 97.7197 36.9358 97.6827 36.9731C97.6456 37.0104 97.6232 37.0599 97.6197 37.1125C97.6197 37.214 97.7204 37.2647 97.8212 37.2647H98.6271C99.0301 37.2647 99.0805 37.3154 99.2316 37.5182C99.6849 38.1266 100.138 38.5829 100.642 39.2927C100.843 39.4955 100.088 39.5462 99.6849 39.5462H96.4612C96.4077 39.5462 96.3565 39.5675 96.3187 39.6056C96.2809 39.6436 96.2597 39.6952 96.2597 39.749C96.2597 39.8028 96.2809 39.8543 96.3187 39.8924C96.3565 39.9304 96.4077 39.9518 96.4612 39.9518H99.7353C100.289 39.9518 101.196 39.9011 101.297 40.0532C102.103 40.9658 103.06 42.3854 103.211 43.6022C103.261 43.9571 103.11 44.1092 102.707 44.1092H102.254C102.233 44.1062 102.212 44.1081 102.193 44.1147C102.173 44.1213 102.155 44.1324 102.141 44.1472C102.126 44.162 102.115 44.18 102.108 44.1998C102.102 44.2196 102.1 44.2407 102.103 44.2613C102.103 44.3627 102.153 44.4641 102.254 44.4641H102.657C103.009 44.4641 103.161 44.5148 103.11 44.7683C102.657 46.1372 102.052 47.1512 99.4331 47.1005C96.6627 47.1005 96.1086 44.4134 96.9145 41.5742C97.0656 41.0165 96.9145 40.763 96.6626 41.2193L94.7485 44.2613C94.6833 44.3287 94.6048 44.3815 94.518 44.4164C94.4313 44.4514 94.3382 44.4676 94.2448 44.4641H93.993C93.9395 44.4641 93.8883 44.4855 93.8505 44.5235C93.8127 44.5616 93.7915 44.6131 93.7915 44.6669C93.7915 44.7207 93.8127 44.7723 93.8505 44.8103C93.8883 44.8484 93.9395 44.8697 93.993 44.8697C94.1944 44.8697 94.2952 44.9711 94.1944 45.1232L93.4893 46.1879C92.4054 43.6716 91.0363 41.2898 89.4092 39.0899V39.0392C91.9781 38.8871 95.7056 36.5041 96.31 34.3747C97.3678 30.6229 93.7915 29.254 91.827 29.254H83.2639C82.1053 29.254 82.0549 30.1666 83.1127 30.1666C83.7172 30.1666 84.2209 30.6736 83.969 31.1806L82.0549 34.6282C81.9038 34.9324 81.3497 34.9324 80.5438 34.9324H79.7379C79.6371 34.9324 79.5364 34.9831 79.5364 35.0845C79.5399 35.1371 79.5623 35.1867 79.5993 35.224C79.6364 35.2613 79.6856 35.2838 79.7379 35.2873H80.5438C81.0979 35.2873 81.7023 35.2873 81.5009 35.6929L79.2341 39.7997C79.1334 40.0025 78.8312 40.0025 78.0756 40.0025H77.2697C77.2174 40.006 77.1682 40.0285 77.1311 40.0658C77.0941 40.1031 77.0717 40.1527 77.0682 40.2053C77.0682 40.3067 77.1689 40.3574 77.2697 40.3574H78.0756C78.6801 40.3574 78.8815 40.4588 78.7304 40.763L75.7081 46.2386C75.3555 46.6442 74.9526 46.6949 74.197 46.6949C73.0888 46.6949 73.1392 47.5568 74.2474 47.5568H81.6016C82.7601 47.5568 82.4579 46.6949 81.8031 46.6949C81.4001 46.6949 80.9971 45.9344 81.249 45.5288L84.9765 38.3294H85.3794C87.0417 38.3294 87.4447 41.1179 87.7469 44.1092C87.7973 44.312 87.3943 44.3627 86.538 44.3627H84.4728C84.372 44.3627 84.2713 44.4134 84.2713 44.5148C84.2748 44.5674 84.2972 44.617 84.3342 44.6543C84.3713 44.6916 84.4205 44.7141 84.4728 44.7176H86.538C87.0921 44.7176 87.8477 44.7176 87.8477 44.9204C87.9444 46.0958 88.1126 47.2641 88.3514 48.4188C88.4521 48.7737 87.8476 48.723 87.2432 48.723H84.5735C84.5212 48.7265 84.472 48.749 84.435 48.7863C84.3979 48.8236 84.3756 48.8731 84.372 48.9258C84.372 49.0272 84.4728 49.0779 84.5735 49.0779H87.2432C88.0491 49.0779 88.5025 49.0779 88.5529 49.2807C89.661 53.4888 94.5974 56.835 99.3323 56.6322C103.463 56.4801 106.888 54.2493 108.651 52.779C111.019 50.9031 114.494 46.8977 115.905 44.0078C116.156 43.5008 116.559 42.791 116.459 42.3347Z" fill="#552583"/>
<path d="M47.5491 23.7277C47.2303 24.1078 46.827 24.4068 46.3719 24.6006C45.9168 24.7944 45.4228 24.8775 44.9298 24.8431H44.6276L46.4409 21.2434C46.4881 21.1503 46.5604 21.0724 46.6494 21.0186C46.7385 20.9648 46.8408 20.9373 46.9446 20.9392C47.1965 20.9392 47.1461 20.4829 46.8439 20.4829H44.0231C43.7712 20.4829 43.6705 20.9392 43.9224 20.9392C44.1742 20.9392 44.1742 21.1927 44.0735 21.4462L42.4616 24.6403C42.3295 24.7832 42.1506 24.8732 41.9579 24.8938C41.706 24.9952 41.5549 25.4009 41.8571 25.4009H46.3906C46.7432 25.4009 46.8439 25.2995 46.8943 25.1474L47.8513 23.7277C47.9521 23.5756 47.7002 23.5249 47.5491 23.7277Z" fill="#552583"/>
<path d="M61.2513 20.5842C61.1626 20.6463 61.0571 20.6795 60.9491 20.6795C60.841 20.6795 60.7356 20.6463 60.6468 20.5842C60.2197 20.2749 59.7118 20.0987 59.1861 20.0771C58.1283 20.0771 57.3727 20.28 56.869 21.294C56.5164 22.1559 56.9194 22.9164 57.826 23.322C58.2794 23.5248 58.7831 23.7783 58.5816 24.2853C58.4305 24.6402 58.0275 24.6909 57.6246 24.6909C57.1208 24.6402 56.3653 24.2853 56.2645 23.5755C56.2142 23.322 55.9623 23.3727 55.8616 23.5248L55.2067 24.7923C55.106 24.9951 55.3578 25.1472 55.509 25.0458C55.6238 24.9257 55.774 24.8461 55.9373 24.8187C56.1006 24.7913 56.2683 24.8176 56.4156 24.8937C56.9081 25.2379 57.4808 25.4475 58.0779 25.5021C58.5461 25.5422 59.016 25.4495 59.4345 25.2344C59.8529 25.0193 60.2031 24.6905 60.4454 24.2853C60.9994 23.4234 60.6468 22.5615 59.6898 22.1052C59.1357 21.8517 58.6824 21.3954 58.9342 20.9391C59.0853 20.6349 59.5387 20.6856 59.7905 20.7363C60.0269 20.7728 60.2493 20.8718 60.4352 21.0233C60.621 21.1747 60.7636 21.3731 60.8483 21.5982C60.8589 21.6345 60.8796 21.6669 60.908 21.6917C60.9364 21.7164 60.9712 21.7325 61.0084 21.7378C61.0456 21.7431 61.0835 21.7376 61.1177 21.7218C61.1518 21.7061 61.1807 21.6807 61.2009 21.6489L61.5032 20.8377C61.6039 20.6856 61.352 20.5335 61.2513 20.5842Z" fill="#552583"/>
<path d="M92.8344 21.9025L93.2373 21.142C93.4388 20.8378 93.1366 20.4829 92.6832 20.4829H87.3439C86.9913 20.4829 87.092 20.8885 87.2431 20.8885C87.5957 20.8885 87.6965 21.2941 87.495 21.649L85.8831 24.5896C85.6312 24.8938 85.4801 24.9952 85.1779 24.9952C84.8757 24.9952 84.7749 25.4009 85.1779 25.4009H90.5676C90.7691 25.4009 90.8699 25.3502 90.9202 25.1981L91.6758 24.2347C91.8773 24.0319 91.4743 24.0319 91.3736 24.1333C91.0161 24.4639 90.594 24.7158 90.1343 24.8729C89.6747 25.0301 89.1875 25.089 88.7039 25.0459H88.0994L88.8046 23.3728H88.9558C89.4595 23.3728 90.0136 23.3728 90.1143 23.7277C90.1388 23.7577 90.1696 23.7817 90.2044 23.7983C90.2392 23.8148 90.2773 23.8234 90.3158 23.8234C90.3543 23.8234 90.3923 23.8148 90.4272 23.7983C90.462 23.7817 90.4928 23.7577 90.5173 23.7277L91.1217 22.4602C91.2225 22.2574 90.9706 22.2574 90.8699 22.3588C90.618 22.8151 89.5098 22.7137 89.258 22.7137H89.1069L90.0136 20.8885H91.021C91.3188 20.8881 91.6094 20.9804 91.8529 21.1529C92.0964 21.3254 92.2809 21.5696 92.381 21.8518C92.4314 21.9532 92.784 22.0546 92.8344 21.9025Z" fill="#552583"/>
<path d="M66.5903 22.8149L68.3533 21.3953V22.8149H66.5903ZM79.2335 20.4826H77.3698C76.9668 20.4826 77.0675 20.8883 77.269 20.8883C77.3739 20.8904 77.4765 20.9203 77.5664 20.9748C77.6563 21.0293 77.7304 21.1065 77.7814 21.1989C77.8323 21.2912 77.8584 21.3954 77.8568 21.501C77.8553 21.6067 77.8263 21.71 77.7727 21.8009L77.0171 23.2205L75.3045 20.6854C75.126 20.5206 74.892 20.43 74.6497 20.4319H72.7859C72.4333 20.4319 72.4837 20.8376 72.6852 20.8376C73.0378 20.8376 72.9371 21.1418 72.8363 21.3446L71.3755 24.2345C71.3468 24.2938 71.3009 24.3431 71.2439 24.3757C71.1869 24.4083 71.1214 24.4229 71.0561 24.4174C70.9907 24.4119 70.9285 24.3867 70.8777 24.345C70.8268 24.3033 70.7897 24.2471 70.7711 24.1838L69.6125 20.4319C69.5622 20.2798 68.9073 20.2798 68.7059 20.4319L65.8347 22.8149H64.3739C64.0717 22.8149 63.9206 22.967 63.9206 23.1191C63.9206 23.2712 64.0717 23.4233 64.3739 23.4233H65.1295L64.3739 24.0824C63.9206 24.3866 63.4672 24.8429 63.2154 24.8429H63.0139C62.7117 24.8429 62.5605 24.8936 62.5605 25.0964C62.5605 25.3499 62.7117 25.4006 62.9635 25.4006H65.2806C65.734 25.4006 65.6332 24.8429 65.4317 24.8429C65.3436 24.8442 65.2571 24.8185 65.1837 24.7693C65.1103 24.7201 65.0535 24.6497 65.0208 24.5673C64.988 24.4848 64.9809 24.3944 65.0003 24.3078C65.0197 24.2212 65.0648 24.1426 65.1295 24.0824L65.8347 23.4233H67.2451C68.051 23.4233 68.6555 24.3866 68.1518 24.6908L67.7488 24.8936C67.5977 24.995 67.4969 25.4006 67.7488 25.4006H72.2822C72.6348 25.4006 72.5845 24.9443 72.4333 24.9443C71.9296 24.9443 72.1815 24.2852 72.2822 24.1331L73.4408 21.8516L75.103 25.0964C75.2541 25.2992 75.3549 25.4006 75.506 25.4006H76.1608C76.2399 25.4071 76.3187 25.3853 76.3833 25.3388C76.4478 25.2924 76.4939 25.2245 76.5134 25.1471L78.4275 21.6488C78.7298 21.0404 78.9816 20.8883 79.3846 20.8883C79.5357 20.8883 79.6365 20.4826 79.2335 20.4826Z" fill="#552583"/>
<path d="M52.8382 23.3222C52.3344 24.3362 51.4781 24.9446 50.9744 24.6911C50.4203 24.4376 50.37 23.3729 50.924 22.3589C51.4278 21.3449 52.2337 20.7365 52.7878 20.99C53.3419 21.2942 53.3419 22.3082 52.8382 23.3222ZM52.3848 20.2295C50.8233 20.2295 49.161 21.0407 48.8588 22.7138C48.778 23.0802 48.7816 23.4603 48.8693 23.8251C48.957 24.1899 49.1264 24.5296 49.3646 24.8183C49.6028 25.107 49.9035 25.337 50.2437 25.4907C50.5838 25.6445 50.9544 25.7178 51.327 25.7051C53.0396 25.7051 54.6012 24.5897 54.9034 22.9673C55.2056 21.3449 54.0471 20.2295 52.3848 20.2295Z" fill="#552583"/>
<path d="M84.6233 22.7135H82.6084C82.2054 22.7135 82.3062 23.1191 82.4573 23.1191C82.5049 23.1136 82.5532 23.119 82.5985 23.1348C82.6438 23.1507 82.6849 23.1767 82.7188 23.2108C82.7527 23.245 82.7785 23.2864 82.7943 23.3319C82.8101 23.3775 82.8154 23.4261 82.8099 23.474C82.8099 24.2853 82.4573 24.5895 81.7017 24.5895C80.9461 24.5895 80.6439 23.6768 81.198 22.5107C81.3976 22.0739 81.7169 21.7035 82.1184 21.443C82.5199 21.1825 82.987 21.0429 83.4647 21.0404C84.1195 21.0404 84.6736 21.1925 84.724 21.8009C84.7744 21.953 84.9759 21.953 85.0766 21.8009L85.5299 20.939C85.5803 20.8376 85.5299 20.7362 85.3788 20.7362C85.2277 20.6855 84.9759 20.8883 84.7744 20.7362C84.1846 20.3619 83.5067 20.1519 82.8099 20.1278C82.0631 20.0806 81.3187 20.2516 80.6663 20.6205C80.0139 20.9893 79.4813 21.5401 79.1328 22.2065C78.1757 23.8289 79.5357 25.5528 80.795 25.5528C81.5002 25.5528 82.3565 25.0458 82.8099 24.843L83.3136 25.1979C83.418 25.3138 83.5618 25.3862 83.7166 25.4007H83.9181C84.1195 25.4007 84.1699 25.1472 84.2203 24.9951L85.0262 23.0684C85.127 22.8656 85.0766 22.7135 84.6233 22.7135Z" fill="#552583"/>
<path d="M112.681 20.5842C112.592 20.6463 112.487 20.6795 112.379 20.6795C112.271 20.6795 112.165 20.6463 112.077 20.5842C111.649 20.2749 111.141 20.0987 110.616 20.0771C109.558 20.0771 108.802 20.28 108.299 21.294C107.946 22.1559 108.349 22.9164 109.306 23.322C109.709 23.5248 110.213 23.7783 110.011 24.2853C109.86 24.6402 109.457 24.6909 109.054 24.6909C108.551 24.6402 107.795 24.2853 107.694 23.5755C107.644 23.322 107.392 23.3727 107.291 23.5248L106.636 24.7923C106.536 24.9951 106.788 25.1472 106.939 25.0458C107.053 24.9257 107.204 24.8461 107.367 24.8187C107.53 24.7913 107.698 24.8176 107.845 24.8937C108.338 25.2379 108.911 25.4475 109.508 25.5021C110.565 25.5021 111.321 25.1979 111.875 24.2853C112.429 23.4234 112.127 22.5615 111.119 22.1052C110.565 21.8517 110.162 21.3954 110.364 20.9391C110.515 20.6349 110.968 20.6856 111.22 20.7363C111.457 20.7728 111.679 20.8718 111.865 21.0233C112.051 21.1747 112.193 21.3731 112.278 21.5982C112.289 21.6345 112.309 21.6669 112.338 21.6917C112.366 21.7164 112.401 21.7325 112.438 21.7378C112.475 21.7431 112.513 21.7376 112.547 21.7218C112.582 21.7061 112.61 21.6807 112.631 21.6489L112.933 20.8377C113.034 20.6856 112.782 20.5335 112.681 20.5842Z" fill="#552583"/>
<path d="M98.4753 23.7277C97.7701 24.5896 96.8634 24.8431 95.8056 24.8431H95.5538L97.3671 21.2434C97.4036 21.1422 97.4736 21.0567 97.5653 21.0012C97.657 20.9458 97.7649 20.9239 97.8708 20.9392C98.0723 20.9392 98.0723 20.4829 97.7701 20.4829H94.8989C94.6471 20.4829 94.5967 20.9392 94.7982 20.9392C95.05 20.9392 95.1004 21.1927 94.9997 21.4462L93.3374 24.6403C93.2256 24.7819 93.0626 24.8731 92.8841 24.8938C92.6322 24.9952 92.4811 25.4009 92.7329 25.4009H97.2664C97.619 25.4009 97.7197 25.2995 97.8205 25.1474L98.7272 23.7277C98.8783 23.5756 98.576 23.5249 98.4753 23.7277Z" fill="#552583"/>
<path d="M105.327 20.8885C105.621 20.9027 105.905 21.0008 106.146 21.1714C106.387 21.342 106.574 21.5779 106.687 21.8518C106.737 21.9532 107.039 22.0546 107.14 21.9025L107.543 21.142C107.694 20.8378 107.442 20.4829 106.989 20.4829H101.65C101.247 20.4829 101.398 20.8885 101.549 20.8885C101.901 20.8885 102.002 21.2941 101.75 21.649L100.189 24.5896C100.111 24.7196 99.9996 24.8258 99.8666 24.8972C99.7336 24.9687 99.5839 25.0025 99.4333 24.9952C99.1814 24.9952 99.0807 25.4009 99.4333 25.4009H104.823C105.075 25.4009 105.176 25.3502 105.226 25.1981L105.982 24.2347C106.133 24.0319 105.78 24.0319 105.629 24.1333C105.283 24.4656 104.87 24.7191 104.418 24.8765C103.966 25.034 103.486 25.0918 103.01 25.0459H102.355L103.11 23.3728H103.262C103.715 23.3728 104.269 23.3728 104.42 23.7277C104.439 23.7572 104.465 23.7814 104.496 23.7981C104.527 23.8149 104.561 23.8237 104.596 23.8237C104.631 23.8237 104.666 23.8149 104.697 23.7981C104.727 23.7814 104.754 23.7572 104.773 23.7277L105.427 22.4602C105.528 22.2574 105.226 22.2574 105.176 22.3588C104.924 22.8151 103.816 22.7137 103.513 22.7137H103.362L104.319 20.8885H105.327Z" fill="#552583"/>
<path d="M64.224 8.11195C61.7054 7.95985 59.6402 7.85845 57.8772 8.06125C58.3724 6.83295 59.1909 5.76373 60.2446 4.96852C61.8694 5.04907 63.4858 5.25244 65.0803 5.57692C69.5633 6.43883 76.5146 9.22736 79.5369 13.2327C75.5072 10.5456 68.9085 8.46685 64.224 8.11195ZM56.7186 8.21335C54.9528 8.41516 53.2026 8.737 51.48 9.17666C51.2281 8.51755 50.5733 6.48953 50.3214 5.83043C53.0892 5.05546 55.9685 4.76394 58.8342 4.96852C58.129 5.52622 56.9705 7.60494 56.7186 8.21335ZM44.0754 11.9652C43.7732 11.4582 42.3124 10.0893 41.5064 9.83576C43.3702 8.41615 47.6518 6.43883 49.314 6.08393C49.5659 6.59093 50.3214 8.61895 50.5733 9.43016C49.1125 9.73436 45.2843 11.154 44.0754 11.9652ZM84.3725 16.5789C83.9696 16.0719 83.4155 15.0579 79.3858 11.5089C73.3916 6.28673 65.4832 3.90381 58.0786 3.90381C52.6385 3.90381 47.8532 5.12062 42.5139 8.06125C35.7641 11.8131 32.9937 16.1226 32.2885 16.9845C31.7848 17.6436 31.7344 17.9985 32.0366 18.2013C32.2885 18.3534 32.7418 17.8464 33.1448 17.2887C35.1596 14.6016 37.8293 11.9652 40.5998 10.3935C41.4561 10.5456 42.665 11.7624 43.1183 12.3708C41.0999 13.6347 39.1494 15.0056 37.2752 16.4775C36.3182 17.238 36.016 17.6436 36.2678 17.9478C36.4693 18.2013 37.2249 17.745 37.8293 17.238C39.6652 15.7688 41.6008 14.4304 43.622 13.2327C44.7302 14.5002 44.3776 16.8324 43.9746 17.2887C43.7732 17.5929 43.7732 17.8464 43.9746 17.9985C44.2265 18.1506 44.428 17.7957 44.7302 17.3394C45.4858 16.2747 45.1836 13.7397 44.5791 12.8271C46.4932 11.6103 49.2133 10.7991 50.8755 10.4442C51.0266 10.6977 53.0415 16.6296 53.4445 17.6943C53.646 18.3027 53.8474 19.0125 54.3008 18.8604C54.5526 18.8097 54.4015 18.1506 54.1497 17.4915C53.8474 16.6803 52.3363 11.7117 51.8326 10.2414C52.3867 9.93716 55.7112 9.27806 56.5675 9.27806C56.1645 11.4582 57.6757 12.3708 59.3883 13.4862C60.295 14.0946 66.1381 17.4408 67.347 18.2013C68.0522 18.6576 68.6063 18.9111 68.7574 18.7083C68.9085 18.5055 68.4552 17.9985 67.8003 17.6436C67.2966 17.3394 61.8565 14.1453 59.5898 12.7257C57.9779 11.661 57.1216 10.5963 57.4742 9.12596C58.0283 8.97386 59.6402 8.97386 61.3528 8.97386C72.9382 9.07526 82.2066 15.717 83.214 16.8324C83.7681 17.3394 84.4733 17.7957 84.7755 17.5929C84.9266 17.4408 84.6244 16.8324 84.3725 16.5789Z" fill="black"/>
<path d="M86.8898 56.3789C87.3432 55.6184 87.6454 55.1621 87.2928 54.9593C86.9906 54.7565 86.638 55.517 86.235 56.2268C84.875 58.5591 83.4142 60.5364 80.0897 63.5784C77.3237 66.0762 74.1328 68.0514 70.6702 69.409C69.4109 65.8599 64.6257 50.7512 64.4745 50.2949C64.3234 49.6358 64.1219 49.4837 63.9205 49.5344C63.6686 49.6358 63.8197 49.9907 63.9708 50.5484C64.0716 51.1061 69.7635 69.0541 69.965 69.6625C68.8568 70.2202 64.2227 71.5384 61.0493 71.6398C58.1781 71.7412 54.8032 71.6398 53.0906 71.2342C51.1261 69.6118 46.5927 63.1728 44.8801 59.7759C42.8652 55.7198 41.5052 52.0187 41.1526 50.447C41.0015 49.6865 40.8 49.1288 40.397 49.2302C39.994 49.2809 40.2459 49.8893 40.4977 50.7005C41.4243 53.8887 42.6558 56.979 44.1749 59.928C46.4416 64.3389 50.4209 69.5611 51.5795 70.9807C47.1319 70.0048 42.942 68.0863 39.2888 65.3529C35.6621 62.6151 32.5391 59.1675 30.9775 56.6324C30.7257 56.1761 30.4235 55.5677 30.0205 55.8212C29.819 55.9733 30.0709 56.4296 30.3227 56.9366C32.5894 61.0434 38.1303 66.8739 45.283 70.0681C53.5439 73.7692 62.5604 73.5664 70.6702 70.423C77.7222 67.6851 83.8675 62.0067 86.8898 56.3789Z" fill="black"/>
</g>
<defs>
<clipPath id="clip0_38_1025">
<rect width="122" height="76" fill="white"/>
</clipPath>
</defs>
</svg>
