<svg width="123" height="148" viewBox="0 0 123 148" fill="none" xmlns="http://www.w3.org/2000/svg">
<g clip-path="url(#clip0_38_1031)">
<path d="M24.7295 140.188C24.7268 139.364 24.3975 138.575 23.8135 137.992C23.2295 137.41 22.4383 137.081 21.6125 137.079H15.791V147.999H18.3408V144.581H20.7105C21.073 144.594 21.4168 144.745 21.6708 145.003C21.9249 145.262 22.0697 145.607 22.0754 145.969V147.974H24.6267V145.969C24.6266 145.115 24.3462 144.285 23.8283 143.605C24.4095 143.016 24.7335 142.222 24.7295 141.396V140.188ZM21.6125 139.623C21.7623 139.624 21.9056 139.684 22.0116 139.79C22.1175 139.896 22.1776 140.039 22.179 140.188V141.422C22.1798 141.506 22.1637 141.59 22.1316 141.668C22.0996 141.747 22.0522 141.818 21.9922 141.878C21.9323 141.937 21.861 141.985 21.7825 142.017C21.704 142.049 21.6199 142.065 21.5352 142.064H18.3416V139.648H21.6132L21.6125 139.623Z" fill="#12173F"/>
<path d="M82.1215 148H73.0547V137.079H75.6045V145.456H82.1215V148Z" fill="#12173F"/>
<path d="M107.364 139.623V137.079H98.2969V148H107.364V145.456H100.847V143.683H106.463V141.139H100.847V139.623H107.364Z" fill="#12173F"/>
<path d="M50.0253 148H40.1855L45.8269 139.623H40.8039V137.079H50.6181L44.9767 145.456H50.0253V148Z" fill="#12173F"/>
<path d="M65.8405 148H56L61.6414 139.623H56.6183V137.079H66.4325L60.7912 145.456H65.8405V148Z" fill="#12173F"/>
<path d="M88.4824 137.079H91.0322V147.999H88.4824V137.079Z" fill="#12173F"/>
<path d="M31.5039 137.079H34.0537V147.999H31.5039V137.079Z" fill="#12173F"/>
<path d="M31.5039 137.079H34.0537V147.999H31.5039V137.079Z" fill="#12173F"/>
<path d="M74.8308 113.155H65.5059V133.147H70.1169V126.723H74.8308C76.3192 126.719 77.7457 126.128 78.7981 125.078C79.8505 124.028 80.4433 122.605 80.4467 121.121V118.757C80.4431 117.272 79.8503 115.849 78.7978 114.8C77.7454 113.75 76.3191 113.159 74.8308 113.155ZM75.8356 121.121C75.8354 121.387 75.7295 121.642 75.5411 121.83C75.3527 122.018 75.0972 122.124 74.8308 122.124H70.1169V117.755H74.8308C75.0972 117.755 75.3527 117.861 75.5411 118.049C75.7295 118.237 75.8354 118.492 75.8356 118.757V121.121Z" fill="#12173F"/>
<path d="M68.0036 133.147H67.6172V115.263H74.8298C75.7587 115.264 76.6493 115.632 77.3061 116.287C77.9629 116.943 78.3324 117.831 78.3334 118.758V121.122C78.3324 122.048 77.9629 122.937 77.3061 123.592C76.6493 124.247 75.7587 124.616 74.8298 124.617H68.0036V133.147ZM68.0036 124.23H74.8298C75.2394 124.231 75.6451 124.151 76.0236 123.995C76.4022 123.839 76.7461 123.61 77.0357 123.321C77.3253 123.032 77.5549 122.689 77.7113 122.312C77.8676 121.934 77.9477 121.529 77.9469 121.121V118.757C77.9477 118.348 77.8676 117.944 77.7113 117.566C77.5549 117.188 77.3253 116.845 77.0357 116.556C76.7461 116.268 76.4022 116.039 76.0236 115.883C75.6451 115.727 75.2394 115.647 74.8298 115.647H68.0036V124.23Z" fill="#5D76A9"/>
<path d="M39.1799 117.755V113.155H23.9824V133.147H39.1544V128.573H28.5928V125.464H37.5313V120.864H28.5928V117.755H39.1799Z" fill="#12173F"/>
<path d="M39.1796 115.648V115.263H26.0938V131.04H39.1541V130.681H26.4802V123.357H37.531V122.971H26.4802V115.648H39.1796Z" fill="#5D76A9"/>
<path d="M57.4426 113.181H41.5488V133.147H46.1599V117.781H49.9981V133.174H54.6092V117.781H57.4426C57.709 117.781 57.9645 117.887 58.1529 118.075C58.3413 118.263 58.4472 118.518 58.4474 118.783V133.147H63.0585V118.783C63.0551 117.299 62.4623 115.876 61.4099 114.826C60.3575 113.776 58.931 113.185 57.4426 113.181Z" fill="#12173F"/>
<path d="M57.4436 115.288H43.6621V133.147H44.0486V115.674H52.1114V133.173H52.4978V115.674H57.4436C57.8531 115.673 58.2588 115.753 58.6374 115.909C59.0159 116.065 59.3598 116.294 59.6494 116.583C59.9391 116.871 60.1686 117.215 60.325 117.592C60.4814 117.97 60.5615 118.375 60.5607 118.783V133.147H60.9471V118.783C60.9461 117.856 60.5767 116.968 59.9198 116.313C59.263 115.658 58.3725 115.289 57.4436 115.288Z" fill="#5D76A9"/>
<path d="M15.893 113.181H0V133.147H4.61108V117.781H8.44928V133.174H13.0604V117.781H15.8938C16.1602 117.781 16.4157 117.887 16.604 118.075C16.7924 118.263 16.8984 118.518 16.8986 118.783V133.147H21.5089V118.783C21.5055 117.299 20.9128 115.876 19.8603 114.826C18.8079 113.776 17.3814 113.185 15.893 113.181Z" fill="#12173F"/>
<path d="M15.894 115.288H2.11328V133.147H2.49973V115.674H10.5626V133.173H10.949V115.674H15.8948C16.3043 115.673 16.71 115.753 17.0885 115.909C17.4671 116.065 17.811 116.294 18.1006 116.583C18.3902 116.871 18.6198 117.215 18.7762 117.592C18.9325 117.97 19.0126 118.375 19.0118 118.783V133.147H19.3983V118.783C19.3973 117.856 19.0278 116.968 18.371 116.313C17.7142 115.658 16.8236 115.289 15.8948 115.288" fill="#5D76A9"/>
<path d="M100.512 113.155H105.123V133.147H100.512V113.155Z" fill="#12173F"/>
<path d="M102.625 113.155H103.011V133.147H102.625V113.155Z" fill="#5D76A9"/>
<path d="M92.9391 113.155V120.864H87.1949V113.155H82.6094V133.147H87.1949V125.464H92.9391V133.147H97.5239V113.155H92.9391Z" fill="#12173F"/>
<path d="M95.0249 113.155V122.971H85.0816V113.155H84.7207V133.147H85.0816V123.357H95.0249V133.147H95.4106V113.155H95.0249Z" fill="#5D76A9"/>
<path d="M8.93852 148H3.11708C2.29123 147.997 1.5 147.669 0.91603 147.086C0.332064 146.504 0.00276933 145.714 0 144.891L0 140.188C0.00276933 139.364 0.332064 138.575 0.91603 137.992C1.5 137.41 2.29123 137.081 3.11708 137.079H5.82145C6.64729 137.081 7.43853 137.41 8.02249 137.992C8.60646 138.575 8.93575 139.364 8.93852 140.188V140.702H6.38798V140.188C6.38661 140.039 6.32648 139.896 6.22053 139.79C6.11458 139.684 5.97128 139.624 5.82145 139.623H3.11708C2.96725 139.624 2.82394 139.684 2.71799 139.79C2.61204 139.896 2.55191 140.039 2.55054 140.188V144.891C2.55191 145.04 2.61204 145.183 2.71799 145.289C2.82394 145.394 2.96725 145.454 3.11708 145.456H6.38798V144.453H4.86846V141.909H8.93852V148Z" fill="#12173F"/>
<path d="M8.93852 148H3.11708C2.29123 147.997 1.5 147.669 0.91603 147.086C0.332064 146.504 0.00276933 145.714 0 144.891L0 140.188C0.00276933 139.364 0.332064 138.575 0.91603 137.992C1.5 137.41 2.29123 137.081 3.11708 137.079H5.82145C6.64729 137.081 7.43853 137.41 8.02249 137.992C8.60646 138.575 8.93575 139.364 8.93852 140.188V140.702H6.38798V140.188C6.38661 140.039 6.32648 139.896 6.22053 139.79C6.11458 139.684 5.97128 139.624 5.82145 139.623H3.11708C2.96725 139.624 2.82394 139.684 2.71799 139.79C2.61204 139.896 2.55191 140.039 2.55054 140.188V144.891C2.55191 145.04 2.61204 145.183 2.71799 145.289C2.82394 145.394 2.96725 145.454 3.11708 145.456H6.38798V144.453H4.86846V141.909H8.93852V148Z" fill="#12173F"/>
<path d="M119.805 148H117.074C116.248 147.997 115.457 147.669 114.873 147.086C114.289 146.503 113.96 145.714 113.957 144.89V144.505H116.507V144.89C116.508 145.04 116.568 145.183 116.674 145.288C116.78 145.394 116.924 145.454 117.073 145.455H119.804C119.954 145.454 120.097 145.394 120.203 145.288C120.309 145.183 120.369 145.04 120.371 144.89V144.428L115.631 143.169C115.154 143.02 114.736 142.722 114.44 142.32C114.143 141.918 113.983 141.432 113.983 140.933V140.264C113.982 139.846 114.065 139.431 114.225 139.045C114.386 138.658 114.621 138.307 114.918 138.011C115.215 137.715 115.567 137.48 115.954 137.32C116.342 137.16 116.757 137.078 117.177 137.078H119.83C120.656 137.08 121.447 137.409 122.031 137.991C122.615 138.574 122.945 139.363 122.947 140.187V140.701H120.397V140.187C120.395 140.038 120.335 139.895 120.229 139.789C120.123 139.683 119.98 139.623 119.83 139.622H117.177C117.092 139.621 117.008 139.637 116.93 139.669C116.851 139.701 116.78 139.749 116.72 139.808C116.66 139.868 116.613 139.939 116.58 140.018C116.548 140.096 116.532 140.18 116.533 140.264V140.778L121.272 142.038C121.75 142.187 122.168 142.484 122.464 142.886C122.761 143.288 122.921 143.774 122.921 144.274V144.89C122.922 145.299 122.842 145.704 122.685 146.081C122.529 146.459 122.299 146.802 122.01 147.091C121.72 147.38 121.376 147.609 120.998 147.765C120.619 147.921 120.214 148.001 119.804 148" fill="#12173F"/>
<path d="M117.333 133.122H107.879V126.775H112.49V128.548H117.333C117.472 128.55 117.61 128.523 117.739 128.471C117.868 128.419 117.985 128.341 118.083 128.243C118.181 128.145 118.259 128.028 118.311 127.9C118.364 127.771 118.39 127.634 118.389 127.495V126.57L110.867 124.257C110.003 123.998 109.246 123.468 108.708 122.746C108.17 122.024 107.879 121.148 107.879 120.248V118.809C107.879 117.31 108.476 115.872 109.539 114.812C110.601 113.752 112.043 113.156 113.546 113.156H122.999V119.76H118.388V117.755H113.545C113.406 117.754 113.268 117.78 113.139 117.832C113.01 117.885 112.893 117.962 112.795 118.061C112.697 118.159 112.619 118.275 112.567 118.404C112.514 118.532 112.488 118.67 112.489 118.809V119.965L119.985 122.252C120.859 122.513 121.625 123.05 122.169 123.782C122.712 124.514 123.003 125.401 122.998 126.312V127.469C122.994 128.967 122.396 130.402 121.334 131.461C120.272 132.52 118.833 133.117 117.331 133.122" fill="#12173F"/>
<path d="M117.334 131.014H109.992V126.749H110.379V130.629H117.334C117.75 130.629 118.162 130.548 118.547 130.389C118.931 130.23 119.281 129.997 119.575 129.704C119.869 129.41 120.102 129.062 120.261 128.678C120.421 128.295 120.502 127.884 120.502 127.468V126.312C120.499 125.932 120.376 125.563 120.149 125.258C119.922 124.953 119.603 124.728 119.24 124.616L111.486 122.226C111.054 122.097 110.675 121.832 110.406 121.471C110.137 121.109 109.992 120.671 109.992 120.221V118.782C109.994 117.842 110.369 116.942 111.035 116.277C111.702 115.613 112.605 115.238 113.547 115.236H120.888V119.733H120.476V115.621H113.521C113.105 115.621 112.693 115.702 112.309 115.861C111.924 116.02 111.575 116.253 111.28 116.546C110.986 116.84 110.753 117.188 110.594 117.572C110.435 117.955 110.353 118.366 110.353 118.781V120.22C110.351 120.588 110.468 120.946 110.686 121.242C110.904 121.538 111.212 121.757 111.563 121.865L119.317 124.255C119.757 124.391 120.142 124.664 120.416 125.033C120.689 125.403 120.837 125.851 120.837 126.31V127.467C120.846 127.931 120.762 128.392 120.59 128.823C120.417 129.254 120.16 129.646 119.834 129.976C119.508 130.307 119.118 130.569 118.689 130.747C118.259 130.925 117.798 131.015 117.333 131.013" fill="#5D76A9"/>
<path d="M110.146 24.5796C111.453 22.2174 112.152 19.5688 112.181 16.871C112.122 14.1212 111.395 11.4269 110.062 9.019C108.73 6.61111 106.832 4.56149 104.531 3.04591C98.2979 -1.16846 88.9729 -1.75907 82.3523 6.12921C75.3062 5.2273 68.1459 6.12014 61.539 8.72445C54.9328 6.11778 47.7719 5.22487 40.7258 6.12921C34.1052 -1.75982 24.7547 -1.16846 18.5468 3.04591C16.2422 4.55735 14.3414 6.60594 13.0085 9.01459C11.6756 11.4232 10.9508 14.1195 10.8967 16.8702C10.9383 19.5664 11.6367 22.212 12.9317 24.5789C7.93417 31.7485 4.48242 40.2798 4.48242 48.9399C4.48242 59.3725 8.96444 64.7688 10.6385 67.0819L11.978 65.7457C16.7181 77.7713 24.8065 84.247 34.5952 90.1314C34.5952 90.1314 34.8015 88.9494 35.0071 87.87C45.5424 96.9665 50.5655 94.7313 61.5135 107.091C72.4353 94.7822 77.5874 96.8894 88.02 87.87C88.2263 88.9232 88.4319 90.1314 88.4319 90.1314C92.7849 87.5107 105.072 80.9324 111.048 65.7457L112.388 67.0819C113.418 65.6686 118.544 59.9639 118.544 48.9399C118.596 40.2798 115.144 31.7747 110.146 24.5796Z" fill="#707271"/>
<path d="M107.132 24.7337C117.179 9.34115 94.382 -6.66747 83.3566 8.82764C75.9773 7.62316 68.4066 8.55044 61.5386 11.5C54.6706 8.55044 47.0999 7.62316 39.7206 8.82764C28.6697 -6.66747 5.8987 9.34115 15.9448 24.7337C4.50749 40.4085 5.64131 55.8774 10.9472 63.1496L13.1369 60.9653C13.1369 60.9653 16.2539 76.0749 32.7398 86.0195L33.3326 82.7558C43.4815 93.5739 52.7547 93.3172 61.5131 103.21C70.2715 93.3426 79.5447 93.5739 89.6936 82.7558L90.2864 86.0195C106.772 76.1004 109.889 60.9653 109.889 60.9653L112.079 63.1496C117.463 55.8519 118.596 40.4339 107.133 24.733" fill="#12173F"/>
<path d="M61.6418 82.2678C61.6418 82.2678 53.7336 82.3965 52.5487 83.1159C52.5487 83.1159 51.1838 85.4544 61.6418 85.4289C71.5851 85.3773 70.1166 83.5785 70.1939 83.2963C67.403 82.5693 64.526 82.2235 61.6418 82.2685" fill="#5D76A9"/>
<path d="M54.7907 73.0945C54.7907 73.0945 56.0273 69.5224 57.3405 70.6534C59.1691 72.2209 61.5388 75.4075 61.5388 75.7414V79.9812L58.6536 80.1354C56.2959 80.4441 53.957 80.8817 51.6473 81.4461C44.2809 63.2532 48.3764 49.5052 50.3342 44.5715C43.0442 46.139 41.8594 37.4018 41.8594 37.4018C42.9592 37.3545 44.0496 37.6221 45.002 38.1728C47.154 39.2788 49.1903 40.5958 51.0808 42.1043C51.6218 42.5152 52.1111 42.9269 52.5748 43.3117C57.5461 47.4744 61.5651 46.6263 61.5651 46.6263V64.4352C61.5396 64.4606 47.0633 63.3303 54.7907 73.0945Z" fill="#5D76A9"/>
<path d="M68.3643 73.0941C77.5857 63.7663 62.5428 64.306 61.5898 64.4602C63.1356 64.5373 74.7785 64.6144 68.3643 73.0941Z" fill="#5D76A9"/>
<path d="M74.4692 44.8796C82.7639 67.1589 72.2541 81.4975 72.1768 81.5746C78.6939 64.512 74.521 50.353 71.6613 45.0855C70.5905 45.1767 69.5146 45.1939 68.4414 45.1371C69.7173 44.3476 70.9314 43.4627 72.0732 42.4902C72.1761 42.3877 72.2796 42.3106 72.4079 42.1818C74.2293 40.5106 76.3304 39.1711 78.6158 38.2242C79.635 37.8298 80.6991 37.5623 81.7839 37.4277C81.7839 37.4277 81.011 44.7771 74.4685 44.8796" fill="#5D76A9"/>
<path d="M87.6077 16.0484C87.6077 16.0484 90.9822 7.61971 101.363 9.64979C101.363 9.64979 91.8324 3.40534 85.2118 14.6861C85.2118 14.6861 75.7067 10.2404 61.5388 16.3561C61.5388 16.3561 48.221 11.6791 38.0977 14.326C38.0977 14.326 32.1989 4.0985 23.8787 8.31287C15.5585 12.5272 19.913 22.2413 21.3552 24.7848C21.3552 24.7848 7.57372 38.7896 12.7513 56.0835L15.533 52.6401C15.533 52.6401 19.5003 71.5015 29.7002 77.4375L30.3185 72.8122C30.3185 72.8122 40.9836 85.6342 53.503 91.0822C54.6878 91.6474 61.3339 94.9365 61.5395 96.5556V87.5872C61.5395 87.5872 52.8584 88.3066 50.5405 84.298C48.9692 81.574 38.9749 63.7921 43.9206 45.162C43.9206 45.162 39.1039 44.4427 38.202 36.3478C35.6752 35.2423 32.9169 34.7663 30.1647 34.9607C30.1647 34.9607 38.1239 32.468 45.5947 35.3462C53.0655 38.2244 55.0743 45.5737 60.1228 42.3355L61.514 21.6499L63.0335 42.3355C68.0821 45.573 70.0916 38.2499 77.5616 35.3462C85.0317 32.468 93.0172 34.9607 93.0172 34.9607C90.4744 33.3602 87.6516 32.2529 84.697 31.697C80.4213 30.8489 74.1354 33.5729 74.1354 33.5729C74.1354 33.5729 75.0111 27.7139 77.8708 24.579C80.344 21.8812 85.9074 21.2906 87.6077 16.0484ZM23.1584 23.1665C22.8492 20.3399 26.43 17.5643 26.43 17.5643C24.9615 16.0485 22.3855 17.3584 22.3855 17.3584C24.7041 12.8102 29.9328 15.0461 29.9328 15.0461C27.9495 12.6305 23.7767 12.7847 23.7767 12.7847C28.9543 7.64516 35.214 15.4825 35.214 15.4825C29.6499 16.7424 23.1584 23.1665 23.1584 23.1665Z" fill="#5D76A9"/>
<path d="M51.0812 42.1301C50.2828 41.8734 48.9689 42.6953 48.2222 44.1348C45.749 43.4154 44.8996 40.7431 45.0024 38.1987C47.1544 39.3047 49.1907 40.6217 51.0812 42.1301Z" fill="#FFBB22"/>
<path d="M75.3982 44.1342C74.6253 42.6184 73.2086 41.7957 72.4102 42.1812C74.2315 40.51 76.3327 39.1705 78.6181 38.2236C78.7209 40.7672 77.8707 43.4403 75.3982 44.1335" fill="#FFBB22"/>
</g>
<defs>
<clipPath id="clip0_38_1031">
<rect width="123" height="148" fill="white"/>
</clipPath>
</defs>
</svg>
