<svg width="122" height="169" viewBox="0 0 122 169" fill="none" xmlns="http://www.w3.org/2000/svg">
<g clip-path="url(#clip0_38_1032)">
<path d="M15.6635 47.9457C16.0295 43.7613 30.9619 38.2555 55.2637 37.3745C52.2135 39.6625 50.1878 43.0661 49.6274 46.8445L49.4078 48.6064C49.2692 49.7524 49.0242 50.883 48.6758 51.9833C47.7243 54.4058 45.0891 56.4613 42.3076 57.9295C32.5722 56.755 24.3741 54.6261 19.6162 52.0567C16.981 50.7353 15.5171 49.1937 15.6635 47.9457ZM108.625 46.6977C109.577 47.7254 109.504 48.3862 109.504 48.6064C109.43 49.781 107.966 51.2492 105.478 52.4971C100.281 55.2133 91.3504 57.2688 80.8098 58.37C81.306 58.0708 81.8193 57.8012 82.347 57.5625L82.4934 57.4891C85.5677 56.2411 89.008 54.8463 89.1544 49.781C89.2276 48.9734 89.2276 46.5509 89.6668 45.67C90.2524 44.4954 91.7164 42.8069 92.9607 42.2931L90.838 41.926H90.5452C91.194 41.4437 91.7206 40.815 92.0824 40.0907C100.72 41.926 106.502 44.3486 108.625 46.6977ZM119.166 40.3844C114.701 35.319 104.599 31.2815 91.7164 28.8589C91.7164 27.3907 92.6679 26.73 94.2783 25.5554C95.2236 24.902 96.1281 24.191 96.9866 23.4265C101.159 19.3889 96.2546 13.3692 96.1082 13.0756L93.3999 9.77212L94.0587 14.0299C94.4979 16.893 93.4731 17.9207 90.2524 20.123C89.8955 20.3983 89.5535 20.6924 89.2276 21.004C89.4604 18.7439 89.3119 16.4607 88.7884 14.2502C88.2028 11.6074 86.8853 10.5062 86.8853 10.5062L86.5193 14.397C86.5193 14.4704 86.2265 17.4802 82.2006 21.1508C82.5406 20.7528 82.8583 20.3362 83.1522 19.9028C85.1285 16.9664 84.5429 13.7363 83.8842 9.91894L83.7378 9.11142C83.079 5.22065 84.1038 2.72469 84.7625 2.28423C85.4213 1.47671 86.7389 0.155315 86.7389 0.155315C86.7389 0.155315 86.0801 -0.138328 84.1038 0.0819045C81.615 0.448958 77.3695 1.99058 77.4427 5.44089C77.5845 6.87742 77.9295 8.28637 78.4675 9.6253C78.9067 11.0201 79.3459 12.3415 78.9067 12.9288C78.6139 13.4427 77.7355 13.8831 76.2715 14.1768C70.2693 15.2779 65.731 17.9941 63.4619 21.9583C62.681 23.2722 62.1359 24.7133 61.8515 26.2161C47.1387 26.2895 33.1578 28.1248 22.3977 31.4283C10.2468 35.1722 3.58577 40.311 3.07339 46.2572C2.78059 49.4139 4.24456 53.892 12.0036 58.2232H11.9304L14.1263 59.3243L15.2975 59.8382C19.327 61.6123 23.5191 62.9891 27.8144 63.9492C26.163 64.8805 24.6168 65.9881 23.2029 67.2527C19.1794 70.5747 16.0089 74.816 13.9573 79.6207C11.9058 84.4254 11.0331 89.6535 11.4124 94.8663C11.7917 100.079 13.4119 105.125 16.1372 109.58C18.8625 114.035 22.6134 117.77 27.0751 120.471C31.5369 123.172 36.5795 124.76 41.7798 125.103C46.9802 125.446 52.1867 124.533 56.9626 122.441C61.7385 120.349 65.9445 117.139 69.2278 113.08C72.5111 109.021 74.776 104.231 75.8324 99.1129C78.4675 91.258 78.1747 82.8158 78.0283 79.5857C77.7355 72.318 81.3222 68.2804 83.5914 66.5186C93.8391 65.1972 102.989 62.9215 109.723 59.9116L110.821 59.3978L113.163 58.2966L113.09 58.2232C118.58 55.1399 121.654 51.6162 121.947 47.7989C122.24 45.1561 121.288 42.6601 119.166 40.3844Z" fill="black"/>
<path d="M32.4998 147.491L36.6721 130.533H29.7914L25.6191 147.491H32.4998Z" fill="black"/>
<path d="M47.5054 134.644L47.9446 141.618H44.3579L47.9446 147.491H54.2396L53.288 130.533H42.9671C42.9671 130.533 34.4761 147.491 34.5493 147.491H41.1371L47.5054 134.644Z" fill="black"/>
<path d="M31.6212 163.201L30.1573 169H36.5987L40.771 151.969H34.3296L32.7924 158.576H27.9613L29.4985 151.969H23.0571L18.8848 169H25.3262L26.717 163.201H31.6212Z" fill="black"/>
<path d="M46.9925 165.109L47.4317 162.834H55.4103L56.4351 159.09H48.4565L48.9689 156.594H56.9475L58.1919 151.969H43.6986L39.4531 169H53.9464L54.9711 165.109H46.9925Z" fill="black"/>
<path d="M88.4236 147.491L92.5959 130.533H85.7153L81.543 147.491H88.4236Z" fill="black"/>
<path d="M99.7691 143.673C100.721 144.921 101.745 147.417 97.5 149.326C92.5225 151.602 97.5 157.328 90.7657 157.328H87.9842L85.1295 169H78.2489L81.0304 157.328H76.3457L77.8097 151.969H89.8142C96.8412 151.969 91.8637 147.05 95.5236 146.39C98.0124 145.949 99.5495 145.509 99.7691 143.673Z" fill="black"/>
<path d="M13.7613 139.269L12.6633 130.533H4.1723L0 147.491H6.29504L8.56419 138.608H8.63738L9.88175 147.491H13.5417L18.6655 138.608H18.7387L16.6892 147.491H22.6182L26.7905 130.533H18.6655L13.7613 139.269Z" fill="black"/>
<path d="M69.7573 139.269L68.6594 130.533H60.1684L55.9961 147.491H62.2911L64.5603 138.608H64.6335L65.8778 147.491H69.5378L74.6616 138.608H74.7348L72.6853 147.491H78.6143L82.8598 130.533H74.6616L69.8305 139.269H69.7573Z" fill="black"/>
<path d="M68.7339 156.153L69.1731 163.127H65.5864L69.1731 169H75.4681L74.5165 151.969H64.1956C64.1956 151.969 55.7046 169 55.7778 169H62.3656L68.7339 156.153Z" fill="black"/>
<path d="M12.5909 94.7821C13.5847 99.9782 16.5166 104.599 20.7891 107.702C22.2538 108.749 23.8547 109.588 25.547 110.198C24.5222 108.437 23.2779 106.601 22.0335 104.766C19.6912 101.316 17.2756 97.7185 15.7385 93.9012C14.1707 90.0172 13.7144 85.7715 14.4209 81.6416C13.1504 85.1217 12.506 88.8004 12.5177 92.5064C12.5177 93.3139 12.5909 94.048 12.5909 94.7821Z" fill="#98002E"/>
<path d="M17.8612 93.0933C19.3252 96.6904 21.6675 100.141 23.9367 103.444C25.6539 105.93 27.242 108.503 28.6945 111.152C30.1459 111.45 31.6119 111.67 33.0864 111.813C31.4413 109.415 30.0896 106.827 29.0605 104.105C24.5222 92.7996 25.1078 78.8516 30.7441 70.7764C33.5584 66.8245 37.2723 63.6031 41.5774 61.3799C45.3837 59.3244 47.7993 58.6637 50.288 57.1955C52.9231 55.6538 54.3139 53.011 52.5571 47.0648C52.1554 45.7089 52.0065 44.2904 52.1179 42.8804C51.4192 44.153 50.9718 45.5488 50.8004 46.9914C50.5897 48.8303 50.2224 50.6477 49.7024 52.4238C47.3601 58.5903 36.0143 61.9672 34.5504 62.481C30.682 63.6066 27.0914 65.5322 24.0099 68.1337C20.5841 71.1793 18.1618 75.1969 17.0637 79.6541C15.9657 84.1114 16.2438 88.7981 17.8612 93.0933Z" fill="#98002E"/>
<path d="M65.2945 37.3747C65.3677 37.7418 65.4409 38.1088 65.5141 38.4759C65.8069 40.6782 65.1482 42.4401 62.5862 42.8071C59.8779 43.2476 58.9263 40.8984 58.7067 38.9898C58.7067 38.2557 58.7799 37.7418 58.7799 37.3747H57.4623C56.3156 38.0461 55.2581 38.8601 54.3148 39.7973C53.8024 40.9719 53.1437 42.5869 54.1684 46.3308C55.9252 53.0112 55.12 57.0488 49.8497 59.3245C43.0423 62.261 38.6504 64.0228 32.8678 71.3639C30.0862 74.8142 28.5491 80.687 28.3295 86.4865C28.1677 92.2068 29.1637 97.9007 31.2574 103.224C32.4698 106.303 34.0686 109.214 36.0153 111.887C37.8616 111.787 39.6972 111.541 41.5051 111.152C39.463 108.766 38.2548 105.776 38.0648 102.637C37.406 91.7721 43.1887 87.2206 52.1189 80.0998L56.1448 76.7229C72.102 63.1419 67.4173 49.3407 69.174 37.5216C67.8847 37.3994 66.5894 37.3503 65.2945 37.3747Z" fill="#98002E"/>
<path d="M71.6611 37.5947C71.2156 40.0209 70.9222 42.4728 70.7827 44.9358C70.124 55.2133 70.4899 66.8856 57.4607 78.4111L53.5812 81.5677C44.8706 88.5418 39.8931 92.9464 40.2591 102.416C40.2948 103.923 40.6305 105.406 41.2465 106.781C41.8624 108.155 42.7462 109.392 43.8458 110.418C46.3395 109.681 48.745 108.672 51.0192 107.408C62.2917 100.948 69.392 91.3314 72.1003 78.9984C73.7839 71.2168 73.7839 64.9035 73.7107 59.7648C73.7107 57.1954 74.0767 52.2035 74.0767 52.2035C74.4426 49.0468 74.8818 44.4953 78.6149 38.6959C78.7613 38.4757 78.8345 38.3288 78.9809 38.1086C76.7118 37.8884 74.2231 37.7415 71.6611 37.5947Z" fill="#98002E"/>
<path d="M75.4686 70.6298C75.1026 72.5385 75.0295 74.594 74.8099 76.6495C74.6635 77.3836 74.5171 78.1911 74.4439 78.9252C74.4303 79.1519 74.3809 79.3749 74.2975 79.5859C71.5159 92.5796 64.1229 102.637 52.1916 109.391C50.23 110.524 48.1724 111.482 46.043 112.254C49.5565 114.529 53.5824 115.264 56.3639 114.823C67.0508 113.281 72.2479 106.307 74.7367 98.8195C77.2986 91.1848 77.0058 83.0362 76.8594 79.6593C76.4934 68.3541 85.1308 64.1697 85.1308 64.1697C78.4698 63.8026 76.2006 66.7391 75.4686 70.6298Z" fill="#98002E"/>
<path d="M68.3674 112.254C65.1875 114.874 61.3274 116.53 57.2413 117.025C54.8489 117.357 52.4142 117.196 50.086 116.552C47.7577 115.908 45.5847 114.795 43.6996 113.281C43.5532 113.208 43.5532 113.135 43.4068 113.061C41.5812 113.545 39.7215 113.889 37.8438 114.089C42.0892 118.714 47.7987 121.357 55.3381 121.797H55.4113C60.5492 119.809 65.0701 116.49 68.5138 112.18C68.4406 112.18 68.4406 112.254 68.3674 112.254Z" fill="#98002E"/>
<path d="M28.6953 120.035C28.6962 117.586 28.1193 115.171 27.0117 112.988C24.3327 112.215 21.7714 111.079 19.3991 109.611C18.0346 108.626 16.7827 107.494 15.666 106.234C18.4762 112.079 23.0297 116.902 28.6953 120.035Z" fill="#98002E"/>
<path d="M50.4349 123.265C46.4433 122.475 42.6715 120.821 39.3819 118.42C37.7383 117.174 36.2405 115.746 34.9168 114.162C33.1954 114.177 31.4774 114.005 29.793 113.648C30.7782 116.039 31.1555 118.637 30.8909 121.21C34.9792 123.081 39.4262 124.034 43.9202 123.999C46.1085 124.001 48.2913 123.78 50.4349 123.339C50.508 123.265 50.4349 123.265 50.4349 123.265Z" fill="#98002E"/>
<path d="M86.9602 45.8902C86.2282 48.3128 83.8127 48.0191 83.0807 46.6978C81.9827 44.6423 82.4219 43.0272 83.5931 41.9261C84.691 40.8249 86.5942 40.2376 88.4242 39.3567H88.4974C86.3746 38.9896 84.1055 38.696 81.7631 38.4023C81.6899 38.4758 81.6899 38.4758 81.6167 38.4758C81.4397 38.7345 81.244 38.9799 81.0311 39.2099C78.3226 43.1167 76.7051 47.679 76.3465 52.4238L76.2733 53.4515C76.0387 55.5718 75.9653 57.7069 76.0537 59.8383V60.866C75.9805 61.747 75.9805 62.6279 75.9805 63.4354C76.0537 63.0683 76.0537 62.9949 76.0537 63.1418C77.0784 59.6914 79.0548 57.6359 81.8363 56.4614C84.9106 55.2868 87.8386 54.1856 87.985 49.781C88.0582 47.9457 88.2046 46.1105 88.5706 45.2295C88.9952 44.2661 89.7476 43.4855 90.6933 43.0272C89.2293 42.9538 87.619 43.5411 86.9602 45.8902Z" fill="#98002E"/>
<path d="M90.5468 28.5654C90.7663 25.629 93.5479 25.1151 96.2562 22.6192C99.6965 19.3157 95.1582 13.8833 95.1582 13.8833C95.7438 17.5538 94.0603 18.9486 90.9859 21.151C90.4924 21.4668 90.0731 21.8864 89.7571 22.3807C89.4411 22.875 89.236 23.4323 89.156 24.014C89.1148 25.4665 88.968 26.9141 88.7168 28.3452C89.3306 28.3824 89.9416 28.4559 90.5468 28.5654Z" fill="#F9A01B"/>
<path d="M90.5468 28.5654C90.7663 25.629 93.5479 25.1151 96.2562 22.6192C99.6965 19.3157 95.1582 13.8833 95.1582 13.8833C95.7438 17.5538 94.0603 18.9486 90.9859 21.151C90.4924 21.4668 90.0731 21.8864 89.7571 22.3807C89.4411 22.875 89.236 23.4323 89.156 24.014C89.1148 25.4665 88.968 26.9141 88.7168 28.3452C89.3306 28.3824 89.9416 28.4559 90.5468 28.5654Z" stroke="#F9A01B" stroke-width="0.12"/>
<path d="M81.1042 23.5002C80.3152 24.0964 79.5578 24.7335 78.8351 25.4089C78.3227 25.9228 77.8103 26.3632 77.3711 26.8771C80.3722 27.0973 83.3001 27.4644 86.1549 27.8315C87.9116 24.528 88.79 20.8574 87.692 14.4707C87.692 14.4707 87.4724 18.8019 81.1042 23.5002Z" fill="#F9A01B"/>
<path d="M81.1042 23.5002C80.3152 24.0964 79.5578 24.7335 78.8351 25.4089C78.3227 25.9228 77.8103 26.3632 77.3711 26.8771C80.3722 27.0973 83.3001 27.4644 86.1549 27.8315C87.9116 24.528 88.79 20.8574 87.692 14.4707C87.692 14.4707 87.4724 18.8019 81.1042 23.5002Z" stroke="#F9A01B" stroke-width="0.12"/>
<path d="M64.2688 26.216C67.7091 26.2894 71.0763 26.3628 74.4434 26.6565C74.5224 26.5203 74.6211 26.3966 74.7362 26.2894C76.9321 23.9403 80.3724 21.8848 82.2024 19.242C84.0323 16.5992 83.3004 13.2957 82.5684 9.33152C81.3972 2.50433 84.3251 1.25635 84.3251 1.25635C84.3251 1.25635 78.5425 2.06387 78.6889 5.36735C78.8353 9.8454 83.4467 14.0298 76.4929 15.3512C68.8803 16.746 64.1224 20.857 63.0977 26.2894C63.4852 26.2306 63.877 26.206 64.2688 26.216Z" fill="#F9A01B"/>
<path d="M64.2688 26.216C67.7091 26.2894 71.0763 26.3628 74.4434 26.6565C74.5224 26.5203 74.6211 26.3966 74.7362 26.2894C76.9321 23.9403 80.3724 21.8848 82.2024 19.242C84.0323 16.5992 83.3004 13.2957 82.5684 9.33152C81.3972 2.50433 84.3251 1.25635 84.3251 1.25635C84.3251 1.25635 78.5425 2.06387 78.6889 5.36735C78.8353 9.8454 83.4467 14.0298 76.4929 15.3512C68.8803 16.746 64.1224 20.857 63.0977 26.2894C63.4852 26.2306 63.877 26.206 64.2688 26.216V26.216Z" stroke="#F9A01B" stroke-width="0.12"/>
<path d="M64.2672 27.9778C32.3528 27.6842 5.7819 35.9062 4.90352 46.4039C4.53753 50.5883 8.27063 54.4791 14.9317 57.7092C19.8727 59.9598 25.0549 61.6348 30.3765 62.7011C31.6208 62.1872 32.792 61.7468 34.1828 61.3063C35.9311 60.7848 37.6428 60.1471 39.3067 59.3976C30.3765 58.1496 23.2031 56.0941 18.738 53.6716C15.4441 51.9097 13.6873 49.9276 13.9069 47.7987C14.4925 40.7513 36.8179 35.3189 63.6816 35.5391C90.6186 35.8328 111.919 41.7791 111.26 48.7531C111.114 50.7352 109.284 52.497 106.283 54.1121C100.647 57.1219 90.765 59.3242 78.6873 60.4254C78.2741 61.0331 77.9071 61.6711 77.5893 62.334C83.0792 60.2785 89.4474 63.3618 89.4474 63.3618C89.6997 63.4667 89.9443 63.5893 90.1794 63.7289C98.158 62.2606 105.039 60.2051 110.162 57.7826C116.238 54.9196 119.971 51.3224 120.264 47.5785C121.142 37.0808 96.1084 28.3449 64.2672 27.9778Z" fill="white"/>
</g>
<defs>
<clipPath id="clip0_38_1032">
<rect width="122" height="169" fill="white"/>
</clipPath>
</defs>
</svg>
