<svg width="123" height="152" viewBox="0 0 123 152" fill="none" xmlns="http://www.w3.org/2000/svg">
<path d="M61.5699 151.453C28.0701 151.453 0.820312 124.248 0.820312 90.8029C0.820312 74.4549 7.2786 59.1052 18.9869 47.5826C19.0702 47.4994 19.1952 47.4162 19.2785 47.333C15.2369 41.2597 12.9869 34.1465 14.6952 25.5357C17.8619 9.68686 30.6951 4.90309 31.2368 4.6951C31.4451 4.61191 31.6534 4.57031 31.8618 4.57031C32.5284 4.57031 33.1951 4.94469 33.5284 5.56866C33.7368 5.94304 33.7784 6.40062 33.6951 6.8166C37.9034 3.28077 41.9034 1.74165 43.57 1.20087C43.7784 1.15927 43.945 1.11768 44.1533 1.11768C44.8617 1.11768 45.57 1.53366 45.8617 2.19922C46.2367 3.07278 45.945 4.07113 45.1117 4.57031C41.2784 6.8582 37.9451 10.0196 35.4451 13.5971C38.4867 12.8899 40.4867 12.8067 41.195 12.8067H41.57C42.4867 12.8483 43.2367 13.5971 43.32 14.5122C43.4034 15.4274 42.82 16.2593 41.9034 16.5089C41.8617 16.5089 36.8201 17.7985 31.2784 21.7503C30.2368 24.9533 29.6951 28.2811 29.6951 31.6506C29.6951 38.0567 31.7368 44.6707 35.3201 49.7041C36.1534 50.8688 36.9451 51.9088 37.8201 52.824C37.4867 46.2099 39.445 35.9768 51.3616 31.2346C51.57 31.1514 51.82 31.1098 52.07 31.1098C52.7783 31.1098 53.4033 31.4842 53.7366 32.1498C54.1949 33.0233 53.8616 34.0633 53.0283 34.604L52.945 34.6456C51.1533 35.8104 49.6116 37.3079 48.445 39.055C49.695 38.6806 50.7783 38.5558 51.4866 38.4727H51.6116H51.82C52.6116 38.4727 53.32 38.9718 53.57 39.7206C53.8616 40.5526 53.5283 41.4677 52.82 41.9253L52.695 42.0085C48.9033 44.2132 46.7783 46.7506 46.4033 49.5793C45.9867 52.6576 47.695 55.5694 48.9033 57.2333C52.1116 53.5311 54.1533 47.2498 54.7366 44.8787C54.9449 44.0468 55.6949 43.4644 56.5699 43.4644H56.7783C57.7366 43.5892 58.4449 44.3796 58.4449 45.2947C58.4866 53.0735 56.4033 58.3981 54.2783 61.7675C57.4866 63.3482 60.5699 63.473 61.2782 63.473H61.4866H61.5699H61.6949C62.3616 63.473 65.4865 63.3898 68.6948 61.7675C66.5699 58.3565 64.4865 53.0319 64.5282 45.2947C64.5282 44.338 65.2365 43.5476 66.1949 43.4644H66.4032C67.2365 43.4644 68.0282 44.0468 68.2365 44.8787C68.8198 47.2498 70.9032 53.5311 74.0698 57.2333C75.3198 55.5694 76.9865 52.6576 76.5698 49.5793C76.1948 46.7506 74.0698 44.1716 70.2782 42.0085C70.2365 42.0085 70.1532 41.9253 70.1532 41.9253C69.4032 41.4677 69.0698 40.511 69.3615 39.7206C69.6115 38.9718 70.3198 38.4727 71.1115 38.4727H71.3198H71.4448C72.1948 38.5558 73.2365 38.6806 74.4865 39.055C73.3198 37.3079 71.7782 35.8104 69.9865 34.6456L69.9032 34.604C69.0698 34.1049 68.7782 33.0233 69.1948 32.1498C69.5282 31.4842 70.1948 31.1098 70.8615 31.1098C71.1115 31.1098 71.3198 31.1514 71.5698 31.2346C83.4447 35.9768 85.4031 46.2099 85.1114 52.824C85.9864 51.9088 86.7781 50.8688 87.6114 49.7041C91.1947 44.6292 93.2363 38.0567 93.2363 31.6506C93.2363 28.2811 92.6947 24.9533 91.653 21.7503C86.0697 17.7569 81.1114 16.5089 81.0281 16.5089C80.1114 16.3009 79.5281 15.4274 79.6114 14.5122C79.6948 13.5971 80.4448 12.8483 81.3614 12.8067H81.7364C82.4447 12.8067 84.4864 12.8899 87.4864 13.5971C84.9447 9.97804 81.6114 6.8582 77.8198 4.57031C76.9865 4.07113 76.6948 3.07278 77.0698 2.19922C77.3615 1.53366 78.0698 1.11768 78.7781 1.11768C78.9864 1.11768 79.1531 1.15927 79.3614 1.20087C81.0281 1.74165 85.0281 3.28077 89.2364 6.8166C89.153 6.40062 89.1947 5.98464 89.4447 5.56866C89.778 4.94469 90.403 4.57031 91.1114 4.57031C91.3197 4.57031 91.528 4.61191 91.7364 4.6951C92.278 4.90309 105.111 9.68686 108.278 25.5357C109.986 34.1465 107.736 41.2597 103.695 47.333C103.82 47.4162 103.903 47.4994 103.986 47.5826C115.695 59.1052 122.153 74.4549 122.153 90.8029C122.319 124.248 95.0697 151.453 61.5699 151.453Z" fill="#EEE1C6"/>
<path d="M44.1534 3.03125C39.9451 4.36238 31.4035 8.73017 26.4035 19.504C24.4035 20.8768 22.6952 22.6239 20.8202 24.9118C22.7368 16.1342 27.3618 9.85332 31.8618 6.52548C31.8618 6.52548 19.5281 10.976 16.5281 25.9513C13.0282 43.3809 26.9868 54.2803 38.2784 63.6399L29.6951 60.1457C29.1118 59.8961 28.6943 60.4784 28.8193 61.144L29.0701 63.2655C29.1951 64.4303 30.0697 70.3367 33.3197 72.1255C33.9864 72.4998 35.1947 72.9583 38.778 73.2078L45.2363 73.6238L44.153 77.2428L50.4862 87.3512L47.2363 83.9401L40.6113 107.443L58.7779 122.377L53.1112 96.7107L61.5695 106.985L69.9444 96.7107L64.2778 122.377L82.4444 107.443L75.8194 83.9401L72.5694 87.3512L78.9027 77.2428L77.8194 73.6242L84.2777 73.2083C87.8193 72.9587 89.0276 72.5003 89.736 72.1259C92.986 70.3372 93.8605 64.4307 93.9855 63.2659L94.2355 61.1444C94.3605 60.4789 93.9439 59.8965 93.3605 60.1461L84.7773 63.6403C96.0688 54.2808 110.027 43.3813 106.527 25.9517C103.527 10.9769 91.1935 6.52631 91.1935 6.52631C95.7351 9.85415 100.318 16.0934 102.235 24.9122C100.402 22.6243 98.6934 20.8772 96.6518 19.5045C91.6101 8.73059 83.1102 4.36322 78.9019 3.03208C84.3602 6.31832 88.9018 11.1849 91.6518 16.8006C85.3602 14.5543 81.5689 14.7631 81.5689 14.7631C81.5689 14.7631 87.1935 16.1354 93.3185 20.6696C94.5268 24.1638 95.1934 27.8661 95.1934 31.7347C95.1934 38.5151 92.9851 45.5036 89.1935 50.8697C87.0685 53.8648 84.9856 55.9451 82.4439 57.8586C83.2773 55.7371 86.5273 39.3059 70.944 33.0662L71.069 33.149C74.7773 35.5201 77.4856 39.2223 78.569 43.5901C75.7357 40.8446 72.7361 40.5955 71.1528 40.3875C71.1944 40.3875 71.194 40.4291 71.2357 40.4291C85.6939 48.7487 74.194 60.0217 74.194 60.0217C69.6524 56.1947 66.9861 47.6675 66.4028 45.338C66.3611 54.3648 69.3611 59.7725 71.4028 62.3932C66.7361 65.5962 61.5274 65.3878 61.5274 65.3878C61.5274 65.3878 56.3195 65.5962 51.6529 62.3932C53.6946 59.7725 56.6945 54.3648 56.6529 45.338C56.0695 47.6675 53.4033 56.1947 48.8617 60.0217C48.8617 60.0217 37.3617 48.7487 51.82 40.4291C51.8616 40.4291 51.8612 40.3875 51.9029 40.3875C50.3196 40.5955 47.32 40.8862 44.4867 43.5901C45.6117 39.2223 48.32 35.5201 51.9866 33.149L52.1112 33.0662C36.528 39.3059 39.778 55.7367 40.6113 57.8582C38.0697 55.9447 35.9868 53.8644 33.8618 50.8693C30.0701 45.5448 27.8618 38.5563 27.8618 31.7343C27.8618 27.8656 28.5285 24.1218 29.7368 20.6692C35.8618 16.135 41.4863 14.7627 41.4863 14.7627C41.4863 14.7627 37.6951 14.5539 31.4035 16.8002C34.1947 11.1849 38.7363 6.31832 44.153 3.03208L44.1534 3.03125ZM20.2781 48.9138C9.44485 59.6045 2.69531 74.4129 2.69531 90.8029C2.69531 123.208 29.1122 149.581 61.5699 149.581C94.028 149.581 120.445 123.207 120.445 90.8029C120.445 74.4134 113.737 59.6049 102.862 48.9138L101.57 50.4941C111.987 60.7688 118.402 75.0369 118.402 90.8025C118.402 122.126 92.9443 147.542 61.5695 147.542C30.1951 147.542 4.73655 122.126 4.73655 90.8025C4.73655 75.0369 11.1948 60.7688 21.5698 50.4941L20.2773 48.9138H20.2781ZM23.1118 51.9089C13.0702 61.8508 6.82028 75.6197 6.82028 90.8029C6.82028 120.92 31.3618 145.463 61.5699 145.463C91.7364 145.463 116.32 120.961 116.32 90.8029C116.32 75.6197 110.111 61.8928 100.07 51.9925L98.6538 53.49C108.195 63.0159 114.236 76.2853 114.236 90.8029C114.236 94.1724 113.903 97.4586 113.32 100.62L97.0284 96.1279C94.4451 113.516 79.4448 126.91 61.3199 126.91C43.2784 126.91 28.2785 113.641 25.6535 96.3359L9.7786 100.62C9.19527 97.4174 8.86235 94.1728 8.86235 90.8034C8.86235 76.3273 14.9873 62.8495 24.5289 53.3236L23.1118 51.9093V51.9089Z" fill="#00471B"/>
<path d="M24.4876 25.4111C23.9459 25.9934 23.4039 26.5754 22.9039 27.1994C18.0706 33.4807 25.1955 44.7129 25.1955 44.7129C25.1955 44.7129 22.5293 32.5663 24.4876 25.4115V25.4111ZM98.6121 25.4111C100.654 32.5659 97.9454 44.7125 97.9454 44.7125C97.9454 44.7125 105.07 33.4802 100.195 27.1989C99.6954 26.575 99.1533 25.9514 98.6117 25.4106L98.6121 25.4111Z" fill="#EEE1C6"/>
<path d="M31.8623 63.1816C31.8623 63.1816 32.4877 68.4654 34.696 69.6718C36.196 70.5037 39.821 70.4197 43.0293 70.6693C39.4876 69.2965 34.2789 65.5527 31.8623 63.1816ZM91.2785 63.1816C88.8202 65.5527 83.654 69.2965 80.1123 70.6693C83.279 70.4197 86.9456 70.5037 88.4456 69.6718C90.6539 68.4654 91.2785 63.1816 91.2785 63.1816ZM72.1207 71.1169C72.0336 71.1115 71.9453 71.1273 71.862 71.1689C70.112 71.9592 68.4037 72.7492 67.487 73.1652C67.112 73.3315 67.0287 73.8311 67.3203 74.0807C68.1953 74.9543 69.8207 75.7862 71.7791 74.2887C72.8207 73.4984 72.8203 72.3336 72.6953 71.5848C72.6328 71.3353 72.3824 71.1323 72.1207 71.1169ZM51.0205 71.1526C50.7609 71.1585 50.518 71.3457 50.4867 71.6265C50.3617 72.3752 50.3621 73.54 51.4038 74.3303C53.3204 75.8278 54.9867 74.9959 55.8617 74.1223C56.1117 73.8311 56.0283 73.374 55.6533 73.2076C54.7367 72.7916 52.9867 72.0008 51.2784 71.2105C51.195 71.1689 51.1071 71.151 51.0205 71.1526ZM59.6116 75.2035L57.9033 80.7734C57.9033 80.7734 57.3204 82.9781 54.9038 84.5172L53.8621 89.093L56.4038 92.5461H59.1121L56.6121 88.8439L57.0287 86.556C58.1537 87.7623 59.7787 88.5522 61.5704 88.5522C63.362 88.5522 64.9862 87.8039 66.1112 86.556L66.5278 88.8439L64.0279 92.5461H66.7362L69.2787 89.093L68.237 84.5172C65.8204 82.9781 65.2366 80.7734 65.2366 80.7734L63.5283 75.1993L61.5704 76.1565L59.6116 75.1993V75.2035ZM57.9033 94.6672L59.6529 97.0378H63.4866L65.2362 94.6672H57.9029H57.9033ZM99.7364 99.5337L98.278 104.317L97.8614 105.649L103.32 107.271L104.695 107.686L105.987 103.444L109.362 104.442L108.654 106.813L107.195 106.355L106.612 108.227L108.654 108.851L110.028 109.267L111.862 103.11L110.486 102.82L105.945 101.446L104.57 101.03L103.278 105.274L100.362 104.4L101.07 102.029L102.528 102.445L103.111 100.573L101.111 99.9488L99.7364 99.5329V99.5337ZM23.4036 99.8253L11.3203 103.985L11.9453 105.857L19.5703 103.236L16.8619 105.483L20.3619 105.607L12.7782 108.228L13.4032 110.1L25.4865 105.94L24.8198 104.068L21.3198 103.943L24.0281 101.698L23.4031 99.8257L23.4036 99.8253ZM97.2364 106.398L96.2364 108.228L98.5697 111.39L95.4447 109.726L94.5285 111.473L105.82 117.463L106.737 115.716L101.82 113.095L107.737 113.844L108.695 112.014L100.571 110.932L97.2372 106.398L97.2364 106.398ZM26.3202 107.604L14.9874 113.511L15.9036 115.258L27.2373 109.351L26.3202 107.604ZM28.1123 111.098L17.7374 118.544L21.3207 123.536L22.9873 122.33L20.5711 118.918L29.2794 112.721L28.1123 111.099V111.098ZM93.9035 112.596L89.9035 117.588L91.0281 118.502L99.8197 125.532L100.695 124.451L103.82 120.541L102.695 119.667L100.82 118.086L99.6114 119.626L101.07 120.79L99.5285 122.745L92.7781 117.379L94.3202 115.425L95.7368 116.547L96.9443 115.009L95.0277 113.51L93.9027 112.595L93.9035 112.596ZM31.4873 115.799L23.3206 125.658L24.6536 126.988L28.1535 124.576L25.779 128.112L27.1119 129.443L36.8618 121.165L35.6535 119.876L31.5285 123.245L34.4877 118.711L34.0285 118.253L29.5289 121.249L32.8206 117.089L31.4868 115.799L31.4873 115.799ZM88.8202 118.753L87.279 120.001L94.2368 128.113L92.3202 129.693L85.4452 121.54L83.9452 122.829L92.0702 132.605L93.1947 131.649L95.9868 129.318L97.0285 128.445L88.8198 118.753L88.8202 118.753ZM37.8622 121.873L37.8205 121.915L30.9873 132.605L32.6539 133.645L35.6535 128.945L37.7368 130.275L34.7372 134.976L36.4039 136.016L42.1955 126.989L42.8622 125.949L43.2372 125.367L43.2788 125.325L37.8622 121.873ZM81.3619 124.411L76.9444 126.781L82.9861 137.93L87.4035 135.558L87.9448 133.686L86.0698 130.234L84.9452 129.735L85.1535 128.487L83.1948 124.909L81.3623 124.411H81.3619ZM38.4039 124.66L40.4872 125.991L38.8205 128.612L36.7372 127.281L38.4039 124.66ZM44.2372 125.95L39.6122 137.763L40.9876 138.305L44.4038 139.594L45.6955 140.093L50.2788 128.238L48.4038 127.531L44.5709 137.473L42.2376 136.598L46.0705 126.657L44.2372 125.95ZM81.8623 126.491L83.3206 129.195L81.1119 130.359L79.6536 127.655L81.8623 126.491ZM72.1961 128.446L66.1545 129.611L68.612 142.048L74.6536 140.883L74.2795 138.886L70.1545 139.677L69.4457 136.182L73.5295 135.393L73.1545 133.437L69.0716 134.228L68.4883 131.233L72.5711 130.443L72.197 128.446H72.1961ZM51.6959 128.571L49.488 141.133L51.4459 141.466L52.4046 135.975L53.5292 141.798L55.5708 142.173L54.0709 134.145L57.3617 129.569L55.3208 129.195L53.0292 132.397L53.6542 128.903L51.6954 128.571H51.6959ZM64.7791 129.735L58.6546 129.819L58.8629 142.506L64.9874 142.422L64.9458 140.385L60.7791 140.509L60.7375 136.932L64.9041 136.849L64.8616 134.852L60.695 134.935L60.6533 131.857L64.8199 131.774L64.7783 129.735L64.7791 129.735ZM84.2369 130.941L85.946 134.061L83.7373 135.226L82.029 132.107L84.2369 130.941Z" fill="white"/>
</svg>
