<svg width="122" height="122" viewBox="0 0 122 122" fill="none" xmlns="http://www.w3.org/2000/svg">
<g clip-path="url(#clip0_38_1038)">
<path d="M60.9895 121.557C94.4282 121.557 121.536 94.4492 121.536 61.0098C121.536 27.5704 94.4282 0.462402 60.9895 0.462402C27.5508 0.462402 0.443359 27.5704 0.443359 61.0098C0.443359 94.4492 27.5508 121.557 60.9895 121.557Z" fill="#9EA2A2"/>
<path d="M61.2945 119.333C93.5544 119.333 119.706 93.1827 119.706 60.9249C119.706 28.6672 93.5544 2.51709 61.2945 2.51709C29.0346 2.51709 2.88281 28.6672 2.88281 60.9249C2.88281 93.1827 29.0346 119.333 61.2945 119.333Z" fill="#0C2340"/>
<path d="M61.4428 22.3049C58.4783 22.2874 55.5529 22.614 52.7176 23.2547C52.4566 24.0975 52.1027 25.7412 52.6955 27.2355C53.0527 28.1361 53.7452 28.8663 54.7207 29.434C57.3964 28.345 60.3008 27.2316 63.1028 26.2943C66.6414 25.0032 69.7847 24.2922 72.2278 23.9153C72.1621 23.8971 72.0998 23.8734 72.0347 23.8553C70.2966 23.3498 68.5533 22.9711 66.8107 22.7142C65.0142 22.4498 63.2211 22.3151 61.4428 22.3049ZM50.0203 23.9685C44.49 25.6456 39.3854 28.5391 35.1097 32.4367C35.2965 32.4367 35.5066 32.4429 35.7042 32.4475C39.369 32.2307 44.5845 32.3801 47.5654 32.5007C48.8235 31.9352 50.3544 31.2628 52.0535 30.5428C51.314 29.8562 50.7513 29.0531 50.3866 28.1248C49.8092 26.6514 49.8318 25.1548 50.0203 23.969V23.9685ZM77.5362 25.9167L77.5345 25.962C77.428 25.9592 69.2922 25.7729 59.2223 30.6549C59.0451 30.7579 58.8707 30.8688 58.6997 30.9854C61.8544 31.9086 64.4599 32.0977 66.3317 32.2256C66.7722 32.2562 67.1639 32.2828 67.5037 32.315L67.7833 32.3388C68.9989 32.4418 70.6997 32.6354 72.7022 32.9931C74.1912 31.1694 75.99 30.0328 77.2004 29.764C78.6289 30.2989 79.3581 31.1326 79.8773 32.3218C81.8555 33.1516 83.1803 34.6114 84.0528 36.3564C88.6308 38.3494 93.2326 41.3001 96.7502 45.6703C93.0645 37.1494 86.3514 29.9994 77.5367 25.9173L77.5362 25.9167ZM56.5585 32.8771C55.7256 33.7975 55.0406 34.7693 54.5253 35.5861C55.5711 36.674 57.5685 38.7643 58.5582 39.8771C60.2674 40.9056 61.9818 42.0201 63.682 43.2115C66.3889 40.1641 68.7939 37.6923 71.1662 35.2102C70.014 35.0461 68.8206 34.9091 67.5761 34.8027L67.2676 34.7772C66.9471 34.745 66.5763 34.7212 66.1618 34.6923C64.0302 34.5485 60.6422 34.2853 56.5585 32.8777V32.8771ZM35.0248 34.9238C34.0295 34.9221 33.1853 34.9589 32.545 35.0036C29.3359 38.5339 26.7491 42.7089 24.9928 47.3995C28.9266 43.3179 34.8436 38.9777 41.4163 40.2625C41.936 39.3399 42.462 38.4167 42.9404 37.5785C40.8875 36.233 39.6051 35.2578 36.0682 34.9402C35.7047 34.93 35.356 34.925 35.0242 34.9244L35.0248 34.9238ZM85.1042 39.405C86.2784 44.6651 84.9456 50.6406 84.9456 50.6406C84.9456 50.6406 87.8065 52.2962 88.5012 55.4529C88.504 55.4546 88.8828 55.6153 89.1834 56.08C89.9828 57.0604 91.0025 59.3216 89.3629 63.7672C89.3629 63.7672 88.3902 61.6921 86.331 63.9262C86.1533 64.1736 85.9823 64.4187 85.8136 64.6604C89.7349 70.0551 92.722 75.6853 94.2427 81.1814C95.9871 78.3224 97.394 75.1929 98.3757 71.8228C99.7413 67.1322 100.169 62.3929 99.786 57.7979C98.7902 53.2092 95.5483 44.7568 85.1047 39.4056L85.1042 39.405ZM49.1558 40.3044C48.0971 40.8105 46.9364 41.3997 45.8182 42.0467C48.9678 44.1121 51.3118 47.6056 53.0952 51.7081C55.5994 50.8392 57.3284 50.8211 57.3284 50.8211C59.0105 48.6827 60.563 46.8063 62.0209 45.1117C60.3377 43.9349 58.6437 42.834 56.9536 41.8225C55.1 41.1557 50.6743 40.5127 49.1564 40.305L49.1558 40.3044ZM38.7445 42.5057C31.8537 42.7355 25.7639 49.924 23.3056 53.255C21.5873 61.6152 22.7276 69.9946 26.1206 77.2957C27.9437 75.5869 29.6971 73.8192 31.3656 72.0571C31.2348 66.5084 31.9799 61.1584 33.6037 56.0455C34.9665 51.7596 36.8003 48.137 38.7524 45.1179C39.0491 44.5326 39.5445 43.6162 40.1328 42.5549C39.6674 42.5051 39.2042 42.4899 38.7445 42.5051V42.5057ZM43.4873 43.5398C42.8979 43.9672 42.3646 44.4047 41.9162 44.8451C37.4112 51.1805 34.2038 59.4541 33.8936 69.33C38.7054 64.0338 42.6652 59.1264 45.3664 56.5272C47.2382 54.7289 49.1297 53.4984 50.8424 52.655C49.0511 48.5253 46.6856 45.1513 43.4873 43.5392V43.5398ZM84.3177 66.9273C81.7943 71.0264 80.5539 74.8827 80.4129 81.6484C80.3353 85.3547 82.1623 88.2097 83.5189 92.6162C86.8797 90.2497 89.877 87.3443 92.3624 83.9753C91.2454 78.4419 88.3364 72.5909 84.3177 66.9273Z" fill="#236192"/>
<path d="M77.0914 31.452C76.3475 31.4305 75.3918 32.0967 74.2198 34.2306C76.7206 31.5528 78.9218 33.278 78.9218 33.278C78.654 32.6424 78.0482 31.4792 77.0914 31.4514V31.452ZM53.6599 31.9807L48.2926 34.6738C48.2926 34.6738 44.4512 34.3569 42.4316 34.298C44.2734 35.4855 45.8723 36.8502 45.8723 36.8502L43.4972 40.7891L48.5627 38.0349C48.5627 38.0349 51.7593 38.5732 54.6705 39.1669C53.0071 37.2662 50.9831 35.8608 50.9831 35.8608L53.6599 31.9801V31.9807ZM55.8204 55.1576C52.895 56.6191 48.4959 61.0029 48.4959 61.0029C50.6168 59.5601 55.0244 58.9098 55.0244 58.9098C55.1155 57.1019 55.8204 55.1582 55.8204 55.1582V55.1576Z" fill="#78BE20"/>
<path d="M61.1647 17.4089C39.5251 17.4089 20.9779 33.5949 18.018 55.0556C16.7889 63.9671 18.3 72.8355 22.2943 80.6868C22.7942 80.2708 23.2919 79.8451 23.7839 79.4144C20.1191 72.008 18.7472 63.6813 19.9022 55.3149C22.7314 34.7881 40.47 19.3108 61.1647 19.3108C63.0715 19.3108 65.0044 19.4432 66.9096 19.7058C77.9278 21.2245 87.705 26.9538 94.4396 35.8409C101.175 44.7263 104.048 55.6873 102.528 66.7021C100.853 78.8569 93.9487 89.2394 84.3012 95.6887C84.4314 96.3356 84.5469 97.0166 84.6426 97.7315C95.102 91.0298 102.618 79.9657 104.413 66.9619C106 55.4439 102.996 43.9831 95.9535 34.6924C88.9115 25.4012 78.6899 19.4104 67.1689 17.8233C65.1782 17.5487 63.1576 17.4084 61.1641 17.4084L61.1647 17.4089ZM80.2134 35.4792C80.3 35.7509 80.2027 36.7063 80.1251 37.4586C80.1251 37.4586 80.1183 37.4473 80.1138 37.4427C78.3677 37.7597 74.5189 37.325 73.2705 36.6696C68.5379 41.7445 63.3784 48.8045 59.495 55.29C57.8118 58.7184 56.1603 62.7422 55.7487 66.011C55.7487 66.011 55.2125 64.5326 55.0863 62.5611C52.9365 63.3909 45.6335 66.9789 44.0697 77.9835C44.0697 77.9835 48.7129 73.195 53.8452 71.3282C53.8452 71.3282 50.5943 79.8395 56.7989 94.9223C56.7989 94.9223 59.3105 85.6729 64.5628 83.3403C67.7441 99.1341 77.0695 99.3922 79.7894 110.139C79.7894 110.139 82.6383 104.572 79.209 95.1108C79.209 95.1108 80.3923 95.4396 81.3939 96.6215C81.3939 96.6215 81.2382 93.8548 78.6508 87.8832C76.9647 84.6863 76.4354 80.3738 76.4354 80.3738C74.9209 81.7453 74.5342 86.3799 74.5342 86.3799C69.9046 73.8227 83.0448 61.3798 85.4426 59.5436C86.614 58.6459 87.3347 58.6323 87.7712 58.8469C88.2219 57.9129 88.1817 57.3135 87.6393 56.9235C87.6393 56.9235 87.41 56.7673 87.3596 56.7413C85.9651 55.997 83.4655 58.1654 81.8344 59.0631C80.2038 59.9608 77.827 61.8745 76.6664 59.2391C75.5057 56.6037 78.1752 52.4814 79.0992 49.8884C81.1391 44.1529 81.2138 40.7777 80.7824 38.9512C82.6678 41.0788 83.2606 45.1588 83.2606 45.1588C83.2606 45.1588 83.9615 37.4982 80.2146 35.4809L80.2134 35.4792ZM39.3632 79.222C39.3632 79.222 30.6034 85.6395 21.6455 86.1529C21.6455 86.1529 30.5105 88.241 34.2586 86.7099C33.8985 86.4744 33.496 86.1348 33.0962 85.6254C33.0962 85.6254 36.7169 83.295 39.3434 79.2684C39.3484 79.2536 39.3569 79.2367 39.3626 79.2214L39.3632 79.222Z" fill="#9EA2A2"/>
<path d="M65.7914 6.59259L65.5779 8.19894L67.6235 8.47065L66.8637 14.2027L68.5118 14.4223L69.2716 8.68858L71.3172 8.96025L71.5295 7.35502L65.7919 6.5937L65.7914 6.59259ZM51.5873 7.24802L51.3501 7.28765L49.2819 15.2216L51.084 14.9103L52.1138 11.0172L54.3785 14.3425L56.1937 14.0295L51.5873 7.24802ZM76.223 8.57989L74.1174 15.6784L75.7106 16.1504L77.8162 9.05363L76.223 8.5793V8.57989ZM44.1212 8.971L38.7568 11.1411L39.3637 12.6422L41.2757 11.869L43.4464 17.2287L44.9875 16.6072L42.8173 11.2453L44.7293 10.4721L44.1218 8.971H44.1212ZM83.4134 10.9877L79.9507 17.6164L81.4159 18.3823L83.0108 15.3274L83.7661 18.1564L83.9569 18.2572L86.7074 17.2559L85.1113 20.3107L86.5896 21.0827L90.0512 14.4535L89.8275 14.3369L84.9505 16.117L83.637 11.1372L83.6274 11.1009L83.4134 10.9877ZM33.642 14.4212C31.541 14.4212 29.8379 16.1238 29.8379 18.2243C29.8379 20.3249 31.541 22.0263 33.642 22.0263C35.7431 22.0263 37.4466 20.3249 37.4466 18.2243C37.4466 16.1238 35.7431 14.4212 33.642 14.4212ZM33.642 16.1493C34.7891 16.1493 35.7176 17.0776 35.7176 18.2243C35.7176 19.3694 34.7891 20.2999 33.642 20.2999C32.4949 20.2999 31.5664 19.3694 31.5664 18.2243C31.5664 17.0776 32.4949 16.1493 33.642 16.1493ZM95.0091 18.127L93.9243 19.375L93.1849 20.2258L93.1255 20.2937L92.1013 21.4728L91.222 22.4865L90.1367 23.7334L91.385 24.8179L92.4681 25.7581C92.942 26.1702 93.498 26.3977 94.0772 26.4164C94.7622 26.4379 95.4162 26.1509 95.8685 25.6285C96.2654 25.1728 96.4545 24.5966 96.4155 24.0057C96.8333 23.8931 97.2172 23.6553 97.5212 23.3061C97.9877 22.7701 98.1779 22.1095 98.0562 21.4524C97.9577 20.9175 97.6627 20.433 97.1798 20.0141L96.2581 19.2121L95.0097 18.1275L95.0091 18.127ZM95.1716 20.4584L96.095 21.2605C96.4828 21.5973 96.5406 21.912 96.2722 22.2216C95.9421 22.6014 95.5294 22.3829 95.2407 22.1322L94.3727 21.3788L95.1716 20.4579V20.4584ZM24.7797 21.3595L24.6337 21.3624C23.8059 21.3873 23.0252 21.7931 22.3141 22.568C21.8657 23.0582 21.5916 23.6372 21.5401 24.2004C21.4778 24.8598 21.7213 25.4604 22.2427 25.9375C23.0495 26.6762 23.9979 26.7254 25.1415 26.0881L25.9376 25.6477C26.3503 25.4156 26.6175 25.3274 26.8383 25.5311C27.1027 25.7711 27.0388 26.1113 26.6515 26.5409C26.6487 26.5454 26.6447 26.5505 26.6402 26.5533C26.1272 27.1126 25.5463 27.155 25.1551 27.1381L25.0136 27.1318L24.833 28.9776L24.9898 28.9855C25.6052 29.0184 26.81 28.8859 27.9526 27.6362C27.9633 27.6237 27.9735 27.6124 27.9843 27.6016C28.5646 26.9558 28.8743 26.3168 28.906 25.7021C28.9394 25.0625 28.6739 24.4823 28.1179 23.9729C27.293 23.2184 26.395 23.2031 25.1172 23.9179L24.2255 24.416C23.8971 24.6017 23.7074 24.6091 23.5246 24.4409C23.3105 24.2445 23.3502 23.9429 23.6299 23.6327C23.6316 23.631 23.6316 23.6299 23.6327 23.6282C23.9531 23.2789 24.3059 23.0995 24.7446 23.065L24.8924 23.0542L24.7803 21.3607L24.7797 21.3595ZM93.3542 22.5578L94.3733 23.4431C94.7928 23.8059 94.8913 24.2389 94.6252 24.544C94.3591 24.8479 93.9305 24.8355 93.5563 24.5106L92.4732 23.5687L93.3536 22.5578H93.3542ZM102.955 25.8017L97.1486 30.3972L100.272 34.3435L101.568 33.3173L99.4767 30.6746L100.449 29.9059L102.25 32.1807L103.547 31.1557L101.745 28.8808L102.702 28.1229L104.794 30.7657L106.08 29.748L102.955 25.8017ZM17.3278 28.291L14.536 32.4768L20.6965 36.5838L23.4895 32.3981L22.1148 31.48L20.2436 34.2846L19.212 33.5981L20.8228 31.1828L19.447 30.2659L17.8368 32.6805L16.8205 32.0041L18.6906 29.1995L17.3273 28.291H17.3278ZM109.053 34.5773L102.412 37.8495L103.145 39.3404L106.219 37.8263L104.119 41.3152L104.995 43.0903C104.995 43.0903 106.514 40.533 106.622 40.3643C107.257 41.0362 108.3 41.1267 109.224 40.6728C110.61 39.989 111.046 38.6175 110.276 37.057L109.053 34.5761V34.5773ZM108.326 36.7893L108.795 37.7419C109.13 38.424 108.973 38.8966 108.369 39.1943C107.758 39.4954 107.277 39.337 106.941 38.6549L106.471 37.7023L108.325 36.7893H108.326ZM11.6129 37.8495L10.9794 39.3998L14.557 40.8607L9.34088 43.2391L9.24009 43.4888L16.1525 46.3138L16.7786 44.7821L13.1846 43.315L18.4245 40.9269L18.5253 40.6756L11.6129 37.85V37.8495ZM113.218 43.654L106.595 48.0514L106.657 48.3079L111.115 49.3437L107.616 52.2819L107.678 52.54L115.577 53.4332L115.165 51.7289L111.363 51.2806L114.49 48.6593L114.43 48.408L110.445 47.4713L113.629 45.364L113.217 43.6546L113.218 43.654ZM7.59877 49.6901L7.34117 51.3429L11.1583 51.9389L6.63062 55.4556L6.58985 55.7233L13.9676 56.8774L14.2241 55.2411L10.3894 54.6416L14.9358 51.1119L14.9782 50.8442L7.59877 49.6901ZM85.1923 53.1236C85.5569 53.6873 85.5694 54.4662 85.5269 54.9643C86.0161 54.8437 86.3824 54.8256 86.6541 54.8437C86.5737 54.6196 86.4214 54.2828 86.148 53.9505C85.759 53.4779 85.1923 53.1236 85.1923 53.1236ZM81.3282 53.869C81.7353 55.0735 81.6486 56.2927 81.5501 56.9691C82.1202 56.5769 82.6377 56.2537 83.1099 55.9893C83.0233 55.7844 82.8914 55.4912 82.6904 55.1358C82.3139 54.4594 81.3282 53.869 81.3282 53.869ZM112.162 57.487C110.061 57.487 108.358 59.1902 108.358 61.2907C108.358 63.3912 110.061 65.0921 112.162 65.0921C114.263 65.0921 115.967 63.3918 115.967 61.2907C115.967 59.1902 114.263 57.487 112.162 57.487ZM112.162 59.2162C113.309 59.2162 114.238 60.1445 114.238 61.2913C114.238 62.4363 113.309 63.3663 112.162 63.3663C111.015 63.3663 110.087 62.4369 110.087 61.2913C110.087 60.1445 111.015 59.2162 112.162 59.2162ZM13.8753 61.3966L6.47266 61.5737L6.51229 63.2355L13.9138 63.0589L13.8748 61.3971L13.8753 61.3966ZM14.2054 67.4926L6.88766 69.0384L6.94088 69.2863L11.4165 71.9167L8.40783 76.0984L8.38575 76.1284L8.43613 76.3656L15.7539 74.8204L15.4125 73.2026L12.0409 73.9147L13.7457 71.534L13.6998 71.3218L11.1775 69.8359L14.5508 69.1239L14.206 67.4932L14.2054 67.4926ZM107.929 68.9926L106.807 73.7992L108.448 74.1824L109.193 70.994L114.763 72.293L115.142 70.6736L107.93 68.9926H107.929ZM113.288 78.247L105.096 78.6178L105.007 78.8413L110.682 84.7591L111.362 83.0622L108.585 80.1443L112.603 79.9576L113.288 78.247ZM102.284 84.5044L99.5928 88.7575L100.989 89.6399L102.792 86.7923L103.839 87.454L102.288 89.9071L103.685 90.7907L105.238 88.3381L106.27 88.9901L104.468 91.8389L105.851 92.7146L108.542 88.4615L102.284 84.5044H102.284ZM98.5341 92.3874C98.4016 92.3874 97.2149 92.397 96.4047 92.791C95.9795 92.997 95.6092 93.2602 95.3069 93.5642C94.9196 93.953 94.6462 94.4098 94.5171 94.896C94.3031 95.7099 94.5386 96.5618 95.1308 97.1222C95.7004 97.6582 96.4998 97.8286 97.2715 97.5767C97.5263 97.4935 97.8247 97.3469 98.1695 97.1771C98.5748 96.9784 99.1874 96.6637 99.4699 96.6473C100.152 96.6071 100.135 97.5886 99.2627 98.0154C98.9389 98.1716 98.3846 98.3335 98.0958 98.3703L98.3048 100.037C98.4186 100.023 99.4269 99.8866 100.144 99.4451C101.369 98.6884 101.609 97.7227 101.641 97.2139C101.673 96.7339 101.472 96.0252 100.954 95.5271C100.516 95.1066 99.9263 94.9119 99.2944 94.977C98.7135 95.0375 98.0307 95.3743 97.4278 95.6703C97.1634 95.7994 96.8916 95.9335 96.7484 95.9805C96.5621 96.0411 96.4041 96.015 96.283 95.9007C96.1692 95.7932 96.0724 95.586 96.1403 95.3256C96.2439 94.9385 96.6159 94.5547 97.1373 94.3017C97.4867 94.1313 98.1779 94.0674 98.5307 94.0674L98.5335 92.388L98.5341 92.3874Z" fill="white"/>
</g>
<defs>
<clipPath id="clip0_38_1038">
<rect width="122" height="122" fill="white"/>
</clipPath>
</defs>
</svg>
