<svg width="123" height="92" viewBox="0 0 123 92" fill="none" xmlns="http://www.w3.org/2000/svg">
<g clip-path="url(#clip0_38_1044)">
<path d="M50.6009 7.07692C50.6608 7.1369 50.7805 7.1369 50.8404 7.19687C47.966 7.43677 45.0916 7.73664 42.3969 8.15645C43.5265 7.22565 44.8942 6.63102 46.3445 6.44017C47.7949 6.24933 49.2696 6.46995 50.6009 7.07692ZM80.6622 8.15645C77.9076 7.73664 75.0931 7.37679 72.2187 7.19687C72.2786 7.1369 72.3385 7.1369 72.4582 7.07692C73.7863 6.45526 75.264 6.2266 76.7175 6.41785C78.171 6.60911 79.5396 7.21232 80.6622 8.15645ZM122.401 35.2047L122.82 35.3246V28.3677C122.795 27.2629 122.593 26.1694 122.221 25.1291C121.863 24.0418 121.316 23.0266 120.604 22.1304C119.979 21.3048 119.255 20.5595 118.449 19.9113C117.735 19.3331 116.95 18.8493 116.113 18.472C115.574 18.1121 114.496 17.5724 111.622 16.4928C109.226 15.5332 105.274 14.0339 100.244 12.5346C94.5982 10.8613 88.8596 9.51963 83.0576 8.5163C82.9977 8.45632 78.5663 2.87875 71.9193 5.7575C71.6798 5.87744 71.4402 5.99739 71.2007 6.11734C70.6782 6.44155 70.091 6.64716 69.4806 6.71969C68.8702 6.79222 68.2514 6.72991 67.6676 6.53716C66.6496 6.29726 65.392 5.63755 65.931 3.41851C66.0114 3.10533 66.1535 2.81138 66.3489 2.55391C66.5443 2.29644 66.789 2.08064 67.0687 1.91917C67.2647 1.80134 67.4826 1.72464 67.709 1.69371C67.9355 1.66278 68.1659 1.67827 68.3862 1.73924C69.2844 1.97914 69.7036 2.5189 69.524 3.23859C69.5109 3.3816 69.4595 3.51843 69.3752 3.63456C69.2909 3.7507 69.1767 3.84184 69.0449 3.89831C68.8935 3.95639 68.7288 3.97032 68.5698 3.93848C68.4108 3.90663 68.2641 3.83032 68.1467 3.71838C67.9864 3.61164 67.7912 3.57077 67.6017 3.60427C67.4121 3.63777 67.2427 3.74306 67.1286 3.89831C67.0363 4.05259 67.0035 4.23543 67.0366 4.41224C67.0697 4.58906 67.1664 4.7476 67.3083 4.85789C67.6228 5.11232 67.9986 5.27949 68.398 5.34264C68.7974 5.4058 69.2063 5.36272 69.5838 5.21773C69.9235 5.04224 70.2219 4.79639 70.4594 4.49653C70.6968 4.19666 70.8679 3.84964 70.9612 3.47849C71.021 2.93872 71.1408 1.07953 68.8054 0.419817C68.4013 0.273322 67.9686 0.224132 67.542 0.276227C67.1155 0.328322 66.7072 0.480239 66.3502 0.719687C65.9049 0.97787 65.5163 1.32343 65.2076 1.73565C64.8989 2.14787 64.6765 2.61826 64.5537 3.11864V3.17862C64.338 2.87909 64.0976 2.59822 63.8351 2.33898L61.4996 0L59.2241 2.33898C58.9596 2.59644 58.7191 2.87748 58.5055 3.17862V3.11864C58.2353 2.11816 57.5923 1.25954 56.709 0.719687C56.3512 0.481922 55.943 0.331015 55.5168 0.278959C55.0906 0.226903 54.6581 0.275133 54.2538 0.419817C51.8584 1.07953 52.0381 2.93872 52.098 3.47849C52.1695 3.85852 52.3323 4.21542 52.5722 4.51842C52.8122 4.82142 53.1221 5.06142 53.4753 5.21773C53.8425 5.36454 54.2426 5.40862 54.6329 5.34523C55.0232 5.28185 55.3889 5.11339 55.691 4.85789C55.7702 4.81118 55.8393 4.74914 55.8943 4.6754C55.9494 4.60165 55.9892 4.51768 56.0115 4.42836C56.0338 4.33905 56.0381 4.24618 56.0242 4.15518C56.0103 4.06418 55.9784 3.97685 55.9305 3.89831C55.8164 3.74306 55.647 3.63777 55.4574 3.60427C55.2679 3.57077 55.0727 3.61164 54.9125 3.71838C54.7928 3.82665 54.6462 3.90053 54.4881 3.9322C54.33 3.96387 54.1662 3.95216 54.0142 3.89831C53.8815 3.8347 53.7645 3.74262 53.6713 3.6286C53.5782 3.51459 53.5113 3.38143 53.4753 3.23859C53.3555 2.5189 53.7148 2.03911 54.6131 1.73924C55.078 1.61615 55.5725 1.68076 55.9904 1.91917C56.5388 2.26405 56.9432 2.79698 57.1282 3.41851C57.6671 5.63755 56.3497 6.29726 55.3915 6.53716C53.6549 7.01695 52.8166 6.59713 51.7985 6.11734C51.5861 5.98484 51.3661 5.86469 51.1398 5.7575C44.4928 2.93872 40.0615 8.45632 40.0016 8.5163L39.9417 8.57627C34.3629 9.53432 28.8444 10.8159 23.4139 12.4146C18.0198 13.9961 12.7381 15.9396 7.60478 18.2321L6.64665 18.6519V18.7718C6.28735 18.8918 5.86817 19.0117 5.44899 19.1917C3.95191 19.8514 2.51471 20.5711 1.07752 21.2907L-0.000378071 21.8305V25.6688C-0.0211895 26.4625 0.164545 27.2479 0.53857 27.9478C0.638613 28.053 0.719661 28.1748 0.778103 28.3077V32.5059C0.317658 33.3531 0.0709665 34.3002 0.0595051 35.2647C0.0311596 36.1214 0.283535 36.964 0.778103 37.6636V46.4198L0.897869 46.6597C1.40137 47.8972 2.15654 49.0162 3.11533 49.9454C4.07413 50.8747 5.21556 51.5939 6.467 52.0574L6.34724 52.1173C6.34724 52.1173 8.56291 55.6558 11.9164 56.3755L11.2577 56.6754C12.9197 59.0919 15.4527 60.7688 18.3239 61.3533L17.6053 61.7132C19.7008 63.7475 22.3825 65.0694 25.2703 65.4915C27.7293 73.1881 32.5664 79.9032 39.0835 84.6677C45.6007 89.4323 53.4608 91.9998 61.5296 91.9998C69.5983 91.9998 77.4584 89.4323 83.9756 84.6677C90.4927 79.9032 95.3298 73.1881 97.7888 65.4915C100.656 65.0593 103.316 63.7379 105.394 61.7132L104.735 61.3533C109.346 60.5137 111.742 56.6754 111.742 56.6754L111.083 56.3755C114.496 55.6558 116.652 52.1173 116.652 52.1173L116.892 51.8175C118.676 51.0791 120.205 49.8338 121.29 48.2351C122.376 46.6364 122.97 44.7544 123 42.8214V38.3833C122.986 37.297 122.783 36.2213 122.401 35.2047Z" fill="#B4975A"/>
<path d="M119.227 32.2062L121.263 33.0458V28.3679C121.254 27.4478 121.092 26.5356 120.783 25.669C120.458 24.7445 119.993 23.8749 119.406 23.0902C118.83 22.3728 118.188 21.7103 117.49 21.111C116.829 20.5997 116.104 20.1764 115.334 19.8516C114.915 19.5517 113.897 19.0119 111.082 17.9324C108.687 16.9728 104.795 15.5335 99.7645 14.0341C91.5605 11.5752 79.2246 8.69642 66.2898 8.45653C66.1397 8.01968 65.8785 7.62955 65.5319 7.32457C65.1854 7.0196 64.7655 6.81029 64.3137 6.71728C64.1861 5.45944 63.6125 4.28909 62.6968 3.41872L61.4992 2.21924L60.3015 3.41872C59.4331 4.31591 58.8856 5.47575 58.7445 6.71728C58.2809 6.79847 57.8475 7.00263 57.4894 7.30852C57.1314 7.61441 56.8617 8.01083 56.7085 8.45653C44.0732 8.69642 31.9169 11.5152 23.8327 13.9142C18.5083 15.4819 13.288 17.3849 8.20317 19.6117V20.5713C8.1385 20.539 8.07815 20.4987 8.02352 20.4513C7.77033 20.3776 7.50863 20.3373 7.24503 20.3314C6.85312 20.33 6.46536 20.4118 6.10725 20.5713C4.67006 21.231 3.23286 21.9507 1.79567 22.6703L1.55613 22.7903V25.669C1.53969 26.192 1.66377 26.7098 1.91543 27.1684C2.0361 27.3624 2.17658 27.5433 2.33461 27.7082V32.8659C1.88708 33.5877 1.63908 34.4156 1.61602 35.2649C1.59531 35.5993 1.64903 35.9343 1.7733 36.2454C1.89757 36.5566 2.08929 36.8362 2.33461 37.0641V46.1202C2.84279 47.3093 3.62206 48.3627 4.60998 49.1959C5.5979 50.0291 6.76698 50.6189 8.02352 50.9181C8.127 50.9088 8.23098 50.9296 8.32293 50.978H8.38281C9.11036 51.1347 9.85526 51.1952 10.5985 51.158C9.82001 51.5178 9.10141 51.8777 8.32293 52.2975C8.32293 52.3574 10.5985 56.0758 16.0479 55.5361C15.1496 55.9559 14.2514 56.3757 13.3531 56.8555C13.3531 56.9155 15.9281 60.5739 21.6769 60.4539C20.3594 61.1136 19.581 61.5335 19.581 61.5335C21.4945 63.2684 23.9493 64.2857 26.5274 64.4122C28.798 71.9395 33.4276 78.5348 39.7313 83.2225C46.0349 87.9103 53.6777 90.4413 61.5291 90.4413C69.3805 90.4413 77.0233 87.9103 83.327 83.2225C89.6306 78.5348 94.2602 71.9395 96.5308 64.4122C99.1049 64.2678 101.554 63.2529 103.477 61.5335C103.477 61.5335 102.639 61.1136 101.321 60.4539C107.07 60.5739 109.705 56.9155 109.705 56.8555C108.807 56.3757 107.909 55.9559 107.01 55.5361C112.46 56.0758 114.735 52.3574 114.735 52.2975C113.957 51.8777 113.238 51.5178 112.46 51.158C114.05 51.2513 115.632 50.876 117.011 50.0784C119.885 48.4591 121.502 45.4604 121.502 42.8216V38.3835C121.502 35.5048 119.227 32.2062 119.227 32.2062Z" fill="#002B5C"/>
<path d="M85.8131 67.5308C86.5317 68.0106 87.1904 68.5504 87.909 69.0901C87.909 69.0302 79.7649 71.3092 73.9562 68.7903C73.7693 68.6666 73.5682 68.566 73.3574 68.4904C72.6378 71.0779 71.092 73.3583 68.9563 74.983C66.8206 76.6076 64.2124 77.4872 61.5304 77.4872C58.8485 77.4872 56.2403 76.6076 54.1046 74.983C51.9689 73.3583 50.4231 71.0779 49.7035 68.4904C49.4734 68.5651 49.2524 68.6657 49.0448 68.7903C43.296 71.3092 35.1519 69.0302 35.1519 69.0901C35.8705 68.5504 36.5292 68.0106 37.1879 67.5308C34.7733 67.8405 32.3202 67.6153 30.002 66.8711C32.5687 73.1334 36.9367 78.4899 42.5508 82.2597C48.1648 86.0295 54.7713 88.0423 61.5304 88.0423C68.2896 88.0423 74.8961 86.0295 80.5101 82.2597C86.1241 78.4899 90.4922 73.1334 93.0589 66.8711C90.7207 67.6183 88.2475 67.8435 85.8131 67.5308Z" fill="#E31837"/>
<path d="M58.1464 11.9945C57.533 11.6913 57.0455 11.1818 56.7691 10.5552C36.3489 11.035 15.9288 18.4118 15.9886 18.7116C15.6254 18.8158 15.301 19.025 15.0559 19.3131C14.8109 19.6011 14.6563 19.9552 14.6113 20.3309V21.0506C28.5021 15.6115 43.2359 12.6481 58.1464 12.2944V11.9945Z" fill="white"/>
<path d="M108.329 19.1914C108.389 18.8916 86.9511 11.035 66.2914 10.5552C65.9968 11.1694 65.5143 11.6737 64.9141 11.9945V12.2944C80.2662 12.753 95.4222 15.8781 109.707 21.5304V20.8107C109.645 20.4412 109.484 20.0955 109.242 19.8103C108.999 19.5251 108.684 19.3112 108.329 19.1914Z" fill="white"/>
<path d="M63.7763 8.33655C62.4589 8.15663 62.2194 10.0158 62.1595 10.6755H61.7403C61.8002 8.87631 62.6385 8.15663 62.6385 6.95715C62.6385 5.75767 61.5008 4.61816 61.5008 4.61816C61.5008 4.61816 60.4229 5.75767 60.4229 6.95715C60.4229 8.15663 61.2612 8.87631 61.2612 10.6755H60.842C60.842 10.0158 60.6025 8.15663 59.2851 8.33655C57.8479 8.4565 58.0275 10.4956 59.2851 10.6156C59.2851 10.6156 59.0456 9.71595 59.7642 9.71595C60.2432 9.71595 60.4229 10.3757 60.4229 10.6755H59.824V11.3952H61.2013C61.1622 11.576 61.0826 11.7455 60.9685 11.8909C60.8543 12.0364 60.7087 12.154 60.5426 12.2349C60.6043 12.3455 60.6903 12.4408 60.794 12.5135C60.8977 12.5862 61.0165 12.6345 61.1415 12.6547C61.1557 12.9689 61.2834 13.2673 61.5008 13.4943C61.7182 13.2673 61.8458 12.9689 61.8601 12.6547C62.1255 12.605 62.3615 12.4546 62.5188 12.2349C62.3527 12.154 62.2071 12.0364 62.093 11.8909C61.9788 11.7455 61.8992 11.576 61.8601 11.3952H63.2374V10.6755H62.6385C62.6385 10.3757 62.7583 9.71595 63.2973 9.71595C64.0159 9.71595 63.7763 10.6156 63.7763 10.6156C65.0339 10.4956 65.2135 8.4565 63.7763 8.33655Z" fill="#E31837"/>
<path d="M54.7921 28.9675C54.7964 29.2574 54.735 29.5445 54.6125 29.8071C54.4699 30.0016 54.3095 30.1823 54.1334 30.3469C53.9534 30.4821 53.7505 30.5836 53.5346 30.6468C53.3338 30.7617 53.1071 30.8236 52.8759 30.8267C52.6348 30.8366 52.3934 30.8164 52.1573 30.7667C51.9448 30.7236 51.7419 30.6424 51.5584 30.5268C51.3548 30.3914 51.1898 30.2054 51.0794 29.9871C50.9501 29.7482 50.888 29.4788 50.8997 29.2074V18.1122C50.888 17.8408 50.9501 17.5714 51.0794 17.3326C51.2051 17.1077 51.3669 16.905 51.5584 16.7328C51.7499 16.5997 51.9499 16.4795 52.1573 16.373C52.391 16.304 52.6323 16.2637 52.8759 16.253C53.0971 16.2432 53.3187 16.2634 53.5346 16.313C53.747 16.3561 53.9499 16.4373 54.1334 16.5529C54.337 16.6883 54.502 16.8743 54.6125 17.0927C54.7417 17.3315 54.8038 17.6009 54.7921 17.8723V28.9675ZM57.2473 22.1305V17.6924C57.263 17.1312 57.1395 16.5749 56.888 16.0731C56.6858 15.624 56.3516 15.2473 55.9299 14.9936C55.5387 14.664 55.0601 14.4556 54.5526 14.3938C54.004 14.2624 53.4376 14.2219 52.8759 14.2739C52.2843 14.2756 51.6972 14.377 51.1392 14.5738C50.6365 14.7473 50.1697 15.0115 49.7619 15.3534C49.3602 15.7034 49.0341 16.132 48.8038 16.6129C48.5588 17.1169 48.4357 17.6716 48.4445 18.2322V22.6702C48.2244 22.7369 48.0307 22.8713 47.891 23.0542C47.7513 23.2372 47.6726 23.4595 47.666 23.6898C47.6659 23.9085 47.7445 24.1199 47.8875 24.2852C48.0306 24.4504 48.2283 24.5585 48.4445 24.5894V29.5073C48.4289 30.0685 48.5523 30.6248 48.8038 31.1266C49.0393 31.5531 49.3666 31.9219 49.7619 32.2061C50.1849 32.4674 50.6515 32.6503 51.1392 32.7459C51.7113 32.8579 52.2975 32.8781 52.8759 32.8058C53.4474 32.7989 54.0139 32.6976 54.5526 32.506C55.0517 32.3523 55.5185 32.1084 55.9299 31.7863C56.3297 31.4582 56.6562 31.0495 56.888 30.5868C57.1331 30.0828 57.2561 29.528 57.2473 28.9675V23.9897C57.4793 23.9582 57.692 23.8437 57.8462 23.6673C58.0003 23.4909 58.0854 23.2645 58.0857 23.0301C58.0932 22.7995 58.0092 22.5754 57.8521 22.4068C57.6949 22.2382 57.4775 22.1388 57.2473 22.1305Z" fill="white"/>
<path d="M10.3593 34.0653C10.3593 34.0653 10.3593 34.1253 10.2994 34.0653V34.0053C10.1796 33.8254 7.30526 24.1096 7.12561 23.6898C7.00584 23.27 6.88607 23.0301 6.88607 22.9701C6.86337 22.8521 6.79974 22.7459 6.70642 22.6703C6.56422 22.6645 6.42216 22.6849 6.28724 22.7302C5.38899 23.15 4.55063 23.5699 3.65238 23.9897V24.8293C3.65089 25.0353 3.69166 25.2395 3.77215 25.4291C3.89192 25.549 3.9518 25.6689 4.07157 25.6689C4.19878 25.7441 4.34309 25.7854 4.49075 25.7889V33.1657C4.27463 33.3033 4.09236 33.4881 3.95755 33.7062C3.82275 33.9243 3.7389 34.17 3.71227 34.4251C3.70211 34.5232 3.71719 34.6223 3.75606 34.7128C3.79493 34.8034 3.85631 34.8825 3.93434 34.9427C4.01237 35.0028 4.10447 35.0419 4.20186 35.0563C4.29925 35.0707 4.3987 35.0599 4.49075 35.0249V45.4603C5.14946 45.1005 5.80818 44.8006 6.46689 44.4408V31.4264C6.4638 31.3611 6.48516 31.2969 6.52677 31.2465C6.52677 31.3065 6.52677 31.3065 6.58666 31.3065C6.6438 31.5534 6.724 31.7943 6.82619 32.0262C6.94596 32.446 9.82035 41.9219 9.82035 42.0418C9.87721 42.2311 9.95769 42.4125 10.0599 42.5816C10.1796 42.7615 10.2994 42.7615 10.4791 42.7015C10.9581 42.4616 11.4372 42.2817 11.8564 42.1018C11.9488 42.0774 12.0346 42.0324 12.1072 41.97C12.1798 41.9077 12.2373 41.8297 12.2756 41.742C12.3779 41.6014 12.44 41.4355 12.4552 41.2622V31.4264C12.6436 31.2984 12.8006 31.1295 12.9147 30.9321C13.0288 30.7348 13.0969 30.5143 13.1139 30.2869C13.1235 30.1979 13.1131 30.1079 13.0834 30.0235C13.0537 29.9391 13.0055 29.8624 12.9423 29.7991C12.8791 29.7358 12.8025 29.6875 12.7182 29.6578C12.6339 29.628 12.5441 29.6176 12.4552 29.6272V22.3704C12.4395 22.2665 12.4607 22.1604 12.5151 22.0705C12.575 21.9506 12.6349 21.8906 12.6947 21.7706C12.8418 21.6105 12.963 21.4284 13.054 21.2309C13.1765 20.9895 13.2382 20.7219 13.2337 20.4512V19.7915C12.2756 20.1513 11.3174 20.5712 10.3593 20.991V34.0653Z" fill="white"/>
<path d="M106.891 34.1849C106.891 34.2449 106.891 34.2449 106.831 34.2449C106.825 34.1994 106.804 34.1573 106.772 34.125L106.412 32.6856C106.233 32.0259 105.993 31.1862 105.754 30.2866C105.514 29.327 105.215 28.3675 104.975 27.3479C104.676 26.3283 104.436 25.4287 104.197 24.5891C103.957 23.6895 103.718 23.0298 103.598 22.43C103.418 21.8303 103.358 21.5304 103.358 21.5304C103.315 21.3545 103.234 21.1905 103.119 21.0506C103.059 20.9307 102.879 20.8707 102.7 20.8107C101.801 20.5109 100.903 20.211 100.005 19.9111V20.7508C99.9805 20.9776 100.022 21.2067 100.125 21.4105C100.193 21.5952 100.273 21.7755 100.364 21.9502C100.484 22.0702 100.664 22.1901 100.783 22.3101V28.0676C100.683 28.052 100.58 28.0593 100.482 28.089C100.385 28.1188 100.295 28.1701 100.221 28.2393C100.146 28.3085 100.088 28.3937 100.05 28.4886C100.013 28.5835 99.9973 28.6856 100.005 28.7873C100.026 29.0282 100.109 29.2595 100.245 29.4591C100.381 29.6587 100.567 29.8198 100.783 29.9268V38.3831C101.502 38.623 102.22 38.8029 102.939 39.0428V27.3479C102.939 27.4079 102.939 27.4079 102.999 27.4678C103.063 27.752 103.143 28.0323 103.238 28.3075C103.358 28.9072 103.598 29.5669 103.837 30.4066C104.077 31.2462 104.316 32.2058 104.616 33.1654C104.855 34.1849 105.155 35.0845 105.394 35.9841C105.634 36.8238 105.813 37.6034 105.993 38.2032C106.082 38.5727 106.202 38.9339 106.352 39.2827C106.396 39.5524 106.477 39.8148 106.592 40.0624C106.628 40.158 106.684 40.2449 106.757 40.3172C106.829 40.3896 106.916 40.4458 107.011 40.4822C107.49 40.6621 107.909 40.842 108.388 41.022C108.568 41.0819 108.748 41.0819 108.808 40.962C108.865 40.9214 108.911 40.8673 108.942 40.8046C108.974 40.7418 108.989 40.6723 108.987 40.6021V32.8055C109.075 32.8099 109.163 32.7958 109.244 32.7642C109.326 32.7326 109.401 32.6842 109.463 32.622C109.525 32.5599 109.573 32.4854 109.605 32.4033C109.636 32.3213 109.65 32.2336 109.646 32.1458C109.623 31.9117 109.552 31.6847 109.439 31.4786C109.326 31.2724 109.172 31.0914 108.987 30.9463V25.3688C108.987 25.1888 108.987 25.1289 109.047 25.0689C109.097 25.0152 109.158 24.9741 109.227 24.9489C109.395 24.8685 109.536 24.7403 109.631 24.5803C109.727 24.4204 109.774 24.2357 109.766 24.0493V23.3896C108.828 22.9775 107.868 22.6171 106.891 22.3101V34.1849Z" fill="white"/>
<path d="M118.927 36.0441C118.626 35.3921 118.265 34.7697 117.849 34.1849C117.483 33.6593 117.083 33.1585 116.651 32.6855C116.711 32.6256 116.711 32.5656 116.711 32.4456C116.69 32.1584 116.596 31.8813 116.439 31.6401C116.282 31.3989 116.067 31.2014 115.813 31.0662C115.618 31.0059 115.409 31.0059 115.214 31.0662C115.153 30.9524 115.072 30.8508 114.974 30.7664C114.555 30.2866 114.196 29.8668 113.897 29.4469C113.646 29.118 113.5 28.7208 113.477 28.3074V24.4691C113.472 24.32 113.513 24.1728 113.597 24.0493C113.717 23.9293 113.897 23.9293 114.016 23.8694H114.555C114.735 23.9293 114.915 23.9893 115.094 24.0493C115.286 24.1259 115.467 24.2267 115.633 24.3492C115.813 24.4691 115.992 24.649 116.172 24.769C116.33 24.9339 116.471 25.1148 116.591 25.3087C116.683 25.4947 116.724 25.7015 116.711 25.9085V26.8081C116.732 27.2217 116.879 27.619 117.13 27.9476C117.355 28.3349 117.688 28.6477 118.088 28.8472C118.458 28.9819 118.819 29.1422 119.166 29.327V27.5278C119.159 26.9358 119.058 26.3487 118.867 25.7885C118.64 25.2302 118.337 24.7056 117.969 24.2292C117.597 23.7464 117.175 23.3041 116.711 22.9098C116.227 22.5529 115.705 22.2511 115.154 22.0102C114.649 21.7409 114.103 21.5585 113.537 21.4704C113.114 21.4147 112.684 21.4557 112.28 21.5904C111.922 21.7499 111.627 22.0242 111.441 22.37C111.233 22.8628 111.131 23.3942 111.142 23.9293V27.108C111.131 27.7716 111.274 28.4288 111.561 29.0271C111.863 29.6215 112.225 30.1841 112.639 30.7064C113.066 31.2537 113.526 31.7745 114.016 32.2657C114.016 32.3857 113.956 32.5056 113.956 32.6256C113.978 32.9128 114.071 33.1899 114.228 33.4311C114.385 33.6724 114.601 33.8698 114.855 34.005C114.966 34.072 115.095 34.1022 115.224 34.0915C115.353 34.0807 115.475 34.0294 115.573 33.945C115.952 34.3956 116.292 34.8771 116.591 35.3844C116.841 35.868 116.984 36.3998 117.01 36.9437V41.5017C117.01 41.7416 116.951 41.9215 116.831 41.9815C116.707 42.1186 116.536 42.2042 116.352 42.2214C116.157 42.2741 115.954 42.2943 115.753 42.2814C115.573 42.2214 115.334 42.1614 115.154 42.1014C114.921 41.9832 114.701 41.8426 114.495 41.6816C114.282 41.5403 114.081 41.3797 113.897 41.2018C113.736 40.996 113.595 40.7751 113.477 40.5421C113.364 40.3625 113.301 40.155 113.298 39.9424V38.8629C113.29 38.5211 113.186 38.1884 112.998 37.9033C112.745 37.5856 112.416 37.3378 112.04 37.1836C111.621 37.0037 111.262 36.8837 110.902 36.7038V38.563C110.9 39.1615 111.022 39.7538 111.262 40.3022C111.466 40.8533 111.771 41.3616 112.16 41.8016C112.538 42.2807 112.982 42.7046 113.477 43.061C114.015 43.4161 114.575 43.7366 115.154 44.0206C115.665 44.2623 116.211 44.4241 116.771 44.5004C117.202 44.6209 117.657 44.6209 118.088 44.5004C118.486 44.3889 118.828 44.1321 119.046 43.7807C119.256 43.3306 119.359 42.8379 119.346 42.3413V37.9632C119.345 37.3009 119.202 36.6465 118.927 36.0441Z" fill="white"/>
<path d="M37.0674 25.5487C36.9477 26.3883 36.8279 27.228 36.768 28.0676C36.6483 28.9072 36.5285 29.6269 36.4686 30.2866C36.4087 30.9464 36.3488 31.4861 36.289 31.846C36.2649 32.0487 36.2248 32.2493 36.1692 32.4457C35.9895 31.3062 35.8099 30.2866 35.6302 29.387C35.5105 28.4874 35.3308 27.4679 35.1512 26.3284C34.9715 25.2488 34.732 24.1093 34.5523 23.0298C34.3727 21.9503 34.193 20.9307 34.0134 20.0311C33.8337 19.1315 33.6541 18.3518 33.5343 17.8121C33.5343 17.6921 33.3547 17.5722 33.1151 17.5122C32.8389 17.4522 32.553 17.4522 32.2768 17.5122C32.0113 17.5959 31.7513 17.696 31.4983 17.8121C31.2738 17.9501 31.1044 18.1622 31.0192 18.4118C30.837 19.1832 30.6971 19.9641 30.6001 20.7508C30.4204 21.7703 30.2408 22.8499 30.0012 23.9894C29.8216 25.1889 29.6419 26.3883 29.4623 27.5878C29.2826 28.7873 29.103 29.9268 28.9233 30.8864C28.8036 31.9059 28.6239 32.9855 28.4443 34.2449C28.3844 34.2449 28.3844 34.065 28.3245 33.7052C28.2646 33.3453 28.2047 32.8055 28.1448 32.2058C28.0251 31.6061 27.9652 30.8864 27.8454 30.1067C27.7855 29.3271 27.6658 28.5474 27.546 27.7078C27.3664 25.7886 26.528 18.8916 26.528 18.8916C25.5699 19.1915 24.5519 19.4913 23.5937 19.7912V20.5109C23.5796 20.7259 23.6434 20.9389 23.7734 21.1106C23.8606 21.2443 23.9857 21.3487 24.1327 21.4105C24.1926 21.4705 24.3123 21.4705 24.3722 21.5304C24.4321 21.6504 24.4321 21.7104 24.492 21.8303C24.7315 23.8095 24.9112 25.6087 25.1507 27.228C24.9717 27.3466 24.8239 27.5066 24.7197 27.6945C24.6155 27.8824 24.5579 28.0926 24.5519 28.3075C24.5443 28.4092 24.5599 28.5113 24.5972 28.6062C24.6346 28.7011 24.6929 28.7863 24.7677 28.8555C24.8425 28.9246 24.932 28.976 25.0294 29.0057C25.1268 29.0355 25.2297 29.0428 25.3303 29.0272C25.3302 29.0351 25.3317 29.043 25.3346 29.0503C25.3376 29.0576 25.342 29.0643 25.3476 29.0699C25.3532 29.0755 25.3598 29.0799 25.3671 29.0829C25.3745 29.0858 25.3823 29.0873 25.3902 29.0872C25.4501 30.0467 25.5699 30.9464 25.6896 31.786C25.8094 32.6856 25.8693 33.4653 25.9891 34.1849C26.0489 34.8447 26.1687 35.4444 26.2286 35.8642C26.2313 36.1052 26.2513 36.3458 26.2885 36.5839C26.2873 36.6457 26.3036 36.7066 26.3353 36.7596C26.3671 36.8127 26.4131 36.8557 26.4681 36.8838C26.528 37.0037 26.6478 37.0037 26.8274 37.0037C27.7257 36.7638 28.6239 36.464 29.582 36.284C29.755 36.2417 29.9051 36.1343 30.0012 35.9842C30.093 35.8305 30.1731 35.6701 30.2408 35.5044C30.9594 31.3662 31.6181 27.2879 32.3367 23.1497C32.9954 26.9281 33.6541 30.7664 34.3727 34.5448C34.4394 34.6919 34.5196 34.8324 34.6122 34.9646C34.7451 35.0182 34.8889 35.0387 35.0314 35.0246C35.9895 34.8447 36.8878 34.6647 37.786 34.4848C37.9438 34.4417 38.088 34.3591 38.2052 34.2449C38.265 34.1115 38.3054 33.9701 38.325 33.8251C38.325 33.7651 38.3849 33.5252 38.4447 33.0454C38.5046 32.6256 38.5645 32.0259 38.6843 31.2462C38.7442 30.5265 38.8639 29.6869 38.9238 28.7873C39.0436 27.8277 39.1633 26.8681 39.2831 25.9085V25.7886C39.5197 25.7219 39.7287 25.5812 39.8796 25.3869C40.0304 25.1926 40.1152 24.9551 40.1215 24.7091C40.1254 24.5369 40.0669 24.3691 39.9568 24.2367C39.8467 24.1044 39.6925 24.0165 39.5226 23.9894C39.7023 22.1902 39.9418 20.331 40.1814 18.2319C40.1938 18.1044 40.2347 17.9815 40.3011 17.872C40.361 17.8121 40.4808 17.7521 40.5407 17.6321C40.6891 17.5196 40.8116 17.3764 40.9 17.2123C41.0223 16.9925 41.0842 16.7442 41.0796 16.4926V15.7729C40.0616 15.8929 39.1035 16.0728 38.0854 16.2527C38.0854 16.2527 37.2471 23.5096 37.0674 25.5487Z" fill="white"/>
<path d="M95.3326 29.9869C95.2995 30.0159 95.2569 30.0318 95.2129 30.0318C95.1688 30.0318 95.1263 30.0159 95.0931 29.9869L92.7577 29.4471C92.6978 29.3871 92.578 29.3272 92.5181 29.2672C92.4698 29.1751 92.449 29.071 92.4583 28.9673C92.4627 28.8256 92.4827 28.6848 92.5181 28.5475C92.5946 28.231 92.6545 27.9107 92.6978 27.5879C92.7577 27.2281 92.8176 26.8082 92.8774 26.2685C92.9972 25.7887 93.0571 25.3089 93.1769 24.7691C93.4164 23.4497 93.6559 22.0703 93.8955 20.7509H93.9553C94.1949 22.2502 94.4344 23.6896 94.6739 25.189C94.783 25.724 94.863 26.2645 94.9135 26.8082C95.0332 27.348 95.0931 27.8278 95.153 28.2476C95.2129 28.6674 95.2728 29.0273 95.3326 29.2672C95.3644 29.4052 95.3844 29.5456 95.3925 29.687C95.4082 29.7909 95.387 29.897 95.3326 29.9869ZM97.7879 28.0677C97.7667 27.8268 97.684 27.5954 97.5476 27.3959C97.4113 27.1963 97.2259 27.0352 97.0094 26.9282C96.8896 26.2685 96.7698 25.6088 96.6501 24.9491C96.4704 23.9895 96.3507 23.2098 96.2309 22.4302C96.1111 21.7105 95.9914 21.1107 95.9315 20.6309C95.8716 20.1511 95.8117 19.9112 95.8117 19.7913C95.7703 19.4839 95.6461 19.1937 95.4524 18.9517C95.2196 18.6663 94.9067 18.4574 94.5542 18.3519C93.4164 18.112 92.3385 17.8122 91.2606 17.5723V18.112C91.2606 18.8317 91.4402 19.3115 91.8594 19.5514C91.9792 19.6114 91.9792 19.6714 91.9792 19.7913V20.1511C91.9236 20.3476 91.8835 20.5481 91.8594 20.7509C91.7995 21.1107 91.6798 21.5905 91.56 22.1903C91.4402 22.79 91.3205 23.4497 91.1408 24.2294C91.0809 24.5892 91.0211 25.009 90.9612 25.3689C90.8496 25.3356 90.7318 25.329 90.6172 25.3496C90.5026 25.3701 90.3944 25.4173 90.3013 25.4872C90.2081 25.5572 90.1326 25.648 90.0809 25.7524C90.0291 25.8568 90.0024 25.972 90.0031 26.0886C90.0025 26.2967 90.0578 26.5011 90.1631 26.6804C90.2684 26.8598 90.42 27.0075 90.6019 27.1081C90.1228 29.5071 89.0449 35.2646 89.0449 35.2646C89.8234 35.3845 90.6019 35.5644 91.3205 35.7444C91.3205 35.7444 92.0391 31.8461 92.0391 31.7261C92.099 31.4262 92.2187 31.3063 92.4583 31.3663C93.4164 31.6062 94.3146 31.8461 95.2728 32.086L95.6321 32.2659C95.7374 32.4048 95.7999 32.5716 95.8117 32.7457C95.8117 32.8056 96.3507 37.0638 96.3507 37.0638C97.189 37.3037 97.9675 37.5436 98.8059 37.7835C98.8059 37.7835 97.7879 31.7861 97.3088 28.7874C97.4601 28.7425 97.591 28.646 97.6785 28.5145C97.766 28.3829 97.8047 28.2248 97.7879 28.0677Z" fill="white"/>
<path d="M65.3322 20.2112C65.3586 20.6784 65.2325 21.1415 64.9729 21.5306C64.8435 21.7053 64.6696 21.842 64.4695 21.9264C64.2694 22.0108 64.0502 22.0398 63.8351 22.0104H62.2781C62.2182 22.0104 62.0985 21.9504 62.0386 21.9504C61.9787 21.8904 61.9787 21.8305 61.9787 21.7105V16.5528C61.9717 16.5039 61.9761 16.454 61.9917 16.4072C62.0073 16.3603 62.0336 16.3177 62.0684 16.2828C62.1033 16.2479 62.1458 16.2216 62.1926 16.206C62.2394 16.1904 62.2892 16.1859 62.338 16.1929H63.8351C64.0537 16.187 64.2707 16.2328 64.4684 16.3265C64.6661 16.4203 64.8389 16.5595 64.9729 16.7327C65.2323 17.1442 65.3578 17.6261 65.3322 18.1121V20.2112ZM68.1467 30.6466C68.0566 30.6018 67.9754 30.5408 67.9071 30.4667C67.8473 30.4667 67.8473 30.3468 67.8473 30.1668V26.0286C67.8404 25.4562 67.7392 24.8888 67.5478 24.3494C67.3745 23.9016 67.0851 23.5083 66.7095 23.2099C66.5298 23.0299 66.5298 22.85 66.6496 22.7301C67.0078 22.4637 67.2956 22.1137 67.488 21.7105C67.7325 21.2709 67.8565 20.7743 67.8473 20.2711V18.352C67.8351 17.8043 67.7547 17.2603 67.6077 16.7327C67.4545 16.251 67.2106 15.8031 66.8891 15.4133C66.5446 15.0206 66.1142 14.7127 65.6316 14.5137C65.0517 14.3129 64.4474 14.1919 63.8351 14.1538C62.0985 14.1538 60.4217 14.1538 58.6851 14.2138V14.8735C58.6656 15.1455 58.7282 15.4172 58.8648 15.6532C58.973 15.8215 59.1159 15.9646 59.284 16.073C59.3438 16.073 59.4037 16.1329 59.4636 16.1929C59.4894 16.2916 59.5094 16.3917 59.5235 16.4928V22.0704C59.2978 22.1047 59.093 22.222 58.9491 22.3995C58.8051 22.5769 58.7324 22.8017 58.745 23.03C58.7526 23.2464 58.8341 23.4537 58.9757 23.6174C59.1173 23.781 59.3106 23.8912 59.5235 23.9296V32.3259H61.9787V24.3494C61.9787 24.1095 62.0985 23.9895 62.2781 23.9895H63.8351C64.0537 23.9836 64.2707 24.0294 64.4684 24.1231C64.6661 24.2169 64.8389 24.3561 64.9729 24.5293C65.2325 24.9184 65.3586 25.3815 65.3322 25.8487V31.1864C65.3276 31.353 65.3571 31.5187 65.4188 31.6734C65.4806 31.8282 65.5734 31.9686 65.6915 32.086C65.9629 32.3077 66.2995 32.4341 66.6496 32.4459C67.3083 32.4459 68.0269 32.5058 68.6856 32.5058V31.6062C68.7082 31.3717 68.6443 31.1371 68.506 30.9465C68.4016 30.8293 68.2806 30.7283 68.1467 30.6466Z" fill="white"/>
<path d="M75.9312 25.9685C75.7992 26.0349 75.6893 26.1382 75.6148 26.266C75.5404 26.3938 75.5047 26.5405 75.512 26.6882C75.512 26.8082 75.5719 30.8864 75.512 30.9464C75.4521 31.0663 75.3323 31.0663 75.2126 31.0663C74.494 31.0063 73.7754 30.9464 73.0568 30.8864C72.937 30.8864 72.8771 30.8264 72.8172 30.7065C72.7684 30.5932 72.7479 30.4697 72.7573 30.3466C72.6975 25.9085 72.6975 21.4705 72.6975 16.9724C72.7071 16.851 72.7271 16.7306 72.7573 16.6126C72.8172 16.5526 72.8771 16.4926 72.937 16.4926C73.1051 16.3843 73.248 16.2411 73.3562 16.0728C73.4945 15.8823 73.5584 15.6476 73.5358 15.4131V14.6934C72.1585 14.5735 70.7812 14.4535 69.4039 14.3936V15.1132C69.3915 15.3656 69.454 15.6161 69.5835 15.8329C69.7078 15.9875 69.8484 16.1283 70.0027 16.2527L70.1824 16.4327C70.2423 16.4926 70.2423 16.6126 70.2423 16.7925V22.3101C70.0261 22.341 69.8283 22.4491 69.6853 22.6143C69.5423 22.7796 69.4636 22.991 69.4638 23.2097C69.4704 23.44 69.5491 23.6623 69.6888 23.8453C69.8285 24.0283 70.0221 24.1626 70.2423 24.2293V32.6256C72.4579 32.7456 74.6736 32.9855 76.8294 33.2254C77.0091 33.2254 77.1887 33.2853 77.3085 33.2853C77.3828 33.2979 77.4591 33.2937 77.5316 33.2729C77.6042 33.2522 77.6711 33.2154 77.7276 33.1654C77.7861 33.1126 77.8325 33.0477 77.8635 32.9753C77.8945 32.9028 77.9095 32.8244 77.9073 32.7456V26.0885C77.548 26.0285 77.2486 25.9685 76.8893 25.9085C76.5687 25.8946 76.2475 25.9147 75.9312 25.9685Z" fill="white"/>
<path d="M21.8577 20.3312H21.6781C19.163 21.1708 16.6479 22.0705 14.1328 23.03V23.7497C14.1331 23.9946 14.1736 24.2377 14.2526 24.4694C14.3576 24.5696 14.4791 24.6508 14.6119 24.7093C14.6582 24.7102 14.7038 24.7214 14.7452 24.7421C14.7866 24.7629 14.8229 24.7926 14.8514 24.8293C14.9113 24.8293 14.9113 24.9492 14.9113 25.1291V30.5867C14.7026 30.7269 14.529 30.9135 14.4044 31.132C14.2797 31.3505 14.2073 31.595 14.1927 31.8462C14.185 31.9401 14.1988 32.0345 14.2331 32.1223C14.2674 32.21 14.3213 32.2887 14.3906 32.3524C14.46 32.416 14.5429 32.463 14.6332 32.4896C14.7234 32.5162 14.8186 32.5218 14.9113 32.5059V40.9023C15.1508 40.8423 15.3305 40.7223 15.57 40.6624C16.6479 40.2426 17.7258 39.8827 18.8037 39.4629C19.2828 39.3429 19.7618 39.163 20.181 39.0431C20.5403 38.9231 20.8996 38.8032 21.2589 38.6832C21.3787 38.6233 21.5583 38.5633 21.6781 38.5033H21.738C21.7979 38.5033 21.8577 38.4433 21.9176 38.4433C21.9775 38.3834 22.0973 38.3234 22.1572 38.2034C22.2771 38.073 22.3416 37.9009 22.3368 37.7236V32.5659C21.9775 32.6858 21.6182 32.8058 21.3188 32.9257C20.9675 33.0116 20.64 33.1756 20.3607 33.4055C20.2389 33.5072 20.1429 33.6362 20.0804 33.7822C20.018 33.9281 19.9909 34.0867 20.0014 34.2452C20.0014 34.3051 20.0612 36.884 20.0014 37.004C19.9733 37.059 19.9304 37.1051 19.8774 37.1369C19.8245 37.1687 19.7637 37.185 19.7019 37.1839C19.4025 37.3038 19.1031 37.4238 18.8037 37.5437C18.3845 37.6637 17.9653 37.8436 17.5462 37.9635C17.3665 38.0235 17.2467 37.9635 17.2467 37.7236V32.0861C17.2385 31.9761 17.2704 31.8669 17.3365 31.7787C17.4026 31.6905 17.4983 31.6292 17.606 31.6063C18.5642 31.2465 19.5223 30.9466 20.4804 30.5867C20.5831 30.5774 20.6781 30.5284 20.7453 30.45C20.8124 30.3715 20.8463 30.27 20.8397 30.1669V28.7875C20.8389 28.7411 20.8277 28.6955 20.807 28.654C20.7862 28.6125 20.7565 28.5762 20.72 28.5476H20.4804C19.5223 28.8475 18.5642 29.2073 17.606 29.5072C17.3665 29.6272 17.2467 29.5672 17.2467 29.3273V24.2295C17.2704 24.1238 17.3108 24.0225 17.3665 23.9296C17.4264 23.8697 17.5462 23.8097 17.606 23.7497C18.3845 23.5098 19.1031 23.21 19.8816 22.9701C19.9415 22.9701 19.9415 22.9701 20.0014 23.03C20.0612 23.09 20.0014 25.6689 20.0014 25.7888C20.0014 26.1487 20.1211 26.3286 20.3607 26.3886C20.6872 26.3766 21.0101 26.3159 21.3188 26.2087C21.6636 26.1283 22.0035 26.0282 22.3368 25.9088V20.6911C22.3379 20.6292 22.3217 20.5683 22.2899 20.5153C22.2582 20.4623 22.2122 20.4193 22.1572 20.3912C22.0674 20.3367 21.9615 20.3155 21.8577 20.3312Z" fill="white"/>
<path d="M86.9497 16.6729C86.8898 16.6729 86.8898 16.6129 86.8299 16.6129H86.77C84.1951 16.1331 81.5602 15.6533 78.9254 15.2935V16.0131C78.9059 16.2852 78.9685 16.5568 79.105 16.7928C79.1294 16.8854 79.1743 16.9713 79.2366 17.044C79.2988 17.1167 79.3767 17.1744 79.4643 17.2126L79.7038 17.4525C79.7702 17.5619 79.8112 17.6849 79.8236 17.8124V23.33C79.7128 23.3273 79.6026 23.3472 79.4996 23.3884C79.3967 23.4297 79.3032 23.4914 79.2249 23.5699C79.1465 23.6484 79.0848 23.7421 79.0436 23.8452C79.0024 23.9482 78.9826 24.0586 78.9852 24.1696C79.0021 24.4057 79.0918 24.6306 79.2421 24.8133C79.3923 24.996 79.5955 25.1273 79.8236 25.1892V33.5855C80.0033 33.6455 80.2428 33.6455 80.4224 33.7055C81.5602 33.8854 82.698 34.0653 83.8358 34.2452C84.3148 34.3052 84.7939 34.4251 85.273 34.4851C85.638 34.5364 85.9985 34.6166 86.3509 34.725C86.4706 34.725 86.6503 34.785 86.77 34.785H87.0096C87.094 34.7939 87.1788 34.7726 87.2491 34.725C87.3076 34.6722 87.354 34.6074 87.385 34.5349C87.416 34.4624 87.431 34.384 87.4287 34.3052V29.1474C87.0694 29.0875 86.7102 29.0275 86.4107 28.9675C86.0942 28.907 85.7691 28.907 85.4526 28.9675C85.1532 29.0275 85.0334 29.2074 85.0334 29.6272C85.0334 29.6872 85.0933 32.2661 85.0334 32.3261C84.9735 32.446 84.8538 32.446 84.734 32.446C84.4346 32.386 84.1352 32.3261 83.8358 32.2661C83.3911 32.2206 82.9506 32.1404 82.5183 32.0262C82.3387 32.0262 82.2189 31.9062 82.2189 31.6663V26.0288C82.2189 25.7889 82.3387 25.6689 82.5782 25.7289C83.5962 25.9088 84.5544 26.0288 85.5724 26.2687C85.8119 26.2687 85.9317 26.2087 85.9317 25.9688V24.5894C85.9294 24.4782 85.8868 24.3716 85.8119 24.2895C85.6921 24.2296 85.6323 24.1696 85.5125 24.1696C84.5544 23.9897 83.5962 23.8098 82.5782 23.6298C82.5294 23.6369 82.4796 23.6324 82.4328 23.6168C82.386 23.6012 82.3435 23.5749 82.3087 23.54C82.2738 23.505 82.2475 23.4625 82.2319 23.4156C82.2164 23.3687 82.2119 23.3189 82.2189 23.27V18.1722C82.2339 18.082 82.2756 17.9984 82.3387 17.9323C82.3986 17.8723 82.4585 17.8723 82.5782 17.8723C83.3567 17.9923 84.1352 18.1122 84.9137 18.2922C84.9735 18.2922 84.9735 18.3521 85.0334 18.3521C85.0933 18.4721 85.0334 21.051 85.0334 21.1109C85.0133 21.2766 85.0423 21.4446 85.1168 21.5939C85.1914 21.7433 85.3081 21.8673 85.4526 21.9506C85.7642 22.0903 86.0842 22.2104 86.4107 22.3104C86.7102 22.3704 87.0694 22.4304 87.4287 22.4903V17.2726C87.411 17.1181 87.3486 16.9722 87.2491 16.8528C87.1578 16.7797 87.0571 16.7192 86.9497 16.6729Z" fill="white"/>
<path d="M41.1395 73.948L41.9779 74.7876C42.2174 74.9675 42.5168 75.2674 42.8761 74.9076C42.941 74.8602 42.9919 74.7963 43.0236 74.7224C43.0552 74.6485 43.0663 74.5674 43.0558 74.4877C43.0558 74.3078 42.936 74.1879 42.6366 73.948L41.8581 73.1683L41.1395 73.948ZM41.6186 72.0288L43.3552 73.7081C43.5568 73.8321 43.7197 74.0102 43.8256 74.2222C43.9314 74.4342 43.9759 74.6716 43.954 74.9076C43.8893 75.1786 43.7473 75.4249 43.5452 75.6166C43.3432 75.8083 43.09 75.937 42.8162 75.9871C42.5835 75.989 42.3536 75.9357 42.1454 75.8314C41.9372 75.7272 41.7567 75.575 41.6186 75.3874L40.6604 74.4278L39.6424 75.5073L38.9238 74.8476L41.6186 72.0288Z" fill="white"/>
<path d="M46.23 76.0469L49.344 77.9061L48.9847 78.5058L46.7091 77.1864L46.2899 77.9061L48.4457 79.2255L48.0864 79.8252L45.9306 78.5058L45.4516 79.2855L47.787 80.7248L47.4277 81.3246L44.2539 79.4054L46.23 76.0469Z" fill="white"/>
<path d="M51.6794 78.9258L52.5777 79.2257L51.5597 82.2244L53.5957 82.944L53.416 83.6038L50.4219 82.6442L51.6794 78.9258Z" fill="white"/>
<path d="M65.2122 83.1839C65.1512 83.5268 64.9836 83.8417 64.7331 84.0835C64.4984 84.316 64.2165 84.4952 63.9066 84.6091C63.5966 84.7229 63.2658 84.7686 62.9367 84.7432C61.5593 84.8032 60.6012 84.1434 60.5413 82.764C60.4814 81.3247 61.6192 80.665 62.8169 80.605C63.2959 80.605 64.5535 80.665 65.0924 81.7445L64.0744 81.9244C63.9411 81.7318 63.7615 81.576 63.5522 81.4712C63.3429 81.3664 63.1106 81.316 62.8768 81.3247C62.6979 81.3298 62.5219 81.3705 62.3589 81.4445C62.1959 81.5184 62.0493 81.6241 61.9274 81.7553C61.8056 81.8866 61.7111 82.0408 61.6494 82.209C61.5877 82.3772 61.56 82.556 61.5679 82.735C61.5759 82.914 61.6193 83.0897 61.6957 83.2517C61.772 83.4138 61.8798 83.559 62.0128 83.6789C62.1458 83.7988 62.3012 83.891 62.4701 83.9502C62.639 84.0093 62.8179 84.0343 62.9965 84.0235C63.2532 84.039 63.508 83.9716 63.7236 83.8312C63.9392 83.6909 64.1041 83.485 64.1942 83.2438L65.2122 83.1839Z" fill="white"/>
<path d="M69.5836 80.7848C69.5836 80.7249 69.5238 80.7249 69.4639 80.6649C69.4679 80.6323 69.4646 80.5993 69.4542 80.5682C69.4439 80.537 69.4267 80.5086 69.404 80.485V80.8448L69.2243 82.2242L70.4819 81.8644L69.5836 80.7848ZM68.6854 79.8253L69.7034 79.5254L72.5778 82.704L71.5598 83.0039L71.0208 82.4041L69.1046 83.0039L68.9848 83.7835L67.9668 84.0834L68.6854 79.8253Z" fill="white"/>
<path d="M73.416 78.0862L74.2544 77.6064L77.009 78.4461C77.3683 78.566 77.4282 78.626 77.7875 78.7459C77.548 78.4461 77.4881 78.3261 77.3084 78.0862L76.2904 76.347L77.1288 75.8672L79.1049 79.2257L78.2666 79.7055L75.5119 78.8059C75.2469 78.7451 74.9867 78.6649 74.7334 78.566C74.9131 78.8059 74.973 78.8659 75.1526 79.1058L76.2305 80.965L75.452 81.4448L73.416 78.0862Z" fill="white"/>
<path d="M81.4416 75.7469C81.9206 75.9268 82.3997 75.6269 82.8189 75.2671C82.9387 75.0872 83.4776 74.5474 83.1183 74.1876C82.9387 74.0076 82.6991 74.1276 82.5195 74.2475C82.2246 74.5012 81.9034 74.7223 81.5613 74.9072C81.2619 75.1471 80.4834 75.6269 79.8846 75.0272C79.7561 74.8731 79.6732 74.6862 79.6451 74.4874C79.6152 74.1784 79.6657 73.8668 79.7916 73.5831C79.9175 73.2993 80.1146 73.053 80.3637 72.8681C80.687 72.5067 81.1003 72.2376 81.5613 72.0885C81.8574 72.0245 82.1636 72.0245 82.4596 72.0885L81.9805 72.9281C81.8225 72.8956 81.6595 72.8956 81.5015 72.9281C81.2574 73.0252 81.0339 73.1676 80.8427 73.3479C80.5433 73.6478 80.2439 74.0076 80.5433 74.3075C80.723 74.4874 80.9026 74.3675 81.1422 74.1876C81.3218 74.1276 81.9805 73.6478 82.1003 73.5878C82.5195 73.2879 83.1782 72.9281 83.777 73.5278C84.6154 74.4274 83.5974 75.507 83.2381 75.8068C82.9728 76.1392 82.6148 76.3851 82.2096 76.5133C81.8044 76.6414 81.3703 76.646 80.9625 76.5265L81.4416 75.7469Z" fill="white"/>
<path d="M57.069 57.0953C57.069 57.0953 43.1163 52.4174 49.1645 37.6038C49.1645 37.6038 34.4332 38.2036 14.3125 46.36C14.3125 46.36 12.8753 46.8998 12.0369 47.1996C11.3966 47.4942 10.6986 47.6417 9.99409 47.6313C9.28955 47.6209 8.59623 47.4529 7.96484 47.1397C7.96484 47.1397 26.4687 37.4839 50.1226 35.2049C53.2964 34.965 53.6557 35.3848 52.8772 36.5843C52.1586 37.5438 43.7151 48.3391 57.069 57.0953Z" fill="white"/>
<path d="M44.6721 41.8018C32.7553 43.3611 21.0781 47.4993 21.0781 47.4993C23.0543 51.0377 28.4438 49.5384 28.4438 49.5384C38.564 46.6596 43.0552 45.7001 44.4924 45.4002C44.437 44.1977 44.4972 42.9927 44.6721 41.8018Z" fill="#B4975A"/>
<path d="M44.7935 47.6191C38.3998 48.8658 32.1129 50.6103 25.9902 52.8369C25.9902 52.8369 28.685 55.8955 33.9547 54.3962C38.3262 53.1367 44.0151 51.3375 45.7517 50.7978C45.2989 49.7832 44.9769 48.7151 44.7935 47.6191Z" fill="#B4975A"/>
<path d="M46.5887 52.417C44.7922 53.0167 35.8097 55.9555 32.0371 57.3948C32.0371 57.3948 34.1929 60.3335 40.4806 57.8746C44.8521 56.1354 47.3073 55.1158 48.3253 54.636C47.6853 53.9465 47.1044 53.2042 46.5887 52.417Z" fill="#B4975A"/>
<path d="M49.7627 55.9556C48.1458 56.6153 42.3372 59.1942 38.9238 60.8135C38.9238 60.8135 43.1755 62.9125 48.565 59.614L51.8586 57.3949C51.1235 56.9707 50.4227 56.4894 49.7627 55.9556Z" fill="#B4975A"/>
<path d="M53.4756 58.2349C52.3977 58.8946 47.9663 61.7133 45.8105 63.3326C45.8105 63.3326 49.5233 64.832 53.2959 61.2935C54.4936 60.154 55.1523 59.4943 55.5116 59.0745C54.8168 58.8357 54.1369 58.5553 53.4756 58.2349Z" fill="#B4975A"/>
<path d="M65.9922 57.0953C65.9922 57.0953 79.945 52.4174 73.8968 37.6038C73.8968 37.6038 88.5681 38.2036 108.749 46.36C108.749 46.36 110.186 46.8998 111.024 47.1996C111.654 47.4944 112.342 47.6422 113.037 47.6318C113.732 47.6214 114.416 47.4531 115.036 47.1397C115.036 47.1397 96.5925 37.4839 72.8787 35.2049C69.7648 34.965 69.3456 35.3848 70.184 36.5843C70.8427 37.5438 79.3461 48.3391 65.9922 57.0953Z" fill="white"/>
<path d="M78.3867 41.8018C90.3035 43.3611 101.981 47.4993 101.981 47.4993C99.9447 51.0377 94.6151 49.5384 94.6151 49.5384C84.4948 46.6596 79.9437 45.7001 78.5065 45.4002C78.5535 44.1994 78.5135 42.9968 78.3867 41.8018Z" fill="#B4975A"/>
<path d="M78.2667 47.6191C84.6587 48.8735 90.9449 50.6179 97.07 52.8369C97.07 52.8369 94.3753 55.8955 89.1056 54.3962C84.6742 53.1367 78.9853 51.3375 77.3086 50.7978C77.7614 49.7832 78.0833 48.7151 78.2667 47.6191Z" fill="#B4975A"/>
<path d="M76.4104 52.417C78.2069 53.0167 87.2493 55.9555 91.0219 57.3948C91.0219 57.3948 88.8661 60.3335 82.5784 57.8746C78.147 56.1354 75.7517 55.1158 74.6738 54.636C75.3493 53.9776 75.9334 53.2312 76.4104 52.417Z" fill="#B4975A"/>
<path d="M73.2971 55.9556C74.854 56.6153 80.7226 59.1942 84.076 60.8135C84.076 60.8135 79.8243 62.9125 74.4947 59.614L71.2012 57.3949C71.9362 56.9707 72.637 56.4894 73.2971 55.9556Z" fill="#B4975A"/>
<path d="M69.5849 58.2349C70.6029 58.8946 75.0342 61.7133 77.19 63.3326C77.19 63.3326 73.5371 64.832 69.7645 61.2935C68.5668 60.154 67.9081 59.4943 67.5488 59.0745C68.1477 58.8346 68.8663 58.5947 69.5849 58.2349Z" fill="#B4975A"/>
<path d="M72.9385 65.1916C72.9444 67.4512 72.2811 69.6619 71.0326 71.544C69.784 73.4261 68.0062 74.8951 65.924 75.7653C63.8418 76.6356 61.5486 76.8678 59.3346 76.4328C57.1206 75.9978 55.0851 74.915 53.4855 73.3214C51.8859 71.7278 50.7941 69.6949 50.3481 67.4798C49.9022 65.2648 50.122 62.967 50.98 60.8771C51.8379 58.7872 53.2954 56.999 55.1681 55.7386C57.0408 54.4783 59.2446 53.8024 61.5008 53.7965C62.9997 53.7897 64.4852 54.0793 65.8721 54.6488C67.2589 55.2183 68.5199 56.0564 69.5825 57.1151C70.6452 58.1738 71.4887 59.4323 72.0646 60.8182C72.6405 62.2042 72.9375 63.6904 72.9385 65.1916Z" fill="white"/>
<path d="M70.5418 67.5308C70.5418 69.3219 70.0114 71.0728 69.0178 72.5621C68.0243 74.0513 66.612 75.2121 64.9598 75.8975C63.3075 76.5829 61.4894 76.7623 59.7353 76.4128C57.9813 76.0634 56.3701 75.2009 55.1055 73.9344C53.8409 72.6679 52.9797 71.0542 52.6308 69.2975C52.2819 67.5408 52.461 65.72 53.1453 64.0652C53.8297 62.4104 54.9887 60.996 56.4757 60.0009C57.9627 59.0059 59.711 58.4747 61.4994 58.4747C62.6886 58.4686 63.8671 58.6987 64.9669 59.1517C66.0668 59.6046 67.066 60.2715 67.9069 61.1136C68.7477 61.9557 69.4136 62.9565 69.8658 64.058C70.3181 65.1595 70.5478 66.3398 70.5418 67.5308Z" fill="#B4975A"/>
<path d="M67.5476 73.8279C66.923 73.4022 66.4756 72.7622 66.29 72.0287V71.8488C68.6007 70.8706 70.5481 69.193 71.8591 67.0509C71.623 68.4097 71.1204 69.7082 70.3804 70.8714C69.6403 72.0346 68.6775 73.0395 67.5476 73.8279ZM51.1995 67.0509C52.4955 69.2057 54.4475 70.8874 56.7686 71.8488V72.0287C56.583 72.7622 56.1356 73.4022 55.5111 73.8279C53.2407 72.224 51.6919 69.7895 51.1995 67.0509ZM53.5948 58.2947C53.1157 60.8736 54.1936 63.3325 55.2116 65.5515C55.9169 67.0215 56.4398 68.5723 56.7686 70.1695C55.3899 69.4868 54.1771 68.5103 53.215 67.3085C52.253 66.1067 51.5651 64.7087 51.1995 63.2126C51.5509 61.3904 52.3773 59.6938 53.5948 58.2947ZM64.7331 70.7693C63.9352 71.021 63.1116 71.1819 62.2778 71.2491V54.6963C63.9026 54.8268 65.4778 55.3185 66.8888 56.1356C68.9848 59.1943 67.847 61.8931 66.4697 64.9518C65.6313 66.811 64.7929 68.7302 64.7331 70.7693ZM62.2778 72.7484C63.1296 72.7063 63.9736 72.5654 64.7929 72.3286C64.978 73.2405 65.463 74.064 66.1703 74.6676C64.939 75.2236 63.6232 75.5682 62.2778 75.6871V72.7484ZM58.2657 72.3286C59.085 72.5654 59.929 72.7063 60.7808 72.7484V75.6871C59.4354 75.5682 58.1196 75.2236 56.8884 74.6676C57.5956 74.064 58.0806 73.2405 58.2657 72.3286ZM56.1099 56.1356C57.5424 55.3181 59.1372 54.8267 60.7808 54.6963V71.2491C59.947 71.1819 59.1234 71.021 58.3256 70.7693C58.2657 68.7302 57.4273 66.811 56.589 64.9518C55.2116 61.8931 54.014 59.1943 56.1099 56.1356ZM71.8591 63.2126C71.4731 64.6923 70.7768 66.0728 69.8165 67.262C68.8563 68.4512 67.6541 69.4219 66.29 70.1096C66.6286 68.5343 67.1512 67.0044 67.847 65.5515C68.865 63.3325 69.9429 60.8736 69.4638 58.2947C70.6813 59.6938 71.5077 61.3904 71.8591 63.2126ZM61.4994 52.897C59.074 52.9089 56.7064 53.64 54.6956 54.9982C52.6847 56.3563 51.1205 58.2806 50.2006 60.5282C49.2806 62.7757 49.046 65.2459 49.5264 67.6268C50.0069 70.0078 51.1807 72.1929 52.8999 73.9063C54.6191 75.6198 56.8066 76.7848 59.1863 77.2543C61.5659 77.7239 64.0311 77.4769 66.2708 76.5446C68.5105 75.6123 70.4242 74.0365 71.7705 72.016C73.1168 69.9954 73.8353 67.6208 73.8353 65.1917C73.8331 63.5727 73.512 61.9701 72.8906 60.4755C72.2691 58.981 71.3594 57.6238 70.2136 56.4818C69.0677 55.3398 67.7083 54.4354 66.213 53.8202C64.7177 53.2051 63.1159 52.8914 61.4994 52.897Z" fill="#002B5C"/>
<path d="M65.1519 36.884C65.1519 36.884 65.0921 37.3039 64.8525 37.3039C64.0072 37.0088 63.1863 36.6479 62.3973 36.2243C62.1053 36.0647 61.8252 35.8843 61.559 35.6846C61.559 35.6846 60.9002 36.0444 60.6008 36.2243C59.8312 36.6452 59.0304 37.0061 58.2055 37.3039C57.966 37.3039 57.8462 36.884 57.8462 36.884C57.8462 36.884 54.0137 39.223 54.0137 45.7002C54.0137 50.5581 56.5288 52.7172 56.5288 52.7172L56.8282 54.0966H66.2298L66.5293 52.7172C66.5293 52.7172 69.0443 50.5581 69.0443 45.7002C69.0443 39.223 65.1519 36.884 65.1519 36.884Z" fill="#002B5C"/>
<path d="M67.0096 44.0806C67.0239 42.3893 66.4286 40.7497 65.3329 39.4626C65.3329 39.4626 65.273 40.0624 64.3748 39.4026C63.5415 38.8171 62.5483 38.5029 61.5303 38.5029C60.5124 38.5029 59.5192 38.8171 58.6859 39.4026C57.7876 40.0624 57.7278 39.4626 57.7278 39.4626C56.6321 40.7497 56.0368 42.3893 56.051 44.0806C56.051 45.7599 56.4103 46.5395 56.59 46.7794C57.4283 48.8785 59.2847 50.3779 61.5004 50.3779C62.5802 50.3549 63.6277 50.0044 64.5045 49.3726C65.3812 48.7408 66.0459 47.8575 66.4108 46.8394C66.4707 46.7794 67.0096 45.9998 67.0096 44.0806Z" fill="white"/>
<path d="M63.5955 48.579C63.4305 48.3008 63.3699 47.9728 63.4248 47.654C63.4797 47.3352 63.6464 47.0464 63.895 46.8397C63.895 46.8397 65.931 47.2595 65.9909 44.5607C65.9775 44.2622 66.0616 43.9675 66.2304 43.7211C66.2304 43.7211 65.6915 43.2413 64.5537 44.0809C63.4758 44.9205 62.8171 47.3795 62.2182 46.7797C61.6194 46.24 61.8589 43.0614 61.4996 42.9414C61.2002 43.0614 61.4397 46.24 60.8409 46.7797C60.1822 47.3795 59.5834 44.9205 58.4456 44.0809C57.3078 43.2413 56.8287 43.7211 56.8287 43.7211C56.9607 43.9834 57.0419 44.2682 57.0683 44.5607C57.0683 47.2595 59.1043 46.8397 59.1043 46.8397C59.3547 47.0441 59.527 47.3286 59.5925 47.6454C59.6579 47.9622 59.6124 48.2919 59.4636 48.579C57.0683 46.0001 55.6311 46.3599 56.3497 49.2387C57.0084 52.1174 59.6433 64.4121 60.0624 67.2908C60.0026 69.8097 59.7031 70.7693 59.5834 70.9492L59.3438 71.489L59.6433 72.0288C60.0006 72.5766 60.3015 73.1593 60.5415 73.768L61.4996 76.2869L62.5176 73.768C62.7576 73.1593 63.0585 72.5766 63.4159 72.0288L63.7153 71.489L63.4159 70.9492C63.356 70.7693 63.0566 69.8697 62.9967 67.4108C63.356 64.8319 66.0507 52.1774 66.7095 49.2387C67.4281 46.3599 65.9909 46.0001 63.5955 48.579Z" fill="#002B5C"/>
<path d="M59.8838 61.4131C58.9855 56.8551 58.3268 53.4366 57.7879 50.9777C57.3687 49.1185 58.5065 49.8981 59.1053 51.0376L59.8838 61.4131Z" fill="#E31837"/>
<path d="M63.1758 61.4131C64.0141 56.8551 64.7327 53.4366 65.2717 50.9777C65.6909 49.1185 64.5531 49.8981 63.9543 51.0376L63.1758 61.4131Z" fill="#E31837"/>
<path d="M58.5053 45.9401C58.4252 45.9057 58.3585 45.8461 58.3153 45.7703C58.2721 45.6946 58.2547 45.6068 58.2658 45.5202C58.3256 45.4603 58.3256 45.4003 58.3855 45.3403C58.2589 45.2058 58.1184 45.0852 57.9663 44.9805C57.9663 44.9805 57.7268 46.2999 58.8646 46.18C58.8525 46.071 58.8111 45.9673 58.7448 45.8801C58.6849 45.9401 58.6251 45.9401 58.5053 45.9401Z" fill="#E31837"/>
<path d="M65.033 44.9805C64.9132 45.1004 64.7336 45.2204 64.6737 45.3403C64.6737 45.4003 64.7336 45.4603 64.7336 45.5202C64.7512 45.5594 64.7605 45.6018 64.7609 45.6447C64.7614 45.6877 64.7528 45.7302 64.7359 45.7697C64.719 45.8092 64.6942 45.8447 64.6628 45.874C64.6315 45.9034 64.5944 45.9258 64.5539 45.9401C64.4342 45.9401 64.3743 45.9401 64.3144 45.8801C64.249 45.9766 64.189 46.0767 64.1348 46.18C65.3324 46.2999 65.033 44.9805 65.033 44.9805Z" fill="#E31837"/>
<path d="M62.0979 63.0926C62.4572 56.0157 62.9961 51.0378 62.9961 50.4381C63.0113 50.1531 62.9706 49.8678 62.8764 49.5985L62.4572 50.9179L62.3374 48.5789C62.105 48.2556 61.8219 47.972 61.499 47.7393C61.1904 47.9883 60.9093 48.2698 60.6607 48.5789L60.5409 50.9179L60.1217 49.5985C60.0566 49.8741 60.0166 50.1552 60.002 50.4381C60.002 51.0378 60.6008 56.0157 60.9601 63.0926C61.3194 70.1695 60.481 71.4889 60.481 71.4889C60.8719 72.1416 61.2122 72.8233 61.499 73.528C61.8162 72.8268 62.1762 72.1458 62.5769 71.4889C62.5769 71.4889 61.6787 70.1695 62.0979 63.0926Z" fill="#E31837"/>
<path d="M57.3683 84.3835L56.4102 84.2635L57.009 80.3652L57.9671 80.5452L57.3683 84.3835Z" fill="white"/>
</g>
<defs>
<clipPath id="clip0_38_1044">
<rect width="123" height="92" fill="white"/>
</clipPath>
</defs>
</svg>
