<svg width="122" height="99" viewBox="0 0 122 99" fill="none" xmlns="http://www.w3.org/2000/svg">
<g clip-path="url(#clip0_38_1043)">
<path d="M60.6619 98.4805L52.6412 88.0745C42.437 84.7104 35.3346 75.4967 34.6777 64.7785L29.1172 59.3959C24.3864 61.4323 20.2323 63.589 20.2323 63.589L5.31111 48.6266L11.6004 34.8523L0.353516 20.2602H18.2465L21.7106 12.7238L30.5692 9.15242L31.5525 6.48183L38.7323 9.75892L40.4402 3.79745L41.6115 3.40787C47.2909 1.51788 53.836 0.499641 60.536 0.462341C60.7282 0.449905 62.8579 0.487221 62.9076 0.487221C63.1579 0.487221 64.2034 0.543839 64.2034 0.543839C69.8718 0.81739 75.1958 1.75964 80.0303 3.34568L81.2182 3.73665L82.7906 9.42184L85.3751 7.47103L99.8884 12.6257L103.39 20.263H121.373L110.005 34.9145L116.199 48.4912L101.044 64.0808C101.044 64.0808 95.5448 60.6379 91.7363 59.1279L87.1106 64.4069C86.5893 75.3807 79.1149 85.006 68.6106 88.2375L60.6619 98.4805Z" fill="white"/>
<path d="M60.5399 2.75013L60.4835 7.71051L61.3829 8.62787L61.6816 8.64998L61.6971 10.7875L63.184 10.8306L63.143 8.6975L63.4218 8.68203L64.2626 7.84425L64.0834 2.85513C63.673 2.82086 62.7569 2.78992 62.7569 2.78992L62.8089 7.21094L61.9383 7.21757L61.925 2.77113C61.925 2.77113 61.0234 2.74902 60.5421 2.74902L60.5399 2.75013ZM57.8903 2.86618C57.3881 2.89713 57.0894 2.88829 56.5141 2.95018L56.024 9.13297L55.0626 9.21918L55.6246 3.01097L54.2761 3.14249L53.5116 9.39602L52.5326 9.50434L53.2693 3.26297L51.902 3.45086L50.8609 10.519L51.6542 11.275L53.4629 11.107L54.2429 10.4438L54.8591 10.9787L56.5207 10.8793L57.4888 9.9166L57.8926 2.86618H57.8903ZM66.0061 2.98665C65.7373 3.27734 65.3943 3.50723 65.172 3.80012C65.2992 5.87689 65.4043 7.95919 65.5614 10.0238L66.4409 10.9799L68.8781 11.1434L69.6326 9.99286C69.4279 8.10398 69.0927 6.16426 68.9212 4.14054L68.0373 3.18449L66.0061 2.98555V2.98665ZM70.0618 3.44423L71.1382 11.3755L72.759 11.5767L72.4127 9.24792L73.3873 9.35623L73.8299 11.7458L75.455 12.0265L74.9638 9.1595L74.3952 8.48198L74.7171 8.03546L74.1595 5.14964L73.1572 3.99243L70.0607 3.44644L70.0618 3.44423ZM50.9063 3.59565L47.718 4.24333C47.3993 6.07252 46.1194 12 46.1194 12C47.2633 11.8011 48.4614 11.6308 49.6518 11.4838C49.738 10.992 49.9062 9.89118 49.9062 9.89118L48.2036 10.1399L48.5167 8.50519L50.1761 8.26756C50.2868 7.6652 50.3177 7.44857 50.4184 6.81304C49.6971 6.9081 49.3265 6.96667 48.7192 7.0761L49.019 5.36848L50.6718 5.0579L50.9052 3.59675L50.9063 3.59565ZM75.2647 4.46769C75.2647 4.46769 76.3312 9.65797 76.9197 12.2929L78.6091 12.6234L78.0426 10.1774L79.0814 10.4106L79.7319 12.8676L81.4002 13.2412L80.3869 9.73755L79.7187 9.00366L80.0793 8.48529L79.3104 5.60721C78.5471 5.37621 77.8302 5.17506 77.8302 5.17506L78.5515 8.14598L78.2727 8.53061L77.6941 8.41456C77.6941 8.41456 77.1001 6.0261 76.798 4.86559C76.1199 4.64675 75.2636 4.4688 75.2636 4.4688L75.2647 4.46769ZM66.65 4.48317L67.4819 4.57601L67.9377 9.37723L67.0826 9.30981L66.65 4.48317ZM46.4601 4.5108C45.9235 4.63127 44.8571 4.91422 44.8571 4.91422L44.4488 6.49252C44.4488 6.49252 43.9953 5.63595 43.8072 5.21042C43.295 5.36406 42.8635 5.49448 42.286 5.69011C41.5835 8.20898 40.8656 10.7279 40.1642 13.2456L41.8491 12.861L43.2043 8.21119L43.7397 9.3706L42.9487 12.6024L44.6734 12.2631L46.4601 4.5119V4.5108ZM71.8186 5.2469L72.6373 5.39832L73.0223 7.36457L72.1062 7.25846L71.8186 5.2469ZM5.0625 22.5762L60.6627 94.6775L116.635 22.5784L5.06471 22.5762H5.0625Z" fill="#006BB6"/>
<path d="M112.368 24.6631L60.6695 91.2588L9.3125 24.6617L112.368 24.6631Z" fill="#BEC0C2"/>
<path d="M104.915 29.3054L104.897 29.2612L104.858 29.2363L101.549 27.0148L102.781 24.6633L102.818 24.5915L102.785 24.5169L98.2312 14.5475L98.2008 14.4867L98.1372 14.4632L85.8642 10.0961L85.7799 10.0657L85.7066 10.1209L82.4513 12.6023L82.4181 12.6285L82.4015 12.6699L81.8428 14.0349C81.8428 14.0349 76.7553 12.7584 69.2822 12.0123C68.5203 11.9364 66.4875 11.7691 63.2405 11.5136L62.9252 11.4887L62.5975 11.4638L62.5214 11.4583L62.4675 11.5122L60.0419 13.9258L60.0447 11.4473C60.0447 11.4473 53.1649 11.8355 48.6595 12.4475C44.1555 13.061 39.7234 14.1745 39.7234 14.1745L38.9089 12.4309L38.8826 12.3757L38.8287 12.3508L33.0372 9.70236L32.874 9.62912L32.8132 9.7963L32.1384 11.6282L31.9862 11.2608L31.9226 11.1102L31.7705 11.1723L23.483 14.4908L23.4221 14.5171L23.3931 14.5779L8.10547 48.1334L20.6578 60.6919L21.2427 60.3603C21.6203 60.1448 22.1554 59.827 22.7611 59.4733C24.2795 58.5781 26.3594 57.3554 27.3523 56.876L27.5555 56.7793C28.8402 56.1589 29.486 55.8453 35.5872 53.2369L36.0975 53.0463C36.103 53.0449 36.782 52.781 38.0391 52.3652C41.3898 51.2516 50.0935 48.664 58.5291 48.664H58.6245C58.9619 48.664 59.2965 48.6695 59.634 48.6791C65.3632 48.8366 72.0604 50.0538 76.6682 51.0444C81.103 52.0004 84.4399 52.9178 85.3885 53.1844L86.026 53.3806C90.2217 54.9998 95.3535 57.6759 100.105 60.7168L100.709 61.105L113.415 48.0326L104.915 29.3054Z" fill="#006BB6"/>
<path d="M60.3769 35.2056L60.4134 40.1427L62.4467 40.2157L62.4921 37.4006L60.3769 35.2056ZM63.3628 37.7554C63.3207 38.5821 63.3207 39.7437 63.2654 40.3549C64.6914 40.5218 66.217 40.9894 67.5589 41.3651C68.7736 41.658 70.0791 42.1786 71.1478 42.6539L71.7352 38.4031C68.9164 38.056 66.248 37.8449 63.3628 37.7554ZM57.2649 37.762C55.341 37.8272 53.4304 37.9477 51.5342 38.1268C51.6991 39.2044 51.9458 40.8147 52.115 41.9366C52.115 41.9366 53.8685 40.9109 57.3766 40.5229L57.2637 37.762H57.2649ZM48.0627 38.5158C46.1919 38.7634 44.3378 39.0706 42.5013 39.4265C43.2049 41.7133 44.1021 44.7826 44.8046 47.0926C46.4375 45.8779 47.4199 44.6301 49.1391 43.5845C48.8127 42.0394 48.3802 40.0411 48.0627 38.5158ZM73.5705 38.6263L72.5705 43.5093C74.1635 44.4311 75.4048 45.4723 76.8297 46.8549L77.1085 47.0683L79.3532 39.6509C77.4193 39.2519 75.5431 38.9037 73.5705 38.6252V38.6263ZM38.3118 40.3362C36.2109 40.8435 34.3844 41.3773 32.3378 42.0217C33.6322 45.0954 35.0803 48.263 36.6181 51.2119C38.0153 50.6979 39.9635 49.9961 41.7845 49.5109L38.3118 40.3362ZM83.296 40.5561L79.6507 49.9552L84.9986 51.2119L89.499 42.3223C87.4247 41.647 85.4223 41.0888 83.296 40.5561ZM28.9105 43.149C26.6459 43.957 24.5838 44.7936 22.3933 45.7674L28.5498 54.5144C28.8585 54.2491 31.8953 52.9394 33.9729 52.0618C32.3931 49.2047 30.4936 46.0547 28.9105 43.1479V43.149ZM92.7626 43.4552L87.8318 52.3127C92.0922 53.965 98.0496 57.2996 100.42 58.8901C101.513 57.8456 107.441 51.6296 108.255 50.7753C103.327 47.8861 98.1491 45.4303 92.7626 43.4552ZM16.9968 48.3382C15.6471 49.0378 14.3151 49.7706 13.002 50.5332L20.9772 58.5264C21.9441 57.9462 22.9686 57.3549 24.0948 56.7028L16.9968 48.3382Z" fill="#BEC0C2"/>
<path d="M60.8836 39.2388C47.6606 39.2402 36.9434 49.9487 36.9434 63.1593C36.9434 76.3671 47.6606 87.0742 60.8836 87.0742C74.1052 87.0742 84.8239 76.3671 84.8239 63.1593C84.8239 49.9487 74.1052 39.2402 60.8836 39.2388Z" fill="#006BB6"/>
<path d="M33.8182 11.9678L30.4606 21.5094L25.0784 26.1405L29.9838 13.7693L24.7111 15.8715L10.1777 47.7272L12.4512 50.0051C13.7997 49.2193 15.1671 48.4644 16.5544 47.7449L21.1876 35.9861L25.2543 32.3553L26.2268 33.486L22.2098 45.0282C24.4058 44.0611 26.6416 43.1757 28.9129 42.3733L31.8257 32.856L29.3122 28.7113L34.5151 23.7697L37.5575 13.6456L33.8193 11.9678H33.8182ZM86.0586 12.0197L84.0661 13.5571L87.6749 25.2684L99.2866 33.465L102.262 40.8757L97.4335 38.6995L95.7763 34.0861L89.8532 32.3442L93.0205 42.7668C93.9974 43.126 94.9654 43.4974 95.9267 43.8875C98.563 44.953 101.145 46.1334 103.669 47.4232C105.418 48.3174 107.137 49.2646 108.826 50.2615L111.35 47.6752L103.536 30.4664L91.3279 22.324L89.2038 16.3656L92.9829 17.7085L94.5129 21.4321L100.26 23.2734L96.9069 15.8693L86.0575 12.0208L86.0586 12.0197ZM63.2114 13.2587L60.5728 15.8903L60.564 34.19L63.3342 37.0228C66.1917 37.1112 69.0194 37.3245 71.8128 37.6616L71.2397 32.4393L66.0645 32.1331L65.2326 17.4974L69.619 17.7107L69.1046 13.6798L63.2103 13.2587H63.2114ZM58.0173 13.2698L53.56 13.503L51.4658 37.3997C53.3587 37.2195 55.267 37.0979 57.1898 37.0327L58.0173 13.2698ZM50.9403 13.818L46.8006 14.4203L45.4431 22.2676L43.9043 14.8823L39.0388 16.1003L32.2671 41.2581C34.2198 40.6491 36.1945 40.1009 38.1936 39.6179L41.914 22.702L43.7837 31.7861L42.5756 38.6707C44.3833 38.3237 46.2065 38.0264 48.0485 37.7832L48.0595 37.781L50.9403 13.8191V13.818ZM70.5682 13.8544C70.5682 13.8544 72.6824 29.9657 73.678 37.9026C75.5853 38.1723 77.4737 38.5016 79.3456 38.8851L77.8853 31.1185L79.3411 29.1545L81.4697 30.903L83.4278 39.8147C85.4833 40.3297 87.5134 40.9133 89.5169 41.561L85.8639 28.4913L82.098 25.4154L84.242 22.5572L82.4598 15.9235L77.9162 14.9155L79.7029 21.5923L76.8719 25.3723L74.7777 14.3883L70.5682 13.8555V13.8544ZM60.2575 41.015C58.1866 41.0603 56.1875 41.3101 54.3001 41.9975C55.1088 42.5181 55.7936 42.7005 56.9907 43.4156C58.7441 42.6021 60.5142 41.6682 62.3518 41.0282C61.6459 41.0072 60.9479 41.0006 60.2575 41.015ZM64.6241 41.341C62.4447 41.8981 58.2197 43.9074 58.2197 43.9074C65.3985 45.9146 73.8584 45.5056 79.5005 51.1822C76.1672 45.846 70.4919 42.3391 64.6241 41.341ZM52.9084 42.4595C50.8142 43.3139 48.5751 44.4269 47.0373 45.8361C49.4147 46.1124 50.4325 46.2605 52.3741 46.7877C53.5346 45.7565 54.6575 44.8535 56.0536 44.0179L52.9073 42.4595H52.9084ZM57.0935 44.3805C55.7549 45.1995 54.4495 46.1655 53.3343 47.1679C65.5976 51.0087 76.727 62.9896 79.3777 75.3718C81.3026 72.5965 82.4631 69.3758 82.9322 65.9573C83.2309 60.7062 83.18 55.9271 78.1961 51.3668C72.273 46.1456 64.019 46.8142 57.0946 44.3816L57.0935 44.3805ZM45.8381 46.8065C43.6587 48.7274 41.6021 51.6652 40.6197 54.1399C42.6763 52.0509 45.2363 50.3732 48.4843 51.0982L48.5098 51.1071C49.4346 49.8029 50.3186 48.6843 51.5023 47.547C49.303 46.8618 47.8449 46.8938 45.837 46.8065H45.8381ZM52.5146 47.9317C51.4028 49.0181 50.4137 50.1864 49.5375 51.4198L49.542 51.4519C53.6552 53.2358 54.7338 57.6325 56.2859 63.4605C58.3094 71.0569 60.1945 78.7638 65.9229 84.698C69.1455 83.9309 72.5031 82.5118 75.551 79.774C76.4913 78.8346 77.8952 77.5226 78.4793 76.5788C76.4781 64.0938 64.7823 51.3878 52.5157 47.9305L52.5146 47.9317ZM47.1347 51.9924C43.9142 51.9316 41.4771 54.32 39.5543 57.0003C37.053 65.8014 40.3763 74.8656 45.952 79.543C41.6375 70.5761 42.3687 60.3448 47.7885 52.0366C47.5672 52.01 47.3482 51.9957 47.1336 51.9913L47.1347 51.9924ZM48.8693 52.3383C43.1 60.4929 42.5557 73.0408 48.325 81.4529C52.9836 84.3984 58.826 86.1646 64.7226 84.9698C57.1577 76.2328 56.5105 66.6281 53.591 57.9541C53.2093 56.8212 51.6793 53.1462 48.8693 52.3394V52.3383Z" fill="#F58426"/>
</g>
<defs>
<clipPath id="clip0_38_1043">
<rect width="122" height="99" fill="white"/>
</clipPath>
</defs>
</svg>
