<svg width="123" height="113" viewBox="0 0 123 113" fill="none" xmlns="http://www.w3.org/2000/svg">
<g clip-path="url(#clip0_38_1021)">
<path d="M19.9314 47.3967L23.4029 45.7253L8.67883 15.58L12.1504 13.8489L10.4745 10.4464L0 15.5203L1.67591 18.9826L5.14744 17.2515L19.9314 47.3967ZM27.6526 43.636L31.3635 42.4422L26.1562 26.504L29.8672 25.3101L35.0745 41.2483L38.7854 40.0544L27.2336 4.47702L23.5226 5.67089L28.7299 21.6091L25.019 22.803L19.7518 6.86476L16.0409 8.05864L27.6526 43.636ZM47.165 0.716323L43.3343 1.31326L48.6015 34.3835L44.7708 34.9805L39.5036 1.9102L35.673 2.50713L40.7007 33.9657C40.9473 35.4779 41.7837 36.8314 43.0275 37.7307C44.2712 38.63 45.8212 39.002 47.339 38.7655C48.8568 38.529 50.2191 37.7032 51.1285 36.4683C52.0379 35.2335 52.4205 33.69 52.1927 32.1749L47.165 0.716323ZM55.365 37.3682L59.2555 37.4279L59.435 26.6233C59.5547 23.3402 59.3153 16.6545 59.1358 13.5504H59.2555C60.273 21.9076 62.1285 29.6677 63.3255 37.5473L67.0365 37.607L67.6949 0.238774L63.8044 0.119387L63.6248 10.9836C63.5051 14.2668 63.7445 20.8928 63.9241 24.0565H63.8044C62.7869 15.6994 60.9314 7.93925 59.7343 0.0596936L56.0234 0L55.365 37.3682ZM69.9095 37.607L77.5708 38.8008C78.0704 38.8871 78.5821 38.8734 79.0763 38.7605C79.5705 38.6477 80.0372 38.438 80.4494 38.1436C80.8616 37.8492 81.2109 37.4759 81.4771 37.0456C81.7433 36.6153 81.9211 36.1365 82 35.6371L86.6686 6.38722C86.8196 5.36828 86.5666 4.33075 85.9631 3.49486C85.3597 2.65897 84.4533 2.09053 83.4365 1.9102L75.7153 0.716323L69.9095 37.607ZM79.0073 5.19334L82.838 5.79028L78.1693 35.0401L74.3387 34.4432L79.0073 5.19334ZM106.301 8.17802L98.9387 5.79028C98.452 5.61958 97.9356 5.54947 97.4208 5.58422C96.9061 5.61897 96.4039 5.75786 95.9447 5.99241C95.4855 6.22697 95.079 6.5523 94.7499 6.94857C94.4209 7.34484 94.1762 7.80378 94.0307 8.29741L84.873 36.4131C84.7018 36.8985 84.6315 37.4135 84.6664 37.9269C84.7012 38.4402 84.8405 38.9411 85.0757 39.3991C85.3109 39.857 85.6371 40.2624 86.0344 40.5906C86.4317 40.9188 86.8919 41.1629 87.3869 41.308L94.7489 43.6957L95.946 39.9947L88.5241 37.607L92.5343 25.3698L98.0409 27.1606L99.238 23.5193L93.7314 21.7285L97.7416 9.49128L105.104 11.879L106.301 8.17802ZM96.4248 44.4717L112.885 10.8045L119.888 14.2071C120.353 14.4247 120.769 14.7332 121.112 15.1142C121.455 15.4952 121.719 15.941 121.886 16.4252C122.053 16.9095 122.122 17.4223 122.087 17.9333C122.052 18.4444 121.915 18.9432 121.683 19.4004L115.638 31.8167C114.86 33.4284 113.483 34.085 111.987 33.3687L107.797 49.9636L104.326 48.2921L108.455 31.5779L107.318 31.0407L99.9562 46.1432L96.4248 44.4717ZM114.68 16.0576L108.994 27.6381L112.526 29.3693L118.212 17.729L114.68 16.0576Z" fill="#002D62"/>
<path d="M6.88281 113C14.4329 106.356 22.5208 100.347 31.0638 95.0321C32.7397 94.1964 34.4157 93.3607 36.0916 92.525C36.75 92.2265 38.1266 91.5699 39.8025 90.7342C40.9996 92.0475 42.1368 93.301 43.3938 94.4949C30.6449 100.405 18.4346 106.613 6.88281 113ZM97.8011 67.6925C106.102 65.8388 114.522 64.5622 123 63.8721C113.962 66.618 104.744 69.6624 95.4668 73.0649C96.3047 71.3338 97.023 69.543 97.8011 67.6925Z" fill="#007AC1"/>
<path d="M0.597656 87.8692C9.38824 82.3685 18.6168 77.5969 28.1904 73.6024C28.4896 74.259 28.8488 74.9156 29.2079 75.5723C28.6692 76.6468 28.1305 77.7809 27.5918 78.8554C18.3144 81.7207 9.27649 84.7054 0.597656 87.8692ZM101.332 57.1269C108.534 56.8346 115.748 56.9342 122.939 57.4254C115.458 58.4999 107.856 59.6938 100.135 61.1264C100.554 59.8132 100.973 58.4999 101.332 57.1269Z" fill="#F05133"/>
<path d="M61.7694 45.2476C75.8351 45.2476 86.8482 48.5307 99.3577 54.7388C93.2526 77.6015 82.0599 93.0621 61.7694 105.538C54.1679 100.822 47.6438 95.5693 42.257 89.5999C44.6511 88.4657 47.3446 87.1525 49.7387 86.078C50.7563 86.1377 51.6541 86.1974 52.5519 86.1974C52.557 87.3096 52.1276 88.3801 51.3548 89.182C51.7738 89.6596 52.1329 90.0774 52.5519 90.4953C53.6292 89.5402 54.2876 88.1673 54.3475 86.1974C56.723 86.1951 59.0912 85.9349 61.4103 85.4213C61.3504 89.0627 60.8117 91.6892 59.7942 92.7637C59.7863 92.7635 59.7785 92.765 59.7711 92.7679C59.7638 92.7709 59.7572 92.7753 59.7516 92.7808C59.746 92.7864 59.7416 92.793 59.7386 92.8004C59.7357 92.8077 59.7342 92.8155 59.7344 92.8234C59.5116 93.0597 59.2715 93.2791 59.0161 93.48C60.0336 93.3009 61.0511 93.0621 61.949 92.8234C63.2059 90.2565 63.2059 85.7795 63.2059 85.0035C65.5402 84.4066 67.5752 83.8096 69.4307 83.2127C69.4906 85.302 70.3884 87.2719 72.0044 88.0479C72.7227 87.5106 73.3811 86.9734 74.0993 86.4361C73.6803 86.4958 71.1665 86.6749 71.2263 82.6157C76.6132 80.5265 80.1446 78.1387 83.257 74.4377C84.0826 72.5743 84.724 70.635 85.1723 68.6474C81.4614 74.4974 78.1095 77.9 71.4059 80.5862C71.6518 79.1472 72.012 77.7299 72.4833 76.3479C74.4584 75.5122 76.4935 74.5571 77.6906 74.0199L80.6234 70.9755C81.4015 68.1699 82.0599 65.3643 82.7782 62.499L80.5037 63.2153L83.1971 60.4097C83.7957 58.2011 84.3344 55.9924 84.873 53.7837C83.5563 53.9628 82.1796 54.2016 80.8628 54.3807C81.1022 53.2465 81.2219 52.172 81.3417 51.0975C80.6833 50.9781 80.0249 50.7394 79.3665 50.6797C79.2181 52.0472 78.9782 53.4033 78.6482 54.7388L78.4687 54.7985C77.1389 54.9972 75.8821 55.5314 74.8176 56.3506L75.1767 55.2761C73.0219 55.6342 70.8672 56.0521 68.7125 56.47L66.5577 58.7383L66.6176 58.4995L67.3358 56.7087C65.2409 57.1863 63.0862 57.6041 60.9314 58.0817C60.5125 55.2164 60.0336 52.6496 59.6745 50.5603L57.8789 50.7394C58.238 52.8883 58.7168 55.5149 59.1957 58.4398L57.6993 58.798L55.784 60.8276C54.4672 59.3949 51.7139 60.2903 49.9782 60.7082C48.1227 61.1857 46.2672 61.723 44.4117 62.2005C43.8631 62.324 43.3232 62.4835 42.7957 62.6781C41.3584 60.6906 40.0777 58.5951 38.965 56.4103L38.7855 55.9924C38.2468 56.2312 37.7081 56.4103 37.1095 56.7087L37.349 57.1863C38.4139 59.341 39.6341 61.4158 41 63.3944C38.9315 64.292 37.0756 65.6141 35.5533 67.2745C35.5533 67.2745 32.9198 69.9607 32.6205 70.3189C31.9691 71.0808 31.3882 71.9 30.8847 72.7663C28.0472 67.0104 25.8398 60.9664 24.3008 54.7388C36.6906 48.5307 47.7037 45.2476 61.7694 45.2476ZM63.146 79.9295C64.4628 79.3923 65.7198 78.7954 67.0365 78.2581L67.6351 77.6015C67.9316 77.6511 68.2324 77.671 68.5329 77.6612C69.1464 77.5642 69.7481 77.4042 70.3285 77.1836C69.9403 78.5323 69.6601 79.9096 69.4906 81.3025C67.6949 81.9591 65.6 82.6157 63.2657 83.2127C63.2059 82.0785 63.2059 81.0637 63.146 79.9295ZM54.1679 83.9887L55.4249 83.3918L58.5373 80.8846L59.2555 79.0341C59.6745 79.9295 59.9139 80.2877 60.3927 81.1831L61.4103 80.7056V83.5708C59.0575 84.1308 56.6466 84.4113 54.2278 84.4066L54.1679 83.9887Z" fill="white"/>
<path d="M69.3708 49.9636C72.3107 49.9408 75.2492 50.1003 78.1693 50.4411C80.3731 50.8786 82.551 51.4366 84.6934 52.1125C85.5417 55.0622 85.965 58.1173 85.9503 61.186C85.9478 63.7161 85.6668 66.2383 85.1124 68.7073C81.4014 74.5573 77.9897 77.9002 71.3459 80.5864C71.5918 79.1474 71.9521 77.7301 72.4233 76.3481C74.3985 75.5124 76.3737 74.5573 77.6306 74.0798L80.5635 71.0354C81.2817 68.1701 81.9999 65.3645 82.7182 62.5589L80.4437 63.2752L83.1372 60.4696C83.6759 58.261 84.2744 56.0523 84.8131 53.8436C83.4963 54.0227 82.1197 54.2615 80.8029 54.4406C80.9824 53.3064 81.162 52.2319 81.2817 51.1574C80.6233 50.9783 79.9649 50.7993 79.3065 50.6799C79.1586 52.0672 78.9187 53.4431 78.5883 54.7987L78.4087 54.8584C77.0461 55.0025 75.7558 55.5421 74.6978 56.4105L75.1167 55.336C72.9021 55.6941 70.8073 56.112 68.5927 56.5299L66.4978 58.7385L66.5576 58.5594L67.2759 56.7686C65.1211 57.2462 63.0262 57.664 60.8715 58.1416C60.4525 55.2166 59.9737 52.6498 59.6145 50.5605C62.8498 50.1462 66.109 49.9468 69.3708 49.9636ZM83.197 74.4976C81.1208 79.1362 78.0089 83.2402 74.0992 86.496C73.6802 86.5557 71.1065 86.7348 71.1664 82.6757C76.5532 80.5864 80.0846 78.1389 83.197 74.4976ZM71.9445 88.1078C68.9152 90.2651 65.533 91.881 61.9489 92.8833C63.1459 90.3164 63.2058 85.8394 63.2058 85.0634C65.4802 84.4665 67.5153 83.8695 69.4306 83.2726C69.4905 85.3619 70.3284 87.3914 71.9445 88.1078ZM59.016 93.5399C57.9985 93.719 56.9211 93.8384 55.9036 93.9577C54.7664 92.8236 53.6292 91.6297 52.5518 90.4955C53.6292 89.5404 54.2875 88.1675 54.3474 86.1976C56.7229 86.1953 59.0911 85.9351 61.4102 85.4216C61.3503 89.0629 60.8116 91.6894 59.7941 92.7639C59.7862 92.7637 59.7784 92.7652 59.7711 92.7681C59.7637 92.7711 59.7571 92.7755 59.7515 92.7811C59.7459 92.7866 59.7415 92.7933 59.7385 92.8006C59.7356 92.8079 59.7341 92.8157 59.7343 92.8236C59.435 93.122 59.1956 93.3608 59.016 93.5399ZM51.3547 89.1823C50.5766 88.2869 49.7985 87.3318 49.0802 86.3767L49.7386 86.0782C50.7562 86.1379 51.654 86.1976 52.5518 86.1976C52.5293 87.3044 52.1038 88.3653 51.3547 89.1823ZM37.1094 65.663C36.0776 63.1042 35.1786 60.4941 34.416 57.8431C35.254 57.4253 36.0919 57.0671 36.9897 56.7089L37.1693 57.1865C38.2548 59.3423 39.495 61.4171 40.8802 63.3946C39.5187 63.9626 38.2483 64.7268 37.1094 65.663ZM38.6058 55.9926C44.7461 53.4534 51.1803 51.6888 57.7591 50.7396C58.1182 52.8885 58.597 55.5151 59.016 58.4401L57.5197 58.7982L55.6642 60.8278C54.2875 59.3951 51.5343 60.2906 49.8583 60.7084C48.0029 61.186 46.1474 61.7232 44.2919 62.2007C43.7433 62.3242 43.2034 62.4837 42.6759 62.6783C41.258 60.6896 39.9973 58.594 38.9051 56.4105L38.6058 55.9926ZM63.1459 79.9297C64.4627 79.3925 65.7197 78.7956 67.0364 78.2583L67.635 77.6017C67.9315 77.6513 68.2323 77.6713 68.5328 77.6614C69.1447 77.5571 69.7457 77.3972 70.3284 77.1838C69.9116 78.5254 69.6308 79.9052 69.4905 81.3027C67.635 81.9593 65.6 82.616 63.2058 83.2129C63.2058 82.0787 63.2058 81.0639 63.1459 79.9297ZM54.1678 83.9889L55.4248 83.392L58.5372 80.8848L59.2554 79.0343C59.6744 79.9298 59.9138 80.2879 60.3927 81.1833L61.4102 80.7655V83.6307C59.0523 84.1614 56.6447 84.4416 54.2277 84.4665L54.1678 83.9889Z" fill="#F05133"/>
<path d="M62.4271 101.718C56.4983 97.7478 51.1417 92.9879 46.5059 87.5705L49.0796 86.3766C49.8577 87.3317 50.6358 88.2868 51.4139 89.1822C51.7812 89.6478 52.1812 90.0867 52.611 90.4955C56.0321 94.2647 59.8217 97.6842 63.9234 100.703C63.4434 101.068 62.9439 101.407 62.4271 101.718ZM34.176 68.4685C32.4261 64.6225 30.9656 60.6518 29.8066 56.5895C40.0324 51.7258 51.1627 49.0421 62.4869 48.71C67.7564 48.7546 73.0088 49.3144 78.1687 50.3814C75.246 50.0719 72.3093 49.9125 69.3701 49.9038C66.0886 49.889 62.8095 50.0884 59.5541 50.5008C58.9555 50.5605 58.357 50.6799 57.7585 50.7395C51.182 51.6682 44.7478 53.4128 38.6052 55.9329C38.0665 56.1717 37.468 56.4104 36.9293 56.6492C36.0913 57.0074 35.2534 57.4252 34.4154 57.8431C35.14 60.4986 36.0193 63.1096 37.049 65.6629C36.5103 66.1405 35.9117 66.6777 35.3731 67.215L34.176 68.4685Z" fill="#FDBB30"/>
<path d="M21.2491 53.3663C34.7163 46.5015 46.5075 42.6812 61.8301 42.6812C77.0929 42.6812 88.944 46.5015 102.411 53.3663C96.1265 78.4973 84.1557 95.2115 61.7703 108.583C53.3309 103.509 45.9688 97.5993 39.8637 90.7345C38.1878 91.5702 36.8111 92.2268 36.0929 92.585C33.998 93.6595 31.9031 94.6743 29.8082 95.7488C27.4141 96.9426 24.7805 98.7931 22.0272 98.0768C19.0345 96.7636 21.0097 93.1222 21.9075 91.0927C24.2418 85.8993 26.6958 80.706 29.2097 75.5723C26.0683 69.7111 23.6946 63.4719 22.1469 57.0076L21.2491 53.3663ZM61.7703 45.248C47.7046 45.248 36.6914 48.5311 24.182 54.7393C25.6841 60.9506 27.8721 66.9767 30.706 72.707C31.2306 71.8398 31.8316 71.0207 32.5017 70.2596C32.8009 69.9611 35.3747 67.2152 35.3747 67.2152C36.9234 65.5583 38.7979 64.2375 40.8812 63.3351C39.4831 61.3659 38.2423 59.2901 37.1703 57.127L36.9907 56.6495C37.5294 56.4107 38.0681 56.1719 38.6666 55.9331L38.8462 56.351C39.9381 58.5537 41.1988 60.6692 42.617 62.6785C43.1557 62.4994 43.6944 62.3203 44.2929 62.1413C46.1484 61.6637 47.944 61.1862 49.8593 60.7086C51.5352 60.2311 54.2885 59.3357 55.6053 60.7683L57.5206 58.7387L59.017 58.4403C58.5382 55.4556 58.1192 52.8291 57.7002 50.7398C58.2987 50.6801 58.8973 50.5607 59.4958 50.501C59.8549 52.5903 60.3338 55.2168 60.7528 58.0224C62.9075 57.6046 65.0024 57.127 67.1571 56.7091L66.4389 58.5L66.379 58.679L68.5338 56.4107C70.6885 56.0525 72.7834 55.6347 74.998 55.2168L74.6389 56.351C75.6916 55.5012 76.9515 54.9451 78.29 54.7393H78.4695C78.8173 53.3844 79.0773 52.0086 79.2476 50.6204C79.906 50.7398 80.5644 50.9189 81.163 51.0383C81.0958 52.1441 80.9357 53.2423 80.6841 54.3214C82.0608 54.1423 83.3776 53.9632 84.7542 53.7245C84.1557 55.9331 83.617 58.2015 83.0783 60.4102L80.3849 63.2158L82.6593 62.4994C81.8812 65.305 81.163 68.1106 80.5046 70.9759L77.5717 74.0203C76.3148 74.5575 74.2798 75.5126 72.3644 76.2887C71.9001 77.6727 71.54 79.0894 71.2871 80.5269C77.9309 77.8407 81.3425 74.4382 85.0535 68.6479C84.5757 70.6346 83.9145 72.573 83.0783 74.4382C79.9659 78.0795 76.4944 80.5269 71.0476 82.5565C70.9878 86.6753 73.6214 86.4963 73.9805 86.3769C73.3141 86.9798 72.5927 87.5194 71.8257 87.9886C70.2097 87.2723 69.3717 85.2427 69.3119 83.1534C67.4564 83.8101 65.4214 84.3473 63.0871 84.9442C63.0272 85.7202 63.0272 90.1973 61.8301 92.7641C60.8645 93.0333 59.8856 93.2525 58.8973 93.4207C59.1316 93.2172 59.3516 92.9978 59.5557 92.7641L59.6155 92.7044C60.6929 91.6299 61.1717 89.0034 61.2914 85.3621C58.9685 85.8601 56.6039 86.1399 54.2287 86.1978C54.1688 88.1677 53.5104 89.5406 52.433 90.436C52.0141 90.0182 51.6549 89.6003 51.236 89.1825C51.9557 88.3522 52.3585 87.2952 52.3732 86.1978C51.5352 86.1381 50.5776 86.0784 49.6199 86.0187C47.2257 87.1529 44.4725 88.4661 42.0783 89.5406C47.8027 95.7615 54.3942 101.129 61.6506 105.479C81.9411 93.0029 93.0739 77.6019 99.179 54.6796C86.8491 48.5311 75.836 45.248 61.7703 45.248ZM63.1469 79.93C63.2068 81.0641 63.2068 82.0789 63.2068 83.1534C65.6009 82.5565 67.636 81.9595 69.4914 81.3029C69.6368 79.8866 69.9174 78.4874 70.3294 77.1244C69.7467 77.3378 69.1456 77.4976 68.5338 77.6019C68.2376 77.6622 67.9322 77.6622 67.636 77.6019L67.0374 78.1988C65.7206 78.7958 64.4637 79.3927 63.1469 79.93ZM54.1688 83.9891L54.2287 84.407C56.6475 84.4117 59.0584 84.1312 61.4111 83.5713V80.706L60.3936 81.1835C59.9148 80.2881 59.7352 79.93 59.2564 79.0346L58.5382 80.8851L55.4257 83.3922L54.1688 83.9891Z" fill="#002D62"/>
<path d="M44.4717 63.2155C41.2995 64.1109 38.4863 65.4242 36.2119 67.9313C34.9749 69.4279 33.9294 71.0721 33.0995 72.8262C30.5856 78.0195 28.1316 83.2129 25.7973 88.4062C25.1987 89.7791 23.3432 93.0623 25.3184 93.9577C27.533 94.4949 30.2863 92.6444 32.2016 91.6893C34.2965 90.6149 36.4513 89.5404 38.5462 88.5256C42.1374 86.7348 45.3695 84.5858 47.5841 81.1236C48.3872 79.612 49.1066 78.0577 49.7389 76.4675C51.1155 73.0649 52.4921 69.7221 53.9286 66.3793C54.4673 65.066 55.425 63.514 55.1257 62.141C54.5272 60.2905 51.3549 61.4247 50.0381 61.7828C48.1827 62.2604 46.3272 62.7379 44.4717 63.2155ZM40.4615 82.4965C38.7856 83.2725 37.1695 83.9889 35.4936 84.7649C37.8878 79.2134 40.4016 73.6619 43.0352 68.1104C44.4717 67.6925 45.9681 67.1553 47.4644 66.7374C45.0104 71.9905 42.6761 77.2435 40.4615 82.4965ZM69.1316 57.4252C66.7973 60.4696 64.5228 63.514 62.2484 66.5583C63.3257 63.8124 64.4031 61.0068 65.4805 58.2012C63.0863 58.6788 60.6323 59.216 58.298 59.7533C57.6396 61.1859 57.0411 62.6186 56.4425 64.1109C56.9331 63.944 57.4327 63.8045 57.9389 63.693C56.0834 68.2298 54.2279 72.7665 52.4323 77.3629C51.6542 79.2134 50.9359 81.1236 50.2177 82.9741C52.6119 81.8399 55.0659 80.7057 57.46 79.6312C58.5374 76.5869 59.6148 73.6022 60.752 70.5578C61.7695 72.6471 62.787 74.6767 63.8046 76.7062C65.3608 76.0496 66.917 75.3333 68.4732 74.6767C67.5155 72.5277 66.5578 70.3787 65.6002 68.2298C67.3359 65.6032 69.0717 62.9767 70.8075 60.4099C71.2863 60.2905 71.825 60.2308 72.3038 60.1114C72.7228 58.9772 73.0819 57.8431 73.4411 56.7089C72.0046 56.9477 70.5681 57.1864 69.1316 57.4252ZM78.4688 55.8732C77.1744 56.0465 75.9635 56.6086 74.9973 57.4849C74.2716 58.3356 73.7406 59.3337 73.4411 60.4099C72.4235 63.6334 71.406 66.8568 70.3286 70.0803C69.9097 71.3338 69.2513 73.6619 71.2863 73.5425C71.9932 73.3937 72.6774 73.1529 73.3213 72.8262C75.4162 71.9308 77.5111 71.0951 79.606 70.2593C80.0849 68.2298 80.6235 66.2002 81.1622 64.1706C80.0849 64.4691 79.0075 64.8272 77.8702 65.1854C77.571 66.1405 77.3316 67.0359 77.0921 67.991C76.314 68.2298 75.5359 68.5282 74.8177 68.767C75.7754 65.4839 76.6732 62.2604 77.6907 58.9772C78.3491 58.7982 79.0075 58.6788 79.6659 58.4997C79.5419 59.086 79.382 59.6641 79.187 60.2308C80.2046 59.992 81.1622 59.7533 82.1797 59.5145C82.5389 58.0818 82.898 56.5895 83.2571 55.0972C81.7009 55.3359 80.0849 55.6344 78.4688 55.8732Z" fill="white"/>
<path d="M87.2073 52.8289C88.165 53.187 89.1226 53.4855 90.0803 53.8437C92.3548 54.7391 94.3898 55.5748 96.1256 56.4105C91.0702 74.0183 80.1304 89.3731 65.1212 99.9271L63.9241 100.763C61.4592 98.9284 59.1011 96.9553 56.8613 94.8532L58.9562 94.5547C67.7619 93.0653 75.6188 88.1613 80.8112 80.9138C86.0035 73.6663 88.1093 64.6641 86.6686 55.8732C86.6088 55.6345 86.5489 55.3957 86.4891 55.1569L86.4292 54.9181L86.3694 54.8584L86.1299 54.0227L86.0701 53.9033L86.0102 53.6646L85.9504 53.6049V53.4855C85.8866 53.1377 85.7863 52.7976 85.6511 52.4707C86.1756 52.5635 86.695 52.6831 87.2073 52.8289ZM87.3869 53.0676C88.2847 53.3661 89.2424 53.7243 90.1402 54.0227C89.2424 53.7243 88.2847 53.3661 87.3869 53.0676Z" fill="#007AC1"/>
</g>
<defs>
<clipPath id="clip0_38_1021">
<rect width="123" height="113" fill="white"/>
</clipPath>
</defs>
</svg>
