<svg width="122" height="89" viewBox="0 0 122 89" fill="none" xmlns="http://www.w3.org/2000/svg">
<g clip-path="url(#clip0_38_1022)">
<path d="M49.2595 61.9824C55.7705 60.9619 62.3348 61.2842 68.0452 63.7012L68.739 62.1436C59.5063 59.1895 47.8186 59.2969 39.2263 64.0772L41.6812 58.3301C30.7407 61.2842 23.4826 67.5147 16.0645 73.8526C21.4547 61.0694 33.1423 50.5957 46.3243 46.7285L45.6839 48.877C57.2648 45.0635 69.9665 44.3115 80.2132 46.0303L77.8116 42.8613L83.7355 44.4189L87.5246 38.6719L89.019 45.7617L94.8361 47.6416C94.8361 47.6416 90.62 49.4141 90.7801 49.5215C112.768 58.5986 105.723 88.8916 84.8562 88.9991C74.2893 89.1065 66.0706 79.4922 66.4441 69.4483C61.0006 65.9033 55.6637 64.1846 49.2595 61.9824Z" fill="#C2CCD2"/>
<path d="M45.0961 21.6455V21.5918C45.1735 20.7822 45.5553 20.0329 46.1634 19.4971C46.7674 19.098 47.4693 18.8749 48.1914 18.8525C48.1914 18.8525 48.8319 18.7988 49.4189 18.7988L51.3402 18.6377V32.334L49.6857 32.4414C48.6717 32.4951 48.0847 32.5488 46.964 32.6026L45.0961 32.7637V21.6455ZM35.8634 21.2695C35.7981 19.0423 36.5376 16.8668 37.9447 15.1465C39.4842 13.5541 41.5584 12.5966 43.7619 12.4609C48.2448 12.085 52.7811 11.8164 57.264 11.709L60.5729 11.6553V50.0586L60.5195 53.335L57.2107 53.2813C56.6236 53.2813 52.1941 53.4424 51.3935 53.4424H51.2868L47.7645 53.8184V53.711L45.523 53.8184C45.2028 53.8184 39.866 54.3555 39.6525 54.4092L35.8634 55.0538V21.2695Z" fill="#C2CCD2"/>
<path d="M117.731 62.2511C117.731 62.2511 113.301 60.8547 112.661 60.6935C112.608 60.6935 112.608 60.6935 112.608 60.6398C110.58 60.049 108.765 59.5656 107.484 59.1896L105.136 58.5988C102.976 58.2277 101.027 57.0706 99.659 55.3474C98.2912 53.6243 97.6004 51.4554 97.7179 49.2531V24.2775C97.7179 21.8605 98.4651 19.6046 100.226 18.2081C101.371 17.3228 102.786 16.8669 104.229 16.9191C105.018 16.9318 105.805 17.0217 106.577 17.1876C106.897 17.295 107.751 17.5099 109.139 17.8859C110.473 18.2618 112.181 18.799 113.889 19.2824C117.304 20.2492 120.666 21.216 120.666 21.216L121.947 21.5919V38.5646L111.167 35.1808L111.007 34.1066C111.007 34.1066 110.686 32.1193 110.366 30.2931V49.3068L110.42 49.4142C110.42 49.4142 110.366 49.4679 110.74 49.5753C110.74 49.5753 111.434 49.7365 111.861 49.8439C112.181 48.6085 112.501 47.2658 112.501 47.2658L112.928 45.3859L121.947 48.0714L122.001 63.4328L117.731 62.2511Z" fill="#C2CCD2"/>
<path d="M0.0533683 26.4795C0.0895865 24.7556 0.798992 23.1154 2.028 21.9141C2.95838 20.9591 4.0888 20.2251 5.33683 19.7656C10.3001 18.1543 17.3447 17.0801 17.6649 17.0264L19.5328 16.7578C20.3474 16.2848 21.2294 15.9406 22.1479 15.7373C24.5494 15.2539 31.9676 13.8574 32.2878 13.8037L36.1304 13.0518V52.0996L36.077 55L33.1951 55.3223C32.9816 55.3223 27.5914 56.2891 27.3246 56.3428L23.322 57.2559V50.918L12.168 53.6036V59.9952L9.71304 60.586C9.65967 60.586 8.85914 60.8545 8.00525 61.1231C7.09799 61.3916 6.08399 61.7139 5.33683 61.9288C5.02378 62.003 4.7196 62.1111 4.42957 62.251L0 63.8623V26.4795H0.0533683Z" fill="#C2CCD2"/>
<path d="M93.9289 56.2354H93.8221C93.7688 56.2354 93.7154 56.1817 93.662 56.1817C93.4267 56.1478 93.1946 56.0939 92.9682 56.0205C92.3219 55.9526 91.6803 55.845 91.047 55.6983C89.7128 55.4834 88.2718 55.2149 88.1651 55.2149L86.8309 55.1075L85.2832 54.9463V13.4277L88.8055 13.6963C89.1791 13.75 89.9263 13.8574 91.047 14.0723C92.1144 14.2334 93.3952 14.4482 94.2491 14.6094C94.6807 14.649 95.1089 14.7208 95.5299 14.8242L97.9849 15.4688V57.0948L93.9289 56.2354Z" fill="#C2CCD2"/>
<path d="M81.3859 54.3555C81.0123 54.3018 78.7708 54.087 76.476 53.8721C74.2345 53.711 71.8329 53.5498 70.2319 53.4424L68.5775 53.3887C66.1759 53.2813 64.0945 52.5293 62.6002 51.0254C61.1059 49.4678 60.4121 47.3731 60.4121 44.9561V18.96C60.4121 16.919 60.9992 14.9854 62.4401 13.6426C64.2013 11.9775 66.336 11.8164 67.6702 11.8164H69.1111C69.5381 11.8164 70.1252 11.8701 70.979 11.9238H71.9397L71.8863 11.9775C72.8469 12.0313 73.9677 12.1387 75.5154 12.2461C80.532 12.6221 81.8662 12.7832 82.6133 12.9443C82.8532 12.984 83.0866 13.0563 83.3071 13.1592L85.175 14.0723V27.6074L74.5014 26.211L74.2345 24.9756C74.2345 24.9756 73.9677 23.6328 73.7008 22.3975H73.2205L73.2739 27.2852V28.3594H74.021C74.4858 28.3544 74.9501 28.3903 75.4086 28.4668C76.049 28.5205 76.8496 28.5742 77.6501 28.6279C79.3045 28.7891 81.119 29.0039 82.0263 29.1113C82.2412 29.1002 82.4566 29.1183 82.6667 29.1651L85.2284 29.7559L85.175 55.1075L81.3859 54.3555Z" fill="#C2CCD2"/>
<path d="M47.6041 30.0781C48.0285 30.0157 48.4562 29.9798 48.885 29.9707V21.2695C48.726 21.2964 48.5656 21.3143 48.4047 21.3232C48.0311 21.3232 47.8176 21.377 47.7642 21.4844C47.6575 21.5381 47.6575 21.5381 47.6041 21.7529V30.0781ZM36.9305 21.2695C36.8771 16.9189 39.5455 13.8574 43.9217 13.5352C48.3513 13.1592 52.8876 12.8906 57.3705 12.7832L59.5586 12.7295V52.2608L57.3172 52.2071C56.7301 52.2071 51.6601 52.3682 51.2866 52.4756L48.885 52.6905V38.1348C48.4562 38.1439 48.0285 38.1798 47.6041 38.2422V50.6495L47.5508 52.7442L45.5228 52.7979C45.0958 52.7979 39.9191 53.335 39.5455 53.4424L36.9838 53.8184L36.9305 21.2695Z" fill="black"/>
<path d="M118.103 61.2306C118.103 61.2306 114.208 59.9952 113.14 59.7267C113.033 59.6729 112.98 59.6729 112.927 59.6192C110.739 58.9747 108.764 58.4376 107.43 58.1153L105.348 57.5782C101.132 56.6114 98.7307 53.5499 98.7841 49.253V24.3311C98.7841 22.0215 99.4245 20.2491 100.865 19.0674C101.818 18.3479 102.983 17.9698 104.174 17.9932C104.893 18.0064 105.609 18.0964 106.309 18.2618C107.003 18.4229 120.345 22.2901 120.345 22.2901L120.879 22.3975V37.1143L112.073 34.3751L112.019 33.9454C112.019 33.9454 111.326 29.6485 111.059 27.8223C110.525 27.6612 110.098 27.5538 109.831 27.5001L109.564 27.3926L109.298 27.2852V49.3067C109.292 49.5152 109.348 49.7206 109.458 49.8975C109.557 50.0781 109.694 50.2344 109.86 50.3551C110.026 50.4758 110.217 50.558 110.418 50.5958C110.418 50.5958 111.592 50.918 112.66 51.1866C112.98 49.7364 113.46 47.5343 113.46 47.5343L113.674 46.7823L120.879 48.9845V62.0899L118.103 61.2306Z" fill="black"/>
<path d="M1.12109 26.4795C1.22783 23.3106 3.89625 21.377 5.6574 20.7861C10.5139 19.2285 17.5052 18.1543 17.8787 18.1006L19.9601 17.7246C20.7272 17.2835 21.5543 16.9578 22.4151 16.7578C24.8166 16.2744 32.1815 14.8779 32.555 14.7705L35.1167 14.3408V52.0459L35.0633 53.9795L33.1421 54.2481C32.7151 54.2481 27.5384 55.1612 27.1648 55.2686L24.4431 55.8594V25.3516H24.3897C23.6425 25.5664 23.4824 25.7276 23.3223 26.5869V49.7901L12.7554 52.3145V27.9834C12.7093 28.0185 12.6531 28.0374 12.5953 28.0371C12.2058 28.1087 11.8395 28.2746 11.5279 28.5205C11.4103 28.6034 11.3179 28.7177 11.2614 28.8506C11.2048 28.9834 11.1862 29.1296 11.2077 29.2725V57.3633L11.1543 59.0821L9.49992 59.4581C9.12634 59.5655 4.4833 61.0157 4.16309 61.1231L1.17446 62.251V26.4795H1.12109Z" fill="black"/>
<path d="M94.1427 55.1612C93.7691 55.0537 88.5923 54.1944 88.2188 54.1407L86.8846 54.0332L86.2441 53.9795V14.6094L88.6457 14.8242C89.2328 14.8779 94.623 15.791 95.21 15.9521L96.8644 16.3818V55.752L94.1427 55.1612Z" fill="black"/>
<path d="M72.2069 43.667C72.2278 43.8311 72.2635 43.9929 72.3136 44.1504C72.367 44.2041 72.4737 44.3116 73.0074 44.3653C73.1864 44.3698 73.3648 44.3877 73.5411 44.419V37.0069C73.222 36.9722 72.9014 36.9543 72.5804 36.9531L72.2069 36.8994V43.667ZM81.5463 53.2813C80.5323 53.0665 73.5411 52.5293 70.339 52.3682L68.6312 52.2608C66.4431 52.2071 64.6286 51.5088 63.4011 50.2198C62.1736 48.9844 61.5332 47.1045 61.5332 44.9561V18.96C61.5332 17.0801 62.0669 15.5225 63.1876 14.3945C64.6286 13.0518 66.4965 12.8906 67.7239 12.8906H69.1115C70.0188 12.8906 71.7266 13.0518 75.409 13.3203C80.479 13.6963 81.8132 13.8574 82.4536 13.9648C82.5991 14.0096 82.7417 14.0634 82.8805 14.126L84.1614 14.7705V26.4258L75.409 25.2442L75.3022 24.7608C75.3022 24.7608 74.8753 22.666 74.6084 21.377H74.1281C74.0748 21.377 72.7406 21.2695 72.7406 21.2695H72.5271C72.4174 21.2563 72.3063 21.2749 72.2069 21.3233V29.541L74.0214 29.4873H74.0748C74.5017 29.4873 76.423 29.6485 78.3442 29.8096C80.3189 29.9707 82.08 30.1856 82.507 30.2393L84.2147 30.6153L84.1614 53.8184L81.5463 53.2813Z" fill="black"/>
<path d="M50.0603 20.0342V31.0986C49.1531 31.1524 47.3919 31.2598 46.3779 31.3135V21.6455C46.4846 21.001 46.6981 20.249 48.2992 20.1416C48.2992 20.1416 49.2598 20.0342 50.0603 20.0342ZM57.3718 14.3408V13.9648C52.8888 14.0723 48.4593 14.2871 44.0297 14.6631C40.2405 15.0391 38.1058 17.3486 38.1592 21.2158V52.3682L39.2799 52.1534C39.6535 52.0996 45.0971 51.5625 45.4173 51.5088H46.3245V37.0069C47.2318 36.9531 48.9929 36.792 50.0069 36.7383V51.294L51.1277 51.1866C51.3945 51.1329 56.4645 50.918 57.2117 50.918H57.265L57.9055 50.9717H58.279V13.9648H57.265L57.3718 14.3408Z" fill="white"/>
<path d="M119.705 49.844L114.582 48.3401L114.528 48.7161C114.528 48.7161 113.888 51.509 113.621 52.7444C111.593 52.1536 110.686 51.885 110.205 51.7776C109.839 51.6987 109.492 51.5432 109.189 51.3211C108.886 51.0991 108.632 50.8154 108.444 50.4885C108.262 50.1195 108.153 49.718 108.124 49.3069V27.1243C108.138 26.8435 108.211 26.5689 108.338 26.3186C108.444 26.1575 108.604 26.1037 108.925 26.1037C109.159 26.1172 109.391 26.1531 109.618 26.2112H109.725C109.778 26.2112 110.632 26.4797 112.127 26.9094C112.34 28.1985 113.141 33.1936 113.141 33.1936V33.4622L119.652 35.4495V23.3645L119.385 23.2571C119.385 23.2571 106.683 19.6047 105.989 19.4973C105.38 19.3328 104.753 19.2427 104.121 19.2287C103.202 19.1986 102.299 19.4825 101.56 20.0344C100.439 20.8938 99.9054 22.3977 99.9054 24.3313V49.2532C99.852 53.0129 101.827 55.4837 105.509 56.3967H105.722C106.149 56.5042 109.672 57.471 113.194 58.4378L118.371 60.0491L119.598 60.4251L119.705 49.844Z" fill="white"/>
<path d="M22.6276 17.9932C21.3142 18.2669 20.1087 18.9202 19.1587 19.8731V19.0674L18.0379 19.2285C17.7177 19.2822 10.7265 20.4102 6.03007 21.9141C4.53576 22.4512 2.40102 24.1162 2.34766 26.4795V60.586L3.68186 60.0489C3.94871 59.9415 8.85859 58.4375 9.1788 58.3301L9.65912 58.2227L9.92596 58.169V29.2725C9.92596 27.8223 11.2602 27.1777 12.1674 26.8555C12.7308 26.7184 13.3008 26.6108 13.8752 26.5332V50.8106L22.0406 48.877V26.4795C22.254 25.1367 22.8411 24.4922 24.0686 24.1699C24.282 24.1162 24.9758 24.0088 25.6162 23.9014V54.4092L26.8437 54.087C27.1106 54.0332 32.6075 53.0664 32.9811 53.0664L33.5148 53.0127H33.8883V15.791L32.7142 16.0059C32.7142 16.0059 25.0292 17.4561 22.6276 17.9932Z" fill="white"/>
<path d="M88.5381 16.0059L87.8443 15.9521L87.4707 15.8984V52.8516L87.7909 52.9053L88.378 52.959C88.6448 53.0127 94.1417 53.8721 94.4619 53.9795L95.6894 54.2481V17.2412L94.9423 17.0264C94.4619 16.9189 89.0184 16.0059 88.5381 16.0059Z" fill="white"/>
<path d="M74.0745 30.6152H74.0211L73.4341 30.669H73.1139V35.8252H73.4341C73.4341 35.8252 74.1812 35.8789 74.7149 35.9326V45.7617C73.9144 45.6543 72.9004 45.6006 72.9004 45.6006C72.5752 45.6078 72.2535 45.5329 71.9645 45.3828C71.6755 45.2327 71.4285 45.0121 71.246 44.7412C71.075 44.409 70.9836 44.0411 70.9791 43.667V21.3232C70.9599 20.9969 71.0543 20.6741 71.246 20.4102C71.4131 20.2646 71.6087 20.1559 71.8201 20.0912C72.0315 20.0264 72.2541 20.007 72.4734 20.0342H72.9004C73.0605 20.0342 73.9677 20.0879 75.5688 20.249C75.7823 21.2158 76.3693 23.9014 76.3693 23.9014L76.4227 24.1162L82.987 24.9756V15.4688L82.3999 15.2002C82.1331 15.0928 81.8663 14.9854 75.302 14.502C71.4061 14.1797 69.7517 14.0723 69.0045 14.0723H67.6703C66.6029 14.0723 65.1086 14.2334 64.0412 15.2539C63.134 16.1133 62.707 17.3486 62.707 18.96V44.9561C62.707 48.7159 64.8418 50.9717 68.6309 51.0791H68.8444C69.805 51.0791 80.3186 51.8311 81.7595 52.0996L82.9336 52.3145L82.987 31.5283L82.1865 31.3672C81.6528 31.2598 74.8216 30.6152 74.0745 30.6152Z" fill="white"/>
<path d="M118.69 50.5957L115.275 49.5752L114.261 54.0332C112.073 53.335 109.831 52.7442 109.831 52.7442C109.333 52.625 108.866 52.4005 108.462 52.0856C108.057 51.7708 107.723 51.3727 107.483 50.918C107.215 50.4229 107.068 49.8704 107.056 49.3067V27.124C107.051 26.6252 107.2 26.137 107.483 25.7275C107.803 25.2979 108.497 24.8145 109.831 25.2442C110.895 25.4951 111.946 25.7999 112.98 26.1572L113.994 32.6563L118.637 34.1065V24.1162C118.637 24.1162 106.362 20.5713 105.829 20.4102C102.573 19.6045 100.919 20.9473 100.919 24.3311V49.253C100.919 52.6368 102.573 54.6241 105.829 55.4297C105.829 55.376 109.938 56.5039 113.46 57.5245L118.69 59.0821V50.5957ZM18.1977 23.9551V20.249C18.1977 20.249 11.0464 21.377 6.34995 22.9346C5.12248 23.3106 3.36133 24.707 3.36133 26.5332V59.1895C3.73491 59.0284 8.59142 57.5245 8.965 57.417V29.3262C8.965 27.3389 10.5661 26.3721 11.9536 25.9424C12.7008 25.7275 14.9423 25.4053 14.9423 25.4053V49.5752L21.133 48.0713V26.4258C21.3465 24.707 22.2537 23.5791 23.9081 23.2031C25.5092 22.9346 26.6833 22.7734 26.6833 22.7734V53.1202C27.0035 53.0127 32.5538 52.0996 32.9274 52.0459V16.9727C32.9274 16.9727 25.2423 18.4229 22.8408 18.9063C21.6593 19.1951 20.5888 19.8282 19.7629 20.7262C18.9371 21.6242 18.3927 22.7473 18.1977 23.9551ZM88.4304 51.9922C88.8574 51.9922 94.2476 52.9053 94.6212 53.0127V18.0469C94.2476 17.9395 88.804 17.0264 88.4304 17.0264V51.9922ZM39.1181 21.2695V51.1866C39.5451 51.1328 44.9886 50.5957 45.4156 50.5957V36.0938C47.2835 35.9326 49.1514 35.8252 51.0192 35.7178V50.2198C51.4462 50.166 56.9965 49.9512 57.3701 49.9512V14.9316C52.9405 15.0391 48.5109 15.3076 44.0814 15.6836C40.8259 16.0059 39.1181 17.9395 39.1181 21.2695ZM45.4156 21.6455C45.4689 20.9473 45.8425 19.3359 48.1907 19.1748C49.1514 19.0674 50.0586 19.0137 51.0192 18.96V32.0654C49.1514 32.1729 47.2301 32.334 45.3622 32.4414V21.6455H45.4156ZM74.0744 34.9121C74.4479 34.9121 75.7288 35.0195 75.7288 35.0195V46.7823C74.7682 46.7285 73.8075 46.6211 72.8469 46.5674C71.4593 46.46 70.7655 45.8155 70.4453 45.2246C70.183 44.749 70.0538 44.2107 70.0717 43.667V27.2852C70.0717 24.1699 70.0184 21.8604 70.0184 21.6455V21.3232C70.0147 20.758 70.203 20.2084 70.5521 19.7656C71.0324 19.2285 71.8329 18.96 72.9003 19.0674C72.9003 19.0137 74.5013 19.1748 76.4226 19.3359L77.2765 23.2568L82.0262 23.9014V16.167C81.6527 16.0059 68.7909 14.9854 68.7909 15.1465H68.5774C67.5101 15.0928 65.8556 15.0391 64.7883 16.0059C64.0945 16.6504 63.7743 17.6709 63.7743 19.0137V44.9561C63.7743 48.2862 65.4287 49.9512 68.7909 50.1123C68.7909 50.0049 80.3718 50.8106 82.0262 51.1328C82.0262 50.7569 82.0796 32.7637 82.0796 32.3877C81.6527 32.334 74.5547 31.6358 74.1811 31.6358V34.9121H74.0744Z" fill="#0B77BD"/>
<path d="M18.1977 23.9553V20.2493C18.1977 20.2493 11.0464 21.3772 6.34995 22.9348C5.12248 23.3108 3.36133 24.7073 3.36133 26.5334V59.1897C3.73491 59.0286 8.59142 57.5247 8.965 57.4173V29.3264C8.965 27.3928 10.5661 26.3723 11.9536 25.9426C12.7008 25.7278 14.9423 25.4055 14.9423 25.4055V49.5755L21.133 48.0715V26.426C21.1762 25.6556 21.472 24.9213 21.9742 24.3382C22.4764 23.755 23.1565 23.3559 23.9081 23.2034C25.5092 22.9348 26.6833 22.7737 26.6833 22.7737V53.1204C27.0035 53.013 32.5538 52.0999 32.9274 52.0462V16.9729C32.9274 16.9729 25.2423 18.4231 22.8408 18.9065C21.6593 19.1954 20.5888 19.8284 19.7629 20.7264C18.9371 21.6244 18.3927 22.7475 18.1977 23.9553ZM88.4304 51.9925C88.8574 51.9925 94.2476 52.9055 94.6212 53.013V17.9934C94.2476 17.886 88.804 17.0266 88.4304 16.9729V51.9925ZM74.0744 34.9124C74.4479 34.9124 75.7288 35.0198 75.7288 35.0198V46.7825C74.7681 46.7288 73.8075 46.6214 72.8469 46.5676C71.4593 46.4602 70.7655 45.8157 70.4453 45.2249C70.1736 44.7507 70.0267 44.2146 70.0184 43.6672V27.2854C70.0184 24.1702 69.965 21.8606 69.965 21.6457V21.3235C69.9613 20.7582 70.1496 20.2087 70.4987 19.7659C70.979 19.2287 71.7795 18.9602 72.8469 19.0676C72.8469 19.0139 74.4479 19.175 76.3692 19.3362L77.2231 23.2571L81.9729 23.9016V16.1672C81.5459 16.0061 68.7375 14.9856 68.7375 15.1467H68.4707C67.5101 15.093 65.8023 15.0393 64.7349 16.0061C64.0411 16.6506 63.7209 17.6711 63.7209 19.0139V44.9563C63.7209 48.2327 65.3753 49.9514 68.7375 50.1126C68.7375 50.0051 80.3185 50.8108 81.9729 51.1331V32.3879C81.5993 32.3342 74.5013 31.636 74.0744 31.636V34.9124Z" fill="#0B77BD"/>
<path d="M39.8137 9.93658C39.8118 9.97059 39.8009 10.0035 39.7821 10.0318C39.7634 10.0601 39.7374 10.0829 39.7069 10.0977C39.6536 10.2051 39.4935 10.2589 39.28 10.3126C39.0064 10.3241 38.7364 10.3784 38.4795 10.4737H38.3727C38.266 10.4737 38.266 10.42 38.266 10.42C38.2661 10.4129 38.2648 10.4059 38.2622 10.3993C38.2595 10.3927 38.2556 10.3867 38.2506 10.3817C38.2456 10.3767 38.2397 10.3728 38.2332 10.3701C38.2267 10.3675 38.2197 10.3662 38.2126 10.3663V4.24322C38.2126 4.24322 38.2126 4.18951 38.3194 4.08209C38.4344 3.96531 38.5844 3.88982 38.7463 3.86724C38.9598 3.86724 39.2266 3.75982 39.4401 3.75982C39.4935 3.75982 39.5468 3.70611 39.6002 3.70611C39.6584 3.7033 39.7155 3.72245 39.7603 3.75982C39.7673 3.7597 39.7743 3.76101 39.7809 3.76366C39.7874 3.76632 39.7933 3.77027 39.7983 3.77528C39.8033 3.78029 39.8072 3.78626 39.8099 3.79283C39.8125 3.79941 39.8138 3.80644 39.8137 3.81353V9.93658ZM41.9484 2.41705C41.7958 2.1983 41.5673 2.045 41.308 1.98736C41.1251 1.90016 40.9226 1.8631 40.7209 1.87994C40.4512 1.88927 40.1831 1.92525 39.9204 1.98736C39.28 2.09478 38.5862 2.25591 37.9458 2.30962C37.4919 2.38621 37.057 2.55035 36.6649 2.79302C36.4312 2.94757 36.2315 3.14864 36.0779 3.38384C35.9088 3.6975 35.8173 4.04755 35.811 4.40435V10.9034C35.7918 11.2297 35.8862 11.5526 36.0779 11.8165C36.2305 12.0352 36.459 12.1885 36.7183 12.2462H37.1986C37.5188 12.2462 37.7857 12.1924 38.0525 12.1924C38.7463 12.0313 39.3867 11.9239 40.0805 11.8165C40.5199 11.7139 40.9487 11.5701 41.3614 11.3868C41.5829 11.2177 41.7804 11.019 41.9484 10.796C42.1345 10.5092 42.2277 10.1714 42.2152 9.82916V3.33013C42.2326 3.16775 42.218 3.00351 42.1722 2.84682C42.1265 2.69014 42.0504 2.54409 41.9484 2.41705Z" fill="black"/>
<path d="M72.3678 1.12793C72.2268 0.896382 72.0231 0.710068 71.7807 0.590821C71.36 0.40001 70.9074 0.290681 70.4465 0.268555C69.1123 0.161133 67.7781 0.107422 66.4973 0.107422H66.0703V9.93653H66.4439C67.0309 9.99024 67.618 9.99024 68.205 10.044H68.5786V1.77246C68.8455 1.77246 69.1123 1.82617 69.3791 1.82617C70.3398 1.9336 70.1797 2.25586 70.233 2.30957V10.0977H70.5532C71.1403 10.1514 71.674 10.2051 72.261 10.2588L72.6346 10.3125V2.04102C72.657 1.87848 72.6448 1.71301 72.5987 1.55559C72.5527 1.39817 72.474 1.2524 72.3678 1.12793Z" fill="black"/>
<path d="M78.0241 9.13087C77.9008 9.15662 77.7761 9.17456 77.6505 9.18458C77.5581 9.19863 77.4637 9.17962 77.3837 9.13087C77.0785 9.12481 76.7747 9.08883 76.4764 9.02345V2.52442C76.7433 2.52442 77.0101 2.57813 77.2769 2.57813C77.502 2.60846 77.7193 2.68136 77.9174 2.79297C78.0775 2.90039 78.1308 2.9541 78.1308 3.22266V8.86231C78.0775 9.07716 78.0775 9.07716 78.0241 9.13087ZM80.3189 2.04102C80.1464 1.80342 79.9287 1.60261 79.6785 1.4502C79.2848 1.23019 78.8472 1.10172 78.3977 1.07422C77.864 0.966797 75.1422 0.644531 74.4484 0.59082L74.0215 0.537109V10.4736H74.3417C75.6759 10.6348 77.0101 10.7959 78.2909 10.957C78.4837 10.9992 78.6809 11.0173 78.878 11.0108C79.1133 11.0098 79.3471 10.9736 79.5718 10.9033C79.8373 10.8257 80.0771 10.6772 80.2656 10.4736C80.4736 10.1948 80.5859 9.85551 80.5858 9.50684V3.00781C80.5795 2.66803 80.4877 2.3354 80.3189 2.04102Z" fill="black"/>
<path d="M47.5521 4.78051C47.5526 4.89681 47.5151 5.01004 47.4453 5.10278C47.2255 5.2196 46.9926 5.30975 46.7516 5.37133C46.4991 5.37687 46.2483 5.41294 46.0044 5.47875V2.68578C46.2917 2.6765 46.5776 2.64054 46.8583 2.57836H47.2319C47.4453 2.57836 47.5521 2.57836 47.5521 2.63207C47.6055 2.68578 47.5521 2.63207 47.6055 2.73949V4.40453C47.5681 4.52625 47.5501 4.65314 47.5521 4.78051ZM50.0604 10.0979V6.82153C50.0648 6.64066 50.023 6.46169 49.9388 6.30179C49.8547 6.1419 49.7312 6.00644 49.5801 5.90844C49.5267 5.90844 49.5267 5.85473 49.42 5.85473C49.5942 5.7469 49.739 5.59719 49.8415 5.41906C49.944 5.24093 50.0009 5.03996 50.007 4.83422V2.30981C50.0072 1.96114 49.8948 1.62185 49.6868 1.34301C49.5189 1.14074 49.2965 0.991545 49.0464 0.913321C48.7851 0.843949 48.5161 0.80786 48.2459 0.805899C48.0664 0.799633 47.8869 0.817699 47.7122 0.85961C46.4313 1.02074 45.0971 1.18188 43.8163 1.34301L43.4961 1.39672V11.2795L43.923 11.2258C44.4882 11.1245 45.0583 11.0528 45.6308 11.011L45.951 10.9573V7.09008C46.2381 7.07755 46.5236 7.04162 46.8049 6.98266H47.1251C47.2589 6.96752 47.3931 7.00613 47.4987 7.09008C47.5521 7.09008 47.5521 7.14379 47.5521 7.30493V10.7424L48.0324 10.6887C48.5661 10.635 49.1531 10.5813 49.6868 10.5276L50.0604 10.4739V10.0979Z" fill="black"/>
<path d="M56.8908 7.89551V6.60645H56.5172L55.0229 6.71387L54.4358 8.48634H53.7954V0.268555H53.3685C52.8348 0.322266 52.1944 0.375977 51.6607 0.429688H51.2871V10.3662L51.7141 10.3125C53.3151 10.2051 54.9695 10.0977 56.5706 10.044H56.8908V7.89551Z" fill="black"/>
<path d="M62.2277 4.56546H60.5732V1.98734C60.5732 1.93363 60.5732 1.87991 60.68 1.77249C60.9112 1.65541 61.1685 1.59993 61.4271 1.61136H62.2277V4.56546ZM64.3624 2.96659e-05H60.3598C59.9051 -0.0207246 59.4511 0.0523904 59.0256 0.214874C58.7821 0.331322 58.5644 0.495693 58.3851 0.698272C58.1689 0.993278 58.0562 1.35228 58.0649 1.71878V9.93656H58.4919C59.0256 9.93656 59.6126 9.88285 60.1997 9.88285H60.5732V6.17679H62.2277V9.82914H62.6012C63.1349 9.82914 63.7753 9.82914 64.309 9.88285H64.736V2.96659e-05H64.3624Z" fill="black"/>
<path d="M85.7088 10.3661V10.4198C85.664 10.4572 85.6069 10.4763 85.5487 10.4735C85.5197 10.4771 85.4903 10.4742 85.4626 10.4649C85.4349 10.4556 85.4096 10.4402 85.3886 10.4198C85.1266 10.3541 84.8581 10.3181 84.5881 10.3124C84.3746 10.2587 84.2145 10.1512 84.2145 10.0438C84.1841 10.0159 84.165 9.97764 84.1611 9.9364V3.75964H84.5347C84.7482 3.81335 85.015 3.86706 85.2285 3.92077C85.3834 3.93141 85.5318 3.98742 85.6554 4.0819C85.6856 4.10754 85.707 4.14209 85.7166 4.18065C85.7262 4.21921 85.7235 4.25983 85.7088 4.29675V10.3661ZM87.8969 3.43737C87.7585 3.19017 87.5555 2.98584 87.3099 2.84655C86.921 2.58676 86.4862 2.40444 86.029 2.30944C85.3886 2.20202 84.6948 2.04089 84.0544 1.93346C83.8077 1.89071 83.5574 1.87272 83.3072 1.87975C83.11 1.8684 82.9122 1.8865 82.7202 1.93346C82.459 1.99223 82.2189 2.12232 82.0264 2.30944C81.8175 2.60816 81.7056 2.96466 81.7062 3.32995V9.82898C81.6937 10.1713 81.7869 10.509 81.973 10.7958C82.1266 11.031 82.3264 11.232 82.5601 11.3866C82.9664 11.586 83.397 11.7305 83.8409 11.8163C84.5347 11.9237 85.1751 12.0311 85.8156 12.1923C86.0968 12.2512 86.3824 12.2871 86.6694 12.2997C86.8314 12.3084 86.9937 12.2903 87.1498 12.246C87.4188 12.2097 87.6654 12.0761 87.8436 11.87C88.0427 11.5893 88.1372 11.247 88.1104 10.9032V4.40417C88.1166 4.06941 88.0434 3.73799 87.8969 3.43737Z" fill="black"/>
<path d="M47.1236 57.2022L48.351 56.6113L49.4184 57.5244L49.2049 56.1816L50.379 55.4834L49.0448 55.2148L48.7246 53.8721L48.0842 55.1074L46.75 54.9463L47.7106 55.9668L47.1236 57.2022Z" fill="white"/>
<path d="M88.5916 49.5215C89.819 48.9844 92.0605 48.0176 92.0605 48.0176L92.2206 47.9639L92.0605 47.9102C92.0605 47.9102 88.4315 46.6748 87.6843 46.46C87.5242 45.6006 86.9905 41.626 86.9905 41.626L86.9371 41.4648L85.6029 43.6133C85.6029 43.6133 84.8558 44.8486 84.4288 45.4932C83.5749 45.2246 79.8392 44.3115 79.8392 44.3115L79.6257 44.2041L79.7858 44.4189C79.7858 44.4189 81.2801 46.3525 82.1874 47.5879C77.8899 46.6719 73.5045 46.2396 69.1121 46.2988C67.4577 46.2988 65.7499 46.3525 63.9354 46.46C57.145 46.8564 50.4439 48.2124 44.029 50.4883L44.7762 48.2324L44.6161 48.2861C34.5828 51.4551 23.5889 60.9619 18.7324 70.3076L18.8392 70.3614C25.6703 63.916 35.0098 58.7061 43.3352 56.8262L41.1471 61.9287L41.3072 61.875C45.1497 59.9951 50.2731 59.1895 55.3965 59.1895C60.6799 59.1895 65.9634 60.0488 70.0728 61.5528L68.5251 64.9903C64.7893 63.2715 59.3991 62.1436 54.8628 62.1436C54.0623 62.1436 53.3151 62.1436 52.5679 62.1973V62.3584C57.9048 63.8623 63.3483 65.5811 67.7246 69.0723C67.6802 69.4465 67.6623 69.8234 67.6712 70.2002C67.6712 79.3848 75.5697 87.7637 84.9092 87.7637H85.1226C95.316 87.6563 102.948 78.2032 102.948 68.3203C102.894 61.1231 98.7849 53.6572 88.5916 49.5215Z" fill="black"/>
<path d="M82.9861 66.4404C79.2503 66.4404 75.4077 65.0439 71.6186 63.6475C70.6328 65.7274 70.1222 68.0031 70.1243 70.3076C70.1081 71.5386 70.2516 72.7664 70.5512 73.96H71.5119C79.0264 73.9404 86.4047 71.9405 92.9126 68.1592C92.1396 66.8177 91.284 65.5261 90.3509 64.292C88.1553 65.7127 85.5962 66.4592 82.9861 66.4404Z" fill="#C2CCD2"/>
<path d="M71.2454 75.3564H70.9785C73.2734 81.3721 78.5568 85.293 84.961 85.4004C87.0424 80.2979 89.2839 74.7656 94.5139 72.1338C94.2471 71.2744 93.9269 70.3613 93.5533 69.4482C86.7668 73.3672 79.0695 75.4058 71.2454 75.3564Z" fill="#C2CCD2"/>
<path d="M87.0955 56.665C85.8624 56.1284 84.5736 55.7321 83.253 55.4834C82.6126 55.5908 81.7053 55.6445 81.0115 55.752C84.9074 57.3096 87.7893 59.1895 90.6178 62.4658C92.1024 61.3431 93.3535 59.9379 94.3002 58.3301C91.6852 55.752 86.7219 52.583 74.2871 51.6162C79.5172 52.8516 84.3204 54.5703 87.1489 56.5576L87.0955 56.665Z" fill="#C2CCD2"/>
<path d="M52.3535 54.8926H54.8085C63.6142 54.8926 77.1698 55.9131 82.4532 62.1973L82.3465 62.3047C80.532 61.3379 76.9029 59.6191 74.6081 59.6191H74.448C73.6491 60.4791 72.9342 61.4144 72.3133 62.4121C75.8356 63.7549 79.4113 65.044 82.9336 65.044C85.2669 65.0795 87.5622 64.4461 89.5512 63.2178C83.4139 56.5039 73.1138 53.5498 63.3474 53.5498C59.6438 53.573 55.9551 54.0236 52.3535 54.8926Z" fill="#C2CCD2"/>
<path d="M93.9816 67.4609C95.6724 66.358 97.1996 65.0199 98.5179 63.4863C97.6542 61.868 96.5163 60.4139 95.1557 59.1895C94.1953 60.8646 92.9276 62.3409 91.4199 63.54C92.4016 64.7578 93.2597 66.0713 93.9816 67.4609Z" fill="#C2CCD2"/>
<path d="M86.4551 85.3467C89.5135 85.0422 92.4121 83.8266 94.7805 81.8555C95.1448 80.4712 95.3243 79.0443 95.3142 77.6123C95.3223 76.2604 95.1971 74.911 94.9406 73.584C90.2442 75.8398 88.323 80.7813 86.4551 85.3467Z" fill="#C2CCD2"/>
<path d="M96.6496 78.5254V79.9219C98.401 77.6562 99.5408 74.9734 99.9584 72.1338C98.6358 72.2675 97.3303 72.5375 96.0625 72.9395C96.4687 74.7729 96.6656 76.647 96.6496 78.5254Z" fill="#C2CCD2"/>
<path d="M94.6738 68.75C95.0474 69.6631 95.421 70.6299 95.7946 71.5967C97.2015 71.1684 98.6513 70.8981 100.117 70.791V70.4688C100.146 68.5978 99.8196 66.7385 99.1568 64.9902C97.8002 66.401 96.2973 67.6615 94.6738 68.75Z" fill="#C2CCD2"/>
<path d="M100.118 70.791C98.6345 70.8981 97.167 71.1683 95.7418 71.5967C95.4238 70.6266 95.0496 69.676 94.6211 68.75C96.2593 67.6593 97.7796 66.3992 99.1574 64.9902C99.7648 66.7534 100.089 68.6028 100.118 70.4688V70.791Z" fill="#C2CCD2"/>
<path d="M95.1551 59.1357C96.5037 60.392 97.6394 61.8616 98.5173 63.4863C97.1834 64.9887 95.6581 66.3071 93.981 67.4072C93.2263 66.0665 92.3885 64.7749 91.4727 63.54C92.9638 62.3174 94.213 60.8233 95.1551 59.1357Z" fill="#C2CCD2"/>
<path d="M74.3418 51.5625C86.7232 52.5293 91.6865 55.752 94.3549 58.2764C93.4065 59.8829 92.1556 61.2878 90.6725 62.4121C88.0597 59.435 84.7612 57.1481 81.0662 55.752C81.7877 55.5959 82.5187 55.4882 83.2543 55.4297C84.5778 55.7352 85.8794 56.1299 87.1502 56.6113L87.2036 56.5039C84.375 54.5166 79.5719 52.7979 74.3418 51.5625Z" fill="#C2CCD2"/>
<path d="M71.5119 73.96H70.5512C70.2515 72.7482 70.108 71.5026 70.1243 70.2539C70.1224 67.9667 70.6332 65.7085 71.6186 63.6475C75.4078 65.0439 79.1969 66.4404 82.9861 66.4404C85.5926 66.4333 88.1446 65.6888 90.3509 64.292C91.3313 65.4723 92.1896 66.75 92.9126 68.1055C86.4089 71.9032 79.0309 73.9216 71.5119 73.96Z" fill="#C2CCD2"/>
<path d="M84.961 85.4004C78.5568 85.293 73.2734 81.3721 70.9785 75.3564H71.2454C79.0686 75.399 86.7642 73.3608 93.5533 69.4482C93.929 70.3223 94.2498 71.2193 94.5139 72.1338C89.2839 74.7656 86.989 80.2979 84.961 85.4004Z" fill="#C2CCD2"/>
<path d="M96.6496 79.9219V78.5254C96.6656 76.647 96.4687 74.7729 96.0625 72.9395C97.329 72.5322 98.635 72.2621 99.9584 72.1338C99.5614 74.9792 98.4194 77.6672 96.6496 79.9219Z" fill="#C2CCD2"/>
<path d="M89.5512 63.218C87.5815 64.4455 85.3035 65.0793 82.9869 65.0442C79.4113 65.0442 75.8356 63.7551 72.3666 62.4123C72.9691 61.4158 73.6662 60.4805 74.448 59.6194H74.6615C76.9029 59.6194 80.5854 61.2844 82.3999 62.3049L82.5066 62.1975C77.2232 55.9133 63.6676 54.8928 54.8618 54.8928H52.3535C55.9707 54.0159 59.6801 53.5831 63.4008 53.6037C73.1138 53.6037 83.4673 56.5041 89.5512 63.218Z" fill="#C2CCD2"/>
<path d="M94.7805 81.8555C92.4121 83.8266 89.5135 85.0422 86.4551 85.3467C88.323 80.7813 90.2442 75.8398 94.8873 73.584C95.1612 74.9093 95.3042 76.2587 95.3142 77.6123C95.3243 79.0443 95.1448 80.4712 94.7805 81.8555Z" fill="#C2CCD2"/>
<path d="M82.5063 50.8643L85.2281 49.9512L87.2561 52.2608L87.0426 49.1992L89.6577 48.0713L86.7758 47.1045L86.3489 44.0967L84.8545 46.5674L81.9727 45.8154L83.8939 48.2861L82.5063 50.8643Z" fill="#C2CCD2"/>
<path d="M68.2049 53.0664L70.0728 52.0996L71.6204 53.5498L71.3002 51.4551L73.1148 50.3809L71.0334 50.0586L70.6064 47.9639L69.6458 49.8438L67.5645 49.6289L69.0054 51.1328L68.2049 53.0664Z" fill="white"/>
<path d="M47.1236 57.2022L48.351 56.6113L49.365 57.5244L49.2049 56.1816L50.379 55.4834L48.9915 55.2148L48.7246 53.8721L48.0842 55.1074L46.75 54.9463L47.6573 55.9668L47.1236 57.2022Z" fill="white"/>
<path d="M93.7156 75.9473V75.7324L92.0079 78.6328L92.4882 76.0547L92.3814 76.001C89.8197 79.1162 88.8591 81.3184 88.0586 84.0576V84.2188L88.1653 84.165C89.9545 83.5736 91.6323 82.684 93.1286 81.5332C93.5555 80.6201 93.7156 78.7402 93.7156 76.4307V75.9473Z" fill="#0B77BD"/>
<path d="M87.9517 69.1797C84.9792 69.76 81.9602 70.0657 78.9324 70.0928C78.5048 70.1028 78.0769 70.0849 77.6516 70.0391L84.0024 68.1055V67.998C79.7863 67.7832 76.5309 67.7295 72.4215 65.7959L72.3681 65.7422L72.3148 65.7959C71.6728 67.1165 71.344 68.5689 71.3541 70.0391C71.3434 70.9305 71.4694 71.8182 71.7277 72.6709H72.208C74.0226 72.6709 81.6009 72.5098 87.9517 69.2871V69.1797Z" fill="#0B77BD"/>
<path d="M89.3385 74.3896C86.1364 76.8066 83.6815 78.7402 78.9851 79.5996C83.3613 77.3437 86.2965 75.7324 89.0717 72.8857L88.9649 72.7783C84.055 75.6787 77.6509 76.9141 73.1679 77.0752H73.0078L73.1145 77.1826C76.797 83.0908 81.4934 83.6279 83.0411 83.6279H83.5747V83.5742C85.6027 80.4053 86.8836 77.3438 89.4453 74.4434L89.3385 74.3896Z" fill="#0B77BD"/>
<path fill-rule="evenodd" clip-rule="evenodd" d="M86.0297 54.6777C85.8209 54.5269 85.5854 54.4176 85.3359 54.3555C89.1251 55.4834 91.6868 56.9336 93.1277 58.0615C92.9082 58.3892 92.658 58.695 92.3806 58.9746C90.5653 57.1356 88.407 55.6754 86.0297 54.6777ZM97.7174 76.1084V75.8399C97.9467 74.8351 98.0719 73.8091 98.091 72.7783C98.3622 72.6684 98.6524 72.6136 98.9449 72.6172C98.6483 73.818 98.2372 74.9872 97.7174 76.1084ZM99.3184 69.3945C98.8513 69.4316 98.3875 69.5035 97.9309 69.6094C97.8275 68.864 97.6669 68.1277 97.4505 67.4072C97.9793 67.0357 98.4629 66.6031 98.8915 66.1182C99.1973 67.1823 99.3413 68.287 99.3184 69.3945ZM97.664 63.1104C97.1837 63.54 96.8101 63.9697 96.3832 64.3457C95.9548 63.3406 95.4179 62.386 94.7821 61.499C95.1023 61.0693 95.4226 60.6934 95.6894 60.2637C96.4652 61.1242 97.1288 62.0808 97.664 63.1104Z" fill="white"/>
</g>
<defs>
<clipPath id="clip0_38_1022">
<rect width="122" height="89" fill="white"/>
</clipPath>
</defs>
</svg>
