<svg width="123" height="123" viewBox="0 0 123 123" fill="none" xmlns="http://www.w3.org/2000/svg">
<g clip-path="url(#clip0_38_1024)">
<path d="M123 61.5C123 73.6636 119.393 85.554 112.635 95.6676C105.878 105.781 96.2727 113.664 85.0351 118.319C73.7974 122.973 61.4318 124.191 49.502 121.818C37.5721 119.445 26.6139 113.588 18.013 104.987C9.41203 96.3862 3.55472 85.4279 1.18173 73.4981C-1.19126 61.5682 0.0266468 49.2026 4.68144 37.965C9.33623 26.7273 17.2188 17.1223 27.3325 10.3646C37.4461 3.60691 49.3365 1.01777e-06 61.5 1.01777e-06C69.5767 -0.00146844 77.5746 1.58827 85.0368 4.67842C92.499 7.76856 99.2793 12.2986 104.99 18.0097C110.701 23.7208 115.231 30.501 118.322 37.9632C121.412 45.4254 123.001 53.4233 123 61.5Z" fill="white"/>
<path d="M120.737 61.5002C120.737 73.216 117.263 84.6688 110.754 94.4102C104.245 104.152 94.9931 111.744 84.169 116.228C73.345 120.711 61.4345 121.884 49.9437 119.598C38.453 117.313 27.898 111.671 19.6137 103.387C11.3293 95.1023 5.68756 84.5474 3.40191 73.0566C1.11626 61.5659 2.28934 49.6554 6.77281 38.8313C11.2563 28.0073 18.8488 18.7558 28.5902 12.2468C38.3316 5.73783 49.7843 2.26367 61.5002 2.26367C77.2106 2.26397 92.2775 8.50503 103.386 19.614C114.495 30.7229 120.736 45.7898 120.737 61.5002Z" fill="#006BB6"/>
<path d="M11.4028 71.6006L12.6198 75.4659H16.7201L13.4101 77.8788L14.6059 81.6798L11.4028 79.3526L8.15714 81.6798L9.37419 77.8788L6.04297 75.4659H10.1427L11.4028 71.6006Z" fill="white"/>
<path d="M111.618 71.6006L112.835 75.4659H116.956L113.625 77.8788L114.843 81.6798L111.618 79.3526L108.393 81.6798L109.611 77.8788L106.279 75.4659H110.358L111.618 71.6006Z" fill="white"/>
<path d="M25.7954 92.3145L27.013 96.158H31.1127L27.7815 98.5926L28.9985 102.394L25.7954 100.066L22.5497 102.394L23.7668 98.5926L20.4355 96.158H24.5358L25.7954 92.3145Z" fill="white"/>
<path d="M98.571 92.3145L99.788 96.158H103.888L100.578 98.5926L101.795 102.394L98.571 100.066L95.3248 102.394L96.5636 98.5926L93.2324 96.158H97.3109L98.571 92.3145Z" fill="white"/>
<path d="M48.2387 105.789L49.4351 109.654H53.556L50.2248 112.067L51.4419 115.868L48.2387 113.541L44.9931 115.868L46.2101 112.067L42.8789 109.654H46.9792L48.2387 105.789Z" fill="white"/>
<path d="M75.5083 105.789L76.7253 109.654H80.8256L77.4943 112.067L78.7114 115.868L75.5083 113.541L72.2626 115.868L73.4797 112.067L70.1484 109.654H74.2487L75.5083 105.789Z" fill="white"/>
<path d="M105.917 61.7779C105.917 70.5627 103.312 79.1502 98.4317 86.4545C93.5511 93.7587 86.6142 99.4517 78.4981 102.814C70.382 106.175 61.4513 107.055 52.8354 105.341C44.2194 103.627 36.3051 99.397 30.0933 93.1852C23.8816 86.9734 19.6513 79.0592 17.9375 70.4432C16.2236 61.8272 17.1032 52.8965 20.465 44.7804C23.8268 36.6644 29.5198 29.7274 36.8241 24.8469C44.1283 19.9663 52.7158 17.3613 61.5006 17.3613C67.3337 17.3604 73.1099 18.5087 78.4991 20.7405C83.8884 22.9724 88.7852 26.244 92.9099 30.3687C97.0345 34.4933 100.306 39.3901 102.538 44.7794C104.77 50.1687 105.918 55.9448 105.917 61.7779Z" fill="white"/>
<path d="M19.7311 70.5117C22.0499 81.5881 28.6726 91.2903 38.1431 97.4851C47.6136 103.68 59.1565 105.86 70.2341 103.546C75.7338 102.442 80.9554 100.244 85.5886 97.0819C90.2218 93.9197 94.1719 89.8583 97.2043 85.1392C103.326 75.6377 105.501 64.124 103.269 53.044C100.948 41.972 94.3289 32.273 84.8648 26.0756C75.4006 19.8782 63.8644 17.6887 52.7877 19.9875C47.299 21.1331 42.0898 23.3489 37.4577 26.5083C32.8256 29.6677 28.8614 33.7089 25.7916 38.4008C22.7218 43.0928 20.6065 48.3436 19.5667 53.8533C18.5268 59.363 18.5826 65.0236 19.7311 70.5117Z" fill="#006BB6"/>
<path d="M76.0219 28.5287C76.1713 30.1943 75.3815 31.8174 73.7159 33.355C65.7078 27.4828 58.0839 24.5996 50.6099 24.5571C49.0441 24.5579 47.4807 24.6792 45.9336 24.9201C48.3176 23.9185 50.7915 23.1463 53.322 22.6141C59.8958 21.2317 66.7124 21.5327 73.1387 23.4894C74.5269 24.8345 75.872 26.5857 76.0214 28.5287" fill="white"/>
<path d="M67.6711 97.4603C76.0848 89.7301 79.9926 73.1808 82.3204 63.2935L82.6834 61.7559C83.8792 56.7166 85.9934 52.9581 88.2782 50.7158C96.713 63.827 95.5816 77.3661 93.4461 85.8647C89.7106 90.8094 84.8801 94.8211 79.3336 97.5852C73.7871 100.349 67.6756 101.79 61.4785 101.795C63.7333 100.644 65.8173 99.1847 67.6711 97.4603Z" fill="white"/>
<path d="M82.9609 41.2987C86.3777 38.4373 89.111 36.2594 91.0541 34.8281C95.2864 39.455 98.3666 45.0155 100.044 51.0575C98.4643 48.9433 96.457 46.9359 94.2785 46.4874C92.3992 46.1031 90.4774 46.6367 88.6625 47.9181C86.9412 45.5634 85.0346 43.3499 82.9609 41.2987Z" fill="white"/>
<path d="M22.273 59.9836C26.159 49.5632 40.4022 45.2923 45.7626 43.6905L45.9975 43.6262C48.3742 43.0066 50.784 42.5219 53.2154 42.1742C60.1127 40.9997 68.6331 39.5477 73.7793 35.7036C76.0191 37.4158 78.1648 39.2477 80.2068 41.1915C68.5688 51.0789 50.567 67.6925 31.3695 88.0858C26.8471 82.9244 23.742 76.6774 22.358 69.956C21.7889 67.2742 21.5026 64.5401 21.5039 61.7985C21.9525 60.7308 22.2724 59.9836 22.2724 59.9836" fill="white"/>
<path d="M81.6153 39.9965C79.5779 38.0491 77.4395 36.2102 75.209 34.4873C77.152 32.5868 78.0491 30.537 77.8567 28.3585C77.724 27.0571 77.269 25.8093 76.5329 24.728C81.4687 26.7546 85.9594 29.7291 89.7509 33.4834C87.7436 34.9784 84.989 37.1776 81.6147 39.9965" fill="white"/>
<path d="M72.2201 34.5509C67.3939 37.8821 59.4076 39.2491 52.8945 40.338C50.393 40.7067 47.9124 41.2057 45.463 41.833L45.2281 41.8974C40.0819 43.4349 27.1413 47.3002 21.8027 56.6317C22.583 50.6466 24.7075 44.9156 28.0172 39.8682C30.8619 35.4968 34.4973 31.6947 38.7368 28.6569C48.2181 24.6635 58.8522 24.9415 72.2201 34.5509Z" fill="white"/>
<path d="M93.8948 48.3032C96.6925 48.8798 99.6819 53.5774 101.113 56.2683C102.36 65.0007 100.653 73.8995 96.2652 81.5516C96.4788 80.2065 96.6494 78.7758 96.7775 77.2808C97.5707 67.4856 95.0841 57.7047 89.709 49.4777C91.1609 48.4525 92.6129 48.047 93.8943 48.3032" fill="white"/>
<path d="M81.551 42.4946C83.6286 44.5303 85.5223 46.7456 87.2101 49.1146C84.4768 51.7198 82.1489 56.0332 80.8894 61.3292L80.5264 62.888C78.2416 72.583 74.4193 88.7905 66.4325 96.1152C63.7644 98.6442 60.5384 100.51 57.0155 101.561C50.7934 100.857 44.8242 98.6987 39.5903 95.2611C37.0545 93.598 34.7124 91.6569 32.6074 89.474C51.9968 68.8457 70.0624 52.2534 81.551 42.4946Z" fill="white"/>
<path d="M72.541 73.6505L73.63 73.3513C74.2922 73.1807 74.7189 72.967 74.7189 72.0061C74.7189 71.2159 74.5053 69.7852 73.5444 69.7852C72.541 69.7852 72.541 71.4933 72.541 72.4116V73.6505Z" fill="white"/>
<path d="M59.5353 73.0522C59.5353 69.6355 59.4072 66.6885 57.1007 66.6885C55.2214 66.6885 54.8797 69.6355 54.8797 73.0522C54.8797 76.469 54.7728 79.4373 57.1007 79.4373C59.0437 79.416 59.5353 76.469 59.5353 73.0522Z" fill="white"/>
<path d="M72.541 73.6505L73.63 73.3513C74.2922 73.1807 74.7189 72.967 74.7189 72.0061C74.7189 71.2159 74.5053 69.7852 73.5444 69.7852C72.541 69.7852 72.541 71.4933 72.541 72.4116V73.6505Z" fill="white"/>
<path d="M54.6023 65.2154H54.6448C55.755 63.4855 57.8692 62.6526 59.9409 62.6526C64.639 62.6526 67.5217 66.7098 67.5217 72.1552C67.5217 78.604 63.144 82.4481 57.7417 82.4481C49.4349 82.4481 46.4023 75.7432 46.4023 67.97C46.4023 59.0228 50.289 51.6338 59.9621 51.6338C63.7419 51.6338 66.8382 54.0684 66.8382 57.7839C66.8531 58.2645 66.7683 58.743 66.5891 59.1892C66.41 59.6355 66.1405 60.0398 65.7975 60.3768C65.4545 60.7138 65.0454 60.9761 64.5961 61.1472C64.1467 61.3184 63.6668 61.3947 63.1865 61.3713C60.5813 61.3713 59.7485 59.1934 59.3642 57.271C59.2149 56.4595 59.5136 54.6658 58.1684 54.6658C55.3495 54.6658 54.901 60.1749 54.7729 62.2041L54.6023 65.2154Z" fill="white"/>
<path d="M59.5353 73.0522C59.5353 69.6355 59.4072 66.6885 57.1007 66.6885C55.2214 66.6885 54.8797 69.6355 54.8797 73.0522C54.8797 76.469 54.7728 79.4373 57.1007 79.4373C59.0437 79.416 59.5353 76.469 59.5353 73.0522Z" fill="white"/>
<path d="M9.16083 51.9762C10.7409 52.1686 11.3818 53.2788 11.1469 55.3287L10.9763 56.8237L11.8304 56.9305C12.9194 57.0586 13.3254 57.0373 13.4535 56.162L14.4569 56.2901L13.9871 60.3473L12.9837 60.2192C13.0693 59.3221 12.6632 59.2158 11.5742 59.0872L8.4136 58.7242C7.32464 58.5961 6.91858 58.6174 6.7905 59.4927L5.78711 59.3646L6.32125 54.9232C6.57685 52.7447 7.53829 51.7838 9.16083 51.9762ZM10.0149 56.2895C10.1642 54.9444 9.77998 54.2184 8.8191 54.1116C7.98629 54.0048 7.3884 54.5389 7.26032 55.5423C7.17474 56.247 7.43091 56.3964 8.19995 56.4819L9.95113 56.6956C9.97238 56.5675 9.99364 56.4394 10.0149 56.2895Z" fill="white"/>
<path d="M15.0966 47.4917C15.4171 46.6589 15.0753 46.4452 14.0714 46.0185L11.1457 44.8014C10.1423 44.3741 9.73621 44.2891 9.37323 45.1007L8.43359 44.7164L10.0136 40.9579L10.932 41.3421C10.6115 42.1749 10.9533 42.3886 11.9572 42.8153L12.7044 43.1358L13.879 40.3169L13.1317 39.9964C12.1284 39.5691 11.7223 39.4841 11.3593 40.2957L10.4415 39.9109L12.0215 36.1523L12.9612 36.5366C12.6407 37.3694 12.9824 37.583 13.9864 38.0098L16.9121 39.2268C17.9155 39.6542 18.3215 39.7392 18.6845 38.9276L19.6242 39.3119L18.0436 43.0715L17.1252 42.6873C17.4457 41.8545 17.1039 41.6408 16.1 41.2141L14.8186 40.6805L13.6446 43.4983L14.926 44.0324C15.9294 44.4597 16.3354 44.5447 16.6984 43.7332L17.6168 44.1174L16.0368 47.8759L15.0966 47.4917Z" fill="white"/>
<path d="M19.0258 27.5256C18.5135 28.2516 18.7909 28.5508 19.6662 29.2125L22.2072 31.113C23.0825 31.7752 23.4455 31.9458 24.0008 31.2623L24.8124 31.8602L22.3777 35.1059L21.5662 34.508C22.0785 33.782 21.8011 33.4828 20.904 32.8211L18.3631 30.9206C17.4877 30.2584 17.1248 30.0666 16.5694 30.7713L15.7578 30.1734L18.1925 26.9277L19.0258 27.5256Z" fill="white"/>
<path d="M28.2096 27.995L27.5692 27.2265C28.2314 26.6286 28.0177 26.2869 27.313 25.4541L25.2626 23.0194C24.5579 22.1866 24.2592 21.9092 23.5545 22.4641L22.9141 21.6956L26.0316 19.0903L26.672 19.8588C26.0098 20.4567 26.2022 20.7984 26.9069 21.6525L29.1917 24.3646C29.7258 24.9837 29.9602 25.0906 30.6011 24.557C31.4552 23.831 31.8182 22.5496 31.5195 20.9265L32.4166 20.7341L33.335 23.7236L28.2096 27.995Z" fill="white"/>
<path d="M37.8824 20.5423L37.4551 19.624C38.2236 19.1541 38.1811 18.6418 38.1598 17.7447L37.9461 11.4452L39.6548 10.6768L44.353 15.2681C44.8866 15.7804 45.1858 16.0366 45.8693 15.8022L46.2966 16.7206L42.5811 18.4075L42.1756 17.5103C42.2078 17.5051 42.2376 17.4903 42.2612 17.4678C42.7735 17.2329 42.9659 17.0193 42.8166 16.6993C42.7652 16.5868 42.6927 16.4852 42.6029 16.4001L41.7489 15.5461L39.3573 16.635L39.5066 17.8096C39.5153 17.8977 39.537 17.984 39.5709 18.0657C39.7415 18.4287 40.0832 18.45 40.6599 18.1938L41.0643 19.0904L37.8824 20.5423ZM40.9149 14.7983L39.1638 12.919L39.3131 15.5455L40.9149 14.7983Z" fill="white"/>
<path d="M50.4393 14.4566C51.3146 14.3072 51.3364 13.9012 51.1865 12.8122L50.7379 9.6734C50.5886 8.58444 50.4605 8.2002 49.5634 8.30646L49.4141 7.30307L53.5143 6.72643C56.675 6.27787 58.5537 7.51673 58.9385 10.122C59.3014 12.7485 57.8495 14.4353 54.6889 14.9051L50.5886 15.4818L50.4393 14.4566ZM53.3862 13.0046C53.4931 13.8162 53.6424 14.0298 54.4965 13.9017C56.1196 13.6668 57.0161 12.3855 56.7175 10.4212C56.44 8.45636 55.2443 7.47422 53.5999 7.70913C52.7458 7.83721 52.6815 8.07212 52.7883 8.88367L53.3862 13.0046Z" fill="white"/>
<path d="M64.7665 13.2609C65.6418 13.3678 65.7917 12.9835 65.9411 11.894L66.3896 8.75517C66.539 7.6662 66.539 7.26015 65.6636 7.11081L65.813 6.10742L72.5822 7.08956L73.3295 9.71605L72.5179 9.99347C71.8557 8.62653 70.9166 7.83679 69.6565 7.66564C68.845 7.53756 68.6956 7.77247 68.5888 8.56277L68.4177 9.73731L68.8019 9.80163C69.656 9.92971 69.9121 9.6948 70.1045 8.69141L70.9586 8.81949L70.425 12.4924L69.5709 12.3644C69.5922 11.4035 69.3148 10.9124 68.6526 10.8268L68.2683 10.7625L67.9909 12.663C67.8841 13.4533 67.9484 13.7095 68.7812 13.8163C69.977 13.9869 71.3864 13.4108 72.4967 12.0864L73.2014 12.6205L71.557 15.247L64.6172 14.2218L64.7665 13.2609Z" fill="white"/>
<path d="M77.5371 16.8694L77.9426 15.951C78.7754 16.2927 78.9891 15.951 79.4376 14.9258L80.719 12.0219C81.1676 11.0185 81.2744 10.6337 80.4628 10.2494L80.8683 9.33105L84.5838 10.9542L84.1783 11.8725C83.3455 11.5308 83.1318 11.8725 82.6833 12.8759L81.2526 16.1216C80.9321 16.8688 80.9533 17.125 81.7224 17.4667C82.7476 17.9153 84.0715 17.6804 85.3741 16.6764L85.9507 17.3811L83.6872 19.5378L77.5371 16.8694Z" fill="white"/>
<path d="M98.4432 22.9127C97.4398 24.151 96.1584 24.1084 94.5353 22.8058L93.3608 21.8662L92.8266 22.5284C92.1432 23.3825 91.9295 23.7455 92.613 24.3221L91.9726 25.1124L88.8125 22.5497L89.4529 21.7594C90.1576 22.2935 90.4781 22.0368 91.161 21.1827L93.1471 18.7056C93.8306 17.8515 94.0224 17.4885 93.3608 16.9119L94.0012 16.1216L97.4817 18.9405C99.1697 20.2862 99.4684 21.6313 98.4432 22.9127ZM94.3217 21.3114C95.3681 22.1654 96.2009 22.2085 96.7988 21.4607C97.3329 20.7985 97.2043 20.03 96.4146 19.3896C95.8592 18.941 95.603 19.0691 95.1119 19.667L94.0017 21.0334C94.1298 21.1402 94.2366 21.2258 94.3222 21.3114H94.3217Z" fill="white"/>
<path d="M99.0619 30.3225C99.596 31.0484 99.959 30.8778 100.856 30.2369L103.461 28.4219C104.358 27.8028 104.657 27.5036 104.166 26.7563L104.998 26.1797L107.326 29.5109L106.515 30.0875C105.98 29.3616 105.617 29.5322 104.721 30.1731L104.059 30.6429L105.81 33.1414L106.472 32.6715C107.369 32.0524 107.668 31.7532 107.177 31.0059L107.988 30.4293L110.316 33.7605L109.483 34.3371C108.949 33.6112 108.586 33.7818 107.69 34.4227L105.084 36.2377C104.187 36.8568 103.889 37.156 104.38 37.9033L103.547 38.4799L101.219 35.1487L102.031 34.5721C102.565 35.298 102.928 35.1274 103.824 34.4865L104.956 33.6962L103.205 31.1978L102.073 31.9886C101.175 32.6078 100.877 32.907 101.368 33.6542L100.556 34.2309L98.2285 30.8997L99.0619 30.3225Z" fill="white"/>
<path d="M113.86 44.3095C113.518 43.4767 113.113 43.5623 112.087 43.9465L109.119 45.0786C108.094 45.4628 107.752 45.6765 108.03 46.5305L107.091 46.8935L105.639 43.0925L106.578 42.7295C106.92 43.5623 107.326 43.4555 108.351 43.0712L111.319 41.9392C112.344 41.555 112.707 41.3413 112.408 40.5085L113.348 40.1455L114.8 43.9465L113.86 44.3095Z" fill="white"/>
<path d="M108.543 51.3566L109.546 51.2285C109.76 52.1038 110.272 52.2107 111.126 52.4456L117.212 54.0899L117.447 55.9479L111.682 59.0867C111.02 59.4497 110.7 59.6421 110.721 60.3894L109.718 60.5174L109.183 56.4815L110.166 56.3534V56.439C110.23 56.9944 110.4 57.2505 110.742 57.2075C110.869 57.184 110.992 57.1408 111.105 57.0794L112.173 56.5028L111.831 53.8975L110.657 53.6839C110.565 53.6662 110.472 53.6591 110.379 53.6626C109.995 53.7051 109.867 54.0468 109.931 54.666L108.948 54.7941L108.543 51.3566ZM113.156 55.9267L115.462 54.7946L112.921 54.1755L113.156 55.9267Z" fill="white"/>
<path d="M86.4638 66.9666C86.0581 66.9668 85.6573 67.0547 85.2887 67.2242C84.9202 67.3937 84.5926 67.6409 84.3284 67.9487C84.2641 67.8207 84.2216 67.6926 84.1578 67.5858L83.7092 66.7104L77.3242 68.5897V72.0921H78.4988C78.6056 72.0921 78.6693 72.1133 78.6912 72.0921C78.8425 72.575 78.8933 73.0838 78.8405 73.5871V77.6443L77.666 77.8149V81.6584H86.5063V77.8149L85.353 77.6443V76.4485C85.3802 75.5228 85.4875 74.6012 85.6735 73.6939C86.0467 73.8106 86.4358 73.8682 86.8268 73.8645C88.4068 73.8645 89.5176 72.4338 89.5176 70.4052C89.5389 68.3548 88.3006 66.9666 86.4638 66.9666Z" fill="white"/>
<path d="M97.547 71.0457C97.4829 70.8672 97.4469 70.6798 97.4402 70.4903C97.4402 69.4439 97.0129 67.0098 93.1481 67.0098C91.0127 67.0098 86.8061 68.6541 86.8061 72.4764C86.7703 73.6301 87.1323 74.761 87.8313 75.6795C87.3907 75.9616 87.0323 76.355 86.7923 76.8198C86.5523 77.2847 86.4392 77.8047 86.4644 78.3273C86.4644 79.6942 87.1479 82.0002 91.7817 82.0002C95.7533 82.0002 98.0174 79.9504 98.0174 76.363C98.0381 72.9462 97.7388 71.8142 97.547 71.0457Z" fill="white"/>
<path d="M50.8231 50.5025C50.7041 50.3636 50.5569 50.2517 50.3912 50.1743C50.2254 50.097 50.0451 50.0559 49.8622 50.054C49.2856 50.054 48.8157 50.417 48.2604 51.0149C47.3112 52.0069 46.1662 52.7907 44.8979 53.3164C43.6296 53.8421 42.2658 54.0983 40.8932 54.0687C37.0497 54.0687 32.9919 52.2962 29.7675 49.2212C29.6438 49.0985 29.4972 49.0014 29.336 48.9355C29.1747 48.8696 29.0021 48.8361 28.8279 48.8369C27.2479 48.8369 26.8418 51.3566 26.8418 51.3997V64.0629L27.8452 64.2122C31.2079 64.7917 34.6543 64.6681 37.9669 63.8492C34.7213 66.7531 27.4179 74.6544 27.5247 82.1709C27.546 83.5591 28.4 83.7084 28.763 83.7084C29.1237 83.7028 29.4682 83.5574 29.7239 83.3029C29.7882 83.2604 29.852 83.1961 29.9163 83.1536C31.3021 82.2883 32.9179 81.8639 34.5501 81.9366C36.0272 81.9158 37.4913 82.2143 38.8422 82.8119C39.0847 82.9456 39.3558 83.0189 39.6325 83.0255C39.8087 83.0266 39.9831 82.9911 40.1448 82.9213C40.3066 82.8515 40.4521 82.7489 40.5722 82.62C40.7235 82.4302 40.8308 82.209 40.8862 81.9726C40.9416 81.7362 40.9438 81.4904 40.8926 81.2531C40.3585 75.7864 41.5549 69.8287 43.8821 66.3907L44.2239 65.8784C46.2099 62.9527 50.3309 56.8456 51.0999 51.8057C51.1551 51.5817 51.1588 51.3481 51.1109 51.1224C51.063 50.8967 50.9646 50.6848 50.8231 50.5025Z" fill="white"/>
<path d="M80.2271 74.6967L80.1628 73.7358C80.1292 73.1303 80.0362 72.5295 79.8854 71.9421L79.8429 70.8319L79.6292 71.1524C79.2289 69.9255 78.4479 68.8581 77.3995 68.1054C76.3511 67.3528 75.0901 66.954 73.7996 66.9671C69.6993 66.9671 66.8379 70.2128 66.8379 74.8466C66.8379 78.4127 68.9308 82.0001 73.5647 82.0001C74.8408 82.0177 76.0998 81.7043 77.2188 81.0905C78.3378 80.4767 79.2787 79.5834 79.9497 78.4977L80.1203 78.1985L79.9922 74.7605L80.2271 74.6967ZM75.2515 76.9177C75.0528 76.912 74.8597 76.851 74.6937 76.7416C74.5278 76.6323 74.3955 76.4788 74.3119 76.2986L76.5754 75.6794C76.2253 76.18 75.7743 76.6018 75.2515 76.9177Z" fill="white"/>
<path d="M64.9597 63.4859C64.7247 63.1654 64.4686 62.7812 64.2549 62.4607C65.3409 62.2721 66.3219 61.6968 67.0167 60.8411C67.7115 59.9854 68.0731 58.9072 68.0347 57.8056C68.0347 53.6203 64.5754 50.481 59.9841 50.481C50.7589 50.481 45.2285 57.0366 45.2285 67.9917C45.2285 77.9428 49.7986 83.6443 57.7418 83.6443C64.1906 83.6443 68.6964 78.9249 68.6964 72.1769C68.7182 68.8032 66.4547 65.6001 64.9597 63.4859Z" fill="white"/>
<path d="M75.2742 78.1137C73.8435 78.1137 72.9895 76.8111 72.8614 75.4872L79.0115 73.8216C78.8409 70.8109 77.0897 68.1626 73.8223 68.1626C70.3417 68.1626 68.0352 70.8747 68.0352 74.8675C68.0352 77.9851 69.8288 80.8252 73.5874 80.8252C74.6584 80.8479 75.7168 80.5898 76.6571 80.0765C77.5974 79.5632 78.387 78.8127 78.9472 77.8995L77.7302 76.4476C77.1535 77.3878 76.4488 78.1137 75.2742 78.1137ZM72.5622 72.4334C72.5622 71.5151 72.5622 69.8069 73.5656 69.8069C74.5052 69.8069 74.7401 71.2377 74.7401 72.028C74.7608 72.1884 74.7487 72.3514 74.7045 72.507C74.6604 72.6627 74.5852 72.8077 74.4834 72.9335C74.3816 73.0592 74.2554 73.163 74.1123 73.2386C73.9693 73.3141 73.8124 73.3599 73.6511 73.3731L72.5622 73.6723V72.4334Z" fill="#006BB6"/>
<path d="M85.3738 80.4841H78.8825V78.8398L80.0571 78.6692V73.5868C80.0571 71.7718 79.8222 70.8959 78.5195 70.8959V69.4652L83.1321 68.1201C83.6126 69.1741 83.874 70.3146 83.9006 71.4726H83.9431C84.4129 70.0844 84.9896 68.1414 86.484 68.1414C87.8079 68.1414 88.3845 69.1666 88.3845 70.4049C88.3845 71.665 87.8292 72.6896 86.8683 72.6896C86.3368 72.655 85.816 72.5248 85.3307 72.3054C84.4979 72.028 84.2205 75.6791 84.2205 76.4482V78.6692L85.3738 78.8398V80.4841Z" fill="#006BB6"/>
<path d="M96.2857 70.5115C96.2857 71.5149 95.4104 72.0278 94.492 72.0278C93.9623 71.9983 93.4599 71.783 93.0732 71.4198C92.6865 71.0565 92.4403 70.5685 92.3778 70.0417C91.908 70.0417 91.5663 70.2766 91.5663 71.0881C91.5663 72.9674 96.8836 71.6223 96.8836 76.3842C96.8836 79.9503 94.2996 80.8475 91.8225 80.8475C90.3062 80.8475 87.6797 80.655 87.6797 78.349C87.6797 77.3026 88.2563 76.5128 89.3028 76.5128C90.9041 76.5128 91.182 77.986 91.4595 79.0325C91.4961 79.1405 91.5699 79.232 91.6677 79.2907C91.7656 79.3494 91.881 79.3715 91.9936 79.353C92.8477 79.353 93.4668 79.0112 93.4668 78.4346C93.4668 76.2992 88.0214 77.132 88.0214 72.4769C88.0214 69.5299 91.502 68.2061 93.1894 68.2061C95.0899 68.2061 96.2857 68.8465 96.2857 70.5121" fill="#006BB6"/>
<path d="M59.9837 62.6748C57.9126 62.6748 55.7985 63.5076 54.6877 65.2375H54.6452L54.8588 62.248C54.9869 60.2194 55.4355 54.7097 58.2544 54.7097C59.5995 54.7097 59.3008 56.5034 59.4502 57.315C59.8132 59.2155 60.646 61.4152 63.2725 61.4152C63.7523 61.4369 64.2315 61.3595 64.6801 61.1877C65.1287 61.016 65.5371 60.7536 65.8797 60.417C66.2224 60.0803 66.492 59.6767 66.6717 59.2312C66.8514 58.7857 66.9373 58.308 66.9241 57.8278C66.9241 54.1124 63.8278 51.6777 60.0481 51.6777C50.3743 51.6777 46.4883 59.0661 46.4883 68.0139C46.4883 75.7866 49.499 82.4921 57.8276 82.4921C63.2305 82.4921 67.6076 78.6485 67.6076 72.1992C67.5646 66.732 64.6819 62.6748 59.9837 62.6748ZM57.1011 79.4377C54.7951 79.4377 54.8801 76.4695 54.8801 73.0527C54.8801 69.6359 55.2006 66.6889 57.1011 66.6889C59.4289 66.6889 59.5357 69.6359 59.5357 73.0527C59.557 76.4695 59.0659 79.4377 57.1011 79.4377Z" fill="#006BB6"/>
<path d="M28.0162 51.5063V63.0375C34.465 63.9984 42.1739 63.358 47.6405 55.3929C47.8754 55.0512 48.0035 55.2861 47.8542 55.5853C46.3379 58.6817 42.7292 61.5431 39.6117 63.999C36.6222 66.348 28.5928 74.7617 28.6997 82.1713C28.6997 82.748 28.7209 82.5768 29.2332 82.2138C31.6679 80.3989 36.4298 80.3558 39.355 81.744C39.7605 81.9364 39.8035 81.8721 39.7392 81.3598C39.1838 75.6157 40.4652 69.3588 42.9211 65.7071C44.608 63.1874 49.178 56.6956 49.9678 51.6132C50.0533 51.0796 49.7754 51.1646 49.1137 51.8693C43.9457 57.336 34.6143 57.1866 28.571 51.4208C28.208 51.0153 28.0369 51.1859 28.0156 51.5063" fill="#ED174C"/>
<path d="M39.2112 55.6534C45.3199 55.6534 50.272 50.7013 50.272 44.5925C50.272 38.4838 45.3199 33.5317 39.2112 33.5317C33.1025 33.5317 28.1504 38.4838 28.1504 44.5925C28.1504 50.7013 33.1025 55.6534 39.2112 55.6534Z" fill="white"/>
<path d="M39.2069 33.9321L39.5698 35.1067H40.83L39.8048 35.8326L40.1677 36.9859L39.2069 36.2812L38.2035 36.9859L38.5877 35.8326L37.5625 35.1067H38.8226L39.2069 33.9321Z" fill="#006BB6"/>
<path d="M46.5522 38.2241L46.9365 39.3774H48.1966L47.1714 40.1246L47.5344 41.2779L46.5522 40.5732L45.5701 41.2779L45.9543 40.1246L44.9297 39.3774H46.1892L46.5522 38.2241Z" fill="#006BB6"/>
<path d="M43.3926 34.9141L43.7769 36.0673H45.0364L44.0118 36.8146L44.3748 37.9679L43.4139 37.2631L42.4312 37.9679L42.7947 36.8146L41.7695 36.0673H43.0296L43.3926 34.9141Z" fill="#006BB6"/>
<path d="M47.769 42.2598L48.1326 43.4343H49.3921L48.3675 44.1815L48.7517 45.3348L47.769 44.6301L46.7869 45.3348L47.1499 44.1815L46.1465 43.4343H47.3848L47.769 42.2598Z" fill="#006BB6"/>
<path d="M47.2364 46.5522L47.6206 47.7268H48.8595L47.8555 48.474L48.2185 49.6273L47.2364 48.9013L46.2542 49.6273L46.6172 48.4528L45.6133 47.7268H46.8734L47.2364 46.5522Z" fill="#006BB6"/>
<path d="M44.8653 49.9688L45.2283 51.1433H46.4884L45.4844 51.8905L45.8474 53.0438L44.8865 52.3391L43.8831 53.0438L44.2674 51.8905L43.2422 51.1433H44.5023L44.8653 49.9688Z" fill="#006BB6"/>
<path d="M41.1504 51.8906L41.5347 53.0652H42.773L41.7483 53.8124L42.1326 54.9657L41.1504 54.261L40.1677 54.9657L40.5307 53.8124L39.5273 53.0652H40.7656L41.1504 51.8906Z" fill="#006BB6"/>
<path d="M31.7104 37.8398L31.3262 39.0144H30.0879L31.0913 39.7404L30.7283 40.8936L31.6892 40.1889L32.6926 40.8936L32.3083 39.7404L33.3335 39.0144H32.0734L31.7104 37.8398Z" fill="#006BB6"/>
<path d="M34.7852 34.9141L34.401 36.0673H33.1621L34.1661 36.8146L33.8031 37.9679L34.7852 37.2631L35.7674 37.9679L35.4044 36.8146L36.4083 36.0673H35.1695L34.7852 34.9141Z" fill="#006BB6"/>
<path d="M30.2598 41.7476L29.8968 42.9221H28.6367L29.6619 43.6481L29.2989 44.8226L30.2598 44.0966L31.242 44.8226L30.879 43.6481L31.9042 42.9221H30.6653L30.2598 41.7476Z" fill="#006BB6"/>
<path d="M30.6653 46.0186L30.281 47.1931H29.0215L30.0461 47.9403L29.6831 49.0936L30.644 48.3889L31.6262 49.0936L31.2632 47.9403L32.2671 47.1931H31.0283L30.6653 46.0186Z" fill="#006BB6"/>
<path d="M33.0137 49.52L32.6507 50.6946H31.3906L32.4158 51.4418L32.0316 52.5951L33.0137 51.8691L34.0177 52.5951L33.6329 51.4418L34.6368 50.6946H33.398L33.0137 49.52Z" fill="#006BB6"/>
<path d="M36.728 51.7412L36.365 52.9158H35.1055L36.1301 53.663L35.7671 54.8163L36.728 54.1115L37.732 54.8163L37.3477 53.6417L38.3724 52.9158H37.1128L36.728 51.7412Z" fill="#006BB6"/>
</g>
<defs>
<clipPath id="clip0_38_1024">
<rect width="123" height="123" fill="white"/>
</clipPath>
</defs>
</svg>
