<svg width="122" height="124" viewBox="0 0 122 124" fill="none" xmlns="http://www.w3.org/2000/svg">
<g clip-path="url(#clip0_38_1023)">
<path d="M121.784 0.340105C121.684 0.229301 121.562 0.141494 121.425 0.0827563C121.288 0.0240187 121.14 -0.00424754 120.991 -8.74863e-05H44.494C35.3777 -8.74863e-05 29.772 3.96882 27.8469 11.6798L0.0450488 122.696C0.00146348 122.85 -0.00588113 123.012 0.0235911 123.169C0.0530632 123.327 0.118551 123.475 0.214917 123.603C0.307191 123.726 0.426871 123.826 0.564468 123.895C0.702066 123.964 0.853798 124 1.00764 124H84.3564C89.1127 124 93.8691 120.144 94.9449 115.495L121.954 1.24728C121.998 1.09321 122.005 0.931114 121.975 0.773719C121.946 0.616323 121.88 0.467905 121.784 0.340105Z" fill="#63727A"/>
<path d="M1.00781 122.979H84.3566C88.6599 122.979 93.0199 119.464 93.9825 115.268L120.992 0.963867H44.4941C37.4163 1.02057 30.9613 3.34521 28.8096 11.9634L1.00781 122.979Z" fill="black"/>
<path d="M18.1657 77.8473H90.473C94.0969 77.8473 97.6641 74.9557 98.5134 71.3836L113.688 5.61318H47.4397C39.3426 5.61318 35.7187 8.16462 34.0767 14.9118L18.1657 77.8473ZM90.473 78.7545H17.0332L33.1707 14.685C35.2657 6.40696 40.3618 4.7627 47.4397 4.7627H114.821L99.3628 71.6104C98.4568 75.5226 94.4932 78.7545 90.473 78.7545Z" fill="#63727A"/>
<path d="M29.0371 114.645L31.0755 117.423H46.3071L52.479 92.9292H46.2504L40.9279 113.964H35.3789L40.7014 92.9292H32.8308L32.3212 93.3261L33.9067 95.4806L29.0371 114.645Z" fill="white"/>
<path d="M29.5461 101.491L31.0183 95.5942L28.9798 92.8159H16.5228L13.1254 95.5942L11.0304 103.815L21.5622 108.238L20.1467 113.965H14.6543L15.2771 111.3L9.78469 108.748L8.3125 114.645L10.2943 117.423H22.8079L26.2053 114.645L28.3004 106.367L17.7685 101.944L19.1841 96.2745H24.6765L23.997 98.9961L29.5461 101.491Z" fill="white"/>
<path d="M72.5805 95.5942L70.5421 92.8159H55.3672L49.1953 117.31H55.4238L60.6897 96.2745H66.2388L60.9729 117.31H68.7868L69.2964 116.856L67.7676 114.758L72.5805 95.5942Z" fill="white"/>
<path d="M91.8878 101.491L93.36 95.5942L91.3216 92.8159H78.8646L75.4672 95.5942L73.3722 103.815L83.904 108.238L82.4885 113.965H76.9394L77.6189 111.3L72.1265 108.748L70.6543 114.645L72.6361 117.423H85.1497L88.5471 114.645L90.6421 106.367L80.1103 101.944L81.5259 96.2745H87.0183L86.3388 98.9961L91.8878 101.491Z" fill="white"/>
<path d="M9.78469 108.748L12.0496 112.15L11.54 114.134L12.6725 115.665H21.5056L23.2609 114.305L26.2053 114.645L22.8079 117.423H10.2943L8.3125 114.645L9.78469 108.748Z" fill="#BEC0C2"/>
<path d="M20.1475 113.965L23.2618 114.305L25.0171 107.331L14.372 102.852L16.1273 95.9344L13.1263 95.5942L11.0312 103.816L21.5631 108.238L20.1475 113.965Z" fill="#BEC0C2"/>
<path d="M26.6022 94.5171H17.9955L16.127 95.9346L19.1846 96.2747H24.677L23.9975 98.9963L27.2816 97.9757L27.7913 96.1047L26.6022 94.5171Z" fill="#BEC0C2"/>
<path d="M72.1265 108.748L74.3914 112.15L73.8818 114.134L75.0143 115.665H83.8474L85.6027 114.305L88.5471 114.645L85.1497 117.423H72.6361L70.6543 114.645L72.1265 108.748Z" fill="#BEC0C2"/>
<path d="M82.4893 113.965L85.6036 114.305L87.3589 107.331L76.7138 102.852L78.4691 95.9344L75.4681 95.5942L73.373 103.816L83.9049 108.238L82.4893 113.965Z" fill="#BEC0C2"/>
<path d="M88.944 94.5171H80.2807L78.4688 95.9346L81.5264 96.2747H87.0188L86.3393 98.9963L89.6234 97.9757L90.0764 96.1047L88.944 94.5171Z" fill="#BEC0C2"/>
<path d="M32.3212 93.3262L37.1908 94.5168L32.2646 114.135L33.3971 115.665H43.5892L46.3071 117.423H31.0755L29.0371 114.645L33.9067 95.4807L32.3212 93.3262Z" fill="#BEC0C2"/>
<path d="M46.2503 92.9292L48.9116 94.5168L43.589 115.665L40.9277 113.964L46.2503 92.9292Z" fill="#BEC0C2"/>
<path d="M58.0831 94.5169L55.3652 92.8159L49.1934 117.31H55.4219L52.704 115.665L58.0831 94.5169Z" fill="#BEC0C2"/>
<path d="M64.4257 115.666L69.3519 96.1047L68.2195 94.5171H58.084L60.6886 96.2747H66.2377L60.9717 117.31H68.7857L69.2953 116.856L64.4257 115.666Z" fill="#BEC0C2"/>
<path d="M19.4108 85.4449L17.7687 85.8985L18.2783 83.744H19.8072L19.4108 85.4449ZM16.4664 82.4966L16.2965 82.61L16.8061 83.2904L15.2207 89.754H17.429L17.5422 89.5839L17.0326 88.9602L17.429 87.2593L20.8264 86.182L21.5058 83.3471L20.8264 82.4966H16.4664Z" fill="white"/>
<path d="M34.4726 82.4966H32.8305L32.2076 85.1047L30.6222 85.5016L31.3583 82.4966H29.2066L29.0368 82.61L29.5464 83.2904L27.9609 89.754H29.603L30.2825 86.8624L31.8679 86.5222L31.0752 89.754H33.2269L33.3967 89.5839L32.8871 88.9602L34.4726 82.4966Z" fill="white"/>
<path d="M44.1553 88.5633H42.6264L43.8155 83.6872H45.3443L44.1553 88.5633ZM43.4192 82.4966L42.3433 83.3471L40.9844 88.8468L41.6638 89.754H44.6082L45.6841 88.8468L47.043 83.3471L46.3635 82.4966H43.4192Z" fill="white"/>
<path d="M72.0703 83.3471L71.3908 82.4966H67.4838L65.7285 89.754H67.3706L68.8428 83.6872H70.3716L68.8994 89.754H71.0511L71.2209 89.5839L70.7113 88.9602L72.0703 83.3471Z" fill="white"/>
<path d="M82.1493 82.4966H79.941L79.7712 82.61L80.3374 83.2904L78.752 89.754H80.9036L81.0735 89.5839L80.5639 88.9602L82.1493 82.4966Z" fill="white"/>
<path d="M93.7562 89.0169L92.9069 86.182L95.7946 82.4966H94.2092L92.5671 84.7078L92.0009 82.4966H89.8492L89.6794 82.61L90.5287 83.2904L91.378 86.2387L88.6602 89.754H90.189L91.7744 87.5995L92.3406 89.754H94.4923L94.6622 89.5839L93.7562 89.0169Z" fill="white"/>
<path d="M57.3484 88.5633H55.4799L55.9328 86.6923H57.4617L57.7448 85.5016H56.216L56.6689 83.6872H58.4242L58.8772 84.3109L59.0471 84.1975L59.4435 82.4966H54.8004L54.6305 82.61L55.1401 83.2904L53.5547 89.754H57.8014L58.1978 88.053L58.0845 87.9396L57.3484 88.5633Z" fill="white"/>
<path d="M20.1465 76.6565L61.4245 54.0337L33.3962 76.6565L67.4265 57.0954L66.8603 61.0643L72.5226 57.8892L85.3194 70.0227L92.1141 49.4978L101.966 48.8741L96.9837 36.4571L105.873 29.4832L94.3224 24.9473L97.2668 12.5303L87.471 17.0094L82.375 6.3501L74.5044 14.1745L60.3487 7.82426L58.4235 20.4681L45.7966 23.2463L53.2708 27.7255L45.74 31.5243L52.1384 32.0913L25.8654 52.5028L52.3082 38.4415L23.9968 60.0437L54.1202 44.3382L21.9018 68.5485L57.4043 49.6112L20.1465 76.6565Z" fill="#F9A01B"/>
<path d="M95.6811 36.6272C95.5078 40.6896 94.1361 44.6094 91.7393 47.8916C89.3424 51.1738 86.0279 53.6711 82.2144 55.0681C78.401 56.465 74.2596 56.699 70.3134 55.7404C66.3672 54.7818 62.7932 52.6736 60.0429 49.6822C57.2926 46.6908 55.4893 42.9503 54.8608 38.9332C54.2324 34.9161 54.8069 30.8027 56.5119 27.1123C58.2168 23.422 60.9757 20.3205 64.4401 18.1994C67.9045 16.0783 71.9189 15.0328 75.9763 15.1951C81.4275 15.4209 86.5659 17.8057 90.2612 21.8249C93.9565 25.8442 95.9061 31.1687 95.6811 36.6272Z" fill="#E56020"/>
<path d="M77.6748 53.5235C73.7119 53.3655 69.8795 52.0622 66.6402 49.7707C63.401 47.4793 60.8935 44.2979 59.4205 40.6106C57.9476 36.9233 57.5722 32.8879 58.3397 28.9916C59.1072 25.0953 60.9847 21.5049 63.7456 18.6538C60.1423 21.0676 57.3925 24.5594 55.8887 28.6309C54.3849 32.7025 54.204 37.1456 55.3718 41.3263C56.5395 45.5069 58.9963 49.2113 62.3914 51.9108C65.7865 54.6103 69.9464 56.1669 74.2775 56.3584C77.1733 56.4726 80.0608 55.9764 82.7529 54.902C85.445 53.8276 87.8818 52.199 89.9054 50.1216C86.3029 52.5495 82.0117 53.7431 77.6748 53.5235Z" fill="#B95915"/>
<path d="M95.6824 36.0037C95.7209 35.2852 95.702 34.5647 95.6258 33.8492C94.3702 32.9433 92.9121 32.3593 91.3791 32.1482C91.0393 32.1482 90.7562 32.0915 90.4165 32.0915C90.2289 30.7264 89.9258 29.3797 89.5105 28.0659C89.715 28.1104 89.9242 28.1295 90.1334 28.1226C91.6056 28.236 93.0211 28.4061 94.4367 28.6329C94.2446 28.0896 94.0177 27.5593 93.7572 27.0453C92.2284 26.8185 90.5863 26.6484 88.9443 26.535C88.4366 25.1971 87.8113 23.9068 87.0757 22.6795C88.0932 22.4961 89.0366 22.0238 89.7936 21.3188C89.3973 20.9219 89.0009 20.5817 88.6045 20.1848C87.9104 20.8013 87.0373 21.1789 86.1131 21.2621C85.9433 21.0353 85.7734 20.8085 85.6602 20.6384C84.2876 18.8648 82.6666 17.2989 80.8472 15.9891C79.2642 15.5187 77.6279 15.252 75.9777 15.1953H75.7512C78.9417 16.4875 81.7487 18.5761 83.9049 21.2621C81.5013 20.9263 79.1326 20.3761 76.827 19.6178C76.0909 19.391 75.4114 19.2209 74.732 18.9941C71.573 18.0674 68.2799 17.684 64.9928 17.8601C63.2111 18.8832 61.5895 20.1632 60.1799 21.659C62.7845 20.5817 67.9938 18.7673 74.3356 20.525C75.0151 20.6951 75.6945 20.8652 76.4306 21.092C79.2052 21.9425 82.376 22.8496 85.0939 22.8496C85.8242 23.9903 86.4677 25.1843 87.0191 26.4216C86.492 26.3754 85.9628 26.3565 85.4337 26.3649C72.1839 26.1382 60.916 30.0504 54.6309 36.4006C54.6477 37.6388 54.7804 38.8726 55.0272 40.086C56.7825 37.5346 59.4438 35.2099 62.8412 33.2822C69.1829 29.7102 77.6763 27.8391 86.6794 27.9525C87.0191 27.9525 87.3022 28.0092 87.642 28.0092C88.0942 29.32 88.4352 30.6666 88.6612 32.0348C82.829 32.3183 79.0919 35.8903 74.732 39.8025C70.8816 43.2612 66.1253 46.7198 59.2173 48.8176C59.8761 49.6095 60.5955 50.3489 61.369 51.0289C67.8806 48.4207 72.1839 44.3384 75.8644 41.0499C80.0545 37.3078 83.6217 33.7358 88.831 33.5657C89.0009 35.0349 89.0009 36.5189 88.831 37.9882C88.1516 46.0394 83.4519 52.8999 77.1101 56.3018C78.7105 56.1429 80.2874 55.8005 81.8098 55.2813C82.3194 54.8277 82.829 54.3741 83.282 53.9205C87.5204 49.7098 90.1117 44.1178 90.5863 38.1583C90.7562 36.6511 90.7562 35.1296 90.5863 33.6224C90.8695 33.6791 91.1526 33.6791 91.3791 33.7358C93.0198 34.0085 94.5289 34.8039 95.6824 36.0037Z" fill="black"/>
</g>
<defs>
<clipPath id="clip0_38_1023">
<rect width="122" height="124" fill="white"/>
</clipPath>
</defs>
</svg>
