<svg width="123" height="104" viewBox="0 0 123 104" fill="none" xmlns="http://www.w3.org/2000/svg">
<g clip-path="url(#clip0_38_1033)">
<path d="M81.7191 14.1757C80.9414 13.0018 80.0336 11.9178 79.0126 10.9443C78.5817 10.5097 78.1254 10.1007 77.6461 9.71945L87.4733 0H58.911L47.8748 10.9447L47.8487 10.9706C46.8537 11.9679 45.9482 13.0491 45.1422 14.2021C44.3502 15.3778 43.6726 16.6255 43.1187 17.9283C41.9742 20.6167 41.3845 23.5053 41.3845 26.4234C41.3845 29.3416 41.9742 32.2301 43.1187 34.9185C43.6671 36.2158 44.345 37.4554 45.1422 38.6188C45.9199 39.7928 46.8277 40.8767 47.8487 41.8503C48.2723 42.3002 48.7291 42.7183 49.2152 43.101L39.4141 52.8209H67.9764L79.0387 41.824C81.0465 39.8491 82.6444 37.5031 83.742 34.9185C84.8866 32.2301 85.4763 29.3416 85.4763 26.4234C85.4763 23.5053 84.8866 20.6167 83.742 17.9283C83.2095 16.6072 82.531 15.3487 81.7191 14.1757Z" fill="black"/>
<path d="M77.7527 12.2214C77.3321 11.7785 76.8594 11.3614 76.4127 10.9707L64.4306 22.9058C65.0436 23.0796 65.6035 23.402 66.0596 23.844C66.7418 24.5374 67.1237 25.4678 67.1237 26.4367C67.1237 27.4055 66.7418 28.336 66.0596 29.0294L43.8301 51.0751H46.4578L67.3473 30.3324C68.3835 29.3046 68.9699 27.9136 68.9798 26.4603C68.9896 25.0071 68.4221 23.6084 67.4 22.5669L68.6877 21.2898C70.064 22.6591 70.8354 24.5145 70.8323 26.4478C70.8293 28.3811 70.0519 30.234 68.6712 31.599L68.6611 31.609L49.0589 51.0747H51.6604L69.975 32.9119C71.6955 31.1955 72.6634 28.875 72.6683 26.4547C72.6732 24.0345 71.7147 21.7101 70.0011 19.9869L71.2888 18.7098C72.3137 19.7279 73.1263 20.9362 73.6803 22.2657C74.2343 23.5952 74.5188 25.0199 74.5175 26.4585C74.5163 27.8971 74.2294 29.3213 73.6731 30.6499C73.1168 31.9784 72.3022 33.1854 71.2755 34.2017L71.2623 34.2149L54.2616 51.0747H56.8631L72.5766 35.4919C74.9965 33.0963 76.3586 29.846 76.3635 26.455C76.3684 23.064 75.0157 19.8098 72.6027 17.4073L73.9165 16.1044C76.6731 18.8566 78.2159 22.5812 78.206 26.4604C78.1961 30.3397 76.6344 34.0565 73.8638 36.7949L59.4642 51.0751H62.0919L75.1777 38.0719C76.7184 36.549 77.9416 34.74 78.7774 32.7482C79.6131 30.7565 80.0452 28.621 80.0487 26.4637C80.0523 24.3063 79.6274 22.1694 78.7982 20.175C77.969 18.1805 76.7518 16.3675 75.2162 14.8396L75.2038 14.8273L76.5176 13.5244C78.2261 15.2249 79.5799 17.2426 80.5019 19.4622C81.4239 21.6818 81.8959 24.0597 81.891 26.4602C81.8861 28.8607 81.4044 31.2368 80.4734 33.4526C79.5424 35.6685 78.1803 37.6807 76.465 39.3744L64.6935 51.0751H67.2951L77.7793 40.6779C81.5686 36.8944 83.6931 31.7768 83.6882 26.4442C83.6832 21.1116 81.5491 15.9979 77.7527 12.2214Z" fill="white"/>
<path d="M49.1889 40.6257C49.6099 41.0607 50.0574 41.4697 50.5288 41.8505L62.511 29.9676C61.8928 29.8059 61.33 29.4818 60.882 29.0295C60.1886 28.3427 59.7987 27.4109 59.7981 26.439C59.7975 25.4671 60.1862 24.5349 60.8788 23.8472L60.882 23.844L83.1119 1.77197H80.5104L59.5681 22.5411C58.5297 23.5692 57.944 24.9633 57.9391 26.4185C57.9342 27.8737 58.5105 29.2716 59.542 30.3066L58.2282 31.5836C56.8553 30.2197 56.085 28.3707 56.0867 26.4435C56.0884 24.5163 56.862 22.6687 58.2373 21.3072C58.2517 21.2929 58.2662 21.2787 58.2809 21.2645L77.9092 1.77197H75.3077L56.9665 19.9611C55.2402 21.6745 54.2684 23.9961 54.2635 26.4182C54.2586 28.8404 55.2211 31.1659 56.9404 32.8861L55.6266 34.1632C53.5662 32.0987 52.4126 29.31 52.4175 26.4053C52.4224 23.5006 53.5853 20.7157 55.6527 18.6581L72.7061 1.77197H70.105L54.3654 17.3811C51.9455 19.7767 50.5834 23.027 50.5785 26.418C50.5736 29.809 51.9263 33.0632 54.3393 35.4657L53.0255 36.7686C50.2711 34.0168 48.7277 30.2953 48.7325 26.418C48.7374 22.5407 50.2903 18.8231 53.0516 16.0781L67.4773 1.77197H64.8757L51.7639 14.8015C48.6525 17.8789 46.8995 22.0549 46.8896 26.4128C46.8797 30.7707 48.6138 34.9544 51.7112 38.0457L50.4235 39.3486C46.9705 35.9184 45.0329 31.2683 45.0371 26.4213C45.0412 21.5744 46.9866 16.9276 50.4454 13.5031L50.45 13.4986L62.2746 1.77197H59.673L49.1362 12.2215C47.259 14.0899 45.7713 16.3067 44.758 18.7453C43.7447 21.1839 43.2257 23.7966 43.2305 26.4341C43.2354 29.0716 43.764 31.6824 44.7863 34.1173C45.8085 36.5522 47.3044 38.7636 49.1884 40.6252L49.1889 40.6257Z" fill="#CF0A2C"/>
<path d="M27.6426 97.1726H26.25V95.7656H30.6116V97.1726H29.1929V104H27.6426V97.1726Z" fill="black"/>
<path d="M32.6086 95.7656H36.0508L37.0756 96.7819V99.6486L36.2084 100.456L37.1283 103.974H35.5776L34.7104 100.613H34.1323V104H32.582V95.7656H32.6086ZM35.1836 99.466L35.4988 99.1011V97.303L35.1836 96.9382H34.1588V99.466H35.1836Z" fill="black"/>
<path d="M40.2033 95.7656H42.437L43.6982 104H42.174L41.9638 102.098H40.6238L40.3874 104H38.916L40.2033 95.7656ZM40.7553 100.821H41.754L41.2546 96.7301L40.7553 100.821Z" fill="black"/>
<path d="M45.459 102.827H46.3789V96.9382H45.459V95.7656H48.8485V96.9382H47.9552V102.827H48.8485V104H45.459V102.827Z" fill="black"/>
<path d="M51.002 95.7656H52.5783V102.645H54.3392V104H51.002V95.7656Z" fill="black"/>
<path d="M59.6738 95.7656H63.0633L64.062 96.7819V98.9708L63.2475 99.7785L64.062 100.586V102.984L63.0633 103.974H59.6738V95.7656ZM62.1174 99.2052L62.5113 98.8145V97.3552L62.1696 97.0427H61.2236V99.2315H62.1169L62.1174 99.2052ZM62.17 102.775L62.5118 102.463V100.769L62.1178 100.404H61.1979V102.749H62.17V102.775Z" fill="black"/>
<path d="M66.375 95.7656H67.8991V102.645H69.7123V104H66.375V95.7656Z" fill="black"/>
<path d="M72.6537 95.7656H74.9136L76.1747 104H74.6506L74.4142 102.098H73.1004L72.864 104H71.3926L72.6537 95.7656ZM73.258 100.821H74.2566L73.7312 96.7301L73.258 100.821Z" fill="black"/>
<path d="M77.9355 102.88L80.0639 97.1726H77.9882V95.7656H81.7456V96.86L79.6434 102.593H81.7456V104H77.9355V102.88Z" fill="black"/>
<path d="M83.9004 95.7656H87.5529V97.1204H85.4772V99.127H87.3692V100.482H85.4772V102.645H87.5794V104H83.9004V95.7656Z" fill="black"/>
<path d="M89.8398 95.7656H93.282L94.3068 96.7819V99.6486L93.4923 100.456L94.3856 104H92.8354L91.9948 100.639H91.3901V104H89.8398V95.7656ZM92.4148 99.466L92.73 99.1011V97.303L92.4148 96.9382H91.3901V99.466H92.4148Z" fill="black"/>
<path d="M96.3555 103.01V101.524H97.8791V102.384L98.2474 102.749H98.799L99.1142 102.384V100.821L98.8517 100.56H97.2227L96.3816 99.674V96.7819L97.3802 95.7656H99.6662L100.665 96.7819V98.2411H99.1142V97.3811L98.799 97.0422H98.2736L97.9057 97.3811V98.9185L98.1948 99.1529H99.8238L100.665 100.013V103.01L99.6662 104H97.3537L96.3555 103.01Z" fill="black"/>
<path d="M16.7643 64.2086C16.7643 59.4397 14.1627 57.8501 9.09153 57.8501H0L3.96764 61.7849V90.5275H8.88126V76.1955H9.14421C14.1105 76.1955 16.6855 74.684 16.817 70.15V64.2086H16.7643ZM8.88126 61.7853H9.98483C11.1145 61.7853 11.8502 62.1501 11.8502 63.4008V70.4889C11.8502 71.6878 11.5085 72.2871 9.77456 72.2871H8.93394V61.7849L8.88126 61.7853Z" fill="black"/>
<path d="M23.7808 63.7656C23.7808 62.1238 24.3063 61.759 25.3049 61.759C26.277 61.759 26.7764 62.1238 26.7764 63.7656V84.5865C26.7764 86.2543 26.2509 86.5932 25.3049 86.5932C24.3063 86.5932 23.7808 86.2543 23.7808 84.5865V63.7656ZM25.2522 90.5016C28.3005 90.5016 31.6639 89.2768 31.6639 85.0295V63.3486C31.6639 59.0749 28.2744 57.8501 25.2522 57.8501C22.2567 57.8501 18.8672 59.0749 18.8672 63.3486V85.0295C18.8672 89.2768 22.2567 90.5016 25.2522 90.5016Z" fill="black"/>
<path d="M83.8734 63.6089H84.1625L85.1084 76.1691H82.7698L83.8734 63.6089ZM82.2966 80.078H85.5285L86.5799 90.5016H91.5201L87.7888 57.8501H80.4051L76.6738 90.5016H81.1147L82.2966 80.078Z" fill="black"/>
<path d="M118.112 84.1695C118.112 86.2802 117.508 86.5927 116.246 86.5927H115.064V61.7849H116.246C117.481 61.7849 118.112 62.1238 118.112 64.2081V84.1695ZM123 84.5865V65.2508C123 59.492 120.95 57.8501 116.089 57.8501H110.15V90.5016H117.114C120.976 90.5016 122.999 87.6872 122.999 84.5861L123 84.5865Z" fill="black"/>
<path d="M38.6519 61.759H39.8343C40.9378 61.759 41.7001 62.1238 41.7001 63.3745V70.1237C41.7001 71.3226 41.3323 72.2344 39.5979 72.2344H38.6519V61.759ZM38.7307 76.1432C41.0166 76.0392 41.7524 76.8206 41.7524 78.775V90.5016H46.5084C46.5084 90.5016 46.6133 86.9839 46.5084 77.5507C46.4823 74.6059 44.6164 74.1629 44.6164 74.1629C46.7709 73.2507 46.5084 72.1826 46.5084 69.7589L46.4823 63.4267C46.4823 59.2053 44.1698 57.8501 40.2287 57.8501H33.7383V90.5016H38.7046V76.1432H38.7307Z" fill="black"/>
<path d="M74.5981 86.5927H68.3445V57.8501H63.4043V90.5016H74.5981V86.5927Z" fill="black"/>
<path d="M52.1846 61.7849V90.5016H57.0982V61.7849H61.3288V57.8501H45.1953L49.1891 61.7849H52.1846Z" fill="black"/>
<path d="M98.0639 72.3906L103.608 90.5016H108.075V57.8501H103.634V76.1696L98.0639 57.8501H93.623V90.5016H98.0639V72.3906Z" fill="black"/>
</g>
<defs>
<clipPath id="clip0_38_1033">
<rect width="123" height="104" fill="white"/>
</clipPath>
</defs>
</svg>
