<svg width="122" height="140" viewBox="0 0 122 140" fill="none" xmlns="http://www.w3.org/2000/svg">
<g clip-path="url(#clip0_38_1034)">
<path d="M122 0L104.54 17.6318L89.9479 2.97208L75.2884 17.6337L60.721 2.97208L46.1586 17.6318L31.5862 2.97208L17.0268 17.6392L0 0.35129V78.4211C0 112.374 27.0799 140 60.8149 140C77.0412 139.977 92.596 133.481 104.066 121.937C115.537 110.393 121.986 94.7427 121.999 78.4211L122 0Z" fill="white"/>
<path d="M5.44531 89.1134C6.88462 96.4661 9.7725 103.455 13.9388 109.667C16.4761 105.191 21.5521 99.6318 31.521 97.2696C30.7551 94.6945 30.0731 91.9571 29.4944 89.1128H5.44531V89.1134Z" fill="#5C6670"/>
<path d="M17.918 114.957C23.169 121.198 29.6964 126.228 37.055 129.701C44.4137 133.175 52.4305 135.012 60.559 135.087C59.0165 134.295 57.5079 133.422 56.0563 132.483C49.1237 127.976 39.5929 119.204 33.4386 102.941C23.7525 105.065 19.6525 110.588 17.9186 114.957" fill="#5C6670"/>
<path d="M39.4049 102.088C43.7732 113.133 50.3725 121.62 59.0341 127.318C63.5556 130.302 68.5837 132.425 73.8679 133.582C82.9566 131.439 91.3777 127.069 98.3822 120.862C92.8588 120.253 87.1949 117.056 81.2167 113.684C71.8824 108.413 60.2574 101.855 44.5631 101.855C42.8685 101.855 41.137 101.938 39.4043 102.088" fill="#5C6670"/>
<path d="M63.0039 60.3843H42.8223V84.5535H51.2065V65.1665H57.5051V84.5541H65.4952V63.77C65.4946 61.9283 64.3763 60.3843 63.0039 60.3843Z" fill="#5B2B82"/>
<path d="M69.0273 60.3843V81.1178C69.0273 82.9632 70.1371 84.5535 71.5052 84.5535H91.6672V69.8796L83.6175 69.8703V79.7657H77.3219V65.0492H91.6678V60.3843H69.028H69.0273Z" fill="#5B2B82"/>
<path d="M20.5103 60.3843L15.95 70.1445H13.3162V60.3843H4.9707V84.5535H13.3162V74.8285H15.95L20.5103 84.5535H28.8479L22.9673 72.4862L28.8479 60.3843H20.5103Z" fill="#5B2B82"/>
<path d="M31.0684 60.3843H39.7079V84.5535H31.0684V60.3843Z" fill="#5B2B82"/>
<path d="M117.052 66.9205V60.3843H94.9004V71.4262C94.9004 73.2672 96.0119 74.7625 97.377 74.7625H108.664V80.03H94.9004V84.5535H117.063V73.4592C117.063 71.7423 116.121 70.1297 114.852 70.1297H103.215V65.069H109.036V66.9211H117.052V66.9205Z" fill="#5B2B82"/>
<path d="M93.4873 35.8717H86.4135L101.003 21.1898L89.9482 10.0898L75.2888 24.7483L60.7214 10.0898L35.1096 35.8717H28.0365L42.6008 21.1675L31.5866 10.0898L17.0271 24.7483L4.9707 12.71V36.7644V55.949H117.051V37.3429V12.1519L93.4873 35.8717Z" fill="#5B2B82"/>
<path d="M29.4551 51.3031C29.4554 51.6044 29.5742 51.8932 29.7856 52.1067C29.997 52.3201 30.2837 52.4407 30.5832 52.4422H36.8812V50.7407H31.7482V45.2194H36.8812V43.521H29.4551V51.3031Z" fill="white"/>
<path d="M19.1875 43.5208V52.442H21.4787V50.1077H24.3205V52.4414H26.6136V44.6574C26.6106 44.4978 26.575 44.3404 26.5089 44.1952C26.4429 44.05 26.3478 43.92 26.2297 43.8134C26.1116 43.7067 25.9729 43.6256 25.8222 43.5752C25.6716 43.5248 25.5123 43.506 25.3541 43.5202L19.1875 43.5208ZM24.3205 48.4111H21.4787V45.2211H24.3211L24.3205 48.4111Z" fill="white"/>
<path d="M111.764 43.521H106.568C106.27 43.5215 105.985 43.6406 105.774 43.8522C105.563 44.0638 105.444 44.3507 105.443 44.6502V51.3037C105.444 51.6042 105.562 51.8924 105.773 52.1056C105.983 52.3188 106.269 52.4397 106.568 52.4422H111.764C112.063 52.4392 112.349 52.3177 112.56 52.104C112.77 51.8902 112.888 51.6015 112.888 51.3006V44.6502C112.888 44.3506 112.769 44.0635 112.558 43.8518C112.348 43.6401 112.062 43.5212 111.764 43.521ZM110.586 50.7271H107.754V45.2176H110.586V50.7271Z" fill="white"/>
<path d="M8.91016 47.6951C8.91113 47.996 9.03046 48.2842 9.24208 48.4969C9.4537 48.7095 9.7404 48.8292 10.0395 48.8299H14.0432V50.7394H8.91016V52.4416H16.3363V48.2643C16.3371 47.9841 16.2344 47.7135 16.048 47.5052C15.8617 47.2969 15.605 47.1656 15.3278 47.137L15.2652 47.1315H11.1989V45.2188H16.3363V43.521H8.91016V47.6951Z" fill="white"/>
<path d="M56.1009 43.5211H49.8066V52.4423H52.0997V50.108H54.9421V52.4417H57.237V44.6577C57.2354 44.3558 57.1151 44.0667 56.9024 43.8536C56.6896 43.6406 56.4017 43.5208 56.1015 43.5205L56.1009 43.5211ZM54.9421 48.4108H52.0991V45.2214H54.9415L54.9421 48.4108Z" fill="white"/>
<path d="M95.4531 45.2169H98.0242V52.4416H100.312V45.2169H102.88V43.521H95.4531V45.2169Z" fill="white"/>
<path d="M71.6795 43.521H60.2773V52.4428H62.5698V45.22H65.3809V52.4428H67.7047V45.22H70.5139V52.4428H72.8076V44.6564C72.8063 44.3558 72.6871 44.0678 72.4758 43.8552C72.2645 43.6426 71.9784 43.5225 71.6795 43.521Z" fill="white"/>
<path d="M92.0006 43.521H85.7051V52.4428H87.9963V45.22H90.8387V52.4428H93.1318V44.6564C93.1305 44.3551 93.0107 44.0666 92.7987 43.8539C92.5866 43.6412 92.2995 43.5215 92 43.521" fill="white"/>
<path d="M75.9297 51.3031C75.9295 51.6045 76.0482 51.8937 76.2597 52.1072C76.4711 52.3207 76.7582 52.4412 77.0578 52.4422H83.3503V50.7407H78.2228V48.828H83.3503V47.1333H78.2228V45.2194H83.3503V43.521H75.9297V51.3031Z" fill="white"/>
<path d="M45.7205 49.1967H46.9469V44.6559C46.9426 44.4967 46.9062 44.3401 46.8397 44.1956C46.7732 44.0511 46.6781 43.9218 46.5602 43.8156C46.4423 43.7093 46.3041 43.6284 46.154 43.5778C46.0039 43.5272 45.8451 43.5079 45.6874 43.5211H39.5195V52.4423H41.8108V49.1967H43.4735L44.8459 52.4423H47.0788L45.7205 49.1967ZM44.6532 47.5002H41.8114V45.2196H44.6532V47.5002Z" fill="white"/>
<path d="M43.3412 95.9579C55.2823 95.714 67.0914 98.7213 82.1602 107.358C93.2978 113.742 98.1915 115.678 101.531 114.852C104.609 114.09 107.463 112.262 112.499 101.555C114.303 97.5799 115.637 93.4051 116.472 89.1167H35.4609C36.025 91.585 36.5786 94.0403 37.3195 96.2987C39.3187 96.073 41.3288 95.9592 43.3406 95.9579" fill="#5C6670"/>
</g>
<defs>
<clipPath id="clip0_38_1034">
<rect width="122" height="140" fill="white"/>
</clipPath>
</defs>
</svg>
