<svg width="123" height="55" viewBox="0 0 123 55" fill="none" xmlns="http://www.w3.org/2000/svg">
<g clip-path="url(#clip0_38_1039)">
<path d="M46.8453 35.1949H49.5287L48.7209 37.2088L46.8453 35.1949ZM43.6406 44.2325L39.3678 50.5071L46.3761 48.2347L49.2159 55L51.3524 47.7182L59.2467 49.7321L54.1402 43.8709L60.2629 38.8356L54.7916 39.1712L58.413 35.143H65.4737L73.5502 20.9669V11.6196H67.8185L65.0827 16.4484L64.5615 20.0891L60.4451 27.345H56.6676L60.3672 20.8638V11.6456H54.4268L51.7692 16.4484L51.3003 20.1151L44.8391 31.5541L45.8291 34.0846L44.5786 32.7419L45.0998 39.6362L37.5703 39.9718L43.6406 44.2325Z" fill="white"/>
<path d="M13.0534 27.3451C10.7348 27.9392 8.36377 28.5844 6.07096 29.2044C5.81053 29.2819 5.57595 29.385 5.34137 29.4369V23.6529C5.70617 23.5494 6.01862 23.4463 6.38341 23.3688C8.28526 22.8007 10.1874 22.3101 12.0893 21.8195C12.402 21.7161 12.7665 21.6645 13.0793 21.5614V24.7115C14.8771 24.2466 16.6487 23.8335 18.4203 23.446V19.5987C17.7951 18.695 17.1957 17.7654 16.5443 16.7842C16.1014 16.8876 15.6325 17.0167 15.1895 17.1198H15.1113C11.3077 18.0235 7.52982 19.0306 3.77815 20.1668C3.63678 20.2017 3.4976 20.2448 3.36134 20.2959C2.88523 20.4186 2.41568 20.5651 1.9545 20.7349C1.30311 22.0517 0.677566 23.3688 0.0785121 24.634V32.4064C1.01651 33.052 1.9545 33.6976 2.91835 34.3688C3.69996 34.1363 4.4554 33.8782 5.23701 33.6717C7.63386 32.9486 10.031 32.3289 12.4017 31.7093C12.6621 31.6577 12.9229 31.5802 13.1833 31.5287V37.5452C12.8706 37.6227 12.5061 37.7002 12.1933 37.8033C10.2133 38.2939 8.23323 38.8104 6.27905 39.4041C5.94043 39.4816 5.6018 39.5848 5.26286 39.6882V36.5381C3.5174 37.0546 1.74546 37.5968 0 38.1389V42.0121C0.625224 42.8902 1.2246 43.768 1.84982 44.646C2.29281 44.517 2.76165 44.362 3.2308 44.2329C3.38349 44.178 3.54024 44.1349 3.69964 44.1039C7.50365 42.9418 11.3335 41.909 15.2154 41.0053C15.7104 40.8763 16.1534 40.7728 16.6484 40.6697C17.2998 39.4304 17.8988 38.1652 18.5502 36.9515V28.9463C17.6122 28.2232 16.6484 27.4486 15.7104 26.7255C14.7469 26.932 13.8871 27.1645 13.0534 27.3451Z" fill="black"/>
<path d="M123 33.9814C122.062 32.7421 121.124 31.4768 120.186 30.2372C119.352 29.9791 118.492 29.7207 117.659 29.4626C115.34 28.7914 113.021 28.1458 110.676 27.5777C110.416 27.5261 110.181 27.4486 109.921 27.3971V21.5612C110.26 21.6646 110.598 21.7161 110.937 21.8193C112.839 22.3099 114.767 22.8005 116.669 23.3685C116.982 23.446 117.346 23.5492 117.659 23.6526V26.7771C119.43 27.2936 121.176 27.8358 122.922 28.378V24.5307C122.322 23.2654 121.697 22.0002 121.098 20.735C120.629 20.6059 120.186 20.4509 119.717 20.3219C119.691 20.3219 119.691 20.3219 119.665 20.2959C115.913 19.1338 112.136 18.101 108.332 17.2233C108.196 17.1767 108.056 17.1421 107.915 17.1198C107.42 16.9908 106.951 16.8874 106.456 16.7583C105.804 17.7136 105.153 18.6951 104.528 19.6503V27.4227C105.492 28.5848 106.43 29.7466 107.394 30.9088C108.175 31.1153 108.983 31.2962 109.739 31.4768C112.136 32.0966 114.533 32.7422 116.93 33.4136C117.19 33.4652 117.425 33.5686 117.659 33.6202V39.6367C117.346 39.5592 116.982 39.4561 116.669 39.3526C114.689 38.7846 112.709 38.268 110.755 37.7518C110.416 37.6743 110.078 37.5968 109.739 37.4937V34.3429C107.967 33.8783 106.195 33.4649 104.424 33.0777V36.9509C105.023 38.1646 105.648 39.4039 106.3 40.6176C106.743 40.6951 107.238 40.8241 107.681 40.9276C107.837 40.9535 107.967 41.0051 108.124 41.031C112.006 41.9606 115.862 42.9678 119.666 44.1555C120.161 44.2846 120.604 44.4395 121.047 44.5686C121.672 43.6905 122.897 41.8572 122.897 41.8572C123 41.9603 123 36.6409 123 33.9814Z" fill="black"/>
<path d="M37.3865 18.1786V24.9182C36.9435 24.9957 36.5787 25.0216 36.136 25.0732C33.8174 25.3832 31.4984 25.7188 29.2056 26.0803V18.1011C31.5242 17.7136 33.817 17.404 36.136 17.1199C36.579 17.0424 36.9438 17.0165 37.3865 16.9649V18.1786ZM39.2883 12.9626C39.1061 12.9886 39.0017 12.9886 38.8195 13.0142C33.7912 13.5823 28.7888 14.3569 23.8125 15.2866V39.1715C25.5841 38.8099 27.4078 38.5003 29.2056 38.2162V29.8757C32.4102 29.3851 35.641 28.9205 38.8195 28.533C39.0017 28.5071 39.1061 28.5071 39.2883 28.4814C39.7572 28.404 40.2522 28.378 40.7213 28.3265C41.3986 27.0612 42.1023 25.8475 42.8057 24.6082V16.0356C42.1285 14.951 41.4509 13.8148 40.7213 12.7305C40.2525 12.8339 39.7575 12.8855 39.2883 12.963V12.9626Z" fill="black"/>
<path d="M92.4654 24.8918C90.1206 24.5303 87.7496 24.1947 85.4048 23.9366V16.8873C87.8016 17.1713 90.1465 17.5069 92.5436 17.8944C92.9346 17.946 93.3514 18.0235 93.7421 18.075V25.1243C93.3252 25.0209 92.8823 24.9693 92.4654 24.8918ZM97.2071 27.5773C97.8585 27.3192 98.4837 27.1126 99.1351 26.8542V18.5912C97.9887 17.2744 96.8685 15.9573 95.7221 14.6405C90.5113 13.7625 85.2746 13.0397 80.0117 12.5747V36.4596C81.8095 36.6146 83.6332 36.7952 85.431 37.0277V27.6804C86.8119 27.8354 88.2188 28.042 89.5994 28.2226C90.0424 28.2741 90.5374 28.3516 90.9804 28.4032C91.9184 28.5322 92.8302 28.7132 93.7682 28.8163V38.1636C93.8726 38.1636 93.9505 38.2151 94.0548 38.2151C95.7744 38.4992 97.4417 38.7832 99.1613 39.0932V28.9457C98.4841 28.5069 97.8588 28.0679 97.2074 27.5773H97.2071Z" fill="black"/>
<path d="M22.72 6.68751C21.9384 6.81656 21.2088 6.97155 20.4533 7.12655C20.3633 7.14041 20.2757 7.16649 20.1929 7.20404V5.29321C20.2973 5.26727 20.4275 5.26727 20.5057 5.24165C21.1309 5.1126 21.7561 5.00917 22.3817 4.88011C22.486 4.85417 22.6162 4.85417 22.7203 4.82855V5.83568C23.2935 5.75819 23.8667 5.62913 24.4657 5.5257V4.28608C24.2573 3.95048 24.0748 3.66643 23.8405 3.35645C23.6946 3.38634 23.5464 3.40359 23.3975 3.408H23.3714C22.1209 3.64049 20.8963 3.87266 19.6717 4.13109C19.6289 4.14226 19.5854 4.15092 19.5415 4.15703C19.3851 4.18296 19.2287 4.20858 19.0985 4.23452C18.9163 4.67356 18.6817 5.0351 18.4733 5.47382V8.00431C18.8119 8.23679 19.0985 8.46897 19.4113 8.72739L20.1929 8.5724C20.9745 8.41741 21.7561 8.28835 22.5116 8.10774C22.6159 8.10774 22.6938 8.0818 22.772 8.0818V10.0186C22.6938 10.0445 22.5636 10.0445 22.4592 10.0701C21.8078 10.1992 21.1564 10.3282 20.505 10.4317C20.4268 10.4576 20.2966 10.4576 20.1923 10.4832V9.47641C19.6191 9.60547 19.0197 9.68296 18.4727 9.81202V11.0773C18.6811 11.3872 18.8636 11.6713 19.0979 11.981C19.2543 11.955 19.3845 11.9294 19.5409 11.9035C19.6191 11.9035 19.6452 11.8775 19.6973 11.8775C20.9739 11.6194 22.1985 11.3869 23.4489 11.1544C23.6053 11.1285 23.7875 11.1029 23.9178 11.0769C24.1 10.6895 24.3346 10.3023 24.5171 9.8892V7.28122C24.2044 7.02311 23.9178 6.76469 23.5791 6.53251C23.2932 6.58439 23.0066 6.61001 22.72 6.68751Z" fill="black"/>
<path d="M28.9722 7.15296C29.3109 5.88772 29.6236 4.59664 29.9102 3.27974C30.2488 4.46748 30.5354 5.68117 30.8482 6.86891C30.2488 6.97203 29.5974 7.07546 28.9722 7.15296ZM28.7114 2.53072C28.008 5.21619 27.3046 7.90166 26.5488 10.5871C27.0959 10.4837 27.6432 10.3806 28.2164 10.329C28.3728 9.70937 28.503 9.11535 28.6594 8.54725C29.493 8.4182 30.327 8.28914 31.2126 8.15977C31.369 8.70193 31.4992 9.27002 31.6556 9.81249C32.2288 9.70906 32.854 9.6575 33.4273 9.55438C32.7238 7.07546 32.0204 4.59654 31.2647 2.14355C30.4049 2.27261 29.5712 2.40166 28.7114 2.53072Z" fill="black"/>
<path d="M40.0446 6.197C39.1586 4.57022 38.221 2.96937 37.3088 1.34259C36.7094 1.39415 36.0842 1.47164 35.459 1.54914V9.29557C35.9802 9.24401 36.501 9.16652 37.0222 9.11496V3.92463C37.934 5.55141 38.82 7.20413 39.7318 8.8306C40.3571 8.7531 40.9564 8.70154 41.6078 8.62405V0.87793C41.0866 0.955426 40.5658 0.981363 40.0446 1.05854V6.197Z" fill="black"/>
<path d="M49.6593 5.00942C49.9721 3.77012 50.2846 2.47894 50.6232 1.23932C50.936 2.453 51.2226 3.69231 51.5612 4.93193C50.9098 4.95786 50.2846 4.98348 49.6593 5.00942ZM49.3989 0.335625C48.6693 2.96954 47.9401 5.60313 47.2363 8.21111C47.7834 8.18517 48.3307 8.15955 48.9039 8.10768C49.0603 7.53958 49.1905 6.94555 49.3469 6.35184C50.2067 6.30028 51.0665 6.27434 51.9001 6.22279C52.0824 6.81682 52.2129 7.38491 52.369 7.95269C52.9683 7.92675 53.5674 7.90113 54.1668 7.90113C53.4634 5.34471 52.7079 2.81423 52.0042 0.257812C51.0924 0.257812 50.2326 0.28375 49.3989 0.335308V0.335625Z" fill="black"/>
<path d="M61.2787 5.13846C60.3668 3.40856 59.4288 1.7299 58.517 0.0259374C57.9176 0.0259374 57.2924 0.0518749 56.6934 0.0518749V7.79799C57.2145 7.79799 57.7095 7.77206 58.2304 7.77206V2.55642C59.1422 4.28632 60.0541 5.96498 60.94 7.69488H62.816V0H61.2787V5.13846Z" fill="black"/>
<path d="M65.3691 1.42037C66.0987 1.42037 66.8022 1.47193 67.5056 1.49787V7.82407C68.0788 7.87563 68.6781 7.87563 69.251 7.90157V1.54943C69.9544 1.60099 70.684 1.62692 71.3875 1.65286V0.284187C69.3816 0.180754 67.3754 0.129195 65.3691 0.0776367V1.42037Z" fill="black"/>
<path d="M87.3317 6.71376C86.4199 4.88042 85.5339 3.07303 84.5959 1.2397C83.9707 1.1622 83.3713 1.11064 82.7461 1.05908V8.8052C83.2673 8.85676 83.7881 8.8827 84.3093 8.96019V3.77018C85.1953 5.60351 86.1071 7.41091 87.0189 9.27018C87.6183 9.34767 88.2435 9.42517 88.8426 9.50266V1.75591C88.3476 1.67842 87.8264 1.62686 87.3055 1.54936V6.71376H87.3317Z" fill="black"/>
<path d="M91.3965 3.27922C91.8653 3.35672 92.2825 3.40828 92.7251 3.48578V8.83078C92.2821 8.75329 91.8653 8.70173 91.3965 8.62423V9.81229C92.8553 10.0188 94.3145 10.2254 95.7734 10.4835V9.29576C95.3045 9.2442 94.8874 9.16671 94.4447 9.08921V3.7442C94.8877 3.79576 95.3045 3.87326 95.7734 3.95075V2.76301C94.3145 2.55646 92.8553 2.32397 91.3965 2.0918V3.27922Z" fill="black"/>
<path d="M78.4477 2.42735V7.12677C78.2913 7.12677 78.1611 7.10083 78.0047 7.10083C77.3795 7.02333 76.7802 6.9974 76.1549 6.97178C75.9985 6.97178 75.8683 6.94584 75.7119 6.94584V1.78176C75.8683 1.78176 75.9985 1.8077 76.1549 1.8077C76.7802 1.85926 77.3795 1.91113 78.0047 1.93675C78.1611 1.93675 78.2913 1.96269 78.4477 1.96269V2.42735ZM79.5159 0.749007C79.3596 0.749007 79.2032 0.72307 79.0471 0.72307C77.7705 0.619636 76.5459 0.542457 75.2954 0.439023H75.1391C74.9568 0.439023 74.8004 0.413086 74.644 0.413086C74.4095 0.748691 74.2011 1.13617 73.9668 1.49771V6.94584C74.2014 7.30738 74.4098 7.74642 74.644 8.10796C74.8004 8.10796 74.9568 8.15952 75.1391 8.15952H75.2954C76.5459 8.23701 77.7705 8.31451 79.0471 8.44357C79.2035 8.44357 79.3599 8.4695 79.5159 8.4695C79.7505 8.10796 79.9848 7.74642 80.1932 7.38488V1.93675C79.9848 1.54927 79.7502 1.16211 79.5159 0.749007Z" fill="black"/>
<path d="M102.783 5.75805V10.4578C102.626 10.4318 102.496 10.3803 102.314 10.3543C101.715 10.2253 101.089 10.1478 100.49 10.0187C100.337 9.97202 100.18 9.93744 100.021 9.91531V4.75123C100.175 4.79795 100.331 4.83254 100.49 4.85467C101.09 4.98372 101.715 5.08715 102.314 5.21621C102.496 5.24214 102.627 5.26777 102.783 5.2937V5.75805ZM104.476 5.49994C104.268 5.08684 104.033 4.62186 103.851 4.20876C103.669 4.18282 103.512 4.1572 103.356 4.13126C102.131 3.87316 100.907 3.64067 99.6301 3.40818C99.5781 3.40818 99.5258 3.38224 99.4738 3.38224C99.315 3.36012 99.1582 3.32553 99.0049 3.27881C98.7692 3.6112 98.5517 3.95595 98.3535 4.31156V9.76063C98.5881 10.1737 98.7965 10.5868 99.0049 10.9999C99.1613 11.0259 99.3177 11.0774 99.4738 11.1034C99.5265 11.1075 99.5789 11.1162 99.6301 11.1293C100.881 11.3618 102.131 11.5683 103.356 11.8265C103.517 11.8758 103.683 11.9105 103.851 11.9299C104.059 11.5683 104.294 11.2587 104.476 10.8971V5.49994Z" fill="black"/>
<path d="M52.1607 20.4507L45.8034 31.6573L46.8716 34.2653H50.8059L49.0081 38.7841L45.6471 35.169L46.038 40.4884L40.1758 40.7465L44.8396 43.9741L41.5306 48.8544L46.8716 47.1502L49.0601 52.3921L50.7538 46.6596L56.694 48.1573L52.8379 43.7675L57.5538 39.8943L52.6819 40.2043L57.9706 34.2653H64.9269L72.6128 20.7607V12.5493H68.2879L65.7867 16.9131L65.3699 20.4507L60.9148 28.3262H55.0787L59.4298 20.7089V12.5753H54.9223L52.5255 16.9131L52.1607 20.4507Z" fill="black"/>
<path d="M70.9976 13.7632H68.9656L67.4023 16.4743H69.5126L70.9976 13.7632Z" fill="#C4CED4"/>
<path d="M57.8403 13.7632H55.6777L54.1406 16.4743H56.4334L57.8403 13.7632Z" fill="#C4CED4"/>
<path d="M53.7492 31.0633L49.2156 41.3145L47.1836 39.1456L47.392 41.8826L44.3438 42.0117L46.7668 43.716L45.073 46.2465L47.835 45.3428L48.9814 48.0539L49.8409 45.0847L52.9415 45.8849L50.9353 43.5869L53.3845 41.5727L49.9452 41.8051H49.7107L56.8495 31.1151H63.0504L68.5478 21.3804H66.4114L61.7996 29.4109H50.7007L55.3383 21.3804H53.176L47.5742 31.1151H53.7492V31.0633Z" fill="#C4CED4"/>
<path d="M55.8604 17.585H53.8542L53.5938 19.9345H55.652L55.8604 17.585Z" fill="#C4CED4"/>
<path d="M69.0686 17.585H67.0886L66.8281 19.9345H68.8602L69.0686 17.585Z" fill="#C4CED4"/>
<path d="M48.2516 44.3616C48.4877 44.3673 48.7164 44.2798 48.8874 44.1184C49.0584 43.957 49.1577 43.7349 49.1634 43.5009C49.1639 43.4866 49.1639 43.4722 49.1634 43.4579C49.1642 43.3399 49.1415 43.223 49.0966 43.1137C49.0518 43.0045 48.9857 42.905 48.902 42.8211C48.8184 42.7372 48.7189 42.6704 48.6092 42.6246C48.4995 42.5788 48.3818 42.5549 48.2628 42.5542C48.259 42.5542 48.2551 42.5542 48.2513 42.5542C48.0136 42.5604 47.7878 42.6584 47.622 42.8272C47.4561 42.996 47.3633 43.2223 47.3633 43.4579C47.3633 43.6935 47.4561 43.9198 47.622 44.0886C47.7878 44.2574 48.0136 44.3554 48.2513 44.3616H48.2516Z" fill="black"/>
</g>
<defs>
<clipPath id="clip0_38_1039">
<rect width="123" height="55" fill="white"/>
</clipPath>
</defs>
</svg>
