<svg width="122" height="123" viewBox="0 0 122 123" fill="none" xmlns="http://www.w3.org/2000/svg">
<g clip-path="url(#clip0_38_1040)">
<path d="M122 61.5305C121.988 73.6854 118.4 85.5639 111.69 95.6645C104.98 105.765 95.4491 113.634 84.3017 118.277C73.1544 122.92 60.8912 124.129 49.0624 121.75C37.2335 119.372 26.37 113.512 17.8451 104.913C9.32015 96.3142 3.51649 85.3613 1.1677 73.4391C-1.18109 61.5169 0.0304484 49.1605 4.64917 37.932C9.26789 26.7035 17.0864 17.1069 27.1165 10.3552C37.1466 3.60359 48.9379 6.00518e-06 61 0C77.1849 0.0124195 92.7025 6.50102 104.141 18.0393C115.58 29.5776 122.004 45.2211 122 61.5305Z" fill="#CD1141"/>
<path d="M61.0002 119.761C45.7184 119.757 31.0591 113.659 20.2237 102.8C9.38827 91.941 3.25703 77.2026 3.16893 61.8034C3.08083 46.4042 9.04302 31.5955 19.7535 20.6111C30.464 9.62676 45.0525 3.35924 60.3332 3.17725H61.0002C72.387 3.17553 83.521 6.56062 93.0067 12.9083C102.492 19.2559 109.908 28.2836 114.324 38.8601C118.74 49.4365 119.959 61.0911 117.83 72.3631C115.701 83.6351 110.317 94.023 102.354 102.225C97.0472 107.714 90.7142 112.089 83.7206 115.099C76.727 118.109 69.2111 119.694 61.6066 119.761H61.0002Z" fill="black"/>
<path d="M60.8181 11.4875L60.2118 12.0986V19.5531L60.8181 20.1641H62.8191L63.4255 19.5531V12.0986L62.8191 11.4875H60.8181ZM66.6998 21.5084L64.6382 23.5248H58.999L56.998 21.5084V10.2044L58.999 8.18799H64.6382L66.6392 10.2044V21.5084H66.6998Z" fill="white"/>
<path d="M105.689 38.3726L104.9 38.1282L98.2911 41.3666L97.988 42.1609L98.8369 43.994L99.6251 44.2995L106.295 41.0611L106.598 40.2668L105.689 38.3726ZM99.322 48.0268L96.654 47.0492L94.2285 41.9776L95.1987 39.228L105.264 34.4009L107.932 35.3174L110.358 40.4501L109.448 43.1997L99.322 48.0268Z" fill="white"/>
<path d="M25.5893 27.3134V28.1688L30.9253 33.3625H31.7742L33.2295 31.8961V30.9795L27.9542 25.7858H27.0446L25.5893 27.3134ZM36.7464 30.0019L36.807 32.8737L32.8657 36.9676H30.0158L22.0118 29.1465L21.9512 26.2746L25.8925 22.1807L28.8031 22.1196L36.7464 30.0019Z" fill="white"/>
<path d="M87.3777 14.665L81.496 28.7797L79.0099 27.741L78.4036 17.7201L74.9473 25.969L72.2793 24.8692L78.2216 10.7544L81.496 12.1598L81.5566 20.9586L84.6491 13.504L87.3777 14.665Z" fill="white"/>
<path d="M42.0821 19.309L44.4469 18.2091C44.5741 17.9552 44.6757 17.6891 44.7501 17.4148L43.9618 15.5206L43.1129 15.2151L40.7481 16.3149L42.0821 19.309ZM48.267 17.9036L47.6 20.2866L51.8445 24.4416L48.8733 25.7859L44.932 21.9364L43.5373 22.6085L45.5383 27.2523L42.8097 28.4133L36.7461 14.3596L43.2948 11.4878L46.0841 12.6487L48.267 17.9036Z" fill="white"/>
<path d="M99.3233 28.4128L97.3223 26.4575L88.9545 35.0119L86.7109 32.8122L95.0787 24.1967L93.0777 22.2414L95.3819 19.8584L101.627 26.0909L99.3233 28.4128Z" fill="white"/>
<path d="M18.1914 37.1509L17.0393 39.7172L27.9538 44.6054L26.6804 47.5384L15.7659 42.6502L14.6138 45.2165L11.582 43.8111L15.2202 35.8066L18.1914 37.1509Z" fill="white"/>
<path d="M101.566 76.2567L100.05 79.1285L98.9585 78.5786L98.6553 79.1285L97.7458 80.9616L97.9883 81.7559L99.5042 82.6114L99.3223 82.4891L100.111 82.2447L101.93 78.823L104.719 77.9675L109.327 80.3506L110.116 83.1002L107.508 88.1717L104.78 89.0272L102.475 87.8051L103.991 84.9333L105.143 85.5443L106.417 83.1613L106.114 82.3058L104.901 81.6948L104.052 81.9392L102.354 85.2999L99.5042 86.1553L94.8959 83.7723L93.9863 80.9616L96.5937 75.89L99.3829 75.0957L101.566 76.2567Z" fill="white"/>
<path d="M21.5874 80.6557L22.8002 82.9776C23.0729 83.1063 23.3571 83.2086 23.6491 83.2831L25.4682 82.3055L25.7107 81.45L24.498 79.1281L21.5874 80.6557ZM23.4065 86.8271L20.9811 86.3383L17.161 90.8599L15.6451 87.9881L19.162 83.772L18.4344 82.3666L13.9473 84.6885L12.6133 82.0611L26.0745 74.9731L29.4095 81.3278L28.5 84.1386L23.4065 86.8271Z" fill="white"/>
<path d="M44.4463 102.653L46.5686 103.57L47.3569 103.203L48.2058 101.248L47.9026 100.453L45.7197 99.5368L44.4463 102.653ZM43.2943 105.342L41.1114 110.658L38.4434 109.558L44.2644 95.3818L50.6919 98.0704L51.7833 100.82L49.661 106.014L47.5388 107.114L43.2943 105.342Z" fill="white"/>
<path d="M66.3977 102.714L63.6084 102.775L63.7297 114.751L60.516 114.812L60.3947 102.775L57.6661 102.836L57.6055 99.4757L66.3371 99.4146L66.3977 102.714Z" fill="white"/>
<path d="M75.0684 100.514L74.7046 101.309L77.3119 108.274L78.1002 108.58L80.0406 107.847L80.4044 107.052L77.797 100.087L77.0088 99.7811L75.0684 100.514ZM84.0426 107.724L82.9511 110.352L77.6758 112.368L75.0684 111.207L71.0664 100.636L72.2185 98.0091L77.4938 95.9927L80.1012 97.1536L84.0426 107.724Z" fill="white"/>
<path d="M89.6814 96.054L91.6824 94.282L91.7431 93.4877L90.4091 91.8379L89.6208 91.7768L87.6198 93.4877L89.6814 96.054ZM95.1993 92.8767L95.26 95.3819L100.535 98.1926L98.0492 100.27L93.1983 97.7649L92.0462 98.8036L95.26 102.653L93.0771 104.608L83.1934 92.8767L88.59 88.2939L91.5612 88.5384L95.1993 92.8767Z" fill="white"/>
<path d="M30.8045 98.1926L32.9268 93.9765L28.8641 96.4206L30.8045 98.1926ZM30.7439 105.464L28.3791 103.264L29.4705 101.003L26.1961 97.9482L24.0132 99.2925L21.6484 97.0317L35.4128 88.7217L37.7777 90.9214L30.7439 105.464Z" fill="white"/>
<path d="M72.8242 92.3262L72.9455 92.4484C73.1085 92.4403 73.2706 92.4199 73.4306 92.3873L73.7944 92.2651L74.7646 91.8374L77.1294 90.7376L77.5538 90.4931L77.7964 90.3709L78.0389 90.1876L78.4634 89.9432L78.9485 89.6377L79.6155 89.21L80.7069 88.4156L81.3133 87.9879L82.1016 87.438L82.8292 86.8881L83.1324 86.6437L83.6781 86.1548L84.1632 85.666L84.9515 84.8106L85.861 83.894L86.9524 82.6109L87.5588 81.8165L87.7407 81.5721L88.4077 80.7778L89.6204 78.9447L89.9843 78.3948L90.8332 76.745L91.2576 75.8896L92.0459 74.2398L92.4703 73.201L92.9554 71.6735C92.9554 71.6735 93.5012 69.6571 93.8043 68.6183C93.865 68.5572 93.865 68.435 93.7437 68.3128C93.579 68.0613 93.4369 67.7955 93.3192 67.5185C93.2517 67.3686 93.1705 67.2255 93.0767 67.0908C92.9554 66.9686 92.7735 66.7241 92.6522 66.6019C92.5916 66.4797 92.4703 66.4186 92.3491 66.2964C92.1065 66.1131 91.864 65.8076 91.6821 65.6854C91.5608 65.6243 91.5002 65.5632 91.3789 65.5021C90.7458 64.9604 90.0289 64.5269 89.2566 64.2189C88.9437 64.0701 88.6193 63.9475 88.2864 63.8523C88.0122 63.7428 87.7278 63.6609 87.4375 63.6079C87.3795 63.5731 87.3111 63.5601 87.2445 63.5713C87.1779 63.5825 87.1174 63.6171 87.0737 63.669C87.0131 63.7301 87.0131 63.8523 87.0131 64.0356C86.9427 64.4599 86.9021 64.8887 86.8918 65.3188C86.8214 65.7431 86.7809 66.1719 86.7705 66.6019C86.7099 67.0297 86.7099 67.3963 86.6493 67.824C86.598 68.3375 86.5171 68.8476 86.4067 69.3516C86.2248 70.3292 86.0429 71.3069 85.861 72.2234C85.8361 72.4952 85.7749 72.7624 85.6791 73.0177C85.5107 73.4151 85.3689 73.8234 85.2546 74.2398C85.0562 75.1339 84.7927 76.0121 84.4664 76.8672C84.2633 77.6 83.957 78.2996 83.5568 78.9447C83.5568 79.0058 83.5568 79.0058 83.4962 79.128C83.3143 79.5557 83.1324 79.9835 82.9505 80.4723C82.8292 80.7167 82.6473 80.9611 82.526 81.2666C82.3602 81.6331 82.157 81.9813 81.9196 82.3054C81.6165 82.8553 81.2526 83.3441 80.9495 83.894C80.7629 84.2623 80.5394 84.6104 80.2825 84.9328C80.2218 85.055 80.1612 85.1161 80.1006 85.2383C79.9336 85.5472 79.73 85.8344 79.4942 86.0937C79.0697 86.6437 78.6453 87.1936 78.2208 87.6824C77.9177 87.9879 77.6145 88.2934 77.3113 88.599L76.523 89.3933C76.4624 89.5155 76.4018 89.5155 76.3411 89.5766C76.1529 89.6853 75.9879 89.8307 75.856 90.0043C75.5336 90.3566 75.1666 90.6648 74.7646 90.9209C74.5883 91.0457 74.4257 91.1891 74.2795 91.3486C73.8436 91.7433 73.3534 92.0726 72.8242 92.3262Z" fill="#A0A0A3"/>
<path d="M94.228 66.5409L94.2886 66.4798V66.2354L94.5312 64.1579L94.6524 62.2026V59.9418L94.4705 57.7421C94.4705 57.7421 94.1673 55.7257 93.9854 54.687C93.9248 54.3203 93.6822 54.1981 93.3791 54.0148C93.2578 53.9537 93.1972 53.8926 93.0759 53.8926C92.8446 53.8384 92.6207 53.7564 92.4089 53.6482C91.9238 53.5871 91.4387 53.3427 90.9536 53.2816C90.3473 53.1594 89.7409 53.1594 89.1345 53.0372C88.6494 53.0372 88.1644 52.9761 87.6793 52.9761H86.6485C86.4059 52.9761 86.224 52.9761 86.1027 53.1594C85.9815 53.2816 86.1027 53.526 86.1027 53.7704C86.1634 54.2592 86.2846 54.5036 86.3453 54.9314C86.6203 56.3435 86.8026 57.7723 86.891 59.2086C86.891 59.8807 86.9516 60.4917 86.9516 61.1639V61.6527C86.9659 61.7556 86.9861 61.8576 87.0123 61.9582C87.1048 62.0327 87.2067 62.0943 87.3155 62.1415C87.4393 62.1404 87.5624 62.1611 87.6793 62.2026C87.8457 62.2213 88.0088 62.2624 88.1644 62.3248C88.7101 62.5081 89.3164 62.6914 89.9228 62.9358C90.2984 63.0945 90.663 63.2782 91.0143 63.4858C91.0457 63.5206 91.089 63.5424 91.1355 63.5469C91.3781 63.7302 91.6206 63.9135 91.8025 64.0357C92.3434 64.4182 92.8326 64.8701 93.2578 65.38C93.3055 65.4891 93.392 65.5763 93.5003 65.6244C93.6822 65.8077 93.9248 66.2965 94.1067 66.4798C94.1673 66.4798 94.1673 66.5409 94.228 66.5409Z" fill="#A0A0A3"/>
<path d="M79.5545 42.9554H80.1002C80.2215 42.9554 80.3428 42.9554 80.3428 42.7721C80.4034 42.6499 80.3428 42.5888 80.2821 42.4666C80.2215 42.3444 79.8577 41.7334 79.8577 41.7334L79.4939 41.1223L77.9173 38.9226L77.6141 38.4949L77.311 38.0672L76.8259 37.5173L75.5525 36.173L75.0674 35.6231L73.1271 33.79L71.5505 32.5679L70.9442 32.2624L69.1251 31.1626L67.7911 30.4293L67.5485 30.3071L66.4571 29.9405L64.8805 29.3295L64.7593 29.2684L64.2742 29.1462L63.6678 29.024L62.7583 28.8407H62.2732L61.4243 28.6574L60.4541 28.5963L60.0903 28.5352H59.4839L58.3925 28.5963L57.3617 28.7185H56.5734L55.8457 28.7796L55.1788 28.9018L54.5724 29.0851L53.6628 29.2684H53.4809L52.632 29.5739L52.1469 29.7572L51.8438 29.9405L51.1161 30.1238L50.8129 30.3071L50.3885 30.5515L49.297 31.0404L47.9024 31.5903L47.478 31.7736L46.5078 32.3235L45.6589 32.8735L44.8706 33.3012L44.5674 33.4234L43.7185 33.9122L43.5366 33.9733L42.5664 34.7065L41.7782 35.2565L41.5963 35.3787L40.6867 36.1119L40.3835 36.3563C40.207 36.5036 40.0446 36.6673 39.8984 36.8451L40.2016 36.784L40.8686 36.5396H40.9899L41.8994 36.173H42.0207L42.9909 35.7453L43.5366 35.6231L44.0217 35.4398L44.7493 35.1343L46.5684 34.4621H46.6897L47.5992 34.1566L48.3269 33.8511L48.4481 33.9122L49.8428 33.9733L50.7523 34.0344H50.8129L52.5714 34.2177L55.0575 34.3399V34.401L55.967 35.1343H56.0277L56.9372 36.0508L56.9978 35.9897L58.2712 36.0508L58.3318 35.9897L61.4243 36.173V36.2341L62.8189 37.0896H62.8795L65.305 38.2505V38.3727L66.6996 37.8228L68.7613 38.4949L69.1251 39.106H69.8527L70.5803 39.9003H70.641L71.2473 40.5724V40.6335H71.308L72.8845 41.0001L73.4909 41.9167L74.9461 42.4666C75.744 42.6792 76.554 42.8425 77.3716 42.9554C78.0964 43.0474 78.8297 43.0474 79.5545 42.9554Z" fill="#A0A0A3"/>
<path d="M93.379 52.4262C93.3184 52.2429 93.1365 51.7541 93.1365 51.7541L93.0758 51.4486L92.9546 51.143L92.712 50.3487L92.4695 49.6766L91.6812 47.9657L91.3174 47.1103L90.9536 46.1326L90.4078 45.3383L89.9227 44.4217L89.6196 43.8718L89.4377 43.6885L87.2547 40.6334L86.8909 40.2667C86.8888 40.235 86.8753 40.2052 86.853 40.1827C86.8307 40.1602 86.8011 40.1467 86.7697 40.1445C86.7697 40.1445 86.1027 41.2444 85.7995 41.611C85.4963 41.9165 84.8899 42.4664 84.8899 42.4664C84.8899 42.4664 84.4048 42.8331 84.3442 42.8942C84.1878 43.0043 84.0259 43.1062 83.8591 43.1997L83.374 43.5052C83.2375 43.5774 83.0956 43.6386 82.9496 43.6885C82.8283 43.7496 82.7677 43.7496 82.7677 43.8107C82.707 43.8718 82.707 43.8718 82.707 43.994C82.707 44.1162 82.7677 44.1162 82.7677 44.1773C82.9445 44.6366 83.1469 45.0854 83.374 45.5216C83.7184 46.1445 84.0026 46.7993 84.2229 47.4769C84.3142 47.6762 84.3952 47.8801 84.4655 48.0879C84.6474 48.6989 84.8899 49.2489 85.0112 49.7988C85.0718 50.1043 85.1931 50.2876 85.2538 50.5931C85.3144 50.8375 85.375 51.143 85.4357 51.3264C85.4963 51.5097 85.5569 51.6319 85.7995 51.5708H86.2846C86.8909 51.5708 87.4367 51.5097 88.043 51.5097C88.2249 51.5097 89.4377 51.6319 89.4377 51.6319C89.4377 51.6319 89.8015 51.693 90.044 51.7541C90.5291 51.8152 90.9536 51.9374 91.4386 51.9985C91.8111 52.093 92.1759 52.2156 92.5301 52.3651L93.0758 52.5484C93.1393 52.559 93.2007 52.5796 93.2577 52.6095C93.379 52.5484 93.379 52.4873 93.379 52.4262Z" fill="#A0A0A3"/>
<path d="M85.5579 39.1058C85.5111 38.9963 85.4499 38.8935 85.376 38.8003L85.2547 38.617L84.9515 38.1893L84.7696 37.8838L84.3451 37.5172C84.2908 37.4677 84.2295 37.4265 84.1632 37.3949C83.4356 36.845 82.041 35.6841 82.041 35.6841L81.6772 35.3786L80.9495 34.7064L77.3113 32.5067L74.4008 31.1625L72.8243 30.5514L72.2785 30.3681L70.3988 29.696L69.0648 29.3294L67.7915 29.085H67.6096L67.4883 29.2072C67.4883 29.2072 67.6096 29.3294 67.6702 29.3294C68.0946 29.4516 68.5191 29.6349 68.8829 29.7571C69.1861 29.8793 69.4286 30.0015 69.7318 30.1237C69.9182 30.1412 70.0912 30.2284 70.2169 30.3681C70.8233 30.6736 71.4296 31.0403 72.0966 31.4069C72.4652 31.637 72.8105 31.903 73.1274 32.2012L73.8551 32.7511C73.9907 32.8343 74.1133 32.9373 74.2189 33.0566C74.2795 33.1177 74.3402 33.1789 74.4008 33.1789C74.7646 33.4844 75.1891 33.7899 75.4923 34.0954C75.8041 34.491 76.1489 34.859 76.5231 35.1952C76.8869 35.5619 77.1901 35.8674 77.4933 36.234C77.7385 36.5544 78.0017 36.8604 78.2815 37.1505C78.8273 37.7005 79.1911 38.3115 79.7368 38.8614C79.7974 38.9225 79.7974 38.9836 79.8581 39.1058C80.1461 39.6175 80.4703 40.1076 80.8282 40.5723C81.1047 40.8931 81.3485 41.2411 81.5559 41.611C81.6534 41.8473 81.7754 42.0726 81.9197 42.2832C82.041 42.3443 82.1622 42.4665 82.2229 42.4665C82.3148 42.4536 82.4001 42.4107 82.4654 42.3443L82.708 42.2832C82.855 42.2118 82.9968 42.1302 83.1324 42.0388C83.2922 41.9948 83.4382 41.9107 83.5569 41.7944C83.7764 41.6546 83.9797 41.4906 84.1632 41.3055C84.3451 41.1222 84.7696 40.6334 84.7696 40.6334L85.0728 40.2668L85.5579 39.4113C85.4972 39.4113 85.6185 39.228 85.5579 39.1058Z" fill="#A0A0A3"/>
<path d="M84.0421 51.4484C83.8602 50.8374 83.7389 50.2264 83.4964 49.6153C83.3412 49.1169 83.159 48.6273 82.9507 48.1489C82.8294 47.8434 82.7687 47.5379 82.6475 47.2323C82.5868 47.049 82.5262 46.9268 82.4656 46.7435C82.1965 45.9965 81.8511 45.2798 81.4347 44.6049C81.4303 44.558 81.4087 44.5144 81.3741 44.4827C81.3135 44.4216 81.3135 44.3605 81.2528 44.2994C81.1316 44.2383 81.0709 44.2994 80.889 44.2994C80.5858 44.2994 80.1614 44.3605 80.0401 44.3605C79.8582 44.3605 79.2519 44.4216 78.7668 44.4216H78.0391L76.4626 44.1772C75.8562 44.1161 74.5829 43.8106 74.5829 43.8106L73.552 43.444L72.3393 43.0162L72.2787 43.0773L70.399 42.894L70.3383 42.9551L69.3075 42.1608H69.1862L68.5192 41.5498V41.4276L67.7916 41.3054L67.6703 41.3665L67.064 41.1221L67.0033 41.061L65.6693 41.1832L64.396 40.6943L60.0908 40.9387L60.0302 40.8776L59.1813 40.9387L59.1206 41.061L56.9984 41.1832L56.9377 41.1221L53.9059 42.894L53.8453 43.0162L53.724 43.1385L53.6634 43.0773L52.1475 42.9551H49.2976L48.5093 42.894L48.2668 42.7718L45.4775 44.9715V45.0326L44.5073 45.827L43.4159 45.277L43.3552 45.3382L42.9308 45.2159C42.9308 45.2159 40.8692 45.7048 40.9298 45.7048L38.9894 45.3993L38.8682 45.3382L38.565 45.7048L37.7767 46.0714V46.1325L36.2608 47.3545L34.0779 48.8821L31.6525 50.7152L30.561 51.5095L30.5004 51.9984L30.0759 53.0371L29.894 53.9536L29.5908 55.8478L29.4089 56.6422L29.2876 57.6198L29.0451 59.6362L28.9238 64.0356L29.0451 64.28L29.1057 65.5021C29.1057 65.5021 29.1057 65.7465 29.1664 65.7465L34.563 60.1861L36.2608 59.4529L37.7767 59.3918L38.6862 58.3531L38.7469 58.1697H38.8682L41.2936 57.9253L41.4149 57.8642H42.4457L42.7489 57.4976L43.8403 56.8255L45.0531 56.0311H48.2668L48.3274 56.0922L49.6008 56.2145L50.6316 56.0311L52.4507 54.1981L53.9059 52.7927L56.0888 52.5483L56.1495 52.4261L56.2707 52.5483L57.3622 53.0371L57.4835 52.976L58.4536 52.8538H58.5143L59.4238 52.6705H59.4845L60.5153 53.5259L60.5759 53.4648L62.6375 53.4037L62.8194 53.2815L64.5173 53.3426L64.5779 53.4037L64.8811 53.3426V53.2815L65.5481 52.976H65.6693L66.397 52.6094L66.4576 52.5483L67.3065 52.2428L67.3672 52.1206L69.732 51.204L70.1564 51.0818L70.2171 51.0207L70.3383 51.1429L71.0053 51.4484H71.2479L71.9755 51.8762L72.0361 51.8151L72.218 51.6928H72.2787L72.6425 51.5095V51.4484L73.1882 51.3262L74.5829 51.6928L74.886 51.6317L75.1286 51.7539L76.1594 51.9373L77.1296 52.3039L77.6753 52.2428L77.9179 52.365L78.0391 52.3039C78.0391 52.3039 79.9795 52.0595 80.9497 51.9984C81.6167 51.9373 82.223 51.8762 82.8294 51.8151C83.1932 51.7539 83.557 51.7539 83.9208 51.6928C84.0421 51.7539 84.1634 51.6317 84.0421 51.4484Z" fill="#A0A0A3"/>
<path d="M85.4965 61.4697C85.4965 61.2863 85.4358 61.2252 85.4358 61.103C85.3854 60.7387 85.3651 60.3709 85.3752 60.0032C85.3752 59.881 85.3145 59.6977 85.3145 59.5755C85.2627 59.1089 85.2425 58.6394 85.2539 58.1701C85.1933 57.5591 85.072 57.0091 85.0114 56.3981C84.96 55.9451 84.8789 55.4961 84.7688 55.0539C84.7175 54.5807 84.6365 54.1113 84.5263 53.6485C84.405 53.1597 84.3444 53.1597 83.8593 53.1597C83.7986 53.1597 83.738 53.1597 83.738 53.2208C83.54 53.2713 83.3357 53.2919 83.1316 53.2819C82.1615 53.4041 81.2519 53.4652 80.3424 53.5874L77.6138 54.565L73.6724 54.4428L73.2479 54.2595V54.3817L72.0352 55.2372H71.914L71.0044 56.0926L70.9438 56.2148L68.579 56.5203L66.4567 58.2312H66.2141L65.0621 58.9033L64.6376 58.9644L64.1525 59.3311L64.0312 59.27L61.8483 59.0866L61.4845 59.5144V59.5755L59.6048 61.7141L59.5442 61.8363H59.4835L57.0581 64.5859H56.3911L56.3305 64.647L54.3295 65.0136H54.1476V65.1358L50.8126 66.9689L49.3573 66.7856L49.0541 66.9078L47.5988 66.7856L46.1436 68.3743L45.234 68.5576H44.7489L44.2639 68.7409H43.9607V68.802L42.1416 70.2074L41.899 70.2685L39.1098 72.4682V72.5904L37.3513 76.8676L37.4726 77.0509L34.5621 77.2953L33.6525 78.1507L33.5312 78.4562L34.8652 80.2282L35.7748 81.6947L36.6237 82.7945L37.9577 84.1999V84.3221C38.0183 84.3221 38.2002 84.3221 38.2002 84.3832L38.9885 84.6276L39.9587 84.9331C39.9585 84.9412 39.96 84.9492 39.963 84.9567C39.966 84.9642 39.9705 84.971 39.9761 84.9767C39.9818 84.9824 39.9885 84.9869 39.996 84.9899C40.0034 84.9929 40.0113 84.9944 40.0193 84.9942H40.08L41.7171 85.6664H41.8384L41.899 85.7275H42.0809L42.4448 86.033L43.1118 85.6664H43.1724L43.4756 85.422L45.9617 86.033L47.7808 85.1165L51.7827 84.7498L53.4199 82.0613C53.7231 81.7558 54.1476 81.3281 54.1476 81.3281H54.2688L54.8146 80.7782V80.717L55.8454 79.7394L56.3305 79.2506L56.4517 79.1895L56.9975 78.6396L57.4825 78.1507L57.6038 78.0896L57.4825 77.723L57.907 75.951L58.8165 75.7066L58.8772 75.6455L59.1197 75.5844V75.4622L60.3324 73.4458H60.4537L60.9388 72.4071L61.7877 71.9793L61.909 71.796L62.0303 71.8571L62.5153 71.6127H62.576L63.4249 71.185L63.5462 71.0628L66.4567 69.7185H66.6992V69.5352L66.8205 69.4741L67.1237 68.4354L68.0939 68.0077L69.1247 67.9466L70.0949 67.2133L71.5501 67.3355L71.6714 67.3966L71.732 67.3355L73.733 66.4801V66.1746L74.1575 65.258L75.1277 65.0136L75.1883 64.9525L76.4617 64.647L77.0074 64.036H77.068L77.3712 63.7305L78.2807 63.8527V63.9138L78.8265 63.9749L79.1297 64.036C79.1297 64.036 80.403 63.4249 81.0094 63.1805C81.2406 63.1264 81.4646 63.0443 81.6764 62.9361C81.9796 62.8139 82.2827 62.7528 82.5859 62.6306C82.7535 62.619 82.9177 62.5776 83.071 62.5084L83.6774 62.3862L84.3444 62.264L84.8295 62.2029H85.1326C85.1889 62.2057 85.2451 62.1962 85.2975 62.1751C85.3498 62.154 85.397 62.1218 85.4358 62.0807C85.5571 62.0196 85.4965 61.8974 85.5571 61.8363C85.5159 61.7185 85.4954 61.5945 85.4965 61.4697Z" fill="#A0A0A3"/>
<path d="M85.4968 64.0357C85.505 63.9023 85.4615 63.7709 85.3755 63.6691C85.3087 63.6047 85.2242 63.5621 85.133 63.5469C85.0723 63.5469 84.7085 63.608 84.7085 63.608L84.1628 63.6691C84.0415 63.6691 84.0415 63.7302 83.9809 63.7302C83.6298 63.7756 83.2844 63.8575 82.9501 63.9746C82.5725 64.0503 82.2058 64.1735 81.8586 64.3412C81.4387 64.4873 81.0328 64.6714 80.6459 64.8911C80.5246 64.9522 79.2513 65.5633 78.7055 65.8688L77.9173 66.6631V66.7853H77.3109V66.8464L75.795 67.3353V67.5186L75.6131 67.6408V67.763L74.8854 69.0461H74.7642V69.1683C74.7642 69.1683 74.6429 69.3516 74.461 69.6572L71.3079 71.6735H71.2473L70.7016 72.1013L70.3984 73.4455L70.0952 73.751L68.8218 78.3949L69.0037 78.9448L67.1847 79.8002H66.8815L66.5177 81.3889L66.457 81.45L65.9719 82.9165L66.0326 82.9776L65.8507 84.1996L65.79 84.3218L65.8507 84.444L64.0316 87.2548H63.9103L63.4858 87.988V88.1102L61.9699 90.2488L60.3934 91.2265L60.454 91.3487L60.3934 92.0208L60.5147 92.2652L60.3328 92.3263L59.1807 92.9984H59.0594L57.3616 93.9761L57.1797 94.2816L57.786 94.4038L58.8775 94.4649L59.6658 94.526H62.2125L64.5773 94.2205L65.9719 93.915L67.0634 93.6095L68.2155 93.304L69.6707 92.6929L69.792 92.6318L70.2165 92.3874C70.804 92.0783 71.3711 91.7313 71.9143 91.3487C72.8441 90.6887 73.735 89.9746 74.5823 89.2101C74.8611 88.9404 75.1243 88.6548 75.3705 88.3546C75.6482 88.1053 75.9114 87.8401 76.1588 87.5603C76.2194 87.4992 76.2801 87.4992 76.2801 87.377C76.4062 87.2011 76.5483 87.0375 76.7045 86.8882C76.823 86.7817 76.9252 86.6582 77.0077 86.5215C77.2147 86.2634 77.4375 86.0185 77.6747 85.7883C77.9026 85.6317 78.0898 85.4221 78.2204 85.1773C78.5179 84.7937 78.7816 84.3848 79.0087 83.9552C79.4071 83.4294 79.7717 82.8783 80.1002 82.3054C80.4033 81.6944 80.7065 81.0834 81.0703 80.4724C81.3735 79.9835 81.6161 79.4336 81.8586 78.9448C82.2224 78.0282 82.6469 77.1117 82.9501 76.2563C83.3356 75.3065 83.6399 74.3253 83.8596 73.3233C84.0049 72.5554 84.2076 71.7997 84.466 71.0625C84.4619 70.9573 84.4826 70.8526 84.5266 70.757C84.6479 70.146 84.7085 69.535 84.8298 68.9239C84.8904 68.374 84.9511 67.8241 85.0723 67.213C85.1625 66.8313 85.2233 66.4432 85.2542 66.0521C85.2542 65.5022 85.3149 64.9522 85.3149 64.4023V64.219C85.3918 64.1769 85.455 64.1132 85.4968 64.0357Z" fill="#A0A0A3"/>
</g>
<defs>
<clipPath id="clip0_38_1040">
<rect width="122" height="123" fill="white"/>
</clipPath>
</defs>
</svg>
