<svg width="123" height="53" viewBox="0 0 123 53" fill="none" xmlns="http://www.w3.org/2000/svg">
<g clip-path="url(#clip0_38_1041)">
<path d="M103.814 46.6755L116.587 17.6144H57.3997L54.9292 23.2071L53.1946 17.6144H41.3677C41.3677 17.6144 33.5356 35.3333 31.2754 40.4556C31.5044 39.4077 31.6277 38.3396 31.6433 37.2673V36.8491C32.4843 34.8629 39.4228 19.0779 40.842 15.8895H73.3266L80.3177 0H41.7356L29.0677 28.8521C27.5912 26.5584 25.5398 24.6864 23.1152 23.4201C20.6906 22.1538 17.9763 21.5369 15.2392 21.6299C12.5022 21.723 9.83657 22.5229 7.50462 23.9509C5.17266 25.3789 3.25466 27.3859 1.93923 29.7744C0.623799 32.163 -0.0437526 34.8509 0.00222411 37.5738C0.0482008 40.2967 0.806123 42.9608 2.20145 45.3041C3.59678 47.6474 5.58146 49.5892 7.96031 50.9386C10.3392 52.2879 13.0303 52.9984 15.7689 53C18.288 53.0024 20.7712 52.406 23.0114 51.2604C25.2516 50.1148 27.1839 48.4532 28.6472 46.4142L25.9664 52.5819H32.4318L36.2689 43.9053H43.5228L46.151 52.5819H114.327L116.902 46.6755H103.814ZM38.792 37.9467L40.5266 34.0266L41.6831 37.9467H38.792ZM61.4472 44.7416L54.9818 23.4684H70.8561C66.1254 34.0789 63.2343 40.6647 61.4472 44.7416ZM85.942 46.6755H78.4779L88.6228 23.5207H96.1395C90.6728 35.9083 87.6241 42.8077 85.942 46.6755Z" fill="white"/>
<path d="M0.945312 37.999C1.12982 41.7341 2.72552 45.2621 5.41326 47.8777C6.85592 46.6475 8.02943 45.1361 8.86123 43.4369C9.69302 41.7378 10.1654 39.887 10.2492 37.999H0.945312Z" fill="#0D2240"/>
<path d="M11.5634 37.999C11.4667 40.044 10.9614 42.0493 10.077 43.8979C9.19257 45.7466 7.9467 47.4016 6.41211 48.7663C8.89361 50.7602 11.9507 51.9139 15.1378 52.0592V37.999H11.5634Z" fill="#FFA400"/>
<path d="M0.945312 36.6922H10.2492C10.1776 34.7793 9.71144 32.9013 8.87955 31.175C8.04767 29.4486 6.86782 27.9107 5.41326 26.6567C2.69225 29.3135 1.0941 32.9031 0.945312 36.6922Z" fill="#0D2240"/>
<path d="M6.41211 25.8208C7.97126 27.1876 9.2326 28.8572 10.1185 30.7269C11.0044 32.5966 11.4961 34.6268 11.5634 36.6925H15.0852V22.4756C11.9161 22.6731 8.88628 23.8417 6.41211 25.8208Z" fill="#FFA400"/>
<path d="M30.5929 37.999H21.2891C21.3728 39.887 21.8452 41.7378 22.677 43.4369C23.5088 45.1361 24.6823 46.6475 26.125 47.8777C28.7927 45.2483 30.3847 41.7284 30.5929 37.999Z" fill="#0D2240"/>
<path d="M19.9748 37.999H16.4004V52.0069C19.5974 51.9101 22.6695 50.7507 25.126 48.714C23.5786 47.3711 22.3235 45.728 21.4377 43.8854C20.5519 42.0429 20.0541 40.0398 19.9748 37.999Z" fill="#2B5134"/>
<path d="M25.126 25.8208C22.637 23.8325 19.5875 22.6634 16.4004 22.4756V36.6925H19.9748C20.042 34.6268 20.5337 32.5966 21.4196 30.7269C22.3055 28.8572 23.5669 27.1876 25.126 25.8208Z" fill="#2B5134"/>
<path d="M42.3145 0.940918L29.1735 30.9429C28.377 29.3584 27.3299 27.9114 26.0722 26.6569C24.6221 27.9146 23.4453 29.4533 22.6137 31.1789C21.7822 32.9044 21.3135 34.7805 21.2363 36.6924H30.5927L40.1068 14.9488H67.9658L74.1158 0.940918H42.3145Z" fill="#0D2240"/>
<path d="M72.6438 14.9488L78.7938 0.940918H76.1656L70.0156 14.9488H72.6438Z" fill="#2B5134"/>
<path d="M46.8353 51.641H57.9263L47.9391 18.5552H41.9468L27.334 51.641H31.7494C31.7494 51.641 33.3789 47.9299 35.5865 42.9644H44.2071L46.8353 51.641ZM37.3737 38.8875C38.4776 36.4309 39.5814 33.8175 40.6853 31.3609L42.9981 38.8875H37.3737Z" fill="#0D2240"/>
<path d="M58.9237 48.2958L60.448 44.7938L52.4583 18.5552H49.8301L58.9237 48.2958Z" fill="#2B5134"/>
<path d="M97.6634 47.5641L110.489 18.5552H91.8287L90.0416 22.5798H97.6108C93.7211 31.3609 84.7852 51.5887 84.7852 51.5887H113.695L115.483 47.5641H97.6634Z" fill="#0D2240"/>
<path d="M77.847 45.7347L89.779 18.5552H87.1508L75.2188 45.7347H77.847Z" fill="#2B5134"/>
<path d="M103.183 45.7347L115.115 18.5552H112.487L100.555 45.7347H103.183Z" fill="#2B5134"/>
<path d="M85.1542 18.5552H57.9786L56.1914 22.5798H72.276C68.3863 31.3609 59.4504 51.5887 59.4504 51.5887H82.894L84.6286 47.5641H72.3812L85.1542 18.5552Z" fill="#0D2240"/>
<path d="M83.7357 12.8058H80.319L85.5755 0.940918H82.9998L77.5332 13.1717C77.1126 14.1125 77.5332 14.8965 78.5319 14.8965H83.578C84.1127 14.8507 84.6263 14.6677 85.0686 14.3654C85.5108 14.063 85.8666 13.6517 86.1011 13.1717L91.5678 0.940918H89.0447L83.7357 12.8058Z" fill="#0D2240"/>
<path d="M102.71 0.940918H93.8271L92.8809 3.08392H96.3502L91.0938 14.9488H93.6168L98.8732 3.08392H101.764L102.71 0.940918Z" fill="#0D2240"/>
<path d="M106.285 4.44289L104.76 10.5583H102.342L106.285 4.44289ZM109.123 0.940918H106.6L97.0859 14.9488H99.4513L100.871 12.8058H104.235L103.762 14.9488H106.285L109.123 0.940918Z" fill="#0D2240"/>
<path d="M120.478 0.940918L117.85 6.84723H114.433L117.061 0.940918H114.486L108.283 14.9488H110.806L113.434 8.99023H116.904L114.276 14.9488H116.799L123.001 0.940918H120.478Z" fill="#0D2240"/>
</g>
<defs>
<clipPath id="clip0_38_1041">
<rect width="123" height="53" fill="white"/>
</clipPath>
</defs>
</svg>
