<svg width="122" height="122" viewBox="0 0 122 122" fill="none" xmlns="http://www.w3.org/2000/svg">
<g clip-path="url(#clip0_38_1042)">
<path d="M61.181 121.579C94.6057 121.579 121.702 94.482 121.702 61.0567C121.702 27.6313 94.6057 0.534668 61.181 0.534668C27.7563 0.534668 0.660156 27.6313 0.660156 61.0567C0.660156 94.482 27.7563 121.579 61.181 121.579Z" fill="#C4CED4"/>
<path d="M60.9353 118.911C92.9957 118.911 118.986 92.877 118.986 60.7621C118.986 28.6471 92.9957 2.61279 60.9353 2.61279C28.8749 2.61279 2.88477 28.6471 2.88477 60.7621C2.88477 92.877 28.8749 118.911 60.9353 118.911Z" fill="#E31837"/>
<path d="M119.161 58.0103L2.77551 58.0212C2.72144 59.0161 2.69141 60.0165 2.69141 61.0253C2.69141 66.3301 3.473 71.5213 4.91663 76.4854C18.623 76.4823 103.063 76.477 117.001 76.4691C118.453 71.4642 119.234 66.2273 119.234 60.8793C119.234 59.9192 119.207 58.9621 119.158 58.0103" fill="white"/>
<path d="M53.4976 119.103C55.858 119.395 58.261 119.549 60.6995 119.552H60.735H60.7674H60.7782C66.08 119.552 71.2135 118.84 76.0959 117.521C91.3865 113.13 104.433 102.285 112.057 88.3661H9.86719C18.7615 104.491 35.0115 116.474 53.4982 119.102" fill="#002B5C"/>
<path d="M96.663 41.7216C94.1674 37.1222 90.8128 33.0612 86.8117 29.7518C86.0601 29.1299 85.2816 28.5459 84.4867 27.9805C77.8663 23.2598 69.7801 20.4695 61.0318 20.4533H60.9615C39.2715 20.4563 21.5478 37.4761 20.4262 58.9006C20.3908 59.5904 20.3721 60.288 20.3691 60.9879V61.0582C20.3721 66.658 21.5046 71.9946 23.5568 76.8481C23.8109 77.4538 24.0843 78.054 24.3678 78.6464C26.6441 83.3756 29.8125 87.5958 33.6514 91.0891C34.6114 91.9651 35.6141 92.7924 36.6522 93.5711C43.4192 98.638 51.8155 101.642 60.9182 101.652H60.9399H60.9645H60.9729C65.8745 101.649 70.5701 100.782 74.9172 99.1889C90.4457 93.5057 101.535 78.6026 101.554 61.1009V61.0792V61.0762V61.0492C101.554 55.4524 100.418 50.1176 98.3692 45.2647C97.8555 44.0504 97.2878 42.8692 96.663 41.7198" fill="#C4CED4"/>
<path d="M62.1761 6.12012C62.1761 6.12012 62.9691 6.69884 62.8874 7.42609L61.8733 16.4838L63.9448 16.7155C64.3485 16.7616 64.6561 16.7659 64.8195 16.4876C64.8195 16.4876 65.0742 14.2059 65.3626 11.6507L67.458 16.2593C67.7656 17.0164 67.0928 17.0707 67.0928 17.0707L67.7079 17.1548V17.1514L69.7697 17.3831C70.1783 17.4292 70.4811 17.4307 70.6445 17.1548L71.7595 7.21027L68.8566 6.88053L68.0636 6.80074C68.0636 6.80074 68.7989 7.32659 68.722 8.05144L68.2895 11.9045L65.8239 6.71999C65.7567 6.59021 65.6461 6.5109 65.4779 6.49215C65.1174 6.45418 63.0316 6.21337 63.0316 6.21337L62.1761 6.12012ZM60.6574 6.24317C60.3642 6.24846 59.23 6.33305 58.0381 6.37391C57.7497 6.43303 57.221 6.44361 57.3364 7.64095L57.817 16.7073L60.7391 16.5511L60.9554 16.4919C60.9554 16.4919 60.7583 16.1588 60.691 15.5965C60.691 15.5965 60.2296 7.37754 60.2296 6.99878C60.2296 6.62338 60.6574 6.24317 60.6574 6.24317ZM54.52 6.4835L50.8193 7.25738C50.8193 7.25738 51.7421 7.55202 51.8959 8.2711L51.9055 8.29994L52.4389 10.8605L50.406 11.2873C49.81 11.4118 49.685 12.0054 49.685 12.0054L48.8151 7.67123L45.3177 8.398C45.3177 8.398 46.0387 8.73495 46.1925 9.45402L46.2093 9.48286L48.051 18.3762L50.0936 17.9537C50.4973 17.8729 50.7856 17.7773 50.8577 17.4639L50.1128 13.8935L52.9436 13.3022L53.751 17.1932L55.7936 16.7746C56.1973 16.6909 56.4857 16.5958 56.5578 16.2848L54.52 6.4835ZM75.3496 8.37637C75.167 8.38694 75.0132 8.41771 74.8738 8.46914C74.3259 8.67486 73.8597 9.34155 73.4656 10.4716L71.995 14.7217C71.8171 15.2215 71.7066 15.6397 71.6682 15.9805C71.5816 16.6429 71.7402 17.1548 72.1199 17.5143C72.4996 17.8743 73.2013 18.2363 74.2442 18.5958L76.0609 19.225C77.373 19.6793 78.3006 19.8013 78.8389 19.5932C79.3868 19.3846 79.8577 18.7232 80.2519 17.5908C80.2519 17.5908 80.9535 15.5965 81.0545 15.2961C81.2227 14.7471 80.8094 14.3991 80.5787 14.3208L77.1712 13.133C76.7722 12.9951 76.5175 13.2989 76.3781 13.5556C76.2388 13.8151 75.7341 15.2706 75.7341 15.2706L75.5563 15.7272C75.5563 15.7272 75.9456 15.3484 76.455 15.5244L77.7046 15.9599C77.5172 16.417 77.3057 16.6756 77.0894 16.7457C76.8924 16.813 76.4791 16.7318 75.8447 16.5126C75.8447 16.5126 75.4073 16.3429 75.2871 16.2723C74.9844 16.0752 74.8498 15.8253 74.8931 15.5037C74.9123 15.3196 74.9796 15.0673 75.0949 14.7346L75.9119 12.3813C76.133 11.7511 76.3541 11.3978 76.5848 11.3248C76.8155 11.2546 77.2432 11.3277 77.8776 11.5493L80.9728 12.6178C81.5351 12.8124 81.6408 13.5435 81.6408 13.5435L81.8571 12.9264L82.405 11.3382C82.5636 10.7326 82.1791 10.4077 81.66 10.2265L77.6373 8.83252C76.6617 8.49365 75.9023 8.3432 75.3496 8.37637ZM42.9185 9.14495C42.7864 9.13774 42.6523 9.15601 42.5259 9.20888L39.0117 10.6744C37.7438 11.2017 36.9768 11.7233 36.7091 12.2424C36.4414 12.7557 36.5413 13.5753 37.0008 14.6842L37.4064 15.6301C37.4684 15.7738 37.5424 15.906 37.6261 16.0276C37.9476 16.4924 38.3941 16.8039 38.978 16.9606C39.6701 17.1389 40.4607 17.038 41.3556 16.665L42.7239 16.0949C43.254 15.8762 43.6395 15.9325 43.8692 16.268C43.9317 16.3569 43.9624 16.4578 43.9624 16.5636C43.9624 16.5636 44.1177 17.0433 43.0281 17.4975L40.2704 18.6506C39.6542 18.8588 38.7584 18.2747 38.7584 18.2747C38.7584 18.2747 39.3255 19.6201 39.6744 20.4502C39.8772 20.9343 40.4953 21.2486 41.0009 21.0376L41.2758 20.9232L43.1766 20.134L44.5488 19.5591C45.8195 19.0294 46.5842 18.5132 46.8514 17.9916C47.122 17.4725 47.0042 16.7222 46.5476 15.6219C46.5476 15.6219 46.1934 14.8014 46.0742 14.5741C45.4091 13.2979 44.0172 12.8639 42.6057 13.4503L41.0177 14.1131C40.4444 14.3511 40.0421 14.3054 39.8181 13.9781C39.8099 13.967 39.7475 13.8339 39.7417 13.8175C39.6715 13.5796 39.4918 13.1633 40.3381 12.812L43.2103 11.617C43.8293 11.3599 44.7684 11.9756 44.7684 11.9756C44.7684 11.9756 44.2013 10.623 43.8524 9.79578C43.7005 9.43287 43.3155 9.16707 42.9185 9.14495ZM84.0919 11.3503C83.866 11.3459 83.7122 11.5243 83.645 11.6252C83.5584 11.7689 82.6693 13.3359 82.6693 13.3359L82.2752 14.0333C82.2752 14.0333 82.8712 13.4527 83.5536 13.8473L85.082 14.7346L81.1746 21.5024L83.9285 23.0997C83.9285 23.0997 83.9381 22.6512 84.188 22.1398C84.188 22.1398 86.3508 18.3738 87.6148 16.1915L88.7923 16.876C89.47 17.2682 89.4459 18.3339 89.4459 18.3339L90.0851 17.2105L91.1473 15.36L86.8266 12.8629C86.8266 12.8629 86.8074 12.8509 86.7882 12.8374L84.337 11.4228C84.2505 11.3719 84.164 11.3517 84.0919 11.3503ZM30.3309 15.5796L28.6074 16.7832C28.2614 17.0293 28.1105 17.262 28.1431 17.6244L31.0494 26.4744C31.2359 27.0287 30.5592 28.0289 30.5592 28.0289L33.5885 25.9082C33.8614 25.7193 33.922 25.3992 33.8249 25.0935L33.3976 23.8428L35.7089 22.2292L36.6043 22.7954C37.1205 23.2222 36.7518 23.6996 36.7518 23.6996L40.0767 21.3712L30.3309 15.5796ZM92.642 17.3153C92.0556 17.3317 91.3972 17.8109 90.6571 18.752L87.8791 22.2883C87.5523 22.7046 87.3168 23.0655 87.1678 23.3737C86.8747 23.974 86.841 24.5056 87.0861 24.9704C87.3264 25.4357 87.8791 26.0072 88.7394 26.6855L90.2485 27.877C91.3443 28.7369 92.1854 29.1537 92.7573 29.132C93.3437 29.1133 94.0069 28.637 94.7471 27.6958L97.5298 24.1595C97.8518 23.7486 98.0921 23.3862 98.2411 23.078C98.5391 22.4801 98.5535 21.9326 98.2892 21.4433C98.0729 21.0054 97.5202 20.4382 96.6407 19.7489L95.1315 18.5574C94.055 17.7085 93.2235 17.2966 92.642 17.3153ZM25.3229 18.5492L25.0187 18.9126L23.3966 20.7545C23.3885 20.7651 23.3894 20.7708 23.376 20.7843C23.1568 21.0333 22.9972 21.2472 23.0165 21.4774L27.1473 27.8516L21.3266 24.7046C20.586 24.4076 20.896 23.5981 20.896 23.5981L20.313 24.2571L19.1178 25.6088C19.1125 25.6198 19.1062 25.6289 19.0928 25.6429C18.79 25.9832 18.641 26.3283 18.8006 26.6989L22.979 32.5746L17.141 29.5752C16.3841 29.1859 16.7137 28.3466 16.7137 28.3466L16.0933 29.0393L14.7202 30.6024C14.7149 30.6106 14.711 30.6173 14.6947 30.6361C14.3813 30.9903 14.2992 31.5037 14.6019 31.755C14.6481 31.793 14.6236 31.7805 14.6236 31.7805L23.6836 36.0267L25.8127 33.6143C26.102 33.2869 26.1847 33.1115 26.0491 32.7654L24.3343 29.5714L27.8485 31.3037L30.1127 28.7302C30.3938 28.4115 30.4366 27.9631 30.3203 27.6199L25.5003 19.5548C25.1893 19.0082 25.3229 18.5492 25.3229 18.5492ZM31.9255 19.872L33.3193 20.7881L32.483 21.3967L31.9255 19.872ZM93.3235 20.5733C93.5446 20.5853 93.9002 20.7757 94.3568 21.1174C94.6404 21.3457 94.8662 21.539 94.9431 21.638C95.169 21.911 95.2027 22.1989 95.0633 22.4912C94.9816 22.6531 94.8326 22.8661 94.6067 23.1285L93.0688 25.0848C92.6506 25.6203 92.3142 25.877 92.0355 25.8659C91.8528 25.8683 91.5116 25.6717 91.0598 25.33C90.7859 25.1093 90.56 24.9166 90.4879 24.8267C90.262 24.5431 90.2236 24.2629 90.3677 23.9735C90.4494 23.8058 90.5984 23.5928 90.8099 23.3145L92.3478 21.3544C92.7612 20.8295 93.088 20.5733 93.3235 20.5733ZM61.0217 21.4798C50.5443 21.4803 40.4963 25.6433 33.0879 33.053C25.6794 40.4626 21.5174 50.5121 21.5174 60.9907C21.5174 71.4692 25.6794 81.5187 33.0879 88.9284C40.4963 96.338 50.5443 100.501 61.0217 100.501C66.2097 100.501 71.3469 99.4795 76.14 97.4939C80.9331 95.5083 85.2883 92.5979 88.9567 88.929C92.6252 85.2601 95.5352 80.9045 97.5206 76.1108C99.506 71.3171 100.528 66.1793 100.528 60.9907C100.528 50.5117 96.3656 40.462 88.9567 33.0523C81.5479 25.6426 71.4994 21.4798 61.0217 21.4798ZM100.682 23.5472C100.682 23.5472 100.826 24.5124 100.254 24.9666L93.0688 30.5808L94.3568 32.2285C94.6019 32.5472 94.8182 32.7688 95.1306 32.6933C95.1306 32.6933 96.9425 31.2782 98.9659 29.6935L97.1443 34.4165C96.8175 35.1683 96.3081 34.7208 96.3081 34.7208L96.6733 35.2192L96.6782 35.2158L97.9566 36.8549C98.2113 37.1765 98.4228 37.3923 98.7304 37.3197L106.612 31.1513L104.815 28.8485L104.32 28.2279C104.32 28.2279 104.459 29.1239 103.882 29.5752L100.831 31.9627L102.806 26.5672C102.854 26.4321 102.83 26.3 102.729 26.1702C102.508 25.8837 101.215 24.223 101.215 24.223L100.682 23.5472ZM13.6479 39.6433L12.284 43.8462H7.86523L11.4429 46.4399L10.0741 50.6419L13.6479 48.0453L17.2213 50.6419L15.8573 46.4399L19.435 43.8462H15.0162L13.6479 39.6433ZM108.28 40.2008L106.92 44.4038H102.494L106.074 47.0023L104.709 51.2043L108.28 48.6087L111.856 51.2043L110.491 47.0023L114.067 44.4038H109.645L108.28 40.2008ZM91.007 93.7472C90.9108 93.7327 90.8099 93.7327 90.709 93.7472C90.5792 93.7664 90.4494 93.8144 90.3389 93.8962L87.2053 96.0592C86.0759 96.8378 85.4319 97.506 85.2781 98.0683C85.1195 98.6259 85.3982 99.4046 86.0711 100.395L86.6622 101.236C86.7535 101.361 86.8497 101.476 86.9602 101.577C87.3687 101.967 87.8734 102.178 88.4789 102.212C89.1902 102.241 89.94 101.981 90.7378 101.433L91.9634 100.592C92.4344 100.265 92.8188 100.241 93.1168 100.52C93.1985 100.597 93.2466 100.683 93.2706 100.789C93.2706 100.789 93.5205 101.226 92.5497 101.894L90.089 103.596C89.5315 103.928 88.5318 103.538 88.5318 103.538C88.5318 103.538 89.3681 104.745 89.8823 105.48C90.1755 105.913 90.8484 106.095 91.3001 105.783L91.5452 105.615L93.237 104.442L94.4625 103.596C95.5968 102.817 96.236 102.154 96.3898 101.587C96.5436 101.02 96.2792 100.313 95.6016 99.3325C95.6016 99.3325 95.0825 98.6019 94.9191 98.4048C94.006 97.2993 92.5545 97.1551 91.2953 98.0203L89.8775 99.0008C89.3681 99.3517 88.9644 99.395 88.676 99.121C88.6616 99.1114 88.5799 98.9912 88.5751 98.9768C88.4549 98.7557 88.1906 98.3952 88.9451 97.8761L91.5068 96.1072C92.0595 95.7275 93.1024 96.1313 93.1024 96.1313L91.7567 94.1942C91.5885 93.949 91.3049 93.7856 91.007 93.7472ZM29.2341 93.9154C29.0294 93.925 28.8477 94.0115 28.7487 94.1797C28.7194 94.2326 28.7276 94.2086 28.7276 94.2086L25.4964 103.529L28.2167 105.245C28.5843 105.48 28.7737 105.528 29.0952 105.341L31.9717 103.139L30.8187 106.889L33.7163 108.72C34.0763 108.946 34.5266 108.917 34.8486 108.749L41.5733 102.414C42.0655 102.015 42.5403 102.077 42.5403 102.077L42.1308 101.837L40.0565 100.525C40.0455 100.515 40.0349 100.515 40.019 100.505C39.7379 100.327 39.5033 100.207 39.2794 100.265L34.7169 104.706L36.3861 99.3373C36.4918 98.8182 37.3238 98.8038 37.3238 98.8038L36.5889 98.3327L35.0553 97.3666C35.0442 97.3618 35.0394 97.3618 35.026 97.3521C34.6367 97.107 34.2719 97.0109 33.9316 97.2272L29.2428 101.577L31.3003 96.3428C31.5651 95.5352 32.4494 95.7227 32.4494 95.7227L31.6675 95.2228L29.9065 94.1124C29.8983 94.1124 29.8868 94.1077 29.868 94.0932C29.6667 93.9635 29.4389 93.9058 29.2341 93.9154ZM82.7933 99.7074C82.4329 99.7315 81.9763 99.8612 81.4236 100.102L74.5364 103.082C74.5364 103.082 75.488 103.255 75.8293 103.856L79.0205 111.224C79.1599 111.743 78.9677 112.306 78.8763 112.426L85.5857 109.547C86.4988 109.153 87.0275 108.72 87.1765 108.268C87.3255 107.807 87.1621 107.023 86.6911 105.932L84.6965 101.577C84.4851 101.097 84.3841 100.919 84.2352 100.63C83.9324 100.053 83.519 99.7747 83.1249 99.717C83.024 99.7026 82.9135 99.6978 82.7933 99.7074ZM43.8009 102.284C43.5231 102.265 43.18 102.375 42.9185 103.236L39.9445 111.811L42.7109 112.772L42.9272 112.796C42.9272 112.796 42.8748 112.416 43.0238 111.868C43.0238 111.868 45.7022 104.086 45.8455 103.74C45.9887 103.389 46.526 103.197 46.526 103.197C46.2554 103.091 45.1764 102.74 44.0542 102.327C43.9812 102.313 43.8937 102.293 43.8009 102.284ZM81.8033 102.678C81.8705 102.673 81.933 102.683 81.9907 102.707C82.1109 102.755 82.2166 102.851 82.3127 103.005C82.4377 103.202 84.1438 107.009 84.1198 107.211C84.1006 107.417 83.9949 107.566 83.8074 107.643L81.1689 108.792L79.6213 105.23C79.5252 104.995 79.2897 104.456 79.0205 103.846L81.6014 102.726C81.6735 102.697 81.7408 102.683 81.8033 102.678ZM47.9976 103.721C47.529 103.759 47.3257 104.125 47.1888 104.567L46.8845 105.942H46.8927L46.7538 106.509C46.7538 106.509 47.3176 106.081 47.9366 106.177L51.4527 106.946L45.5667 111.907L45.2082 113.57L52.8801 115.257C53.3704 115.368 53.7116 115.382 53.8846 114.887L54.4373 112.349C54.4373 112.349 53.8654 112.907 53.231 112.801L49.5111 111.979L55.5331 107.374L55.9705 105.413C55.9705 105.413 48.324 103.735 48.2134 103.726C48.1365 103.716 48.0644 103.716 47.9976 103.721ZM72.8399 103.793C72.5515 103.793 72.2103 103.827 71.8162 103.899L64.5013 105.274C64.5013 105.274 65.4241 105.62 65.5827 106.317L67.2071 115.247L69.2449 114.868C69.6486 114.796 69.9418 114.709 70.0187 114.397L69.4708 111.373L70.8934 111.09L73.3589 114.084L77.0068 113.406C77.0068 113.406 76.3772 113.253 76.0263 112.916L73.8059 110.46C74.3202 110.34 74.7383 110.056 74.8921 109.801C75.142 109.383 75.1516 108.585 74.9353 107.413C74.9353 107.413 74.5172 105.36 74.4355 105.038C74.2769 104.423 73.9309 104.048 73.5512 103.908C73.3686 103.832 73.1331 103.793 72.8399 103.793ZM59.1569 105.322C58.734 105.326 58.4841 105.427 58.3014 105.745L55.61 114.656C55.4418 115.219 54.3172 115.656 54.3172 115.656H58.0083C58.3399 115.656 58.5802 115.43 58.6763 115.122L59.0416 113.853H61.8579L62.2713 114.834C62.4539 115.478 61.8724 115.656 61.8724 115.656H65.9335L61.262 105.322H59.1569ZM71.6191 106.494C71.8066 106.523 71.9508 106.672 72.0373 106.932C72.1142 107.143 72.2247 107.893 72.1574 108.09C72.0949 108.283 71.9604 108.398 71.7537 108.436L70.0668 108.773C69.6823 108.845 69.4035 109.244 69.1728 109.725L68.673 107.023L71.4077 106.494C71.4846 106.485 71.5519 106.48 71.6191 106.494ZM60.2287 109.816L60.815 111.378H59.7817L60.2287 109.816Z" fill="white"/>
<path d="M60.9949 24.7664C58.3641 24.764 55.8073 25.0494 53.3363 25.5817C55.1561 26.5227 56.9722 28.2495 58.1262 31.399L60.9859 27.1872L63.8497 31.399C64.9989 28.2597 66.8103 26.5311 68.627 25.5902C66.1668 25.0572 63.6136 24.7688 60.9943 24.7664H60.9949ZM49.5557 26.6128C38.9475 30.1493 30.5344 38.4787 26.8848 49.0371C31.7425 41.7394 41.2424 33.4461 55.7652 31.8052C54.4862 28.7391 51.8915 27.2947 49.5557 26.6134V26.6128ZM72.3829 26.6212C70.058 27.3079 67.4777 28.7523 66.2071 31.8046C80.6164 33.4322 90.0868 41.6096 94.9776 48.8635C91.2979 38.3945 82.9263 30.1409 72.3829 26.6206V26.6212Z" fill="#E31837"/>
<path d="M73.3696 36.0259C72.0708 36.0541 71.4604 36.4819 71.4604 36.4819L67.2575 38.8348L67.4731 39.6165L68.3899 42.9457C68.3899 42.9457 70.1153 47.7428 74.2191 51.847C81.9701 59.5095 91.8653 70.7216 90.862 80.9712C94.6306 75.3877 96.8655 68.6896 96.9952 61.479C96.368 57.8422 95.2013 54.6367 93.7469 51.8386C91.0435 46.6474 85.818 41.7488 79.3977 37.9606C76.6552 36.3696 74.6685 35.9976 73.3696 36.0259ZM48.5996 36.0301C47.3007 36.0025 45.317 36.3696 42.5757 37.9606C36.1548 41.7458 30.93 46.6462 28.2265 51.8428C26.7312 54.7226 25.5411 58.0314 24.9277 61.8004C25.12 68.9299 27.368 75.5439 31.1204 81.0644C30.0498 70.7901 39.9786 59.5335 47.7507 51.847C51.8575 47.7452 53.5841 42.9457 53.5841 42.9457L54.5009 39.6123L54.7165 38.8348L50.5136 36.4819C50.5136 36.4819 49.899 36.0571 48.6002 36.0301H48.5996ZM60.9849 43.6258C60.5686 43.9232 47.2629 53.5011 41.4018 62.9829C33.4916 75.7795 34.5189 83.1589 36.5651 87.3713C41.6638 92.0597 48.116 95.2975 55.2693 96.4331L58.353 52.7212L60.9212 50.1401L60.9549 50.1064H60.9591L60.9885 50.1401L63.561 52.7212L66.6657 96.3995L66.6237 96.4205C73.831 95.2819 80.3301 92.0164 85.4504 87.274C87.4647 83.0454 88.4181 75.6821 80.5674 62.9823C74.7063 53.4999 61.4036 43.9226 60.9843 43.6252L60.9849 43.6258Z" fill="#002B5C"/>
<path d="M60.9836 29.9875L60.5612 30.8406L59.725 32.5476H59.7207L59.6871 32.6197L59.6535 32.6918L59.2017 33.6129L59.1638 33.6934L59.1554 33.706L58.032 33.7781C56.4394 33.8785 54.8594 34.0978 53.2968 34.3651C52.6035 34.4841 51.9036 34.5863 51.2188 34.7371L53.4278 35.9285L55.6368 37.12L56.321 37.4877L57.0053 37.8554L56.5914 39.3551L56.5661 39.4398L56.3805 40.1325L55.1471 44.6021L57.9521 42.5365L59.8487 41.1341L60.4104 40.7201L60.9679 40.3062V40.2851L60.9848 40.2977L61.0016 40.2851V40.3062L61.5633 40.7201L62.125 41.1341L66.8224 44.6027L65.5932 40.1331L65.4875 39.7444L65.3817 39.3556L64.9678 37.856L65.4112 37.6193L66.3321 37.1206L69.3185 35.5151L70.755 34.7377C70.0683 34.5862 69.3672 34.4847 68.6727 34.3657C67.1071 34.0978 65.5367 33.8785 63.9417 33.7787L62.8141 33.7066L62.793 33.6603L62.7678 33.6141L62.316 32.693L62.2908 32.6383L60.9854 29.9893L60.9836 29.9875ZM60.992 50.143L61.0214 99.6133L66.6223 96.4192L66.6644 96.3982L63.5596 52.72L60.9914 50.143H60.992Z" fill="#C4CED4"/>
</g>
<defs>
<clipPath id="clip0_38_1042">
<rect width="122" height="122" fill="white"/>
</clipPath>
</defs>
</svg>
